<?xml version="1.0" encoding="utf-8"?>
<!-- Generator: Adobe Illustrator 20.0.0, SVG Export Plug-In . SVG Version: 6.00 Build 0)  -->
<svg version="1.1" xmlns="https://www.w3.org/2000/svg" xmlns:xlink="https://www.w3.org/1999/xlink" x="0px" y="0px"
	 viewBox="0 0 248 171" enable-background="new 0 0 248 171" xml:space="preserve">
<g id="Inspo">
</g>
<g id="Layer_2">
	<path fill="#B1B4C5" d="M229,136H19c-10.5,0-19-8.5-19-19V19C0,8.5,8.5,0,19,0h210c10.5,0,19,8.5,19,19v98
		C248,127.5,239.5,136,229,136z"/>
	<path fill="#81818A" d="M228.3,119.9H19.6c-6.4,0-11.5-5.1-11.5-11.5V22.2c0-6.4,5.1-11.5,11.5-11.5h208.7
		c6.4,0,11.5,5.1,11.5,11.5v86.2C239.8,114.8,234.7,119.9,228.3,119.9z"/>
	<circle fill="#FFFFFF" cx="124" cy="128.3" r="4.2"/>
	<rect x="115.7" y="136" fill="#B1B4C5" width="16.7" height="14.3"/>
	<polygon fill="#B1B4C5" points="115.7,150.3 73.7,150.3 73.7,171 174.3,171 174.3,150.3 	"/>
	<rect x="47" y="43" fill="#54555C" width="46" height="37.4"/>
	<text transform="matrix(1 0 0 1 50 52.75)" fill="#FFFFFF" font-family="'MyriadPro-Regular'" font-size="12px">&gt;_</text>
	<rect x="118.3" y="24.7" fill="#54555C" width="87.8" height="87.8"/>
	<rect x="118.3" y="24.7" fill="#D8CCD1" width="87.8" height="9.3"/>
	<text transform="matrix(1.5285 0 0 1 119.833 31.1011)" fill="#54555C" font-family="'Noteworthy-Light'" font-size="5.5831px">sublime text</text>
	<text transform="matrix(1 0 0 1 124 43)"><tspan x="0" y="0" fill="#D8CCD1" font-family="'Noteworthy-Light'" font-size="6px">body { </tspan><tspan x="0" y="7.2" fill="#D8CCD1" font-family="'Noteworthy-Light'" font-size="6px">   background: #54555C;</tspan><tspan x="0" y="14.4" fill="#D8CCD1" font-family="'Noteworthy-Light'" font-size="6px">   margin: 0; </tspan><tspan x="0" y="21.6" fill="#D8CCD1" font-family="'Noteworthy-Light'" font-size="6px">}</tspan></text>
	<text transform="matrix(1 0 0 1 123.9998 76)"><tspan x="0" y="0" fill="#D8CCD1" font-family="'Noteworthy-Light'" font-size="6px">.wrapper {</tspan><tspan x="0" y="7.2" fill="#D8CCD1" font-family="'Noteworthy-Light'" font-size="6px">   margin: 0 auto;   </tspan><tspan x="0" y="14.4" fill="#D8CCD1" font-family="'Noteworthy-Light'" font-size="6px">   padding: 20px;</tspan><tspan x="0" y="21.6" fill="#D8CCD1" font-family="'Noteworthy-Light'" font-size="6px">   background: #D8CCD1 </tspan><tspan x="0" y="28.8" fill="#D8CCD1" font-family="'Noteworthy-Light'" font-size="6px">}</tspan></text>
	<g>
		<g>
			<path fill="#B1B4C5" d="M119.4,145.7c0.1,1.7,0.2,3.5,0.3,5.2c1.6-0.4,3.1-0.8,4.7-1.3c-0.8-1.1-1.5-2.3-2.3-3.4
				c-1.1-1.6-4.2-1.7-4.6,0.6c-0.1,0.9-0.3,1.9-0.4,2.8c1.6,0,3.2,0,4.8,0c-0.1-0.3-0.2-0.7-0.3-1c-0.8-2.6-5.1-2.2-4.9,0.7
				c0,0.5,0.1,1,0.1,1.5c0.3,3.2,4.7,3.2,5,0c0-0.1,0-0.2,0-0.3c-0.2,0.6-0.5,1.2-0.7,1.8c0.1-0.1,0.2-0.2,0.3-0.2
				c-0.6,0.2-1.2,0.5-1.8,0.7c0.1,0,0.2,0,0.3,0c-0.6-0.2-1.2-0.5-1.8-0.7c0.1,0.1,0.2,0.2,0.2,0.3c-0.2-0.6-0.5-1.2-0.7-1.8
				c0,0.1,0,0.2,0,0.4c0.2-0.6,0.5-1.2,0.7-1.8c-0.1,0.1-0.2,0.2-0.2,0.3c1.3,1,2.6,2,3.9,3c0.1-0.3,0.3-0.6,0.4-1
				c-0.9,0.4-1.9,0.8-2.8,1.1c0.8,0.3,1.6,0.7,2.4,1c1.3,0.6,2.6-0.6,3.1-1.7c0.1-0.4,0.3-0.7,0.4-1.1c-1.2,0.5-2.4,1-3.7,1.5
				c0.8,0.5,1.7,0.9,2.5,1.4c1.4,0.7,3.3,0.1,3.7-1.5c0.1-0.3,0.1-0.6,0.2-0.9c-1.2,0.5-2.4,1-3.7,1.5c0.5,0.3,1,0.6,1.5,1
				c2.3,1.5,4.4-1.3,3.4-3.4c-0.1-0.1-0.1-0.3-0.2-0.4c0.1,0.6,0.2,1.3,0.3,1.9c-0.1,0.1-0.2,0.3-0.3,0.4c-0.6,0.2-1.2,0.5-1.8,0.7
				c-0.4-0.2-0.8-0.5-1.2-0.7c1.1,2,3.9,1.3,4.6-0.6c0.1-0.3,0.2-0.5,0.3-0.8c-1.5,0.2-3,0.4-4.6,0.6c0.2,0.3,0.4,0.5,0.5,0.8
				c0.7,1.1,2.2,1.7,3.4,0.9c0.1-0.1,0.1-0.1,0.2-0.2c-0.8,0-1.7,0-2.5,0c0.1,0.1,0.2,0.1,0.3,0.2c-0.4-0.7-0.8-1.4-1.2-2.2
				c0,0.1,0,0.2,0,0.3c0,3.2,5,3.2,5,0c0-0.1,0-0.2,0-0.3c0-0.9-0.5-1.7-1.2-2.2c-0.1-0.1-0.2-0.1-0.3-0.2c-0.8-0.4-1.8-0.5-2.5,0
				c-0.1,0.1-0.1,0.1-0.2,0.2c1.1,0.3,2.3,0.6,3.4,0.9c-0.2-0.3-0.4-0.5-0.5-0.8c-1.2-1.8-3.9-1.5-4.6,0.6c-0.1,0.3-0.2,0.5-0.3,0.8
				c1.5-0.2,3-0.4,4.6-0.6c-0.8-1.6-2.8-2.3-4.4-1.4c-1.7,0.9-1.8,2.9-1.1,4.5c1.1-1.1,2.3-2.3,3.4-3.4c-0.5-0.3-1-0.6-1.5-1
				c-1.3-0.8-3.3,0-3.7,1.5c-0.1,0.3-0.1,0.6-0.2,0.9c1.2-0.5,2.4-1,3.7-1.5c-0.8-0.5-1.7-0.9-2.5-1.4c-1.5-0.8-3.1,0-3.7,1.5
				c-0.1,0.4-0.3,0.7-0.4,1.1c1-0.6,2.1-1.2,3.1-1.7c-0.8-0.3-1.6-0.7-2.4-1c-0.9-0.4-2.4,0.2-2.8,1.1c-0.1,0.3-0.3,0.6-0.4,1
				c-1,2.4,1.8,5.3,3.9,3c1.4-1.5,1.3-4.1-0.8-4.9c-2.2-0.9-3.9,0.9-4.1,2.9c1.7,0,3.3,0,5,0c0-0.5-0.1-1-0.1-1.5
				c-1.6,0.2-3.3,0.4-4.9,0.7c0.1,0.3,0.2,0.7,0.3,1c0.6,2.2,4.4,2.6,4.8,0c0.1-0.9,0.3-1.9,0.4-2.8c-1.5,0.2-3,0.4-4.6,0.6
				c0.8,1.1,1.5,2.3,2.3,3.4c1.3,1.9,4.8,1.4,4.7-1.3c-0.1-1.7-0.2-3.5-0.3-5.2C124.2,142.5,119.2,142.5,119.4,145.7L119.4,145.7z"
				/>
		</g>
	</g>
	<g>
		<g>
			<path fill="#B1B4C5" d="M124.7,156.8c-1.4-1.6-1.7-3.3-0.8-5c0.4-1.2-0.5-2.9-1.7-3.1c0,0.2,0,0.3,0,0.5
				c-1.3,0.2-2.6,0.3-3.9,0.5c0.2-0.3,0.3-0.5,0.5-0.8c0.8-0.2,1.6-0.4,2.4-0.6c0.4,0.7,0.7,1.4,1.1,2c-1.6-0.2-3.3-0.4-4.9-0.7
				c0,0.2,0,0.4-0.1,0.6c0.4-0.7,0.8-1.4,1.2-2.2c0.3,0,0.6,0,0.8,0c-0.2,1.6-0.4,3.3-0.7,4.9c3.6,0,7.2,0,10.7,0
				c2.6,0,3.2-3.3,1.3-4.7c-4.5-3.2-7.8-7.5-9.8-12.7c-0.8,1.1-1.6,2.1-2.4,3.2c4.2-0.2,11.6,1.3,13.5-3.5c0.8-2.1-1.9-3.9-3.7-2.8
				c-0.3,0.2-0.5,0.3-0.8,0.5c-2.7,1.7-0.2,6,2.5,4.3c0.3-0.2,0.5-0.3,0.8-0.5c-1.2-0.9-2.4-1.9-3.7-2.8c0.1-0.4-7.9-0.2-8.7-0.2
				c-1.5,0.1-3,1.6-2.4,3.2c2.5,6.5,6.4,11.6,12.1,15.7c0.4-1.6,0.8-3.1,1.3-4.7c-3.6,0-7.2,0-10.7,0c-2.7,0-3.5,4.4-0.7,4.9
				c2.5,0.5,4.1-0.8,4.3-3.3c0.3-2.9-4.1-3.3-4.9-0.7c-0.7,2.5,1.5,4.9,4.1,4c3.2-1.2,2.2-5,0.3-6.8c-1.2-1.1-3.1-0.9-3.9,0.5
				c-1.8,3-0.6,6.3,3,6.9c-0.6-1-1.2-2.1-1.7-3.1c-1.3,3.7-0.4,7,2.1,9.9C123.3,162.8,126.8,159.2,124.7,156.8L124.7,156.8z"/>
		</g>
	</g>
</g>
</svg>
