<?xml version="1.0" encoding="utf-8"?>
<!-- Generator: Adobe Illustrator 20.0.0, SVG Export Plug-In . SVG Version: 6.00 Build 0)  -->
<svg version="1.1" xmlns="https://www.w3.org/2000/svg" xmlns:xlink="https://www.w3.org/1999/xlink" x="0px" y="0px"
	 viewBox="0 0 292.8 325.6" enable-background="new 0 0 292.8 325.6" xml:space="preserve">
<g id="Layer_1" display="none">
	<g display="inline">
		<g>
			<path fill="#9B9A9A" d="M1,32.4C20.5,9,51.8-2.7,81.8,2.4c0.8,0.1,1.1-1.1,0.3-1.2C51.7-4,19.9,7.8,0.2,31.5
				C-0.4,32.1,0.5,33,1,32.4L1,32.4z"/>
		</g>
	</g>
	<g display="inline">
		<g>
			<path fill="#9B9A9A" d="M31,95.7c0.2-2.1,0.4-4.2,0.6-6.3c0.1-0.7-1.1-0.8-1.2-0.2c-0.5,2.3-1,4.5-1.6,6.8
				c-0.2,0.8,1,1.1,1.2,0.3c1.1-3.3,2.1-6.6,3.2-9.9c0.3-0.8-0.9-1.1-1.2-0.3c-0.7,1.9-1.4,3.7-2.1,5.6c0.4,0.1,0.8,0.1,1.2,0.2
				c0.7-5.6,2.1-9.8,6.4-13.6c3.1-2.7,6.5-5.1,10-7.5c5.7-3.9,11.6-7.5,17-11.9c0.5-0.4,0-1.3-0.6-1c-3.6,1.5-7.3,3-10.9,4.5
				c0.2,0.3,0.4,0.7,0.6,1c12.3-11.5,29.4-16.4,46-13.2c0-0.4,0-0.8,0-1.2c-10.2,1.8-20.5,3.5-30.7,5.3c0.2,0.4,0.3,0.8,0.5,1.1
				c16-11.5,37.8-12.3,54.5-2c0.1-0.4,0.2-0.8,0.3-1.2c-6.3-0.5-12.7-1-19-1.5c0,0.4,0,0.8,0,1.2c22.4,0,43.6,11.6,55.7,30.5
				c0.4,0.7,1.5,0,1.1-0.6c-2.6-4-5.2-8-7.7-12.1c-0.4-0.6-1.4-0.2-1.1,0.5c4.9,13.3,9.9,26.7,14.8,40c0.3,0.7,1.5,0.4,1.2-0.3
				c-0.6-1.7-1.2-3.3-1.8-5c-0.2-0.6-1-0.6-1.2,0c-4.3,11.4-8.6,22.8-12.9,34.2c-0.3,0.8,0.9,1.1,1.2,0.3
				c4.3-11.4,8.6-22.8,12.9-34.2c-0.4,0-0.8,0-1.2,0c0.6,1.7,1.2,3.3,1.8,5c0.4-0.1,0.8-0.2,1.2-0.3c-4.9-13.3-9.9-26.7-14.8-40
				c-0.4,0.2-0.8,0.3-1.1,0.5c2.6,4,5.2,8,7.7,12.1c0.4-0.2,0.7-0.4,1.1-0.6C149.5,62.8,128,51,105.1,50.9c-0.8,0-0.8,1.2,0,1.2
				c6.3,0.5,12.7,1,19,1.5c0.6,0.1,0.8-0.9,0.3-1.2c-17.1-10.5-39.5-9.7-55.8,2c-0.6,0.4-0.2,1.3,0.5,1.1
				c10.2-1.8,20.5-3.5,30.7-5.3c0.6-0.1,0.6-1.1,0-1.2c-17-3.3-34.5,1.7-47.2,13.5c-0.4,0.4,0,1.3,0.6,1c3.6-1.5,7.3-3,10.9-4.5
				c-0.2-0.3-0.4-0.7-0.6-1c-7.5,6-15.9,10.7-23.5,16.6c-2.7,2.1-5.7,4.2-7.4,7.2c-1.8,3-2.3,6.7-2.7,10.1c-0.1,0.7,1,0.8,1.2,0.2
				c0.7-1.9,1.4-3.7,2.1-5.6c-0.4-0.1-0.8-0.2-1.2-0.3c-1.1,3.3-2.1,6.6-3.2,9.9c0.4,0.1,0.8,0.2,1.2,0.3c0.5-2.3,1-4.5,1.6-6.8
				c-0.4-0.1-0.8-0.1-1.2-0.2c-0.2,2.1-0.4,4.2-0.6,6.3C29.7,96.5,30.9,96.5,31,95.7L31,95.7z"/>
		</g>
	</g>
	<g display="inline">
		<g>
			<path fill="#9B9A9A" d="M35.3,116.2c-8.3-26.4,7-55.3,32.2-65.6c-0.2-0.3-0.4-0.7-0.6-1c-9,9.7-18,19.5-27,29.2
				c0.3,0.3,0.6,0.6,0.9,0.9c10.6-12,23.2-21.9,37.5-29.2c-0.2-0.4-0.4-0.7-0.6-1.1c-21.7,15-42.9,36.8-40.6,65.2
				c0.1,0.8,1.3,0.8,1.2,0c-2.3-27.9,18.7-49.4,40-64.1c0.7-0.5,0.1-1.5-0.6-1.1c-14.4,7.4-27,17.3-37.7,29.4
				c-0.5,0.6,0.3,1.5,0.9,0.9c9-9.7,18-19.5,27-29.2c0.4-0.4,0-1.3-0.6-1c-25.8,10.5-41.5,40.1-33,67.1
				C34.3,117.2,35.5,116.9,35.3,116.2L35.3,116.2z"/>
		</g>
	</g>
	<g display="inline">
		<g>
			<path fill="#9B9A9A" d="M35.1,81.6c-6.6,11.2-7.7,24.2-3.4,36.4c0.3,0.8,1.5,0.4,1.2-0.3c-4.3-11.9-3.2-24.6,3.2-35.4
				C36.6,81.5,35.5,80.9,35.1,81.6L35.1,81.6z"/>
		</g>
	</g>
	<g display="inline">
		<g>
			<path fill="#9B9A9A" d="M156.6,148.2c13.9-14.3,20.8-34.9,16.7-54.7c-4.5-21.3-22.4-38.3-44.2-40.7c-0.7-0.1-0.8,1-0.2,1.2
				c15.4,5.5,27.5,18,32.6,33.6c5.5,17.1,1.5,35.3-9.6,49.2c-0.5,0.6,0.4,1.5,0.9,0.9c11.4-14.3,15.6-32.9,9.9-50.5
				c-5.2-16.1-17.6-28.8-33.5-34.5c-0.1,0.4-0.1,0.8-0.2,1.2c21.8,2.3,39.3,19.7,43.2,41c3.5,18.9-3.4,38.5-16.6,52.2
				C155.1,147.9,156,148.8,156.6,148.2L156.6,148.2z"/>
		</g>
	</g>
	<g display="inline">
		<g>
			<path fill="#9B9A9A" d="M156.8,145.6c17.9-26.1,16.3-62-6.3-84.9C129,39,93.4,36.4,69.1,55.3c-0.6,0.5,0.3,1.4,0.9,0.9
				c24.2-18.9,59.8-15.7,80.7,6.5c21.3,22.6,22.4,57.1,5.1,82.3C155.3,145.7,156.4,146.3,156.8,145.6L156.8,145.6z"/>
		</g>
	</g>
	<g display="inline">
		<g>
			<path fill="#9B9A9A" d="M68.4,48.9c-23,18.6-47.1,40.9-41.5,73.4c0.1,0.8,1.3,0.5,1.2-0.3c-5.5-32,18.7-54,41.2-72.2
				C69.9,49.3,69.1,48.4,68.4,48.9L68.4,48.9z"/>
		</g>
	</g>
	<g display="inline">
		<g>
			<path fill="#9B9A9A" d="M68.3,41.9c25.8,0.1,52.8,8,71.2,26.9c18.4,18.9,26.3,48.1,15.3,72.8c-0.3,0.7,0.8,1.4,1.1,0.6
				c10.7-24.3,3.9-52.7-13.4-72.1c-18.6-20.7-47-29.4-74.2-29.5C67.5,40.7,67.5,41.9,68.3,41.9L68.3,41.9z"/>
		</g>
	</g>
	<g display="inline">
		<g>
			<path fill="#9B9A9A" d="M64.1,49.8c17.1-10.1,37.8-11.7,56.2-4.4c0.1-0.4,0.1-0.8,0.2-1.2c-13.9,1-27.9,2-41.8,2.9
				c0.1,0.4,0.2,0.8,0.3,1.2c16.6-7.6,36.4-7.1,52.3,2.2c14.2,8.3,24,22.6,27.1,38.6c0.2,0.8,1.4,0.5,1.2-0.3
				c-3.3-16.8-13.9-31.8-29-40.1c-16.1-8.8-35.7-9-52.3-1.4c-0.6,0.3-0.3,1.2,0.3,1.2c13.9-1,27.9-2,41.8-2.9c0.7-0.1,0.8-1,0.2-1.2
				c-18.7-7.3-39.9-5.6-57.2,4.6C62.8,49.1,63.4,50.2,64.1,49.8L64.1,49.8z"/>
		</g>
	</g>
	<g display="inline">
		<g>
			<path fill="#9B9A9A" d="M36.9,114c-0.9-0.3-1.8-0.5-2.6-0.8c-0.1,0.4-0.2,0.8-0.3,1.2c0.9,0.3,1.8,0.5,2.7,0.8
				C37.4,115.5,37.7,114.3,36.9,114c-0.9-0.3-1.7-0.5-2.6-0.8c-0.8-0.2-1.1,1-0.3,1.2c0.9,0.3,1.8,0.5,2.6,0.8
				C37.3,115.5,37.6,114.3,36.9,114L36.9,114z"/>
		</g>
	</g>
	<g display="inline">
		<g>
			<path fill="#9B9A9A" d="M39.4,114c-2.6-0.8-5.2-1.5-7.7-2.3c-0.8-0.2-1.1,0.9-0.3,1.2c2.2,0.8,4.4,1.5,6.6,2.3
				c0.8,0.3,1.1-0.9,0.3-1.2c-2.2-0.8-4.4-1.5-6.6-2.3c-0.1,0.4-0.2,0.8-0.3,1.2c2.6,0.8,5.2,1.5,7.7,2.3
				C39.9,115.4,40.2,114.2,39.4,114L39.4,114z"/>
		</g>
	</g>
	<g display="inline">
		<g>
			<path fill="#9B9A9A" d="M55.2,79.6c1.8,1.9,3.6,3.8,5.4,5.7c0.5,0.5,1.4-0.2,1-0.8c-1.6-2.4-3.3-4.9-4.9-7.3
				c-0.4-0.6-1.4-0.2-1.1,0.5c2.1,5.8,4.2,11.5,6.3,17.3c0.3,0.8,1.4,0.5,1.2-0.3c-1.1-5.4-2.3-10.8-3.4-16.3
				c-0.4,0.1-0.8,0.2-1.2,0.3c3.2,8.8,6.4,17.6,9.6,26.4c0.4-0.1,0.8-0.2,1.2-0.3c-2.4-6-4.9-12-7.3-18c-0.3-0.7-1.5-0.4-1.2,0.3
				c3.1,7.6,6.1,15.2,9.2,22.8c0.4-0.2,0.8-0.3,1.1-0.5c-3.7-7-7.5-13.9-11.2-20.9c-0.3-0.6-1.4-0.2-1.1,0.5
				c0.4,1.3,0.9,2.6,1.3,3.9c0.3,0.8,1.4,0.4,1.2-0.3c-1.9-6.1-3.6-14.2-9.5-17.8c-3.8-2.4-8.4-2.4-10.9,1.7
				c-0.3,0.4,0.2,1.1,0.7,0.9c2.7-0.9,5.3-1.8,8-2.8c0.8-0.3,0.5-1.4-0.3-1.2c-8.5,2.2-17.1,4.4-25.6,6.6c-0.8,0.2-0.4,1.3,0.3,1.2
				c5.1-0.7,10.2-1.5,15.2-2.2c-0.1-0.4-0.2-0.8-0.3-1.2c-6.8,2-13.6,4-20.5,6c-0.8,0.2-0.4,1.3,0.3,1.2c3.5-0.6,7.1-1.2,10.6-1.9
				c-0.1-0.4-0.2-0.8-0.3-1.2c-6.5,1.7-13,3.5-19.5,5.2c-0.7,0.2-0.6,1.3,0.2,1.2c3-0.3,6-0.7,9-1c-0.1-0.4-0.1-0.8-0.2-1.2
				c-3.6,0.6-7.2,1.2-10.8,1.8c-0.7,0.1-0.5,1.2,0.2,1.2c3,0.2,6,0.5,9.1,0.7c-0.1-0.4-0.1-0.8-0.2-1.2c-4,0.7-8,1.5-11.9,2.2
				c-0.5,0.1-0.6,0.7-0.3,1c5.2,4.5,10.4,9,15.6,13.5c0.1-0.4,0.3-0.7,0.4-1.1c-4.7-0.4-8.3-3.2-10.1-7.4c-0.3,0.3-0.7,0.5-1,0.8
				c5,5.1,10.1,10.2,15.1,15.3c0.3-0.3,0.5-0.7,0.8-1c-4.3-1.9-7.8-4.5-10.6-8.3c-0.3,0.3-0.7,0.5-1,0.8c5.2,4.1,10.4,8.3,15.6,12.4
				c0.6,0.5,1.5-0.3,0.9-0.9c-3.5-3.2-7-6.5-10.4-9.7c-0.3,0.3-0.5,0.7-0.8,1c2.9,1.9,5.8,3.8,8.7,5.7c0.2-0.4,0.4-0.7,0.6-1.1
				c-3.1-1.8-6.2-3.6-9.2-5.4c-0.2,0.4-0.3,0.8-0.5,1.1c6.9,2.4,13.8,4.8,20.7,7.1c0.8,0.3,1.1-0.9,0.3-1.2
				c-6.9-2.4-13.8-4.8-20.7-7.1c-0.7-0.2-1.1,0.8-0.5,1.1c3.1,1.8,6.2,3.6,9.2,5.4c0.7,0.4,1.3-0.6,0.6-1.1
				c-2.9-1.9-5.8-3.8-8.7-5.7c-0.6-0.4-1.3,0.5-0.8,1c3.5,3.2,7,6.5,10.4,9.7c0.3-0.3,0.6-0.6,0.9-0.9c-5.2-4.1-10.4-8.3-15.6-12.4
				c-0.5-0.4-1.4,0.1-1,0.8c3,4,6.5,6.8,11.1,8.8c0.6,0.3,1.3-0.4,0.8-1c-5-5.1-10.1-10.2-15.1-15.3c-0.5-0.5-1.2,0.1-1,0.8
				c2.1,4.8,6,7.6,11.2,8.1c0.5,0.1,0.8-0.7,0.4-1.1c-4-3.5-8-6.9-12-10.4c-2.4-2.1-2.8-2.2,0.4-2.8c2.6-0.5,5.1-1,7.7-1.4
				c0.7-0.1,0.5-1.2-0.2-1.2c-3-0.2-6-0.5-9.1-0.7c0.1,0.4,0.1,0.8,0.2,1.2c3.6-0.6,7.2-1.2,10.8-1.8c0.7-0.1,0.5-1.3-0.2-1.2
				c-3,0.3-6,0.7-9,1c0.1,0.4,0.1,0.8,0.2,1.2c6.5-1.7,13-3.5,19.5-5.2c0.8-0.2,0.4-1.3-0.3-1.2c-3.5,0.6-7.1,1.2-10.6,1.9
				c0.1,0.4,0.2,0.8,0.3,1.2c6.8-2,13.6-4,20.5-6c0.8-0.2,0.4-1.3-0.3-1.2c-5.1,0.7-10.2,1.5-15.2,2.2c0.1,0.4,0.2,0.8,0.3,1.2
				c8.5-2.2,17.1-4.4,25.6-6.6c-0.1-0.4-0.2-0.8-0.3-1.2c-2.7,0.9-5.3,1.8-8,2.8c0.2,0.3,0.5,0.6,0.7,0.9c3.7-6.1,10.7-1,13.2,3.1
				c2.4,3.9,3.6,8.4,4.9,12.7c0.4-0.1,0.8-0.2,1.2-0.3c-0.4-1.3-0.9-2.6-1.3-3.9c-0.4,0.2-0.8,0.3-1.1,0.5c3.7,7,7.5,13.9,11.2,20.9
				c0.3,0.6,1.4,0.2,1.1-0.5c-3.1-7.6-6.1-15.2-9.2-22.8c-0.4,0.1-0.8,0.2-1.2,0.3c2.4,6,4.9,12,7.3,18c0.3,0.7,1.5,0.4,1.2-0.3
				c-3.2-8.8-6.4-17.6-9.6-26.4c-0.3-0.8-1.4-0.5-1.2,0.3c1.1,5.4,2.3,10.8,3.4,16.3c0.4-0.1,0.8-0.2,1.2-0.3
				c-2.1-5.8-4.2-11.5-6.3-17.3c-0.4,0.2-0.8,0.3-1.1,0.5c1.6,2.4,3.3,4.9,4.9,7.3c0.3-0.3,0.7-0.5,1-0.8c-1.8-1.9-3.6-3.8-5.4-5.7
				C55.5,78.1,54.6,79,55.2,79.6L55.2,79.6z"/>
		</g>
	</g>
	<g display="inline">
		<g>
			<path fill="#9B9A9A" d="M42.5,108.9c-1.8,1.3-3.5,2.7-5.3,4c-0.4,0.3-0.4,1.1,0.1,1.1c4.4,0.6,8.8,1.2,13.1,1.9
				c0.8,0.1,1.1-1.1,0.3-1.2c-4.4-0.6-8.8-1.2-13.1-1.9c0,0.4,0.1,0.8,0.1,1.1c1.8-1.3,3.5-2.7,5.3-4
				C43.7,109.5,43.1,108.4,42.5,108.9L42.5,108.9z"/>
		</g>
	</g>
	<g display="inline">
		<g>
			<path fill="#9B9A9A" d="M51,114c-0.7-0.1-1.4-0.3-2-0.4c-0.1,0.4-0.1,0.8-0.2,1.2c0.8,0,1.6,0,2.5,0c0.8,0,0.8-1.2,0-1.2
				c-0.8,0-1.6,0-2.5,0c-0.7,0-0.9,1.1-0.2,1.2c0.7,0.1,1.4,0.3,2,0.4C51.4,115.4,51.8,114.2,51,114L51,114z"/>
		</g>
	</g>
	<g display="inline">
		<g>
			<path fill="#9B9A9A" d="M68.8,109.6c-2.2-3.2-4.4-6.4-6.5-9.6c-0.5-0.7-1.5-0.1-1.1,0.6c1.7,3.3,3.4,6.6,5.1,9.9
				c0.4,0.7,1.4,0.1,1.1-0.6c-1.7-3.3-3.4-6.6-5.1-9.9c-0.4,0.2-0.7,0.4-1.1,0.6c2.2,3.2,4.4,6.4,6.5,9.6
				C68.1,110.9,69.2,110.3,68.8,109.6L68.8,109.6z"/>
		</g>
	</g>
	<g display="inline">
		<g>
			<path fill="#9B9A9A" d="M60.8,92.4c2.5,5.8,4.9,11.7,7.4,17.5c0.3,0.7,1.4,0.1,1.1-0.6c-2.5-5.8-4.9-11.7-7.4-17.5
				C61.5,91.1,60.5,91.7,60.8,92.4L60.8,92.4z"/>
		</g>
	</g>
	<g display="inline">
		<g>
			<path fill="#9B9A9A" d="M66.7,107.9c-7.9-3.7-15.7-7.4-23.6-11.2c-0.7-0.3-1.3,0.6-0.6,1.1c5,3.3,10.1,6.7,15.1,10
				c0.2-0.4,0.4-0.7,0.6-1.1c-7.6-3.2-15.3-6.5-22.9-9.7c-0.2,0.4-0.3,0.8-0.5,1.1c4.9,1.4,9.7,2.8,14.6,4.2
				c0.1-0.4,0.2-0.8,0.3-1.2c-10.5-2.7-21-5.4-31.5-8.1c-0.8-0.2-1.1,1-0.3,1.2c6.5,2,12.9,4,19.4,6.1c0.1-0.4,0.2-0.8,0.3-1.2
				c-8.9-2.5-17.9-5.1-26.8-7.6c-0.1,0.4-0.2,0.8-0.3,1.2c7.3,1.1,14.7,2.2,22,3.3c0.8,0.1,1.1-1.1,0.3-1.2c-5.3-1-10.5-2-15.8-3
				c-0.8-0.1-1.1,1.1-0.3,1.2c5.3,1,10.5,2,15.8,3c0.1-0.4,0.2-0.8,0.3-1.2c-7.3-1.1-14.7-2.2-22-3.3c-0.8-0.1-1.1,1-0.3,1.2
				c8.9,2.5,17.9,5.1,26.8,7.6c0.8,0.2,1.1-1,0.3-1.2c-6.5-2-12.9-4-19.4-6.1c-0.1,0.4-0.2,0.8-0.3,1.2c10.5,2.7,21,5.4,31.5,8.1
				c0.8,0.2,1.1-1,0.3-1.2c-4.9-1.4-9.7-2.8-14.6-4.2c-0.7-0.2-1.1,0.9-0.5,1.1c7.6,3.2,15.3,6.5,22.9,9.7c0.7,0.3,1.3-0.6,0.6-1.1
				c-5-3.3-10.1-6.7-15.1-10c-0.2,0.4-0.4,0.7-0.6,1.1c7.9,3.7,15.7,7.4,23.6,11.2C66.8,109.4,67.4,108.3,66.7,107.9L66.7,107.9z"/>
		</g>
	</g>
	<g display="inline">
		<g>
			<path fill="#9B9A9A" d="M107.1,79.6c-4.3-3.5-11.9-6.2-16.1-1c-2.8,3.5-2.1,9,0.2,12.5c2.3,3.6,6.7,5.3,10.6,3.2
				c3.9-2.1,5.4-7.1,4.8-11.3c-0.6-4.6-4.1-8.7-9.1-8.4c-5,0.3-8.9,5.1-9.8,9.7c-2.6,12.5,13.6,14.6,19.8,6
				c8.4-11.6-10.7-22.3-19.4-13.2c-0.6,0.6,0.3,1.5,0.9,0.9c8.9-9.3,26.6,3.9,15.8,13.4c-4.1,3.6-11.6,4.8-14.9-0.5
				c-3-4.7-0.1-11.7,4.5-14.2c11.9-6.6,15.7,16.9,3.9,17.1c-4.9,0.1-7.8-5.3-7.8-9.6c-0.1-9.2,10.3-8.3,15.7-3.9
				C106.8,81,107.7,80.1,107.1,79.6L107.1,79.6z"/>
		</g>
	</g>
	<g display="inline">
		<g>
			<path fill="#9B9A9A" d="M154.8,141c8.1-10.1,14.9-22.1,16.4-35.1c1.4-12-3.1-24.9-14.9-29.8c-0.7-0.3-1.1,0.9-0.3,1.2
				c12.9,5.4,16,20.5,13.2,33c-2.4,11-8.3,21.2-15.3,29.9C153.4,140.7,154.3,141.6,154.8,141L154.8,141z"/>
		</g>
	</g>
	<g display="inline">
		<g>
			<path fill="#9B9A9A" d="M34.3,116.5c-1.4-1.8-4.7-5.8-7.4-3.6c-2.3,1.9-2.1,6.5-2,9.1c0,0.8,1.3,0.8,1.2,0
				c-0.1-2.3-0.2-5.3,1-7.4c1.6-3,5.1,1.3,6.3,2.8C33.9,118,34.8,117.1,34.3,116.5L34.3,116.5z"/>
		</g>
	</g>
	<g display="inline">
		<g>
			<path fill="#9B9A9A" d="M76.8,321.2c9.5-0.2,19-0.4,28.5-0.6c0.8,0,0.8-1.3,0-1.2c-9.5,0.2-19,0.4-28.5,0.6
				C76,319.9,76,321.2,76.8,321.2L76.8,321.2z"/>
		</g>
	</g>
	<g display="inline">
		<g>
			<path fill="#9B9A9A" d="M77.2,321.6c4.1,0.2,8.2,0.3,12.2,0.2c0.8,0,0.8-1.2,0-1.2c-4-0.1-7.9-0.1-11.9-0.2c-0.8,0-0.8,1.2,0,1.2
				c4,0.1,7.9,0.1,11.9,0.2c0-0.4,0-0.8,0-1.2c-4.1,0.1-8.2,0-12.2-0.2C76.4,320.3,76.4,321.5,77.2,321.6L77.2,321.6z"/>
		</g>
	</g>
	<g display="inline">
		<g>
			<path fill="#9B9A9A" d="M180.2,322c9.4-0.8,18.8-1.7,28.1-2.9c0.8-0.1,0.8-1.3,0-1.2c-9.3,1.1-18.7,2.1-28.1,2.9
				C179.4,320.8,179.4,322.1,180.2,322L180.2,322z"/>
		</g>
	</g>
	<g display="inline">
		<g>
			<path fill="#9B9A9A" d="M194.1,317.5c17.9-1.4,35.3-5.6,51.8-12.6c-0.2-0.3-0.5-0.6-0.7-0.9c-1.1,1.5-2.1,3-3.2,4.5
				c-0.4,0.6,0.3,1.1,0.9,0.9c9.8-4.8,19.7-9.5,29.5-14.3c0.7-0.3,0.1-1.4-0.6-1.1c-9.8,4.8-19.7,9.5-29.5,14.3
				c0.3,0.3,0.6,0.6,0.9,0.9c1.1-1.5,2.1-3,3.2-4.5c0.3-0.4-0.2-1.1-0.7-0.9c-16.4,6.9-33.7,11.1-51.5,12.5
				C193.3,316.3,193.3,317.6,194.1,317.5L194.1,317.5z"/>
		</g>
	</g>
	<g display="inline">
		<g>
			<path fill="#9B9A9A" d="M156.7,147.4c0.2-1.3,0.3-2.7,0.5-4c0.1-0.7-1-0.8-1.2-0.2c-0.2,0.7-0.3,1.3-0.5,2
				c-0.1,0.8,1.1,1.1,1.2,0.3c0.1-0.7,0.3-1.4,0.5-2c-0.4-0.1-0.8-0.1-1.2-0.2c-0.2,1.3-0.3,2.7-0.5,4
				C155.4,148.2,156.6,148.2,156.7,147.4L156.7,147.4z"/>
		</g>
	</g>
	<g display="inline">
		<g>
			<path fill="#9B9A9A" d="M264.1,137.3c18.4,3.9,21.9,24.1,23.5,40c0.1,0.8,1.3,0.8,1.2,0c-1.6-16.5-5.4-37.1-24.4-41.2
				C263.7,136,263.4,137.2,264.1,137.3L264.1,137.3z"/>
		</g>
	</g>
	<g display="inline">
		<g>
			<path fill="#9B9A9A" d="M263.8,137.4c2.1,0.6,4.2,1.3,6.2,2.1c0-0.4,0.1-0.8,0.1-1.1c-1.2,0.4-2.4,0.7-3.7,1
				c-0.8,0.2-0.5,1.4,0.3,1.2c1.2-0.3,2.5-0.6,3.7-1c0.5-0.1,0.7-0.9,0.1-1.1c-2.1-0.9-4.3-1.7-6.5-2.3
				C263.4,135.9,263,137.1,263.8,137.4L263.8,137.4z"/>
		</g>
	</g>
	<g display="inline">
		<g>
			<path fill="#9B9A9A" d="M280.7,158.6c1.9,13.3,3.9,26.7,5.8,40c0.1,0.7,1,0.5,1.2,0c1.6-5,3.1-10,4.7-15
				c-0.4-0.1-0.8-0.1-1.2-0.2c-1.2,20.1-2.3,40.3-3.5,60.4c0.4,0,0.8,0,1.2,0c-0.1-6.6-0.1-13.2-0.2-19.7c0-0.7-1-0.8-1.2-0.2
				c-5.5,17.1-11,34.1-16.4,51.2c-0.2,0.7,0.8,1.1,1.1,0.5c3-4.9,5.9-9.9,8.9-14.8c0.4-0.7-0.7-1.3-1.1-0.6
				c-7.4,11.7-14.7,23.3-22.1,35c-0.4,0.6,0.5,1.3,1,0.8c2.8-3.2,5.5-6.5,8.3-9.7c0.5-0.6-0.4-1.5-0.9-0.9
				c-5.1,5.8-10.1,11.6-15.2,17.3c0.3,0.3,0.7,0.5,1,0.8c2.1-3.6,4.2-7.2,6.3-10.7c-0.4-0.2-0.8-0.3-1.1-0.5
				c-3.4,9-10.4,15.9-19.4,19.2c-0.7,0.3-0.4,1.5,0.3,1.2c9.5-3.5,16.7-10.6,20.3-20.1c0.3-0.7-0.8-1.1-1.1-0.5
				c-2.1,3.6-4.2,7.2-6.3,10.7c-0.3,0.6,0.5,1.3,1,0.8c5.1-5.8,10.1-11.6,15.2-17.3c-0.3-0.3-0.6-0.6-0.9-0.9
				c-2.8,3.2-5.5,6.5-8.3,9.7c0.3,0.3,0.7,0.5,1,0.8c7.4-11.7,14.7-23.3,22.1-35c-0.4-0.2-0.7-0.4-1.1-0.6c-3,4.9-5.9,9.9-8.9,14.8
				c0.4,0.2,0.8,0.3,1.1,0.5c5.5-17.1,11-34.1,16.4-51.2c-0.4-0.1-0.8-0.1-1.2-0.2c0.1,6.6,0.1,13.2,0.2,19.7c0,0.8,1.2,0.8,1.2,0
				c1.2-20.1,2.3-40.3,3.5-60.4c0-0.7-1-0.8-1.2-0.2c-1.6,5-3.1,10-4.7,15c0.4,0,0.8,0,1.2,0c-1.9-13.3-3.9-26.7-5.8-40
				C281.7,157.5,280.5,157.8,280.7,158.6L280.7,158.6z"/>
		</g>
	</g>
	<g display="inline">
		<g>
			<path fill="#9B9A9A" d="M246.4,305.5c-18.4,7-37.7,11.1-57.3,12.3c-0.8,0-0.8,1.3,0,1.2c19.8-1.2,39.1-5.3,57.6-12.3
				C247.5,306.4,247.1,305.2,246.4,305.5L246.4,305.5z"/>
		</g>
	</g>
	<g display="inline">
		<g>
			<path fill="#9B9A9A" d="M263.6,136.5c2,0,4,0.1,6,0.4c-0.1-0.4-0.1-0.8-0.2-1.2c-1.6,0.4-3.1,0.9-4.7,1.3
				c-0.8,0.2-0.4,1.4,0.3,1.2c1.6-0.4,3.1-0.9,4.7-1.3c0.7-0.2,0.5-1.1-0.2-1.2c-2-0.3-4-0.4-6-0.4
				C262.8,135.3,262.8,136.5,263.6,136.5L263.6,136.5z"/>
		</g>
	</g>
	<g display="inline">
		<g>
			<path fill="#9B9A9A" d="M200.6,155.4c5-5.1,10-10.1,15.1-15.2c0.5-0.5-0.2-1.4-0.8-1c-5.8,4.4-11.5,8.8-17.3,13.2
				c-0.6,0.5-0.1,1.5,0.6,1.1c14.2-8.6,28.3-17.2,42.5-25.8c0.7-0.4,0.1-1.4-0.6-1.1c-6.4,3.3-12.8,6.6-19.2,9.8
				c0.2,0.4,0.4,0.7,0.6,1.1c9.3-5.1,18.5-10.1,27.8-15.2c-0.2-0.4-0.4-0.7-0.6-1.1c-3.1,2.4-6.3,4.7-9.4,7.1
				c-0.6,0.4-0.2,1.3,0.5,1.1c14-2.3,28.1,1,39.7,9.3c0.1-0.4,0.2-0.8,0.3-1.2c-8.2,0.8-15.7-2.9-20-10c-0.3,0.3-0.6,0.6-0.9,0.9
				c11.9,6.6,21,17,25.9,29.8c0.4-0.2,0.8-0.3,1.1-0.5c-1.8-3.3-3.6-6.5-5.3-9.8c-0.3-0.6-1.3-0.2-1.1,0.5
				c3.7,15.9,5.1,32.1,4.3,48.4c0,0.8,1.2,0.8,1.2,0c0.8-16.4-0.6-32.8-4.3-48.8c-0.4,0.2-0.8,0.3-1.1,0.5c1.8,3.3,3.6,6.5,5.3,9.8
				c0.3,0.6,1.4,0.2,1.1-0.5c-5-13.1-14.3-23.7-26.5-30.5c-0.5-0.3-1.2,0.3-0.9,0.9c4.5,7.4,12.4,11.4,21.1,10.6
				c0.6-0.1,0.8-0.8,0.3-1.2c-11.9-8.5-26.3-11.8-40.7-9.4c0.2,0.4,0.3,0.8,0.5,1.1c3.1-2.4,6.3-4.7,9.4-7.1
				c0.6-0.5,0.1-1.5-0.6-1.1c-9.3,5.1-18.5,10.1-27.8,15.2c-0.7,0.4-0.1,1.4,0.6,1.1c6.4-3.3,12.8-6.6,19.2-9.8
				c-0.2-0.4-0.4-0.7-0.6-1.1c-14.2,8.6-28.3,17.2-42.5,25.8c0.2,0.4,0.4,0.7,0.6,1.1c5.8-4.4,11.5-8.8,17.3-13.2
				c-0.3-0.3-0.5-0.7-0.8-1c-5,5.1-10,10.1-15.1,15.2C199.2,155,200.1,155.9,200.6,155.4L200.6,155.4z"/>
		</g>
	</g>
	<g display="inline">
		<g>
			<path fill="#9B9A9A" d="M222,142.5c-4.9,3.5-9.9,6.8-15,9.9c-0.7,0.4-0.1,1.5,0.6,1.1c5.2-3.1,10.2-6.4,15-9.9
				C223.2,143.1,222.6,142,222,142.5L222,142.5z"/>
		</g>
	</g>
	<g display="inline">
		<g>
			<path fill="#9B9A9A" d="M238.4,132.5c0.6-1.1,1.2-2.1,1.7-3.3c0.3-0.6-0.4-1.2-1-0.8c-1.5,1.4-3.1,2.8-4.7,4.1
				c-0.6,0.5,0.3,1.4,0.9,0.9c1.6-1.3,3.1-2.7,4.7-4.1c-0.3-0.3-0.7-0.5-1-0.8c-0.5,1.1-1.1,2.2-1.7,3.3
				C236.9,132.5,238,133.2,238.4,132.5L238.4,132.5z"/>
		</g>
	</g>
	<g display="inline">
		<g>
			<path fill="#9B9A9A" d="M205,153c-8.8-0.7-17.6-1.4-26.3-2.2c-0.8-0.1-0.8,1-0.2,1.2c6.3,2.6,12.7,3.7,19.4,3.6
				c0.8,0,0.8-1.3,0-1.2c-6.7,0.1-13-1-19.1-3.6c-0.1,0.4-0.1,0.8-0.2,1.2c8.8,0.7,17.6,1.4,26.3,2.2
				C205.8,154.3,205.8,153.1,205,153L205,153z"/>
		</g>
	</g>
	<g display="inline">
		<g>
			<path fill="#9B9A9A" d="M174.8,154.2c-0.9-0.3-1.7-0.6-2.6-0.9c-0.1,0.4-0.1,0.8-0.2,1.2c11-0.1,22-0.1,33-0.2
				c0.8,0,0.8-1.3,0-1.2c-11,0.1-22,0.1-33,0.2c-0.7,0-0.8,1-0.2,1.2c0.9,0.3,1.7,0.6,2.6,0.9C175.2,155.7,175.6,154.5,174.8,154.2
				L174.8,154.2z"/>
		</g>
	</g>
	<g display="inline">
		<g>
			<path fill="#9B9A9A" d="M166,150c-1.7-3.3-3.1-6.8-4.2-10.4c-0.4,0.2-0.8,0.3-1.1,0.5c4.2,6.6,9.7,12,16.2,16.2
				c0.7,0.4,1.3-0.6,0.6-1.1c-6.3-4.1-11.7-9.4-15.8-15.8c-0.4-0.6-1.4-0.2-1.1,0.5c1.1,3.7,2.6,7.3,4.3,10.7
				C165.3,151.4,166.4,150.7,166,150L166,150z"/>
		</g>
	</g>
	<g display="inline">
		<g>
			<path fill="#9B9A9A" d="M166.3,150.6c-0.2-5.7,1.1-11,4.2-15.7c0.4-0.6-0.5-1.2-1-0.8c-4.6,3.8-7.2,9-7.9,14.9
				c-0.1,0.8,1.2,0.8,1.2,0c0.7-5.6,3.2-10.4,7.6-14c-0.3-0.3-0.7-0.5-1-0.8c-3.3,4.9-4.6,10.5-4.4,16.4
				C165.1,151.4,166.4,151.4,166.3,150.6L166.3,150.6z"/>
		</g>
	</g>
	<g display="inline">
		<g>
			<path fill="#9B9A9A" d="M164.5,133.3c-3.1,4.7-4.1,10-3.6,15.5c0.1,0.8,1.3,0.8,1.2,0c-0.5-5.3,0.5-10.4,3.5-14.9
				C166,133.2,164.9,132.6,164.5,133.3L164.5,133.3z"/>
		</g>
	</g>
	<g display="inline">
		<g>
			<path fill="#9B9A9A" d="M20.1,289.5c0.6-1.2,1.2-2.3,1.8-3.5c0.4-0.7-0.7-1.3-1.1-0.6c-0.6,1.2-1.2,2.3-1.8,3.5
				C18.6,289.6,19.7,290.2,20.1,289.5L20.1,289.5z"/>
		</g>
	</g>
	<g display="inline">
		<g>
			<path fill="#9B9A9A" d="M10.2,265c1.4,7.7,3.4,15.2,6,22.6c0.3,0.8,1.5,0.4,1.2-0.3c-2.6-7.4-4.6-14.9-6-22.6
				C11.2,263.9,10,264.3,10.2,265L10.2,265z"/>
		</g>
	</g>
	<g display="inline">
		<g>
			<path fill="#9B9A9A" d="M64.2,313.1c5.9,1.3,11.8,2,17.8,2c0.8,0,0.8-1.2,0-1.2c-5.9,0-11.7-0.7-17.4-2
				C63.7,311.7,63.4,312.9,64.2,313.1L64.2,313.1z"/>
		</g>
	</g>
	<g display="inline">
		<g>
			<path fill="#9B9A9A" d="M10.3,265.1c5.3,14.6,14.7,26.9,27.4,36c0.7,0.5,1.3-0.6,0.6-1.1c-12.3-8.9-21.6-21-26.8-35.3
				C11.2,264,10,264.3,10.3,265.1L10.3,265.1z"/>
		</g>
	</g>
	<g display="inline">
		<g>
			<path fill="#9B9A9A" d="M16.4,261.6c0.3,8.9,3.4,17.1,8.9,24.1c0.5,0.6,1.4-0.3,0.9-0.9c-5.4-6.7-8.2-14.7-8.6-23.3
				C17.6,260.8,16.4,260.8,16.4,261.6L16.4,261.6z"/>
		</g>
	</g>
	<g display="inline">
		<g>
			<path fill="#9B9A9A" d="M12.4,265.2c7.1,16.2,18.5,30.3,33.1,40.3c14.1,9.8,34.1,18.4,51.4,12.8c0.8-0.2,0.4-1.5-0.3-1.2
				c-17.3,5.6-37.6-3.5-51.6-13.6c-13.8-9.9-24.6-23.5-31.4-39C13.2,263.8,12.1,264.4,12.4,265.2L12.4,265.2z"/>
		</g>
	</g>
	<g display="inline">
		<g>
			<path fill="#9B9A9A" d="M67.7,314.1c26.2,5.2,53,5.3,79.2,0.4c0.8-0.1,0.5-1.4-0.3-1.2c-26,4.9-52.6,4.8-78.6-0.4
				C67.2,312.8,66.9,314,67.7,314.1L67.7,314.1z"/>
		</g>
	</g>
	<g display="inline">
		<g>
			<path fill="#9B9A9A" d="M130.2,315.1c29.1,8.4,60,8.3,89-0.3c0.8-0.2,0.4-1.4-0.3-1.2c-28.8,8.6-59.4,8.7-88.3,0.3
				C129.8,313.7,129.4,314.9,130.2,315.1L130.2,315.1z"/>
		</g>
	</g>
	<g display="inline">
		<g>
			<path fill="#9B9A9A" d="M107.9,319.8c22.4,3.1,45,3.8,67.5,2.1c0.8-0.1,0.8-1.3,0-1.2c-14.1,0-28.3,0-42.4,0
				c-0.7,0-0.9,1.1-0.2,1.2c20.2,5.2,41.5,2.6,60-7.1c0.7-0.4,0.1-1.5-0.6-1.1c-18.1,9.6-39.1,12.1-59,7c-0.1,0.4-0.1,0.8-0.2,1.2
				c14.1,0,28.3,0,42.4,0c0-0.4,0-0.8,0-1.2c-22.4,1.7-44.9,1.1-67.2-2C107.4,318.5,107.1,319.7,107.9,319.8L107.9,319.8z"/>
		</g>
	</g>
	<g display="inline">
		<g>
			<path fill="#9B9A9A" d="M217.5,143.6c-0.3-0.3-0.6-0.6-0.9-0.9c-0.6-0.6-1.5,0.3-0.9,0.9c0.3,0.3,0.6,0.6,0.9,0.9
				C217.1,145.1,218,144.2,217.5,143.6L217.5,143.6z"/>
		</g>
	</g>
	<g display="inline">
		<g>
			<path fill="#9B9A9A" d="M217.4,144.8c10.6-6.1,21.1-12.1,31.7-18.2c0.7-0.4,0.1-1.5-0.6-1.1c-10.6,6.1-21.1,12.1-31.7,18.2
				C216.1,144.1,216.7,145.2,217.4,144.8L217.4,144.8z"/>
		</g>
	</g>
	<g display="inline">
		<g>
			<path fill="#9B9A9A" d="M233.3,135.1c12.5-4.5,25.1-9,37.6-13.5c0.8-0.3,0.4-1.5-0.3-1.2c-12.5,4.5-25.1,9-37.6,13.5
				C232.2,134.1,232.5,135.3,233.3,135.1L233.3,135.1z"/>
		</g>
	</g>
	<g display="inline">
		<g>
			<path fill="#9B9A9A" d="M266.6,119.9c1.7-1.4,3.5-2.7,5.2-4.1c-0.3-0.3-0.7-0.5-1-0.8c-4.8,9.7-4.9,20.5-0.1,30.3
				c0.4,0.7,1.4,0.1,1.1-0.6c-4.6-9.3-4.5-19.7,0.1-29c0.3-0.7-0.4-1.2-1-0.8c-1.7,1.4-3.5,2.7-5.2,4.1
				C265.1,119.5,266,120.4,266.6,119.9L266.6,119.9z"/>
		</g>
	</g>
	<g display="inline">
		<g>
			<path fill="#9B9A9A" d="M272.2,122.2c-0.9,16.8,1.5,33.5,7,49.4c0.2,0.6,1.3,0.6,1.2-0.2c-1.4-16.6-2.7-33.3-4.1-49.9
				c-0.4,0.1-0.8,0.1-1.2,0.2c2.9,19.6,5.7,39.3,8.6,58.9c0.4-0.1,0.8-0.2,1.2-0.3c-2.6-13.3-5.3-26.6-7.9-39.9
				c-1.6-8-2.2-20.5-12.1-22.8c-9-2-19.6,4-27.3,7.8c-10.7,5.2-20.7,11.7-30,19.2c-0.6,0.5,0.2,1.3,0.8,1
				c11.4-5.3,22.8-10.5,34.2-15.8c0.6-0.3,0.2-1.4-0.5-1.1c-10.2,3.9-20.4,7.7-30.6,11.6c-0.7,0.3-0.4,1.5,0.3,1.2
				c15.8-5,31.6-10,47.4-15.1c1.9-0.6,3.8-1.2,5.7-1.8c0.8-0.3,4.9-2,5.7-1.8c2.9,0.8,2.6,8.3,3,10.8c1.4,8.5,2.8,17.1,4.2,25.6
				c0.1,0.8,1.3,0.5,1.2-0.3c-2-12.5-4-25-6.1-37.4c-0.1-0.3-0.5-0.5-0.8-0.4c-20.2,6.4-40.4,12.9-60.6,19.3
				c0.1,0.4,0.2,0.8,0.3,1.2c10.2-3.9,20.4-7.7,30.6-11.6c-0.2-0.4-0.3-0.8-0.5-1.1c-11.4,5.3-22.8,10.5-34.2,15.8
				c0.3,0.3,0.5,0.7,0.8,1c8-6.5,16.7-12.3,25.8-17.1c4.8-2.5,9.8-4.8,14.8-6.7c4.7-1.8,10.3-4,15.4-2.8c6.1,1.4,8.2,7.4,9.4,12.8
				c1.1,5.2,2.1,10.5,3.1,15.7c2.2,11.1,4.4,22.2,6.6,33.3c0.2,0.8,1.3,0.4,1.2-0.3c-2.9-19.6-5.7-39.3-8.6-58.9
				c-0.1-0.7-1.3-0.5-1.2,0.2c1.4,16.6,2.7,33.3,4.1,49.9c0.4-0.1,0.8-0.1,1.2-0.2c-5.5-15.8-7.8-32.4-7-49.1
				C273.5,121.3,272.2,121.3,272.2,122.2L272.2,122.2z"/>
		</g>
	</g>
	<g display="inline">
		<g>
			<path fill="#9B9A9A" d="M168,138.8c-0.8,0.7-1.6,1.4-2.4,2.1c-0.3,0.3-0.2,0.8,0.1,1c10.1,6.6,22.4,8.2,33.9,4.4
				c0.8-0.2,0.4-1.5-0.3-1.2c-6,1.9-12.2,2.5-18.4,1.5c-2.6-0.5-5.1-1.2-7.5-2.1c-2.2-0.9-7.4-2.2-4.4-4.7
				C169.5,139.2,168.6,138.3,168,138.8L168,138.8z"/>
		</g>
	</g>
	<g display="inline">
		<g>
			<path fill="#9B9A9A" d="M185,150.5c10.2-1.6,20.3-3.2,30.5-4.8c0.7-0.1,0.5-1,0-1.2c-1.1-0.4-2.3-0.9-3.4-1.3
				c-0.8-0.3-1.1,0.9-0.3,1.2c1.1,0.4,2.3,0.9,3.4,1.3c0-0.4,0-0.8,0-1.2c-10.2,1.6-20.3,3.2-30.5,4.8
				C183.8,149.5,184.2,150.7,185,150.5L185,150.5z"/>
		</g>
	</g>
	<g display="inline">
		<g>
			<path fill="#9B9A9A" d="M191.8,149.1c6.8-2.8,13.5-5.6,20.3-8.5c0.7-0.3,0.4-1.5-0.3-1.2c-6.8,2.8-13.5,5.6-20.3,8.5
				C190.7,148.2,191,149.4,191.8,149.1L191.8,149.1z"/>
		</g>
	</g>
	<g display="inline">
		<g>
			<path fill="#9B9A9A" d="M201.4,142c3.2-1.2,6.4-2.3,9.6-3.5c0.8-0.3,0.4-1.5-0.3-1.2c-3.2,1.2-6.4,2.3-9.6,3.5
				C200.3,141.1,200.6,142.3,201.4,142L201.4,142z"/>
		</g>
	</g>
	<g display="inline">
		<g>
			<path fill="#9B9A9A" d="M193.6,144.9c10-3.7,19.9-7.5,29.9-11.2c0.7-0.3,0.4-1.5-0.3-1.2c-10,3.7-19.9,7.5-29.9,11.2
				C192.5,144,192.8,145.2,193.6,144.9L193.6,144.9z"/>
		</g>
	</g>
	<g display="inline">
		<g>
			<path fill="#9B9A9A" d="M210.5,139.8c13.2-6.2,26.3-12.3,39.5-18.5c0.7-0.3,0.1-1.4-0.6-1.1c-13.2,6.2-26.3,12.3-39.5,18.5
				C209.2,139.1,209.8,140.1,210.5,139.8L210.5,139.8z"/>
		</g>
	</g>
	<g display="inline">
		<g>
			<path fill="#9B9A9A" d="M32.5,117.3c-1.2,8.3-0.6,16.2,1.9,24.2c0.2,0.6,1.3,0.6,1.2-0.2c-0.8-8.6-1.6-17.3-2.3-25.9
				c-0.1-0.7-1-0.8-1.2-0.2c-3.6,10.2-2.6,21,2.8,30.3c0.4,0.6,1.3,0.2,1.1-0.5c-1.8-7.5-3.7-15.1-5.5-22.6
				c-0.4,0.1-0.8,0.2-1.2,0.3c3.2,7.7,6.3,15.5,9.5,23.2c0.3,0.7,1.5,0.4,1.2-0.3c-1.8-4.9-3.6-9.9-5.5-14.8
				c-0.4,0.2-0.8,0.3-1.1,0.5c2.6,5.9,5.2,11.9,7.8,17.8c0.4-0.2,0.7-0.4,1.1-0.6c-2.4-4.4-4.8-8.8-7.2-13.2
				c-0.4,0.2-0.7,0.4-1.1,0.6c3.1,4.4,6.1,8.9,9.2,13.3c0.3-0.3,0.7-0.5,1-0.8c-3.2-3.7-6.4-7.3-9.6-11c-0.4-0.5-1.2,0-1,0.6
				c2.3,8.8,7,16.5,13.9,22.5c0.5,0.4,1.4-0.1,1-0.8c-3.2-4.4-6.3-8.9-9.5-13.3c-0.3,0.3-0.7,0.5-1,0.8c4,3.7,8,7.5,12,11.2
				c0.3-0.3,0.5-0.7,0.8-1c-3.6-2.5-7.1-5-10.7-7.5c-0.7-0.5-1.3,0.6-0.6,1.1c2.8,1.9,5.5,3.9,8.3,5.8c0.2-0.4,0.3-0.8,0.5-1.1
				c-2.2-0.9-4.5-1.8-6.7-2.8c-0.6-0.2-1,0.6-0.6,1c1.8,1.9,5,3.4,1.5,4.7c-0.4,0.1-0.7,0.7-0.3,1c0.6,0.5,1.1,1,1.7,1.5
				c0.6,0.5,1.5-0.3,0.9-0.9c-1.3-1.2-0.3-1,1.4-1.6c0.4-0.2,0.6-0.7,0.3-1c-1.5-1.5-3-3-4.5-4.6c-0.2,0.3-0.4,0.7-0.6,1
				c2.2,0.9,4.5,1.8,6.7,2.8c0.7,0.3,1-0.8,0.5-1.1c-2.8-1.9-5.5-3.9-8.3-5.8c-0.2,0.4-0.4,0.7-0.6,1.1c3.6,2.5,7.1,5,10.7,7.5
				c0.6,0.4,1.3-0.5,0.8-1c-4-3.7-8-7.5-12-11.2c-0.5-0.5-1.4,0.2-1,0.8c3.2,4.4,6.3,8.9,9.5,13.3c0.3-0.3,0.7-0.5,1-0.8
				c-6.7-5.9-11.3-13.3-13.5-21.9c-0.3,0.2-0.7,0.4-1,0.6c3.2,3.7,6.4,7.3,9.6,11c0.5,0.5,1.4-0.2,1-0.8c-3.1-4.4-6.1-8.9-9.2-13.3
				c-0.5-0.7-1.5-0.1-1.1,0.6c2.4,4.4,4.8,8.8,7.2,13.2c0.4,0.7,1.4,0.1,1.1-0.6c-2.6-5.9-5.2-11.9-7.8-17.8
				c-0.3-0.6-1.4-0.2-1.1,0.5c1.8,4.9,3.6,9.9,5.5,14.8c0.4-0.1,0.8-0.2,1.2-0.3c-3.2-7.7-6.3-15.5-9.5-23.2
				c-0.3-0.7-1.4-0.5-1.2,0.3c1.8,7.5,3.7,15.1,5.5,22.6c0.4-0.2,0.8-0.3,1.1-0.5c-5.2-9.1-6.1-19.5-2.6-29.4
				c-0.4-0.1-0.8-0.1-1.2-0.2c0.8,8.6,1.6,17.3,2.3,25.9c0.4-0.1,0.8-0.1,1.2-0.2c-2.4-7.7-3.1-15.5-1.9-23.5
				C33.9,116.9,32.7,116.5,32.5,117.3L32.5,117.3z"/>
		</g>
	</g>
	<g display="inline">
		<g>
			<path fill="#9B9A9A" d="M40.6,162.8c-3.8,5.9-7.5,11.8-11.3,17.6c-0.4,0.7,0.6,1.3,1.1,0.6c3.8-5.9,7.5-11.8,11.3-17.6
				C42.1,162.7,41,162.1,40.6,162.8L40.6,162.8z"/>
		</g>
	</g>
	<g display="inline">
		<g>
			<path fill="#9B9A9A" d="M41.6,163.7c-9.4,14.9-18.7,29.8-28.1,44.7c-0.4,0.7,0.7,1.3,1.1,0.6c9.4-14.9,18.7-29.8,28.1-44.7
				C43.1,163.7,42,163,41.6,163.7L41.6,163.7z"/>
		</g>
	</g>
	<g display="inline">
		<g>
			<path fill="#9B9A9A" d="M30,181.9C20.3,196,14.5,212.1,13,229.2c-0.1,0.8,1.2,0.8,1.2,0c1.4-16.8,7.2-32.7,16.8-46.6
				C31.5,181.9,30.4,181.3,30,181.9L30,181.9z"/>
		</g>
	</g>
	<g display="inline">
		<g>
			<path fill="#9B9A9A" d="M38.9,174.6C28.7,186,20.5,199,14.6,213.1c-4.3,10.3-10.9,27.3,2.1,34.2c0.7,0.4,1.3-0.7,0.6-1.1
				c-14.3-7.7-3.5-29.1,1.5-39.5c5.5-11.3,12.6-21.8,20.9-31.2C40.3,174.9,39.4,174,38.9,174.6L38.9,174.6z"/>
		</g>
	</g>
	<g display="inline">
		<g>
			<path fill="#9B9A9A" d="M36.3,176.3c-11.7,13-24.4,27-28.4,44.6c-3.3,14.2-0.5,30.2,10.9,40c0.6,0.5,1.5-0.4,0.9-0.9
				c-11.8-10.2-14.1-27.2-9.9-41.6c4.7-16.1,16.4-29,27.4-41.2C37.7,176.6,36.8,175.7,36.3,176.3L36.3,176.3z"/>
		</g>
	</g>
	<g display="inline">
		<g>
			<path fill="#9B9A9A" d="M30.1,193.9c-23.2,24.2-27.2,60.8-9.9,89.5c0.4,0.7,1.5,0.1,1.1-0.6c-17-28.2-13.1-64.2,9.7-87.9
				C31.5,194.2,30.6,193.4,30.1,193.9L30.1,193.9z"/>
		</g>
	</g>
	<g display="inline">
		<g>
			<path fill="#9B9A9A" d="M13.1,211.3c-11.7,23.3-9.8,51.8,5,73.3c0.5,0.7,1.5,0,1.1-0.6c-14.5-21.1-16.4-49.1-5-72
				C14.5,211.2,13.4,210.6,13.1,211.3L13.1,211.3z"/>
		</g>
	</g>
	<g display="inline">
		<g>
			<path fill="#9B9A9A" d="M44.7,157.6c-8.1,9.5-16.1,19-24.2,28.5c-0.5,0.6,0.4,1.5,0.9,0.9c8.1-9.5,16.1-19,24.2-28.5
				C46.1,157.8,45.2,157,44.7,157.6L44.7,157.6z"/>
		</g>
	</g>
	<g display="inline">
		<g>
			<path fill="#9B9A9A" d="M164.2,188.8c-11.6,3.3-19.8,13.4-20.8,25.4c-0.1,0.8,1.2,0.8,1.2,0c0.9-11.4,8.8-21.1,19.8-24.2
				C165.3,189.8,164.9,188.6,164.2,188.8L164.2,188.8z"/>
		</g>
	</g>
	<g display="inline">
		<g>
			<path fill="#9B9A9A" d="M154.6,197.4c-8.7,13.8-15.9,30.8-9.6,47.1c4.8,12.4,18.6,20.8,31.7,15.6c0.7-0.3,0.4-1.5-0.3-1.2
				c-14.4,5.7-28.2-5.3-31.5-19.1c-3.6-14.9,3.1-29.4,10.9-41.7C156.2,197.4,155.1,196.7,154.6,197.4L154.6,197.4z"/>
		</g>
	</g>
	<g display="inline">
		<g>
			<path fill="#9B9A9A" d="M155.4,252.2c24,13,54.6,10,75.6-7.4c0.6-0.5-0.3-1.4-0.9-0.9c-20.6,17-50.6,20-74.1,7.2
				C155.3,250.7,154.7,251.8,155.4,252.2L155.4,252.2z"/>
		</g>
	</g>
	<g display="inline">
		<g>
			<path fill="#9B9A9A" d="M158.3,194.1c14.8-9.9,32.3-14.2,50-12.3c0.8,0.1,0.8-1.2,0-1.2c-17.9-1.9-35.7,2.5-50.6,12.5
				C157,193.5,157.6,194.6,158.3,194.1L158.3,194.1z"/>
		</g>
	</g>
	<g display="inline">
		<g>
			<path fill="#9B9A9A" d="M183.5,186.9c20.3-18.6,53.1-9,60.2,17.6c0.2,0.8,1.4,0.4,1.2-0.3c-7.4-27.5-41.3-37.4-62.3-18.1
				C182.1,186.6,182.9,187.4,183.5,186.9L183.5,186.9z"/>
		</g>
	</g>
	<g display="inline">
		<g>
			<path fill="#9B9A9A" d="M243.6,205.5c-2,15.9-15.9,26.6-31.8,24.8c-0.8-0.1-0.8,1.2,0,1.2c16.6,1.9,30.9-9.5,33-26
				C245,204.7,243.7,204.8,243.6,205.5L243.6,205.5z"/>
		</g>
	</g>
	<g display="inline">
		<g>
			<path fill="#9B9A9A" d="M222.3,227.2c1.4,0,2.8,0.1,4.1,0.1c-0.1-0.4-0.1-0.8-0.2-1.2c-2,0.8-3.9,1.6-5.9,2.4
				c-0.7,0.3-0.4,1.5,0.3,1.2c2-0.8,3.9-1.6,5.9-2.4c0.6-0.3,0.6-1.2-0.2-1.2c-1.4,0-2.8-0.1-4.1-0.1
				C221.5,225.9,221.5,227.2,222.3,227.2L222.3,227.2z"/>
		</g>
	</g>
	<g display="inline">
		<g>
			<path fill="#9B9A9A" d="M198.9,260.1c15-3.1,28.7-10.2,39.9-20.7c0.6-0.5-0.3-1.4-0.9-0.9c-11.1,10.3-24.5,17.3-39.3,20.3
				C197.8,259.1,198.1,260.3,198.9,260.1L198.9,260.1z"/>
		</g>
	</g>
	<g display="inline">
		<g>
			<path fill="#9B9A9A" d="M228.5,245.1c9.3-2.6,15.9-10.6,16.8-20.2c0.1-0.8-1.2-0.8-1.2,0c-0.9,9-7.2,16.5-15.9,19
				C227.4,244.1,227.7,245.3,228.5,245.1L228.5,245.1z"/>
		</g>
	</g>
	<g display="inline">
		<g>
			<path fill="#9B9A9A" d="M239.2,231.9c5.1-4.5,7.1-11.4,5.2-18c-0.2-0.8-1.4-0.4-1.2,0.3c1.8,6.2-0.1,12.5-4.9,16.8
				C237.7,231.6,238.6,232.4,239.2,231.9L239.2,231.9z"/>
		</g>
	</g>
	<g display="inline">
		<g>
			<path fill="#9B9A9A" d="M243.1,220.4c0.3-3.2,0.6-6.4,0.9-9.6c0.1-0.8-1.2-0.8-1.2,0c-0.3,3.2-0.6,6.4-0.9,9.6
				C241.8,221.2,243,221.2,243.1,220.4L243.1,220.4z"/>
		</g>
	</g>
	<g display="inline">
		<g>
			<path fill="#9B9A9A" d="M198.4,226.5c16.1,9.5,36.2,4.6,46.1-11.2c0.4-0.7-0.7-1.3-1.1-0.6c-9.5,15.2-28.9,19.9-44.3,10.8
				C198.3,225,197.7,226.1,198.4,226.5L198.4,226.5z"/>
		</g>
	</g>
	<g display="inline">
		<g>
			<path fill="#9B9A9A" d="M229.9,224c20.3-9.8,17.2-37.7-3.2-45c-10.5-3.8-22.5-2.8-33.3-1c-12.4,2.1-24.7,6.5-34.7,14.4
				c-16.1,12.6-25.6,34.4-17,54.1c3.8,8.8,10.9,16.2,20.1,19.4c11.9,4.1,24.9,0.8,36.7-2.1c12.8-3.1,26.4-6.6,36.7-15.3
				c9.2-7.8,15.1-19.5,12.9-31.6c-0.1-0.7-1.3-0.5-1.2,0.2c0.9,14.4-7.7,27.6-19.9,34.8c-13.7,8-30.4,8.1-45.5,4.9
				c-0.8-0.2-1.1,1-0.3,1.2c15.9,3.4,33.6,3.1,47.7-5.8c11.9-7.5,20.1-20.8,19.3-35.1c-0.4,0.1-0.8,0.1-1.2,0.2
				c4.5,24.2-20.3,37.7-39.7,43.1c-19.4,5.4-44.2,12.6-59.1-5.7c-13.4-16.5-9.3-39.4,4.2-54.4c14.1-15.7,36.3-22.1,56.8-22.4
				c11.3-0.2,24.3,2.3,30.6,12.8c7,11.8,1.8,26.5-10.3,32.4C228.6,223.3,229.2,224.4,229.9,224L229.9,224z"/>
		</g>
	</g>
	<g display="inline">
		<g>
			<path fill="#9B9A9A" d="M51.1,105.9c7.4,2.4,15,2.3,22.3-0.3c0.8-0.3,0.4-1.5-0.3-1.2c-7.2,2.5-14.5,2.6-21.7,0.3
				C50.7,104.4,50.4,105.6,51.1,105.9L51.1,105.9z"/>
		</g>
	</g>
	<g display="inline">
		<g>
			<path fill="#9B9A9A" d="M73.6,97.5c-1.8,6,1.4,12.5,7.3,14.7c0.8,0.3,1.1-0.9,0.3-1.2c-5.2-2-8-7.9-6.4-13.2
				C75.1,97,73.9,96.7,73.6,97.5L73.6,97.5z"/>
		</g>
	</g>
	<g display="inline">
		<g>
			<path fill="#9B9A9A" d="M96.6,76.4c4.2,1.5,8.9-0.3,11.2-4.1c0.4-0.7-0.7-1.3-1.1-0.6c-2,3.3-6.1,4.8-9.8,3.5
				C96.2,75,95.8,76.2,96.6,76.4L96.6,76.4z"/>
		</g>
	</g>
	<g display="inline">
		<g>
			<path fill="#9B9A9A" d="M105.2,81c2.6-1.2,5.2-2.4,7.8-3.7c0.7-0.3,0.1-1.4-0.6-1.1c-2.6,1.2-5.2,2.4-7.8,3.7
				C103.9,80.2,104.5,81.3,105.2,81L105.2,81z"/>
		</g>
	</g>
	<g display="inline">
		<g>
			<path fill="#9B9A9A" d="M102.8,85.1c3.5,1.3,7.3,0,9.5-3c0.5-0.7-0.6-1.3-1.1-0.6c-1.8,2.6-5.1,3.5-8.1,2.4
				C102.4,83.6,102,84.8,102.8,85.1L102.8,85.1z"/>
		</g>
	</g>
	<g display="inline">
		<g>
			<path fill="#9B9A9A" d="M96.2,83.5c0,0.3,0,0.6,0,0.9c0,0.8,1.2,0.8,1.2,0c0-0.3,0-0.6,0-0.9C97.5,82.7,96.2,82.7,96.2,83.5
				L96.2,83.5z"/>
		</g>
	</g>
	<g display="inline">
		<g>
			<path fill="#9B9A9A" d="M97.7,85.9c-2.3,0.4-2.8-0.5-1.5-2.6c-2.3,3.7-2.6,3.3-0.8-1.3c2.5-1.8,5.9,0.7,5.8,3.5
				c-0.3,6.5-10.4,2.8-7.1-2.3c2.9-4.4,10.2,1.8,4.8,5c-2.7,1.6-5.8-1.1-4.9-4c1.1-3.5,6.4-2.9,6.7,0.8c0.2,2.6-2.5,4.7-4.9,3.2
				C94,87,93,83.9,95.3,82.6c3.4-2,7.6,2.9,3.4,5.1c-2.2,1.2-5.1-0.2-4.3-3c0.7-2.6,4.4-3.8,5.5-0.7c1.9,4.8-5.8,6.4-6.6,1.3
				c-0.7-4.4,5.5-6.2,7.8-2.5c1.7,2.8,0.6,6.7-2.7,7.5c-8.5,2.1-9.2-11.8-0.7-11.6c7.8,0.2,9.3,11,2.8,14.5
				c-3.4,1.8-9.8-0.1-8.2-5.1c0.6-1.8,2.8-3,4.6-2.3c3.7,1.5,1,6.2-1.9,5c-0.7-0.3-1.4,0.8-0.6,1.1c4.3,1.9,8-4.9,3.5-7
				c-5.1-2.5-8.7,3.9-5.7,7.9c4.2,5.7,12.2,1,13.5-4.5c1.4-5.7-3.2-11.6-9.3-10.7c-5.6,0.9-8.7,8.8-3.9,12.6
				c4.2,3.2,10.8,0.9,10.6-4.7c-0.2-5.3-6.5-8.1-10.1-3.7c-3.5,4.2,2.3,10.9,6.7,7.4c3.4-2.7,1-9.6-3.6-7.9
				c-4.4,1.6-4.1,8.8,1.1,8.3c4.9-0.5,6.1-7,1-8.3c-4.9-1.3-7.6,4.5-3.7,7.6c4.4,3.6,9.8-2.7,6.2-6.7c-3.8-4.2-10.5,1-7.4,5.8
				c2.9,4.6,10.4,0.3,8.3-4.5c-1.8-4.3-8.8-3.7-9.4,1.1c-0.6,5.7,7.1,8.2,9.6,2.8c2.4-5.1-5.3-10.1-8.6-5.1
				c-3.1,4.6,4.7,9.1,6.4,3.7c1.5-4.8-7.1-5-5.8-0.6c0.5,1.9,2.7,2.6,4.3,1.7C99,86.6,98.4,85.5,97.7,85.9L97.7,85.9z"/>
		</g>
	</g>
	<g display="inline">
		<g>
			<path fill="#9B9A9A" d="M103.4,74.3c1.8-2,3.5-4.1,5.3-6.1c0.5-0.6-0.4-1.5-0.9-0.9c-1.8,2-3.5,4.1-5.3,6.1
				C102,74,102.9,74.9,103.4,74.3L103.4,74.3z"/>
		</g>
	</g>
	<g display="inline">
		<g>
			<path fill="#9B9A9A" d="M105.4,80.6c2.7-2.5,5.4-5.1,8.1-7.6c0.6-0.6-0.3-1.4-0.9-0.9c-2.7,2.5-5.4,5.1-8.1,7.6
				C103.9,80.3,104.8,81.2,105.4,80.6L105.4,80.6z"/>
		</g>
	</g>
	<g display="inline">
		<g>
			<path fill="#9B9A9A" d="M107.8,85.1c2.3-1.8,4.7-3.5,7-5.3c0.6-0.5,0-1.6-0.6-1.1c-2.3,1.8-4.7,3.5-7,5.3
				C106.5,84.5,107.2,85.6,107.8,85.1L107.8,85.1z"/>
		</g>
	</g>
	<g display="inline">
		<g>
			<path fill="#9B9A9A" d="M124.3,92.8c-5.2-1-15.2-1.7-15.5,6.1c-0.2,7.1,8.7,8,13.8,8.1c5.5,0.1,14.5-1.3,14.1-8.7
				c-0.4-7.7-10.1-7.2-15.4-6.3c-0.8,0.1-0.5,1.3,0.3,1.2c2.6-0.5,5.6-1.1,8.2-0.5c0.8,0.3,1.7,0.7,2.5,1c0.8,2.5,1.6,5,2.4,7.4
				c-1.1,4.5-8.7,4.6-12.2,4.5c-1.3,0-2.7,0-4-0.2c-3.7-0.4-5.3-1.1-6.9-4.6c-2.3-2.5-1.8-4.7,1.4-6.5c0.8-0.3,1.5-0.6,2.3-0.9
				c2.8-0.7,5.9,0,8.6,0.5C124.8,94.2,125.1,93,124.3,92.8L124.3,92.8z"/>
		</g>
	</g>
	<g display="inline">
		<g>
			<path fill="#9B9A9A" d="M11.5,249.3c1.2,25,22.9,44.1,43,56c21.3,12.6,46.2,19.1,70.9,18.9c14.3-0.1,28.5-2.6,42-7.3
				c0.8-0.3,0.4-1.5-0.3-1.2c-28.9,10-60.7,9.4-89.4-0.9c-14.7-5.3-28.6-13.1-40.4-23.3c-12.6-10.8-23.7-25-24.5-42.2
				C12.8,248.5,11.5,248.5,11.5,249.3L11.5,249.3z"/>
		</g>
	</g>
</g>
<g id="Layer_2">
	<path fill="#FFEEA6" stroke="#000000" stroke-width="4" stroke-miterlimit="10" d="M37.6,76.4c0,0,18.4-39.3,65.4-36.2
		s87.4,44,61.3,99.4c0,0,29.1,21.2,67.9-8.8c5.2-4,10.8-7.4,16.8-9.9c0.1,0,0.2-0.1,0.4-0.1c8.4-3.4,18.1-0.1,22.7,7.7
		c11.5,19.3,30.5,63.3,8.7,118.4c-27.8,70.3-118.6,97.4-223.4,59.6C22.6,293.9,2,257.5,9.8,221.3c3.4-15.8,11.8-34,27.7-54.4
		l8.1-8.7c0,0-11.6-10.7-12.9-32.8c-0.2-3.8-0.7-7.6-1.5-11.3v0c0,0-23.3-16.2-26.5-22.4S37.6,76.4,37.6,76.4z"/>
	<circle stroke="#000000" stroke-width="4" stroke-miterlimit="10" cx="98.8" cy="85" r="8.7"/>
	<g>
		<g>
			<path fill="#F37A7B" d="M134.6,92.5c-5.7-0.4-13,0.7-17.1,5.1c-3.1,3.4-1.8,7.7,1.6,10.2c6.4,4.5,25.9,5.2,25.9-6.2
				c0-4.8-4.2-8.1-8.6-8.8c-4.5-0.7-12.6,0.6-15.6,4.5c-2.9,3.8-0.1,8.6,4.1,9.8c4,1.2,10.8,0.5,13.9-2.5c3.3-3.1,3.1-8.6-1.4-10.4
				c-5.5-2.2-12.1,2-15.8,5.7c-1.7,1.6-0.3,4.1,1.8,4.3c3.7,0.4,15.6,1.8,16.7-4c0.3-1.7-0.6-3.4-2.1-4.2c-2.8-1.5-4.8,1-7.4,1.1
				c-3.2,0.2-3.2,5.2,0,5c0.9,0,1.8,0,2.6-0.4c0.4-0.2,0.9-0.4,1.3-0.6c1-2.1,0.6-2.8-1.1-2.1c-3.1-0.4-6.7,0.4-9.9,0.1
				c0.6,1.4,1.2,2.8,1.8,4.3c1.9-1.9,4.6-4.1,7.4-4.4c0.7-0.4,1.5-0.2,2.2,0.3c1.8,0.2,1.9,0.8,0.2,1.6c-1.2,1.4-2.8,1.4-4.5,1.5
				c-0.7,0.1-2.2,0.4-2.8,0.1c-0.6-1-1.2-1.9-1.8-2.9c0.9-0.4,1.8-0.7,2.7-0.9c2.1-0.6,7.3-2.3,9.2-0.4c0.5,1.7,1,3.3,1.5,5
				c-0.5,0.4-1.1,0.8-1.6,1.1c-1,0.5-2.3,0.8-3.4,1c-2.9,0.6-5.9,0.3-8.7-0.4c-0.8-0.2-3.9-0.9-4.2-2c-0.6-2,2.6-3.9,4-4.4
				c3-1.2,6.2-1.4,9.4-1.1C137.8,97.8,137.8,92.8,134.6,92.5L134.6,92.5z"/>
		</g>
	</g>
	<path fill="#F47751" stroke="#000000" stroke-width="3" stroke-miterlimit="10" d="M66.7,108C65,95.5,60.4,86.3,55.9,80.7
		c-2.7-3.4-6.9-5.2-11.2-4.9l-5.5,0.4L8.5,86.8L5.1,92l26.4,22.4c21.9,1.1,31.7-4,34.6-6c0.4-0.3,0.3-0.9-0.2-1.1L4.4,88.8"/>
	<path fill="#FFEEA6" stroke="#000000" stroke-width="4" stroke-miterlimit="10" d="M243.5,213.3c0,0,15.1,33.7-32.6,46.3
		C163.7,272,120,244,148.2,201.4c0.7-1.1,1.6-2.2,2.6-3.2c3.1-3.2,12.7-12.3,21.4-14.9c0.8-0.2,1.6-0.5,2.3-0.8
		c7.5-3.4,50.4-19.7,66.7,11.1c0.3,0.6,0.7,1.3,1.1,1.9c2,3.3,8.9,17.3-10.7,30.9c0,0-13.6,10.5-32.1-1.7"/>
</g>
</svg>
