<?xml version="1.0" encoding="utf-8"?>
<!-- Generator: Adobe Illustrator 20.0.0, SVG Export Plug-In . SVG Version: 6.00 Build 0)  -->
<svg version="1.1" id="Layer_1" xmlns="http://www.w3.org/2000/svg" xmlns:xlink="http://www.w3.org/1999/xlink" x="0px" y="0px"
	 viewBox="0 0 221.9 61.8" style="enable-background:new 0 0 221.9 61.8;" xml:space="preserve">
<style type="text/css">
	.st0{opacity:0.24;}
	.st1{fill:#89C489;}
</style>
<g class="st0">
	<g>
		<path class="st1" d="M4.7,60.6C14.4,43.4,24.2,26.2,34,9c-1.4,0-2.9,0-4.3,0c11.6,17,23.2,33.9,34.8,50.9c1.3,1.9,3.8,1.4,4.6-0.6
			c6.2-16.2,12.4-32.4,18.6-48.6c-1.5,0.2-3,0.4-4.6,0.6c9.6,15.5,19.2,31,28.8,46.6c1,1.6,3.3,1.6,4.3,0
			c9.2-15.5,18.3-31.1,27.5-46.6c-1.5-0.2-3-0.4-4.6-0.6c2.6,15.9,10.6,30.2,22.7,40.9c1.2,1,3.1,1,3.9-0.5
			c8.6-15.7,17.3-31.5,25.9-47.2c-1.6-0.4-3.1-0.8-4.7-1.3c2.1,21.3,13.5,40.4,31.2,52.3c2.7,1.8,5.2-2.5,2.5-4.3
			c-16.1-10.9-26.8-28.6-28.7-48c-0.2-2.3-3.4-3.6-4.7-1.3c-8.6,15.7-17.3,31.5-25.9,47.2c1.3-0.2,2.6-0.3,3.9-0.5
			C154,37.8,146.5,24.4,144,9.3c-0.4-2.2-3.6-2.3-4.6-0.6c-9.2,15.5-18.3,31.1-27.5,46.6c1.4,0,2.9,0,4.3,0
			c-9.6-15.5-19.2-31-28.8-46.6c-1.2-1.9-3.8-1.4-4.6,0.6c-6.2,16.2-12.4,32.4-18.6,48.6c1.5-0.2,3-0.4,4.6-0.6
			C57.2,40.4,45.6,23.4,34,6.4c-1-1.5-3.3-1.7-4.3,0C19.9,23.6,10.1,40.8,0.3,58C-1.2,60.8,3.1,63.4,4.7,60.6L4.7,60.6z"/>
	</g>
</g>
</svg>
