<?xml version="1.0" encoding="utf-8"?>
<!-- Generator: Adobe Illustrator 20.1.0, SVG Export Plug-In . SVG Version: 6.00 Build 0)  -->
<svg version="1.1" id="Layer_1" xmlns="https://www.w3.org/2000/svg" xmlns:xlink="https://www.w3.org/1999/xlink" x="0px" y="0px"
	 viewBox="0 0 700 500" style="enable-background:new 0 0 700 500;" xml:space="preserve">
<style type="text/css">
	.st0{fill:#D3D3D3;}
	.st1{fill:#5C5C5C;}
	.st2{fill:#29459C;}
	.st3{fill:#EF4778;}
	.st4{fill:#FFFFFF;}
	.st5{fill:#27436E;}
	.st6{fill:none;stroke:#000000;stroke-width:2;stroke-miterlimit:10;}
</style>
<g id="XMLID_1_">
	<g id="XMLID_2_">
		<g>
			<path d="M657.5,222.1v124.1c0,7.4-6.1,13.5-13.5,13.5H327.5c-7.4,0-13.5-6.1-13.5-13.5V225.1h1.5h1.5v121.1
				c0,5.8,4.7,10.5,10.5,10.5H644c5.8,0,10.5-4.7,10.5-10.5V225.1h1.5v-3H657.5z"/>
			<path d="M657.5,202.2v19.9H656h-1.5v-19.9c0-5.8-4.7-10.5-10.5-10.5H327.5c-5.8,0-10.5,4.7-10.5,10.5v19.9h-1.5v3H314v-22.9
				c0-7.4,6.1-13.5,13.5-13.5H644C651.4,188.8,657.5,194.8,657.5,202.2z"/>
			<rect x="654.5" y="222.1" width="1.5" height="3"/>
			<path class="st0" d="M654.5,225.1v121.1c0,5.8-4.7,10.5-10.5,10.5H327.5c-5.8,0-10.5-4.7-10.5-10.5V225.1H654.5z M638.7,335.7
				v-5.5c0-6.8-5.5-12.3-12.3-12.3h-44.9c-6.8,0-12.3,5.5-12.3,12.3v5.5c0,6.8,5.5,12.3,12.3,12.3h44.9
				C633.1,348,638.7,342.5,638.7,335.7z M584.9,293.2v-3h-37.6v3H584.9z M555.8,258.6l0.4-12.5h-2.5l0.4,12.5H555.8z M556.5,262.3
				c0-0.9-0.6-1.6-1.5-1.6c-0.9,0-1.5,0.7-1.5,1.6c0,0.9,0.6,1.6,1.5,1.6C555.9,263.9,556.5,263.2,556.5,262.3z M551.6,253v-2.2
				c-0.2-0.1-0.4-0.1-0.7-0.1c-1.5,0-2.9,1.1-3.5,2.8h-0.1l-0.1-2.5h-2c0.1,1.2,0.1,2.4,0.1,3.9v8.7h2.3v-6.7c0-0.4,0-0.8,0.1-1.1
				c0.3-1.7,1.5-2.9,3.1-2.9C551.1,252.9,551.3,253,551.6,253z M542.4,257.8c0-0.2,0.1-0.6,0.1-1.1c0-2.3-1.1-5.9-5.2-5.9
				c-3.7,0-5.9,3-5.9,6.8c0,3.8,2.3,6.4,6.2,6.4c2,0,3.4-0.4,4.2-0.8l-0.4-1.6c-0.9,0.4-1.8,0.7-3.5,0.7c-2.3,0-4.3-1.3-4.3-4.4
				H542.4z M538.2,339.2v-12.6c0-4.3-3.5-7.8-7.8-7.8H341.9c-4.3,0-7.8,3.5-7.8,7.8v12.6c0,4.3,3.5,7.8,7.8,7.8h188.6
				C534.7,347,538.2,343.5,538.2,339.2z M529.9,252.8v-1.7h-3.3v-3.6l-2.2,0.6v3h-2v1.7h2v6.9c0,1.5,0.2,2.6,0.9,3.3
				c0.5,0.6,1.4,1,2.5,1c0.9,0,1.6-0.1,2-0.3l-0.1-1.7c-0.3,0.1-0.7,0.1-1.3,0.1c-1.3,0-1.7-0.9-1.7-2.4v-6.8H529.9z M527.5,293.2
				v-3h-37.6v3H527.5z M521.3,252.8v-1.7H518v-3.6l-2.2,0.6v3h-2v1.7h2v6.9c0,1.5,0.2,2.6,0.9,3.3c0.5,0.6,1.4,1,2.5,1
				c0.9,0,1.6-0.1,2-0.3l-0.1-1.7c-0.3,0.1-0.7,0.1-1.3,0.1c-1.3,0-1.7-0.9-1.7-2.4v-6.8H521.3z M512.3,257.8c0-0.2,0.1-0.6,0.1-1.1
				c0-2.3-1.1-5.9-5.2-5.9c-3.7,0-5.9,3-5.9,6.8c0,3.8,2.3,6.4,6.2,6.4c2,0,3.4-0.4,4.2-0.8l-0.4-1.6c-0.9,0.4-1.8,0.7-3.5,0.7
				c-2.3,0-4.3-1.3-4.3-4.4H512.3z M498.4,263.6v-18.5h-2.3v18.5H498.4z M485,263.6h2.1c-0.2-0.9-0.2-1.9-0.2-3v-4.7
				c0-2.5-0.9-5.1-4.8-5.1c-1.6,0-3.1,0.4-4.1,1.1l0.5,1.5c0.9-0.6,2.1-0.9,3.3-0.9c2.6,0,2.9,1.9,2.9,2.9v0.3
				c-4.9,0-7.6,1.6-7.6,4.7c0,1.8,1.3,3.6,3.9,3.6c1.8,0,3.1-0.9,3.8-1.9h0.1L485,263.6z M470.9,293.2v-3h-37.6v3H470.9z
				 M468.6,253.2l0.6-1.7c-0.7-0.4-1.8-0.8-3.1-0.8c-2.7,0-4.3,1.7-4.3,3.7c0,1.5,1.1,2.8,3.3,3.6c1.7,0.6,2.3,1.2,2.3,2.3
				c0,1-0.8,1.9-2.4,1.9c-1.1,0-2.4-0.5-3-0.9l-0.6,1.7c0.9,0.5,2.1,0.9,3.5,0.9c3,0,4.7-1.6,4.7-3.8c0-1.9-1.1-3-3.3-3.8
				c-1.6-0.6-2.4-1.1-2.4-2.1c0-0.9,0.8-1.7,2.1-1.7C467.2,252.5,468.1,252.9,468.6,253.2z M458.3,253.2l0.6-1.7
				c-0.7-0.4-1.8-0.8-3.1-0.8c-2.7,0-4.4,1.7-4.4,3.7c0,1.5,1.1,2.8,3.3,3.6c1.7,0.6,2.3,1.2,2.3,2.3c0,1-0.8,1.9-2.4,1.9
				c-1.1,0-2.3-0.5-3-0.9l-0.6,1.7c0.9,0.5,2.2,0.9,3.5,0.9c3,0,4.7-1.6,4.7-3.8c0-1.9-1.1-3-3.3-3.8c-1.6-0.6-2.4-1.1-2.4-2.1
				c0-0.9,0.8-1.7,2.1-1.7C456.9,252.5,457.8,252.9,458.3,253.2z M449,257.8c0-0.2,0.1-0.6,0.1-1.1c0-2.3-1.1-5.9-5.2-5.9
				c-3.7,0-5.9,3-5.9,6.8c0,3.8,2.3,6.4,6.2,6.4c2,0,3.4-0.4,4.2-0.8l-0.4-1.6c-0.9,0.4-1.8,0.7-3.5,0.7c-2.3,0-4.3-1.3-4.3-4.4H449
				z M433.2,263.6h2c-0.1-1-0.1-2.1-0.1-3.4v-9.1h-2.3v7.7c0,0.4-0.1,0.8-0.2,1.2c-0.4,1-1.5,2.1-3,2.1c-2.1,0-2.8-1.6-2.8-4v-7
				h-2.3v7.4c0,4.4,2.4,5.5,4.3,5.5c2.2,0,3.6-1.3,4.2-2.3h0L433.2,263.6z M421.2,262.9v-8.4h-5.8v1.8h3.6v5.2
				c-0.5,0.3-1.5,0.5-3,0.5c-4.1,0-6.8-2.6-6.8-7.1c0-4.4,2.8-7,7-7c1.8,0,2.9,0.3,3.9,0.8l0.5-1.8c-0.8-0.4-2.3-0.8-4.4-0.8
				c-5.9,0-9.5,3.8-9.5,9.1c0,2.7,0.9,5.1,2.5,6.5c1.7,1.6,3.9,2.3,6.5,2.3C418.2,263.8,420.2,263.2,421.2,262.9z M413.5,293.2v-3
				h-37.6v3H413.5z"/>
			<rect x="317" y="222.1" width="337.5" height="3"/>
			<path class="st1" d="M654.5,202.2v19.9H317v-19.9c0-5.8,4.7-10.5,10.5-10.5H644C649.8,191.8,654.5,196.5,654.5,202.2z M446,206.9
				c0-0.6-0.4-1.1-1-1.1c-0.6,0-1,0.4-1,1.1c0,0.6,0.4,1.1,1,1.1C445.6,207.9,446,207.5,446,206.9z M446,213c0-0.6-0.4-1.1-1-1.1
				c-0.6,0-1,0.5-1,1.1c0,0.6,0.4,1.1,1,1.1C445.6,214.1,446,213.6,446,213z M439.2,214.1c2,0,3.2-1,3.2-2.5c0-1.3-0.8-2-2.2-2.5
				c-1.1-0.4-1.6-0.7-1.6-1.4c0-0.6,0.5-1.1,1.4-1.1c0.8,0,1.4,0.3,1.7,0.5l0.4-1.1c-0.5-0.3-1.2-0.5-2.1-0.5
				c-1.8,0-2.9,1.1-2.9,2.5c0,1,0.7,1.9,2.2,2.4c1.1,0.4,1.6,0.8,1.6,1.6c0,0.7-0.5,1.2-1.6,1.2c-0.8,0-1.6-0.3-2-0.6l-0.4,1.2
				C437.4,213.9,438.3,214.1,439.2,214.1z M433.9,211.5l2.3-6h-1.6l-1.7,4.9c-0.2,0.6-0.4,1.2-0.5,1.8h0c-0.1-0.5-0.3-1.2-0.5-1.7
				l-1.8-5h-1.7l3.1,7.8c0.1,0.2,0.1,0.3,0.1,0.4c0,0.1-0.1,0.2-0.1,0.4c-0.3,0.8-0.9,1.4-1.3,1.7c-0.5,0.4-1,0.6-1.3,0.8l0.4,1.3
				c0.4-0.1,1.1-0.3,1.9-1C432,215.9,432.8,214.4,433.9,211.5z M425.8,213.9h1.4c-0.1-0.6-0.1-1.3-0.1-2v-3.1c0-1.7-0.6-3.5-3.2-3.5
				c-1.1,0-2.1,0.3-2.8,0.8l0.3,1c0.6-0.4,1.4-0.6,2.2-0.6c1.7,0,1.9,1.3,1.9,1.9v0.2c-3.2,0-5.1,1.1-5.1,3.1c0,1.2,0.9,2.4,2.6,2.4
				c1.2,0,2.1-0.6,2.6-1.2h0.1L425.8,213.9z M418.1,203.8l0.4-1.2c-0.5-0.3-1.4-0.6-2.6-0.6c-2.3,0-3.8,1.4-3.8,3.2
				c0,1.7,1.2,2.6,3.1,3.3c1.6,0.6,2.2,1.2,2.2,2.3c0,1.2-0.9,2-2.4,2c-1.1,0-2-0.4-2.7-0.8l-0.4,1.3c0.6,0.4,1.9,0.8,3,0.8
				c2.8,0,4.1-1.6,4.1-3.4c0-1.7-1-2.7-3-3.4c-1.6-0.6-2.3-1.2-2.3-2.3c0-0.8,0.6-1.8,2.2-1.8C417,203.2,417.7,203.6,418.1,203.8z
				 M407,206.6v-1.2h-2.2v-2.4l-1.5,0.4v2H402v1.2h1.3v4.6c0,1,0.2,1.8,0.6,2.2c0.4,0.4,1,0.6,1.7,0.6c0.6,0,1.1-0.1,1.4-0.2
				l-0.1-1.1c-0.2,0.1-0.5,0.1-0.9,0.1c-0.8,0-1.1-0.6-1.1-1.6v-4.5H407z M401.1,209.6c0-2.6-1.5-4.3-3.6-4.3c-1.4,0-2.4,0.6-3,1.6
				h0l-0.1-1.4H393c0,0.8,0.1,1.7,0.1,2.8v9.1h1.5v-4.6h0c0.5,0.8,1.5,1.3,2.6,1.3C399.2,214.1,401.1,212.6,401.1,209.6z
				 M389.7,204.1c0.6,0,1-0.4,1-0.9c0-0.5-0.4-0.9-0.9-0.9c-0.6,0-1,0.4-1,0.9C388.8,203.6,389.2,204.1,389.7,204.1z M390.5,213.9
				v-8.4H389v8.4H390.5z M387.4,206.8v-1.4c-0.1,0-0.3-0.1-0.4-0.1c-1,0-2,0.7-2.3,1.9h-0.1l-0.1-1.7h-1.3c0.1,0.8,0.1,1.6,0.1,2.6
				v5.8h1.5v-4.5c0-0.3,0-0.5,0.1-0.7c0.2-1.1,1-2,2.1-2C387.1,206.7,387.2,206.8,387.4,206.8z M381.1,206.9l0.3-1.2
				c-0.4-0.2-1.2-0.4-2.1-0.4c-2.8,0-4.5,1.9-4.5,4.5c0,2.6,1.6,4.3,4.2,4.3c1.1,0,2-0.3,2.4-0.5l-0.3-1.1c-0.4,0.2-1,0.4-1.9,0.4
				c-1.7,0-2.9-1.2-2.9-3.1c0-1.8,1-3.2,3-3.2C380.2,206.5,380.8,206.7,381.1,206.9z M372.4,203.8l0.4-1.2c-0.5-0.3-1.4-0.6-2.6-0.6
				c-2.3,0-3.8,1.4-3.8,3.2c0,1.7,1.2,2.6,3.1,3.3c1.6,0.6,2.2,1.2,2.2,2.3c0,1.2-0.9,2-2.4,2c-1.1,0-2-0.4-2.7-0.8l-0.4,1.3
				c0.6,0.4,1.9,0.8,3,0.8c2.8,0,4.1-1.6,4.1-3.4c0-1.7-1-2.7-3-3.4c-1.6-0.6-2.3-1.2-2.3-2.3c0-0.8,0.6-1.8,2.2-1.8
				C371.3,203.2,372,203.6,372.4,203.8z M363,213.9h1.4c-0.1-0.6-0.1-1.3-0.1-2v-3.1c0-1.7-0.6-3.5-3.2-3.5c-1.1,0-2.1,0.3-2.8,0.8
				l0.4,1c0.6-0.4,1.4-0.6,2.2-0.6c1.7,0,1.9,1.3,1.9,1.9v0.2c-3.3,0-5.1,1.1-5.1,3.1c0,1.2,0.9,2.4,2.6,2.4c1.2,0,2.1-0.6,2.6-1.2
				h0.1L363,213.9z M353.7,213.9l3.3-8.4h-1.6l-1.6,4.7c-0.3,0.8-0.5,1.5-0.7,2.2H353c-0.2-0.7-0.4-1.4-0.7-2.2l-1.6-4.7H349
				l3.2,8.4H353.7z M346.5,213.9h1.4c-0.1-0.6-0.1-1.3-0.1-2v-3.1c0-1.7-0.6-3.5-3.2-3.5c-1.1,0-2.1,0.3-2.8,0.8l0.4,1
				c0.6-0.4,1.4-0.6,2.2-0.6c1.7,0,1.9,1.3,1.9,1.9v0.2c-3.3,0-5.1,1.1-5.1,3.1c0,1.2,0.9,2.4,2.6,2.4c1.2,0,2.1-0.6,2.6-1.2h0.1
				L346.5,213.9z M339.3,210v-7.9h-1.5v7.7c0,2.3-0.8,2.9-2.2,2.9c-0.5,0-1-0.1-1.3-0.2l-0.2,1.2c0.4,0.2,1.1,0.3,1.6,0.3
				C337.8,214.1,339.3,213.1,339.3,210z"/>
			<path d="M638.7,330.2v5.5c0,6.8-5.5,12.3-12.3,12.3h-44.9c-6.8,0-12.3-5.5-12.3-12.3v-5.5c0-6.8,5.5-12.3,12.3-12.3h44.9
				C633.1,317.8,638.7,323.4,638.7,330.2z M636.7,335.7v-5.5c0-5.7-4.6-10.3-10.3-10.3h-44.9c-5.7,0-10.3,4.6-10.3,10.3v5.5
				c0,5.7,4.6,10.3,10.3,10.3h44.9C632,346,636.7,341.4,636.7,335.7z"/>
			<path class="st2" d="M636.7,330.2v5.5c0,5.7-4.6,10.3-10.3,10.3h-44.9c-5.7,0-10.3-4.6-10.3-10.3v-5.5c0-5.7,4.6-10.3,10.3-10.3
				h44.9C632,319.8,636.7,324.5,636.7,330.2z M617.5,336.5l2.1-5.6h-1.5l-1.5,4.6c-0.2,0.6-0.4,1.2-0.5,1.6h0
				c-0.1-0.5-0.3-1.1-0.5-1.6l-1.7-4.6h-1.6l2.9,7.2c0.1,0.2,0.1,0.3,0.1,0.4c0,0.1,0,0.2-0.1,0.3c-0.3,0.7-0.8,1.3-1.2,1.6
				c-0.4,0.4-0.9,0.6-1.2,0.7l0.4,1.2c0.4-0.1,1.1-0.3,1.8-0.9C615.7,340.6,616.4,339.2,617.5,336.5z M609.9,338.8h1.3
				c-0.1-0.5-0.1-1.2-0.1-1.9V334c0-1.6-0.6-3.2-3-3.2c-1,0-1.9,0.3-2.6,0.7l0.3,0.9c0.5-0.4,1.3-0.6,2-0.6c1.6,0,1.8,1.2,1.8,1.8
				v0.2c-3,0-4.7,1-4.7,2.9c0,1.1,0.8,2.2,2.4,2.2c1.1,0,2-0.5,2.4-1.2h0L609.9,338.8z M604.3,338.8l-3.4-4.6l3-3.2h-1.7l-2.3,2.7
				c-0.2,0.3-0.5,0.6-0.7,0.9h0v-7.2h-1.4v11.5h1.4v-3l0.7-0.8l2.7,3.8H604.3z M595.9,333.2c0-3.2-1.9-5.5-4.9-5.5
				c-2.9,0-5.1,2.3-5.1,5.7c0,3.3,2,5.5,4.9,5.5C593.6,339,595.9,337,595.9,333.2z"/>
			<path class="st3" d="M629.5,81.8c0.4,0.6,0.4,1.8-0.2,3.4c-1.2,3.1-4.4,6-7.4,6.2c-4.5,0.3-5.8-2.9-4.6-7.6
				c1.4-5.3,5.7-11.2,4.7-11.6c-0.5-0.2-3.5,1.5-6.6,5.5c-2.9,3.6-4.9,8.8-6.8,14c-0.2,0.5-0.5,0.7-1,0.3c-0.4-0.4-0.7-0.8-0.9-1.4
				c1.2-1.1,2.2-2.6,2.7-4c0.6-1.5,0.5-2.8,0.2-3.3c-0.2-0.5-0.6-0.4-0.8,0.1c-0.6,1.5-1.4,3-2.3,4.2c0-0.3,0.1-0.7,0.2-1.1
				c0.8-3.4,4.4-11,7.4-16.2c0.3-0.6,0.8-0.6,1.1-0.1c0.9,1.3,1,3.1,0.5,5c2.2-2.7,5.6-5.9,7.4-5.7c1.8,0.2,3.6,2.6,2.5,5.5
				c-1,2.4-3.3,6.5-4.3,9.3c-1.2,3.2-0.7,5.6,1.2,5.4c2.1-0.3,4.5-3.9,6.3-7.8C628.8,81.4,629.2,81.3,629.5,81.8z"/>
			<path class="st4" d="M619.6,331l-2.1,5.6c-1,2.7-1.7,4.1-2.7,4.9c-0.7,0.6-1.4,0.9-1.8,0.9l-0.4-1.2c0.4-0.1,0.8-0.3,1.2-0.7
				c0.4-0.3,0.9-0.9,1.2-1.6c0.1-0.1,0.1-0.3,0.1-0.3c0-0.1,0-0.2-0.1-0.4l-2.9-7.2h1.6l1.7,4.6c0.2,0.5,0.4,1.1,0.5,1.6h0
				c0.1-0.5,0.3-1.1,0.5-1.6l1.5-4.6H619.6z"/>
			<path class="st4" d="M611.2,338.8h-1.3l-0.1-1h0c-0.4,0.6-1.3,1.2-2.4,1.2c-1.6,0-2.4-1.1-2.4-2.2c0-1.9,1.7-2.9,4.7-2.9v-0.2
				c0-0.7-0.2-1.8-1.8-1.8c-0.7,0-1.5,0.2-2,0.6l-0.3-0.9c0.6-0.4,1.6-0.7,2.6-0.7c2.4,0,3,1.6,3,3.2v2.9
				C611.1,337.6,611.1,338.2,611.2,338.8z M609.7,336.1v-1.4c-1.6,0-3.3,0.2-3.3,1.8c0,0.9,0.6,1.4,1.3,1.4c1,0,1.7-0.6,1.9-1.3
				C609.7,336.5,609.7,336.3,609.7,336.1z"/>
			<path class="st2" d="M609.7,334.8v1.4c0,0.1,0,0.3-0.1,0.5c-0.2,0.7-0.9,1.3-1.9,1.3c-0.7,0-1.3-0.4-1.3-1.4
				C606.4,335,608.2,334.8,609.7,334.8z"/>
			<path class="st3" d="M609.5,83.2c0.2,0.5,0.3,1.8-0.2,3.3c-0.5,1.4-1.5,2.8-2.7,4c-0.3-0.8-0.4-1.7-0.2-2.9
				c0.9-1.3,1.7-2.8,2.3-4.2C608.9,82.8,609.2,82.7,609.5,83.2z"/>
			<path class="st3" d="M606.4,87.5c-0.2,1.2-0.1,2.2,0.2,2.9c-1.3,1.3-3,2.2-4.5,2.2c-2.9,0-4.5-1.5-4.6-4
				c-1.5,2.1-3.5,4.1-5.9,4.5l-0.2-1.7c0.1,0,0.2,0,0.2,0c2.2-0.1,4.7-3.7,7.1-8.5c2-4.1,2.7-6.9,2.5-8.3l1.5-0.2
				c0.6-1.3,1.2-2.5,1.7-3.4c0.4-0.7,0.9-0.9,1.2-0.4c0.9,0.9,1.4,3.1,0.4,5.9c-1,2.5-3.4,6.6-4.4,9.5c-1.1,3.1-1,5.3,0.8,5.1
				C603.5,91,605,89.5,606.4,87.5z"/>
			<path class="st4" d="M600.8,334.2l3.4,4.6h-1.7l-2.7-3.8l-0.7,0.8v3h-1.4v-11.5h1.4v7.2h0c0.2-0.3,0.5-0.6,0.7-0.9l2.3-2.7h1.7
				L600.8,334.2z"/>
			<path class="st3" d="M602.6,74.4l-1.5,0.2c-0.1-0.7-0.4-1.1-0.9-1.1c-1.7,0-5.3,3.7-7.9,8.6c-2.4,4.6-2.8,9.1-1,9.3l0.2,1.7
				c-0.2,0-0.3,0-0.5,0.1c-2.3,0.2-3.9-1.3-4.5-3.5c0.4-0.6,0.7-1.2,1-1.8c0.5-1.2,0.5-3,0.2-3.4c-0.3-0.3-0.7-0.3-1,0.2
				c-0.1,0.1-0.1,0.3-0.2,0.4c0.3-1.6,1-3.2,2-4.9c3.8-6.5,7.9-9.2,10.5-9.4C601.4,70.7,602.6,72.3,602.6,74.4z"/>
			<path class="st4" d="M591,327.7c3,0,4.9,2.3,4.9,5.5c0,3.8-2.3,5.7-5.1,5.7c-2.9,0-4.9-2.2-4.9-5.5
				C586,330,588.1,327.7,591,327.7z M594.4,333.3c0-2.2-1.1-4.4-3.5-4.4c-2.3,0-3.5,2.1-3.5,4.5c0,2.3,1.3,4.4,3.5,4.4
				C593.2,337.8,594.4,335.8,594.4,333.3z"/>
			<path class="st2" d="M591,328.9c2.3,0,3.5,2.3,3.5,4.4c0,2.5-1.3,4.5-3.5,4.5c-2.2,0-3.5-2.1-3.5-4.4
				C587.5,331,588.6,328.9,591,328.9z"/>
			<path class="st3" d="M587.8,84.5c0.3,0.4,0.2,2.1-0.2,3.4c-0.2,0.6-0.6,1.2-1,1.8c-0.3-1.3-0.3-2.8,0.1-4.6
				c0.1-0.1,0.1-0.3,0.2-0.4C587.1,84.2,587.5,84.2,587.8,84.5z"/>
			<path class="st3" d="M586.7,85.1c-0.4,1.7-0.4,3.3-0.1,4.6c-1.6,2.3-4.1,4.2-6.6,4.4c-4.6,0.3-6.5-3.2-4.9-7.7
				c1.7-4.5,6-10.8,5.1-11c-0.4-0.1-2,0.5-4.9,3.6l-1.1-1.1c2.4-2.7,5.7-5.4,7.5-5.5c1.9-0.1,2.5,3,1.7,5.7
				c-0.8,2.4-3.1,6.1-4.3,8.8c-1.3,3.1-0.4,5.5,1.5,5.3C582.8,92.2,584.9,88.8,586.7,85.1z"/>
			<rect x="547.3" y="290.2" width="37.6" height="3"/>
			<path class="st3" d="M574.3,78l1.1,1.1c-0.2,0.2-0.3,0.4-0.5,0.6c-4.1,4.7-6.3,10-8.2,15.1c-0.3,0.7-0.7,0.8-1.2,0.3
				c-0.9-0.7-1.8-2.7-0.6-6.7c1.4-4.5,6.7-12.2,5.6-12.5c-0.6-0.2-2.6,1-5.2,4l-1.2-0.7c2.1-2.9,5.9-6.2,7.8-6.3
				C573.7,72.8,574.9,75.6,574.3,78z"/>
			<path class="st3" d="M564.1,79.2l1.2,0.7c-0.3,0.4-0.7,0.8-1.1,1.3c-2.9,3.6-5.1,8.7-6.9,13.8c-0.2,0.5-0.5,0.7-1,0.3
				c-0.8-0.6-1.2-1.4-1.3-2.6c0.9-0.8,1.6-1.8,2.1-2.8c0.8-1.5,1-2.7,0.9-3.1c-0.2-0.5-0.6-0.5-0.9,0c-0.4,0.6-0.8,1.2-1.3,1.9
				c1.2-3.8,4.2-10.4,6.8-15.1c0.3-0.6,0.8-0.6,1.1-0.1C564.8,75,564.8,77.1,564.1,79.2z"/>
			<path class="st3" d="M558.1,86.9c0.1,0.5,0,1.7-0.9,3.1c-0.5,1-1.3,1.9-2.1,2.8c0-0.8,0.1-1.7,0.4-2.8c0.1-0.4,0.2-0.8,0.4-1.3
				c0.5-0.6,0.9-1.2,1.3-1.9C557.5,86.4,557.9,86.4,558.1,86.9z"/>
			<polygon points="556.2,246.1 555.8,258.6 554.1,258.6 553.7,246.1 			"/>
			<path class="st3" d="M555.8,88.7c-0.2,0.5-0.3,0.9-0.4,1.3c-0.3,1.1-0.4,2-0.4,2.8c-2,2-4.7,3.5-7.7,4.9
				c-2.4,7.3-5.6,15.9-9.8,17.9c-1,0.5-2.1,0.4-3.1-0.9c-1.2-1.5-2.3-3.3-1.5-6.5c1.2-4.9,5.5-8.4,10.6-10.8
				c0.4-1.2,0.8-2.5,1.3-3.8c-1.2,1.4-2.8,2.6-4.4,2.9l-0.3-1.6c0,0,0,0,0.1,0c2.1-0.1,4.5-3.6,6.9-8.4c2.1-4.3,2.8-7.2,2.5-8.5
				l1.5-0.2c0.6-1.1,1.1-2.1,1.5-3c0.4-0.8,0.9-0.8,1.3-0.4c0.9,0.9,1.4,3.1,0.3,5.8c-1.4,3.3-4.3,9.9-6.1,15.2
				C551.6,93.4,554,91.1,555.8,88.7z M535.5,112.8c0.8,1,4.6-4.8,7.4-13.1C536.3,104.2,534.5,111.6,535.5,112.8z"/>
			<path d="M554.9,260.7c0.9,0,1.5,0.7,1.5,1.6c0,0.9-0.6,1.6-1.5,1.6c-0.9,0-1.5-0.7-1.5-1.6C553.4,261.4,554.1,260.7,554.9,260.7z
				"/>
			<path d="M551.6,250.9v2.2c-0.2,0-0.5-0.1-0.8-0.1c-1.6,0-2.8,1.2-3.1,2.9c-0.1,0.3-0.1,0.7-0.1,1.1v6.7h-2.3V255
				c0-1.5,0-2.8-0.1-3.9h2l0.1,2.5h0.1c0.6-1.7,2-2.8,3.5-2.8C551.2,250.8,551.3,250.8,551.6,250.9z"/>
			<path class="st3" d="M551.2,77.8l-1.5,0.2c-0.1-0.5-0.4-0.8-0.9-0.8c-1.6,0-5.3,3.7-7.9,8.5c-2.5,4.7-2.8,9.3-0.7,9.3l0.3,1.6
				c-0.2,0.1-0.5,0.1-0.7,0.1c-2.2,0.2-3.8-1.2-4.4-3.3c0,0,0,0,0,0c0.4-0.6,0.8-1.3,1-1.9c0.6-1.6,0.6-2.8,0.2-3.4
				c-0.3-0.4-0.7-0.4-0.9,0.1c-0.1,0.3-0.3,0.7-0.5,1c0.3-1.7,1-3.5,2-5.4c3.7-6.4,7.8-9.1,10.5-9.3C550,74.4,551.2,76,551.2,77.8z"
				/>
			<path d="M542.5,256.7c0,0.5,0,0.8-0.1,1.1h-8.8c0.1,3.1,2,4.4,4.3,4.4c1.6,0,2.6-0.3,3.5-0.7l0.4,1.6c-0.8,0.4-2.2,0.8-4.2,0.8
				c-3.9,0-6.2-2.6-6.2-6.4c0-3.8,2.2-6.8,5.9-6.8C541.4,250.8,542.5,254.4,542.5,256.7z M540.3,256.1c0-1.5-0.6-3.7-3.2-3.7
				c-2.3,0-3.3,2.1-3.5,3.7H540.3z"/>
			<path class="st0" d="M537.1,252.4c2.6,0,3.2,2.3,3.2,3.7h-6.7C533.8,254.5,534.8,252.4,537.1,252.4z"/>
			<path class="st3" d="M536.7,88.2c0.4,0.6,0.4,1.8-0.2,3.4c-0.3,0.7-0.6,1.3-1,1.9c-0.3-1.2-0.4-2.6-0.1-4.2
				c0.2-0.3,0.3-0.7,0.5-1C536,87.8,536.4,87.8,536.7,88.2z"/>
			<path class="st3" d="M535.4,93.4C535.4,93.4,535.4,93.4,535.4,93.4c-1.5,2.3-4,4.1-6.4,4.3c-4.5,0.3-5.8-2.9-4.6-7.6
				c1.4-5.3,5.6-11.2,4.7-11.6c-0.5-0.2-3.5,1.5-6.6,5.5c-2.9,3.6-4.9,8.8-6.8,14c-0.2,0.5-0.5,0.7-1,0.3c-0.4-0.4-0.7-0.8-0.9-1.4
				c1.2-1.1,2.1-2.5,2.7-3.9c0.6-1.5,0.5-2.8,0.2-3.3c-0.2-0.5-0.6-0.4-0.8,0.1c-0.6,1.5-1.4,3-2.3,4.2c0-0.3,0.1-0.7,0.2-1.1
				c0.8-3.4,4.4-11,7.4-16.2c0.3-0.6,0.8-0.6,1.1-0.1c0.9,1.3,1,3.1,0.5,5c2.2-2.7,5.6-5.9,7.4-5.7c1.8,0.2,3.6,2.6,2.5,5.5
				c-1,2.4-3.3,6.5-4.3,9.3c-1.2,3.2-0.7,5.6,1.2,5.4c2-0.2,4.1-3.3,5.8-6.8C535,90.8,535.1,92.2,535.4,93.4z"/>
			<path d="M529.9,251.1v1.7h-3.3v6.8c0,1.6,0.4,2.4,1.7,2.4c0.6,0,1-0.1,1.3-0.1l0.1,1.7c-0.4,0.2-1.1,0.3-2,0.3
				c-1.1,0-1.9-0.3-2.5-1c-0.7-0.7-0.9-1.8-0.9-3.3v-6.9h-2v-1.7h2v-3l2.2-0.6v3.6H529.9z"/>
			<rect x="489.9" y="290.2" width="37.6" height="3"/>
			<path d="M521.3,251.1v1.7H518v6.8c0,1.6,0.4,2.4,1.7,2.4c0.6,0,1-0.1,1.3-0.1l0.1,1.7c-0.5,0.2-1.1,0.3-2,0.3
				c-1.1,0-1.9-0.3-2.5-1c-0.6-0.7-0.9-1.8-0.9-3.3v-6.9h-2v-1.7h2v-3l2.2-0.6v3.6H521.3z"/>
			<path class="st3" d="M516.7,89.6c0.2,0.5,0.3,1.8-0.2,3.3c-0.5,1.4-1.5,2.8-2.7,3.9c-0.3-0.8-0.4-1.7-0.2-2.9
				c0.9-1.3,1.6-2.8,2.3-4.2C516.1,89.2,516.5,89.1,516.7,89.6z"/>
			<path class="st3" d="M513.6,93.9c-0.2,1.2-0.1,2.2,0.2,2.9c-1.4,1.3-3,2.2-4.5,2.2c-2.9,0-4.5-1.6-4.6-4
				c-1.5,2.1-3.5,4.1-5.9,4.5l-0.2-1.7c0.1,0,0.2,0,0.2,0c2.2-0.1,4.7-3.7,7.1-8.5c2-4.1,2.7-6.9,2.5-8.3l1.5-0.2
				c0.6-1.3,1.2-2.5,1.7-3.3c0.4-0.7,0.8-0.9,1.3-0.4c0.8,0.9,1.4,3.1,0.3,5.9c-1,2.5-3.4,6.6-4.4,9.5c-1.1,3.1-1,5.3,0.8,5.1
				C510.8,97.4,512.3,95.9,513.6,93.9z"/>
			<path d="M512.4,256.7c0,0.5,0,0.8-0.1,1.1h-8.8c0,3.1,2,4.4,4.3,4.4c1.6,0,2.6-0.3,3.5-0.7l0.4,1.6c-0.8,0.4-2.2,0.8-4.2,0.8
				c-3.9,0-6.2-2.6-6.2-6.4c0-3.8,2.2-6.8,5.9-6.8C511.3,250.8,512.4,254.4,512.4,256.7z M510.2,256.1c0-1.5-0.6-3.7-3.2-3.7
				c-2.3,0-3.3,2.1-3.5,3.7H510.2z"/>
			<path class="st0" d="M507,252.4c2.6,0,3.2,2.3,3.2,3.7h-6.7C503.7,254.5,504.7,252.4,507,252.4z"/>
			<path class="st3" d="M509.8,80.8l-1.5,0.2c-0.1-0.7-0.4-1.1-0.9-1.1c-1.7,0-5.3,3.7-7.9,8.6c-2.4,4.6-2.8,9.1-1,9.3l0.2,1.7
				c-0.1,0-0.3,0.1-0.5,0.1c-4.9,0.3-6.4-6.3-2.4-13c3.9-6.5,7.9-9.2,10.5-9.4C508.6,77.1,509.8,78.7,509.8,80.8z"/>
			<rect x="496.1" y="245.2" width="2.3" height="18.5"/>
			<path class="st3" d="M497,66.2c0.8,1.5,0.9,4-1.1,8.1c-1.4,3-3.2,6.7-5.2,10.9c1.3,0.4,1.9,1.3,2.2,2.2c0.1,0.4,0,0.7-0.5,0.6
				c-0.9-0.1-1.9-0.1-3,0.1c-1.6,3.6-3.1,7.5-4.6,11.6c-0.2,0.5-0.5,0.6-0.9,0.2c-0.8-1-1.4-2.5-0.6-5.8c0.3-1.1,1-3,1.9-5.2
				c-3.8,0.7-7.9,1.7-10.3,1.9c-1.4,3.4-2.8,7-4.1,10.6c-0.2,0.6-0.6,0.7-0.9,0.3c-0.9-1-1.3-2.5-0.7-5.8c0.2-1.1,1-3.1,1.9-5.5
				c-1.2-0.5-1.7-1.2-1.9-1.6c-0.4-0.6-0.3-0.8,0.6-0.8c0.8,0,1.5,0.1,2.2,0c2.9-7.3,7.2-16.8,9.1-20c0.4-0.7,0.9-0.6,1.3,0
				c0.9,1.4,0.9,4-0.8,7.9c-1.3,3.1-3.2,7-5.3,11.5c3.6-0.7,6.8-1.9,10.3-2.3c3-7.1,7-15.8,9-18.7C496.1,65.6,496.6,65.6,497,66.2z"
				/>
			<path d="M487.1,263.6H485l-0.2-1.6h-0.1c-0.7,1-2.1,1.9-3.8,1.9c-2.6,0-3.9-1.8-3.9-3.6c0-3,2.7-4.7,7.6-4.7v-0.3
				c0-1-0.3-2.9-2.9-2.9c-1.2,0-2.4,0.4-3.3,0.9l-0.5-1.5c1-0.7,2.5-1.1,4.1-1.1c3.9,0,4.8,2.6,4.8,5.1v4.7
				C486.9,261.7,487,262.8,487.1,263.6z M484.7,259.4v-2.2c-2.5,0-5.3,0.4-5.3,2.8c0,1.5,1,2.2,2.2,2.2c1.6,0,2.7-1,3-2.1
				C484.6,259.9,484.7,259.6,484.7,259.4z"/>
			<path class="st0" d="M484.7,257.2v2.2c0,0.2,0,0.5-0.1,0.7c-0.4,1.1-1.4,2.1-3,2.1c-1.2,0-2.2-0.7-2.2-2.2
				C479.4,257.6,482.2,257.2,484.7,257.2z"/>
			<rect x="433.3" y="290.2" width="37.6" height="3"/>
			<path d="M469.2,251.6l-0.6,1.7c-0.5-0.3-1.4-0.7-2.6-0.7c-1.3,0-2.1,0.8-2.1,1.7c0,1,0.8,1.5,2.4,2.1c2.2,0.8,3.3,1.9,3.3,3.8
				c0,2.2-1.7,3.8-4.7,3.8c-1.4,0-2.6-0.3-3.5-0.9l0.6-1.7c0.7,0.4,1.9,0.9,3,0.9c1.7,0,2.4-0.8,2.4-1.9c0-1.1-0.6-1.7-2.3-2.3
				c-2.3-0.8-3.3-2.1-3.3-3.6c0-2,1.6-3.7,4.3-3.7C467.4,250.8,468.5,251.1,469.2,251.6z"/>
			<path class="st3" d="M459.6,79.2c0.4,0.6,0.2,1-0.6,1c-1.2-0.1-2.8,0.2-4.1,0.5c-1.8,3.7-4.5,9-6.2,13.6c-1.5,4-0.7,7.2,1.6,7.2
				c2.4-0.1,5.1-4,6.8-8.1c0.3-0.7,0.9-0.8,1.1-0.1c0.3,0.8,0.1,1.8-0.3,3.1c-0.6,1.6-3.8,6.5-8,6.6c-2.1,0.1-4-1.2-4.8-3.6
				c0.3-0.4,0.5-0.9,0.8-1.4c0.8-1.7,0.6-3.1,0.4-3.5c-0.1-0.5-0.7-0.7-1,0.1c-0.1,0.4-0.3,0.8-0.5,1.2c0.1-0.8,0.3-1.7,0.6-2.6
				c0.9-2.7,2.8-7.3,4.8-11.6c-1.8,0.1-3.1-0.6-3.5-1.1c-0.6-0.7-0.3-1.1,0.5-1.1c1.5,0,3-0.3,4.4-0.5c1.4-3,2.8-5.6,3.6-6.8
				c0.4-0.7,1-0.7,1.3-0.1c0.7,1.4,0.8,3.2-0.3,6C458.3,77.7,459.2,78.6,459.6,79.2z"/>
			<path d="M458.9,251.6l-0.6,1.7c-0.5-0.3-1.4-0.7-2.6-0.7c-1.4,0-2.1,0.8-2.1,1.7c0,1,0.8,1.5,2.4,2.1c2.2,0.8,3.3,1.9,3.3,3.8
				c0,2.2-1.7,3.8-4.7,3.8c-1.4,0-2.6-0.3-3.5-0.9l0.6-1.7c0.7,0.4,1.9,0.9,3,0.9c1.7,0,2.4-0.8,2.4-1.9c0-1.1-0.6-1.7-2.3-2.3
				c-2.3-0.8-3.3-2.1-3.3-3.6c0-2,1.6-3.7,4.4-3.7C457,250.8,458.2,251.1,458.9,251.6z"/>
			<path d="M449.1,256.7c0,0.5,0,0.8-0.1,1.1h-8.8c0,3.1,2,4.4,4.3,4.4c1.6,0,2.6-0.3,3.5-0.7l0.4,1.6c-0.8,0.4-2.2,0.8-4.2,0.8
				c-3.9,0-6.2-2.6-6.2-6.4c0-3.8,2.2-6.8,5.9-6.8C448,250.8,449.1,254.4,449.1,256.7z M446.9,256.1c0-1.5-0.6-3.7-3.2-3.7
				c-2.3,0-3.3,2.1-3.5,3.7H446.9z"/>
			<path class="st0" d="M443.7,252.4c2.6,0,3.2,2.3,3.2,3.7h-6.7C440.4,254.5,441.4,252.4,443.7,252.4z"/>
			<path class="st3" d="M446.4,94.5c0.1,0.5,0.3,1.8-0.4,3.5c-0.2,0.5-0.5,1-0.8,1.4c-0.4-1-0.5-2.3-0.3-3.7
				c0.2-0.4,0.4-0.8,0.5-1.2C445.7,93.8,446.3,94,446.4,94.5z"/>
			<path class="st4" d="M445,205.8c0.6,0,1,0.4,1,1.1c0,0.6-0.4,1.1-1,1.1c-0.6,0-1-0.5-1-1.1C444,206.2,444.4,205.8,445,205.8z"/>
			<path class="st4" d="M445,211.9c0.6,0,1,0.5,1,1.1c0,0.6-0.4,1.1-1,1.1c-0.6,0-1-0.5-1-1.1C444,212.4,444.4,211.9,445,211.9z"/>
			<path class="st3" d="M444.9,95.7c-0.2,1.4-0.1,2.7,0.3,3.7c-1.9,2.9-5,4.5-8.2,4.9c-3.4,0.4-5.6,0.1-7.6-1.5
				c-1.2-0.9-1.8-2.1-2-3.4c-2.2,4.7-4.5,10.3-6.6,16.3c-0.2,0.5-0.5,0.6-0.9,0.2c-0.9-1.1-1.2-2.5-0.5-5.8c0.3-1.3,1-3.4,2-5.8
				c2-1,3.7-2.9,4.7-5.2c0.5-1.4,0.6-2.5,0.1-3.3c-0.2-0.4-0.6-0.4-0.9,0.1c-0.6,1.7-1.5,3.3-2.4,4.7c2.8-6.8,6.6-14.8,8.5-17.7
				c0.5-0.7,1-0.6,1.3,0c0.3,0.7,0.5,1.5,0.5,2.3c2.2-2.2,5.2-3.9,7.6-1.6c2.7,2.5,1.9,7.3,0.2,11.8c-1.3,3.6-3.1,6.3-5,7.6
				C440.5,102.4,443.3,99.1,444.9,95.7z M437.4,93.6c1.8-4.4,2-8.8,0.7-9.4c-1.3-0.5-4.4,2.3-6.6,6.6c-0.5,1-1,2-1.6,3.1
				c-1.1,3.4-1.1,6.6,0.4,7.7C432.1,103,435.3,98.9,437.4,93.6z"/>
			<path class="st4" d="M442.4,211.6c0,1.5-1.1,2.5-3.2,2.5c-0.9,0-1.8-0.2-2.4-0.6l0.4-1.2c0.4,0.3,1.2,0.6,2,0.6
				c1.1,0,1.6-0.6,1.6-1.2c0-0.7-0.4-1.1-1.6-1.6c-1.5-0.5-2.2-1.4-2.2-2.4c0-1.4,1.1-2.5,2.9-2.5c0.9,0,1.6,0.2,2.1,0.5l-0.4,1.1
				c-0.3-0.2-0.9-0.5-1.7-0.5c-0.9,0-1.4,0.5-1.4,1.1c0,0.7,0.5,1,1.6,1.4C441.6,209.6,442.4,210.3,442.4,211.6z"/>
			<path class="st4" d="M436.1,205.5l-2.3,6c-1.1,2.9-1.9,4.4-2.9,5.3c-0.8,0.7-1.5,0.9-1.9,1l-0.4-1.3c0.4-0.1,0.9-0.4,1.3-0.8
				c0.4-0.3,0.9-0.9,1.3-1.7c0.1-0.1,0.1-0.3,0.1-0.4c0-0.1,0-0.2-0.1-0.4l-3.1-7.8h1.7l1.8,5c0.2,0.6,0.4,1.2,0.5,1.7h0
				c0.2-0.5,0.3-1.1,0.5-1.8l1.7-4.9H436.1z"/>
			<path d="M435.2,263.6h-2l-0.1-2.1h0c-0.6,1-1.9,2.3-4.2,2.3c-2,0-4.3-1.1-4.3-5.5v-7.4h2.3v7c0,2.4,0.7,4,2.8,4
				c1.5,0,2.6-1.1,3-2.1c0.1-0.3,0.2-0.8,0.2-1.2v-7.7h2.3v9.1C435.1,261.5,435.2,262.7,435.2,263.6z"/>
			<path class="st4" d="M427.1,213.9h-1.4l-0.1-1.1h-0.1c-0.5,0.7-1.4,1.2-2.6,1.2c-1.7,0-2.6-1.2-2.6-2.4c0-2,1.8-3.1,5.1-3.1v-0.2
				c0-0.7-0.2-1.9-1.9-1.9c-0.8,0-1.6,0.2-2.2,0.6l-0.3-1c0.7-0.4,1.7-0.8,2.8-0.8c2.6,0,3.2,1.8,3.2,3.5v3.1
				C427,212.6,427,213.3,427.1,213.9z M425.5,211.1v-1.5c-1.7,0-3.6,0.3-3.6,1.9c0,1,0.7,1.5,1.4,1.5c1.1,0,1.8-0.7,2-1.4
				C425.5,211.4,425.5,211.2,425.5,211.1z"/>
			<path class="st3" d="M426.1,95.8c0.5,0.8,0.4,1.9-0.1,3.3c-0.9,2.3-2.7,4.2-4.7,5.2c0.5-1.2,1-2.4,1.5-3.8c1-1.3,1.9-3,2.4-4.7
				C425.5,95.4,425.9,95.4,426.1,95.8z"/>
			<path class="st3" d="M425.3,79.5c0.8,1.3,0.5,2.8-0.1,3.6c-0.6,0.8-2.1,0.7-3-0.6c-0.9-1.4-0.8-3,0-3.9
				C423,77.6,424.6,78.1,425.3,79.5z"/>
			<path class="st1" d="M425.5,209.6v1.5c0,0.2,0,0.3-0.1,0.5c-0.2,0.7-0.9,1.4-2,1.4c-0.8,0-1.4-0.5-1.4-1.5
				C422,209.9,423.9,209.6,425.5,209.6z"/>
			<path class="st3" d="M421.5,84c0.8,0.8,1.4,3,0.3,5.8c-1,2.4-2.9,6.2-3.9,8.9c-1.1,3.1-0.8,5.2,0.9,5c1.3-0.2,2.7-1.3,3.9-3
				c-0.5,1.3-1,2.6-1.5,3.8c-0.9,0.5-1.9,0.8-2.8,0.8c-2.3,0.2-3.7-0.9-4.2-2.6c0.6-0.8,1.1-1.7,1.4-2.6c0.5-1.6,0.3-2.9,0-3.5
				c-0.2-0.5-0.6-0.4-0.8,0.1c-0.2,0.5-0.4,0.9-0.5,1.4c0-0.1,0.1-0.2,0.1-0.4c1-3.9,4.1-10.4,5.9-13.3
				C420.7,83.7,421,83.5,421.5,84z"/>
			<path d="M421.2,254.4v8.4c-1,0.4-3,1-5.4,1c-2.6,0-4.8-0.7-6.5-2.3c-1.5-1.5-2.5-3.8-2.5-6.5c0-5.2,3.6-9.1,9.5-9.1
				c2,0,3.6,0.4,4.4,0.8l-0.5,1.8c-0.9-0.4-2.1-0.8-3.9-0.8c-4.3,0-7,2.7-7,7c0,4.4,2.7,7.1,6.8,7.1c1.5,0,2.5-0.2,3-0.5v-5.2h-3.6
				v-1.8H421.2z"/>
			<path class="st4" d="M418.5,202.6l-0.4,1.2c-0.4-0.2-1.2-0.5-2.2-0.5c-1.6,0-2.2,0.9-2.2,1.8c0,1.1,0.7,1.6,2.3,2.3
				c2,0.8,3,1.7,3,3.4c0,1.8-1.3,3.4-4.1,3.4c-1.1,0-2.4-0.3-3-0.8l0.4-1.3c0.7,0.4,1.7,0.8,2.7,0.8c1.5,0,2.4-0.8,2.4-2
				c0-1.1-0.6-1.7-2.2-2.3c-1.9-0.7-3.1-1.7-3.1-3.3c0-1.8,1.5-3.2,3.8-3.2C417.1,202,418,202.3,418.5,202.6z"/>
			<path class="st3" d="M415.6,96.6c0.3,0.6,0.5,1.9,0,3.5c-0.3,0.9-0.8,1.8-1.4,2.6c-0.4-1.2-0.4-2.8,0.1-4.5
				c0.2-0.5,0.4-0.9,0.5-1.4C415,96.2,415.4,96.1,415.6,96.6z"/>
			<path class="st3" d="M414.3,98.1c-0.4,1.8-0.5,3.3-0.1,4.5c-1.4,2-3.5,3.3-5.6,3.3c-4.1,0.1-6-3.4-4.9-7.7
				c0.9-3.7,3.9-7.8,5.9-10.4c-2.3,1.6-4.6,2.3-6.3,2.4c-3.1,8.4-8.1,15.8-14.2,17l-0.3-1.5c5.4-1.1,10.3-9.1,12.5-15.7
				c-4.2-1.3,0.5-8.8,2.7-9c1.6-0.2,1.3,3.1,0.2,6.6c1.8-0.4,3.7-1.4,5.6-2.9c0.6-0.5,1.1-0.7,1.6-0.2c1,1,2.5,3.4,1.1,5.3
				c-2.3,3-4.6,6.7-5.3,9.6c-0.8,3,0,5,1.7,5C410.7,104.4,412.8,101.5,414.3,98.1z"/>
			<rect x="375.9" y="290.2" width="37.6" height="3"/>
			<path class="st4" d="M407,205.5v1.2h-2.2v4.5c0,1.1,0.3,1.6,1.1,1.6c0.4,0,0.7-0.1,0.9-0.1l0.1,1.1c-0.3,0.1-0.8,0.2-1.4,0.2
				c-0.7,0-1.3-0.2-1.7-0.6c-0.4-0.4-0.6-1.2-0.6-2.2v-4.6H402v-1.2h1.3v-2l1.5-0.4v2.4H407z"/>
			<path class="st4" d="M397.5,205.3c2,0,3.6,1.7,3.6,4.3c0,3-1.9,4.5-3.8,4.5c-1.1,0-2.1-0.5-2.6-1.3h0v4.6h-1.5v-9.1
				c0-1.1,0-1.9-0.1-2.8h1.4l0.1,1.4h0C395.1,205.9,396.1,205.3,397.5,205.3z M399.5,209.6c0-1.7-0.9-3.1-2.5-3.1
				c-1,0-2,0.8-2.3,1.9c-0.1,0.2-0.1,0.4-0.1,0.6v1.4c0,0.2,0,0.4,0.1,0.6c0.3,1.1,1.2,1.8,2.3,1.8
				C398.6,212.9,399.5,211.6,399.5,209.6z"/>
			<path class="st1" d="M397,206.5c1.6,0,2.5,1.4,2.5,3.1c0,1.9-0.9,3.3-2.6,3.3c-1.1,0-2-0.7-2.3-1.8c0-0.2-0.1-0.4-0.1-0.6V209
				c0-0.2,0-0.4,0.1-0.6C395,207.3,396,206.5,397,206.5z"/>
			<path class="st3" d="M395.6,88.4c1.3,2.1-0.7,5.1-1.5,7.9c-0.2,0.8-0.3,0.9-1.1,0.6c-1.3-0.5-2.2-2.1-1.6-4.5
				c0.5-2,2-4.4,1.1-4.9c-1-0.6-4.7,2.9-6.8,8c-2.5,6.1-1.1,10.3,2,10.3c0.4,0,0.7-0.1,1.1-0.1l0.3,1.5c-0.4,0.1-0.7,0.1-1.1,0.1
				c-6.7,0.5-9.4-5.9-6.4-12.8c2.9-6.8,8.1-10.2,10.8-8.8C394,86.4,394.9,87.3,395.6,88.4z"/>
			<path class="st4" d="M390.7,203.1c0,0.5-0.4,0.9-1,0.9c-0.5,0-0.9-0.4-0.9-0.9c0-0.5,0.4-0.9,1-0.9
				C390.4,202.2,390.7,202.6,390.7,203.1z"/>
			<rect x="389" y="205.5" class="st4" width="1.5" height="8.4"/>
			<path class="st4" d="M387.4,205.3v1.4c-0.2,0-0.3,0-0.5,0c-1.1,0-1.9,0.8-2.1,2c0,0.2-0.1,0.5-0.1,0.7v4.5h-1.5v-5.8
				c0-1,0-1.8-0.1-2.6h1.3l0.1,1.7h0.1c0.4-1.1,1.3-1.9,2.3-1.9C387.1,205.3,387.3,205.3,387.4,205.3z"/>
			<path class="st3" d="M383.6,79.4c0.7,2.1-0.5,4.2-1.2,5.4c-1.2,1.9-2.6,4.7-3.2,6.1c-0.2,0.5-0.5,0.8-1.1,0.2
				c-1.1-0.9-1.8-2.5-0.9-5.1c0.9-2.6,4.6-7.3,3.2-8.5c-1.9-1.7-14.4,7.3-14.2,13.9c0.1,3.5,7,5.8,10.1,7.7c2.1,1.3,2,3.7-0.1,6.6
				c-2.6,3.5-10.2,5.1-17.5-0.6c0.3-0.5,0.5-1,0.7-1.4c0.3-0.8,0.4-1.6,0.4-2.2c0.6,0.2,1.2,0.5,1.7,0.8c2.2,1.5,6,4,9.5,3.8
				c1.5-0.1,2.6-0.6,3.2-1.2c0.8-1.1,0.5-2.2-0.3-2.7c-3-2.2-11.6-4.9-11.9-10.3c-0.5-7.2,7.3-14,11.8-16.3c2.5-1.2,5-1.8,6.8-0.4
				C382.1,76.3,383.2,78,383.6,79.4z"/>
			<path class="st4" d="M381.5,205.7l-0.3,1.2c-0.4-0.2-0.9-0.4-1.8-0.4c-1.9,0-3,1.4-3,3.2c0,1.9,1.2,3.1,2.9,3.1
				c0.9,0,1.5-0.2,1.9-0.4l0.3,1.1c-0.4,0.2-1.3,0.5-2.4,0.5c-2.5,0-4.2-1.7-4.2-4.3c0-2.6,1.8-4.5,4.5-4.5
				C380.3,205.3,381.1,205.5,381.5,205.7z"/>
			<path class="st4" d="M372.9,202.6l-0.4,1.2c-0.4-0.2-1.2-0.5-2.2-0.5c-1.6,0-2.2,0.9-2.2,1.8c0,1.1,0.7,1.6,2.3,2.3
				c2,0.8,3,1.7,3,3.4c0,1.8-1.3,3.4-4.1,3.4c-1.1,0-2.4-0.3-3-0.8l0.4-1.3c0.7,0.4,1.7,0.8,2.7,0.8c1.5,0,2.4-0.8,2.4-2
				c0-1.1-0.6-1.7-2.2-2.3c-1.9-0.7-3.1-1.7-3.1-3.3c0-1.8,1.5-3.2,3.8-3.2C371.5,202,372.3,202.3,372.9,202.6z"/>
			<path class="st4" d="M364.4,213.9H363l-0.1-1.1h-0.1c-0.5,0.7-1.4,1.2-2.6,1.2c-1.7,0-2.6-1.2-2.6-2.4c0-2,1.8-3.1,5.1-3.1v-0.2
				c0-0.7-0.2-1.9-1.9-1.9c-0.8,0-1.6,0.2-2.2,0.6l-0.4-1c0.7-0.4,1.7-0.8,2.8-0.8c2.6,0,3.2,1.8,3.2,3.5v3.1
				C364.3,212.6,364.3,213.3,364.4,213.9z M362.8,211.1v-1.5c-1.7,0-3.6,0.3-3.6,1.9c0,1,0.7,1.5,1.4,1.5c1.1,0,1.8-0.7,2-1.4
				C362.8,211.4,362.8,211.2,362.8,211.1z"/>
			<path class="st1" d="M362.8,209.6v1.5c0,0.2,0,0.3-0.1,0.5c-0.2,0.7-0.9,1.4-2,1.4c-0.8,0-1.4-0.5-1.4-1.5
				C359.2,209.9,361.1,209.6,362.8,209.6z"/>
			<path class="st3" d="M359.9,101.5c0,0.6-0.1,1.4-0.4,2.2c-0.2,0.5-0.4,1-0.7,1.4c-0.5-0.4-1-0.9-1.6-1.3c0.5-0.8,1-1.7,1.4-2.6
				C359,101.3,359.4,101.3,359.9,101.5z"/>
			<path class="st3" d="M359.7,100.4c0.1,0.2,0.2,0.6,0.2,1.1c-0.4-0.1-0.9-0.2-1.3-0.2c0.1-0.2,0.2-0.5,0.3-0.7
				C359.1,100,359.5,99.9,359.7,100.4z"/>
			<path class="st3" d="M356.2,101.6c0.7-0.3,1.6-0.4,2.4-0.3c-0.4,0.9-0.9,1.8-1.4,2.6c-0.3-0.3-0.7-0.7-1-1
				C355.5,102.1,355.7,101.8,356.2,101.6z"/>
			<path class="st3" d="M357.2,103.8c0.5,0.5,1,0.9,1.6,1.3c-1.5,2.5-4.1,4.7-6.5,4.8c-2.9,0-4.5-1.6-4.6-4
				c-1.5,2.1-3.5,4.1-5.9,4.5l-0.2-1.7c0.1,0,0.1,0,0.2,0c2.2-0.1,4.7-3.7,7.1-8.5c2-4.1,2.7-6.9,2.5-8.3l1.5-0.2
				c0.6-1.3,1.2-2.5,1.7-3.3c0.4-0.7,0.8-0.9,1.2-0.4c0.9,0.9,1.4,3.1,0.4,5.9c-1,2.5-3.4,6.6-4.5,9.5c-1.1,3.1-1,5.3,0.8,5.1
				C354,108.2,355.7,106.2,357.2,103.8z"/>
			<path class="st4" d="M357,205.5l-3.3,8.4h-1.5l-3.2-8.4h1.6l1.6,4.7c0.3,0.8,0.5,1.5,0.7,2.2h0.1c0.2-0.7,0.4-1.4,0.7-2.2
				l1.6-4.7H357z"/>
			<path class="st3" d="M352.8,91.6l-1.5,0.2c-0.1-0.7-0.4-1.1-0.9-1.1c-1.7-0.1-5.3,3.7-7.9,8.6c-2.4,4.6-2.8,9.1-1,9.3l0.2,1.7
				c-0.1,0-0.3,0.1-0.5,0.1c-4.9,0.3-6.4-6.3-2.4-13c3.9-6.5,7.9-9.2,10.5-9.4C351.6,87.9,352.8,89.6,352.8,91.6z"/>
			<path class="st4" d="M347.9,213.9h-1.4l-0.1-1.1h-0.1c-0.5,0.7-1.4,1.2-2.6,1.2c-1.7,0-2.6-1.2-2.6-2.4c0-2,1.8-3.1,5.1-3.1v-0.2
				c0-0.7-0.2-1.9-1.9-1.9c-0.8,0-1.6,0.2-2.2,0.6l-0.4-1c0.7-0.4,1.7-0.8,2.8-0.8c2.6,0,3.2,1.8,3.2,3.5v3.1
				C347.7,212.6,347.8,213.3,347.9,213.9z M346.2,211.1v-1.5c-1.7,0-3.6,0.3-3.6,1.9c0,1,0.7,1.5,1.4,1.5c1.1,0,1.8-0.7,2-1.4
				C346.2,211.4,346.2,211.2,346.2,211.1z"/>
			<path class="st1" d="M346.2,209.6v1.5c0,0.2,0,0.3-0.1,0.5c-0.2,0.7-0.9,1.4-2,1.4c-0.8,0-1.4-0.5-1.4-1.5
				C342.7,209.9,344.6,209.6,346.2,209.6z"/>
			<rect x="343.2" y="325" width="0.5" height="16.5"/>
			<path class="st3" d="M339.6,89.2c0.2,1.1-0.3,2.5-1.9,4.7c-2.4,3.5-6.9,8.9-11.4,17.3c-0.2,0.4-0.5,0.8-1,0.6
				c-2-0.8-2.8-1.7-3-4.2v0c0.3-0.5,0.5-1,0.7-1.4c0.6-1.5,0.5-2.9,0.2-3.3c-0.2-0.4-0.5-0.4-0.8,0c0.3-3.9,1.1-8.8,2.1-12.7
				c0.2-0.6,0.6-0.8,1-0.5c1.8,1.4,2.2,3.3,1.7,6.6c-0.7,4.1-1.5,7.2-1.9,13c3.3-6.4,9.7-16.2,13.1-20.2
				C339.2,88.4,339.5,88.5,339.6,89.2z"/>
			<path class="st4" d="M339.3,202.2v7.9c0,3.1-1.5,4.1-3.5,4.1c-0.6,0-1.2-0.1-1.6-0.3l0.2-1.2c0.3,0.1,0.8,0.2,1.3,0.2
				c1.4,0,2.2-0.6,2.2-2.9v-7.7H339.3z"/>
			<path class="st3" d="M323.4,102.9c0.2,0.5,0.3,1.8-0.2,3.3c-0.2,0.5-0.4,1-0.7,1.4c0-0.2,0-0.3,0-0.5c0-1.1,0.1-2.6,0.2-4.3
				C322.8,102.5,323.1,102.5,323.4,102.9z"/>
			<path class="st3" d="M322.6,102.9c-0.1,1.7-0.2,3.1-0.2,4.3c0,0.2,0,0.3,0,0.5v0c-1.5,2.5-4.1,4.7-6.5,4.7c-2.9,0-4.5-1.6-4.6-4
				c-1.5,2.1-3.5,4.1-5.9,4.5l-0.2-1.7c0.1,0,0.1,0,0.2,0c2.2-0.1,4.7-3.7,7.1-8.5c2-4.1,2.7-6.9,2.5-8.3l1.5-0.2
				c0.6-1.3,1.2-2.5,1.7-3.4c0.4-0.7,0.8-0.8,1.2-0.4c0.9,0.9,1.4,3.1,0.4,5.9c-1,2.5-3.4,6.6-4.5,9.5c-1.1,3.1-1,5.3,0.8,5.1
				c2.2-0.2,4.8-4,6.4-7.8C322.5,103,322.6,102.9,322.6,102.9z"/>
			<rect x="315.5" y="222.1" width="1.5" height="3"/>
			<path class="st3" d="M316.5,94.2l-1.5,0.2c-0.1-0.7-0.4-1.1-0.9-1.1c-1.7,0-5.3,3.7-7.9,8.6c-2.4,4.6-2.8,9.1-1,9.3l0.2,1.7
				c-0.1,0-0.3,0.1-0.5,0.1c-4.9,0.3-6.4-6.3-2.4-13c3.9-6.5,7.9-9.2,10.5-9.4C315.3,90.4,316.5,92.1,316.5,94.2z"/>
			<path class="st3" d="M303.9,79.6c0.8,1.1,1.2,3.4,0.1,6.6c-1.5,4.2-5.9,15.1-8.4,20.1c-3.6,7-7.9,8.6-12.2,8.2
				c-4-0.4-6.5-3.9-5.6-8.5c0.4-2.3,1.9-3.9,3.2-4.3c0.7-0.2,1.1,0.1,0.9,1c-2.1,7.7,0.2,9.9,1.8,10.2c4.8,0.8,8.1-7.5,11.2-15.1
				c2.4-6.1,6.4-15.4,7.9-18.1C303,79,303.5,79,303.9,79.6z"/>
			<path class="st5" d="M247.6,298.2c2.1,1.2,0.2,4.4-1.9,3.2c-17.4-9.7-32.2-23.3-43.3-39.8c-0.2-2.5-0.4-5.1-0.6-7.6
				c0.2,0.1,0.4,0.3,0.6,0.6C213.5,272.9,229,287.8,247.6,298.2z"/>
			<path class="st5" d="M243,397.5c1.4,2-1.9,3.9-3.2,1.9c-11.6-16.7-24.9-32.1-39.7-46c0-0.1,0.1-0.1,0.1-0.2
				c0.3-0.3,0.4-0.7,0.5-1.1c0.4-0.3,0.7-0.8,0.7-1.4c0-0.4,0.1-0.8,0.1-1.2C217,364,230.9,380,243,397.5z"/>
			<path class="st5" d="M232.1,184.3c0,19.6-14.8,35.8-33.9,37.8c-0.1-0.6-0.2-1.2-0.3-1.8c-0.1-0.5-0.3-0.9-0.6-1.1
				c17.8-1.7,31.8-16.7,31.8-34.9c0-19.3-15.7-35.1-35.1-35.1c-0.5,0-1,0-1.4,0l-0.1-1.5v-1.5c0.5,0,1,0,1.5,0
				C215,146.2,232.1,163.3,232.1,184.3z"/>
			<path class="st5" d="M202.4,261.6c2.1,29.3,1.8,58.7-1,88c-0.3-0.3-0.6-0.6-0.9-0.9c-0.9-0.9-2.1-0.5-2.8,0.2
				c2.8-29.8,3-59.7,0.8-89.4c0.4-0.6,0.9-1.3,1.3-1.9C200.7,258.9,201.6,260.3,202.4,261.6z"/>
			<path class="st5" d="M201.9,254c0.2,2.5,0.4,5.1,0.6,7.6c-0.9-1.3-1.7-2.7-2.6-4c0.6-0.9,1.1-1.7,1.7-2.6
				C201.8,254.6,201.8,254.3,201.9,254C201.9,254,201.9,254,201.9,254z"/>
			<path class="st5" d="M201.9,254C201.9,254,201.9,254,201.9,254L201.9,254c0-1.6-2.5-2.7-3.5-0.9c-0.1,0.1-0.2,0.2-0.2,0.4
				c-0.9-10.4-2.1-20.7-3.6-31c1.3,0,2.5-0.1,3.7-0.2C199.8,232.8,201,243.4,201.9,254z"/>
			<path class="st5" d="M201.8,254L201.8,254c0,0.3-0.1,0.6-0.3,1c-0.6,0.9-1.1,1.8-1.7,2.6c-0.2-0.4-0.4-0.7-0.6-1.1
				C198.1,254.7,200.4,253.1,201.8,254z"/>
			<path class="st5" d="M201.5,349.6c0,0.4-0.1,0.8-0.1,1.2c-0.1,0.6-0.3,1-0.7,1.4c0.2-1.6-1.7-3-3-1.7c0-0.5,0.1-1,0.1-1.5
				c0.6-0.8,1.8-1.1,2.8-0.2C200.9,349,201.2,349.3,201.5,349.6z"/>
			<path class="st5" d="M201.8,254c-1.4-0.9-3.7,0.7-2.6,2.5c0.2,0.4,0.4,0.7,0.6,1.1c-0.4,0.6-0.8,1.3-1.3,1.9
				c-0.2-2-0.3-4.1-0.5-6.1c0.1-0.1,0.2-0.2,0.2-0.4C199.4,251.3,201.8,252.4,201.8,254z"/>
			<path class="st5" d="M197.6,350.4c1.3-1.3,3.2,0.2,3,1.7c-0.4,0.3-0.9,0.5-1.5,0.4c-0.4-0.4-0.9-0.8-1.3-1.2
				c-0.1-0.1-0.2-0.2-0.3-0.3c0-0.1,0-0.2,0-0.2C197.6,350.7,197.6,350.5,197.6,350.4z"/>
			<path class="st5" d="M200.6,352.1c0,0.4-0.2,0.7-0.5,1.1c-0.1,0.1-0.1,0.1-0.1,0.2c-0.3-0.3-0.6-0.5-0.9-0.8
				C199.7,352.6,200.2,352.5,200.6,352.1z"/>
			<path class="st5" d="M199.2,352.6c0.3,0.3,0.6,0.5,0.9,0.8c-13.4,15.5-25.1,32.3-35,50.3c-1.2,2.1-4.4,0.2-3.2-1.9
				c10.1-18.2,22-35.3,35.6-51.1c0,0.1,0.1,0.2,0.2,0.4C197.6,352,198.4,352.5,199.2,352.6z"/>
			<path class="st5" d="M197.9,351.4c0.4,0.4,0.9,0.8,1.3,1.2c-0.8,0-1.6-0.6-1.6-1.5C197.7,351.2,197.8,351.3,197.9,351.4z"/>
			<path class="st5" d="M198.1,253.4c0.2,2,0.3,4.1,0.5,6.1c-10.3,15-23.7,27.5-39.5,36.6c-2.1,1.2-4-2-1.9-3.2
				C173.9,283.2,187.9,269.8,198.1,253.4z"/>
			<path class="st5" d="M198,220.4c0.1,0.6,0.2,1.2,0.3,1.8c-1.2,0.1-2.5,0.2-3.7,0.2c-0.1-0.3-0.1-0.7-0.1-1.1
				c-0.1-0.9,0.3-1.6,0.9-2c0.7,0,1.4-0.1,2.1-0.1C197.6,219.5,197.9,219.8,198,220.4z"/>
			<path class="st5" d="M197.8,348.9c0,0.5-0.1,1-0.1,1.5c0,0-0.1,0.1-0.1,0.1c0,0-0.1,0.1-0.1,0.1
				C197.2,350.1,197.4,349.4,197.8,348.9z"/>
			<path class="st5" d="M197.6,350.4c0,0.1,0,0.2,0,0.4c0,0.1,0,0.2,0,0.2c-0.1-0.1-0.1-0.2-0.2-0.4c0,0,0.1-0.1,0.1-0.1
				C197.6,350.5,197.6,350.5,197.6,350.4z"/>
			<path class="st5" d="M195.2,219.4c0.6-0.4,1.5-0.5,2.1-0.1C196.6,219.3,195.9,219.4,195.2,219.4z"/>
			<path class="st5" d="M194,219.4c0.4,0,0.8,0,1.2,0c-0.6,0.4-1,1.1-0.9,2c0,0.4,0.1,0.7,0.1,1.1c-0.2,0-0.3,0-0.5,0
				c-21,0-38.1-17.1-38.1-38.1c0-19.5,14.7-35.6,33.6-37.8v1.2h3l0.1,1.5c-18.7,0.8-33.7,16.2-33.7,35.1
				C158.9,203.7,174.7,219.4,194,219.4z"/>
			<path class="st5" d="M192.5,146.3v1.5h-3v-1.2C190.5,146.4,191.5,146.3,192.5,146.3z"/>
			<path class="st5" d="M192.5,105.5v40.8c-1,0-2,0.1-3,0.2v-38h-96V107H92v-1.5H192.5z"/>
			<polygon class="st5" points="140,450.5 140,453.5 90.5,453.5 90.5,452 93.5,452 93.5,450.5 			"/>
			<rect x="90.5" y="450.5" class="st5" width="3" height="1.5"/>
			<polygon class="st5" points="93.5,108.5 93.5,450.5 90.5,450.5 90.5,107 92,107 92,108.5 			"/>
			<rect x="92" y="107" class="st5" width="1.5" height="1.5"/>
			<polygon class="st5" points="90.5,452 90.5,453.5 44,453.5 44,450.5 90.5,450.5 			"/>
		</g>
		<g>
			<path class="st6" d="M538.2,339.2v-12.6c0-4.3-3.5-7.8-7.8-7.8H341.9c-4.3,0-7.8,3.5-7.8,7.8v12.6c0,4.3,3.5,7.8,7.8,7.8h188.6
				C534.7,347,538.2,343.5,538.2,339.2z"/>
		</g>
	</g>
</g>
</svg>
