<?xml version="1.0" encoding="utf-8"?>
<!-- Generator: Adobe Illustrator 20.1.0, SVG Export Plug-In . SVG Version: 6.00 Build 0)  -->
<svg version="1.1" id="Layer_1" xmlns="http://www.w3.org/2000/svg" xmlns:xlink="http://www.w3.org/1999/xlink" x="0px" y="0px"
	 viewBox="0 0 221.4 131.1" style="enable-background:new 0 0 221.4 131.1;" xml:space="preserve">
<style type="text/css">
	.st0{fill:#F5C3AC;}
	.st1{opacity:7.000000e-02;}
	.st2{fill:#E64E25;}
	.st3{fill:#FFFFFF;}
</style>
<g id="Inspo">
	<rect class="st0" width="221.4" height="131.1"/>
</g>
<g id="Layer_2" class="st1">
	<path class="st2" d="M134.1,78.2H87.3c-4.2,0-7.6-3.4-7.6-7.6V51.8c0-4.2,3.4-7.6,7.6-7.6h46.8c4.2,0,7.6,3.4,7.6,7.6v18.8
		C141.7,74.8,138.3,78.2,134.1,78.2z"/>
	<circle class="st3" cx="110.7" cy="75.2" r="1"/>
	<rect x="108.6" y="78.2" class="st2" width="4.2" height="3.6"/>
	<polygon class="st2" points="108.6,81.8 98.1,81.8 98.1,86.9 123.3,86.9 123.3,81.8 	"/>
	<g>
		<path class="st2" d="M110.2,80.6c0,0.4,0.1,0.9,0.1,1.3c-0.2-0.3-0.4-0.6-0.6-0.9c0,0.2-0.1,0.5-0.1,0.7c0-0.1,0-0.2-0.1-0.3
			c0,0.1,0,0.3,0,0.4c0-0.1,0.1-0.2,0.2-0.2s0.1,0.2,0,0.2c0-0.1,0.1-0.2,0.1-0.2c0.2,0.1,0.4,0.2,0.6,0.3c0-0.1,0.1-0.2,0.1-0.3
			c0.2,0.1,0.4,0.2,0.6,0.3c0-0.1,0-0.2,0.1-0.2c0.1,0.1,0.3,0.2,0.4,0.2c-0.1-0.1-0.1-0.2,0-0.3c0.1,0,0.2,0,0.2,0.1
			c0-0.1,0-0.1,0.1-0.2c0,0.1,0.1,0.1,0.1,0.2c0-0.1,0.2,0,0.1,0.1"/>
	</g>
	<g>
		<path class="st2" d="M110.4,83.8c-0.5-0.5-0.7-1.2-0.4-1.9c-0.2,0-0.4-0.1-0.5-0.3c-0.1-0.2,0-0.4,0.1-0.5
			c0.1,0.1,0.2,0.2,0.3,0.3c0,0.1,0,0.3-0.2,0.4s-0.3-0.2-0.2-0.3c0.1,0.2-0.2,0.3-0.3,0.2c0.9,0,1.8,0,2.7,0
			c-1.3-0.9-2.2-2.1-2.7-3.5c0.8,0,1.5-0.1,2.3-0.1c0.2,0,0.5-0.1,0.5-0.3c-0.1,0-0.1,0.1-0.2,0.1"/>
	</g>
</g>
</svg>
