<?xml version="1.0" encoding="utf-8"?>
<!-- Generator: Adobe Illustrator 20.0.0, SVG Export Plug-In . SVG Version: 6.00 Build 0)  -->
<svg version="1.1" xmlns="https://www.w3.org/2000/svg" xmlns:xlink="https://www.w3.org/1999/xlink" x="0px" y="0px"
	 viewBox="0 0 223.8 394.7" style="enable-background:new 0 0 223.8 394.7;" xml:space="preserve">
<g id="Head_1_">
	<g id="Hair">
		<path style="display:none;fill:#603913;stroke:#000000;stroke-miterlimit:10;" d="M126.2,14.8"/>
		<g>
			<path style="fill:#603913;" d="M43,46.8c2.5-20,14.5-36.3,34-42.2c22-6.6,49.6-5.8,68.5,8.6c20.5,15.6,22.3,41.8,17.6,65.4
				c-2.6,12.9-6,25.6-8,38.7c-1.1,6.8-2,13.7-2,20.5c0,3.8-0.2,9.3,3,11.9c0.5,0.4,1.3,0.4,1.9,0.4c-17.9,3.6-37.5,7.5-55.9,5.6"/>
			<path style="fill:#603913;" d="M112.2,156.6c-3.4,0-6.7-0.2-10.1-0.5l0.1-1c17.5,1.8,36.5-1.8,53.5-5.1
				c-3.2-2.7-3.1-7.8-3.1-11.6l0-0.6c0-6.9,1-14,2-20.6c1.3-8.2,3.1-16.5,4.9-24.4c1.1-4.7,2.1-9.5,3.1-14.3
				c4.1-20.4,4.4-48.3-17.4-64.9c-13.2-10-38-17.5-68.1-8.5C58.6,10.6,46,26.3,43.5,46.9l-1-0.1c2.6-21,15.5-37,34.4-42.6
				c30.4-9.2,55.6-1.5,69,8.6c12.3,9.3,25.3,28.4,17.8,65.9c-1,4.8-2.1,9.6-3.1,14.3c-1.8,7.9-3.6,16.1-4.9,24.3
				c-1,6.6-2,13.6-2,20.4l0,0.6c0,3.6-0.1,8.6,2.8,10.9c0.3,0.3,1,0.3,1.5,0.2l0.2,1l-0.6,0.1C143.2,153.4,127.4,156.6,112.2,156.6z
				"/>
		</g>
		<g>
			<path style="fill:#603913;" d="M43,46.8c-2.6,16.2,2.1,31.4,5.6,47.1c3.3,15,6.4,30.4,6.3,45.9c0,2.9-0.1,10.4-4.5,10.2
				c0,0-0.1,0-0.1,0.1c17.3,3.4,35,6.5,52.7,5.7L43,46.8z"/>
			<path style="fill:#603913;" d="M103.1,155.3c-17,0.8-33.6-1.9-50.5-5.3c0.1-0.1,0.2-0.1,0.3-0.2c2.5-2,2.5-7.6,2.5-10
				c0.1-15.8-3.1-31.4-6.3-46c-0.5-2.4-1.1-4.7-1.6-7.1c-3.2-13.4-6.2-26.1-3.9-39.8l-1-0.2c-2.3,13.9,0.9,27.2,3.9,40.2
				c0.6,2.4,1.1,4.7,1.6,7.1c3.2,14.6,6.4,30.1,6.3,45.8c0,2.2,0,7.5-2.2,9.2c-0.4,0.3-0.8,0.4-1.2,0.5c-0.1,0.1-0.2,0.1-0.3,0.2
				c-0.3,0.3-0.5,0.6-0.8,0.8c15.8,3.1,31.2,5.9,47,5.9c2.1,0,4.1,0,6.2-0.1L103.1,155.3z"/>
		</g>
		<g>
			<g>
				<path style="fill:#603913;" d="M49.9,39.5c-0.6,2.9-1.5,5.4-3.1,7.9c1.5,0.2,3,0.4,4.6,0.6c-0.6-1.9-0.5-3.7,0.1-5.6
					c1-3.1-3.7-4.2-4.8-1.3c-0.8,2-1.6,4.1-2.4,6.1c1.6,0.2,3.3,0.4,4.9,0.7c-0.4-1.6-0.2-3.2,0.5-4.8c-1.5-0.6-3-1.3-4.6-1.9
					c-0.6,2.2-1.3,4.4-1.9,6.6c1.6,0.4,3.2,0.9,4.8,1.3c0.4-1.9,0.7-3.9,1.1-5.8c0.6-3.1-4.2-4.5-4.8-1.3c-0.2,1.2-0.5,2.3-0.7,3.5
					c1.6,0.2,3.3,0.4,4.9,0.7c-0.2-1.2,0-2.4,0.5-3.5c-1.6-0.4-3.2-0.9-4.8-1.3c-0.5,2.5-1.1,5-1.6,7.4c1.6,0.4,3.2,0.9,4.8,1.3
					c0.3-2.5,0.7-5,1-7.4c0.4-3.1-4.2-4.6-4.8-1.3c-0.3,1.6-0.6,3.1-1,4.7c-0.6,3.1,4.1,4.5,4.8,1.3c0.2-1,0.5-2.1,0.7-3.1
					c-1.5,0.2-3,0.4-4.6,0.6c0.2,0.3,0.4,0.7,0.5,1c0.6,2.2,3.4,2.4,4.6,0.6c0.8-1.2,1.3-2.4,1.8-3.8c-1.6-0.2-3.3-0.4-4.9-0.7
					c-0.4,4.2-0.8,8.4-1.2,12.6c-0.3,2.8,4.2,3.3,4.9,0.7c0.9-3.2,2-6.2,3.4-9.2c-1.6-0.4-3.1-0.8-4.7-1.3
					c-0.3,4.2-0.5,8.5-0.8,12.7c1.7,0,3.3,0,5,0c0-5.1,0.5-10,1.5-15c-1.6-0.2-3.3-0.4-4.9-0.7c-0.2,6-0.7,12-1.6,18
					c1.6,0.2,3.3,0.4,4.9,0.7c0.6-6.1,1.2-12.2,1.8-18.3c0.3-3.2-4.7-3.2-5,0c-0.8,7.5-1.5,15.1-2.3,22.6c-0.3,3.2,4.7,3.2,5,0
					c0.8-7.5,1.5-15.1,2.3-22.6c-1.7,0-3.3,0-5,0c-0.6,6.1-1.2,12.2-1.8,18.3c-0.3,2.8,4.5,3.5,4.9,0.7c1-6.4,1.6-12.8,1.8-19.3
					c0.1-2.8-4.3-3.5-4.9-0.7c-1.1,5.4-1.7,10.8-1.7,16.3c0,3.2,4.8,3.2,5,0c0.3-4.2,0.5-8.5,0.8-12.7c0.2-2.4-3.6-3.5-4.7-1.3
					c-1.6,3.4-2.9,6.7-3.9,10.4c1.6,0.2,3.3,0.4,4.9,0.7c0.4-4.2,0.8-8.4,1.2-12.6c0.3-2.9-4-3.2-4.9-0.7c-0.3,0.9-0.7,1.8-1.3,2.6
					c1.5,0.2,3,0.4,4.6,0.6c-0.3-1-0.4-1.4-1-2.2c-1.2-1.5-4.1-1.7-4.6,0.6c-0.2,1-0.5,2.1-0.7,3.1c1.6,0.4,3.2,0.9,4.8,1.3
					c0.3-1.6,0.6-3.1,1-4.7c-1.6-0.4-3.2-0.9-4.8-1.3c-0.3,2.5-0.7,5-1,7.4c-0.4,3.1,4.1,4.6,4.8,1.3c0.5-2.5,1.1-5,1.6-7.4
					c0.7-3.2-3.8-4.4-4.8-1.3c-0.6,1.7-0.8,3.1-0.7,4.8c0.1,2.7,4.3,3.5,4.9,0.7c0.2-1.2,0.5-2.3,0.7-3.5c-1.6-0.4-3.2-0.9-4.8-1.3
					c-0.4,1.9-0.7,3.9-1.1,5.8c-0.6,3.1,3.9,4.5,4.8,1.3c0.6-2.2,1.3-4.4,1.9-6.6c0.8-2.6-3.4-4.6-4.6-1.9c-1.1,2.5-1.6,4.5-1.2,7.3
					c0.4,2.8,3.8,3.4,4.9,0.7c0.8-2,1.6-4.1,2.4-6.1c-1.6-0.4-3.2-0.9-4.8-1.3c-0.9,2.9-0.9,5.3-0.1,8.2c0.6,2.1,3.4,2.4,4.6,0.6
					c1.8-2.9,2.9-5.7,3.6-9C55.4,37.6,50.5,36.3,49.9,39.5L49.9,39.5z"/>
			</g>
		</g>
		<g>
			<g>
				<path style="fill:#603913;" d="M45.7,42.9c-0.5,3.9-0.9,7.8-1.4,11.6c1.7,0,3.3,0,5,0c-0.3-3.9,0-7.5,0.9-11.2
					c-1.6-0.2-3.3-0.4-4.9-0.7c-0.4,4.6-0.7,9.2-1.1,13.8c-0.3,3.2,4.7,3.2,5,0c0.6-6.1,2.1-12,4.4-17.7c-1.6-0.4-3.2-0.9-4.8-1.3
					c-0.7,4.5-1.6,8.9-2.6,13.4c1.6,0.4,3.2,0.9,4.8,1.3c0.7-4.9,2-9.5,4.1-14c-1.4-0.8-2.9-1.7-4.3-2.5c-0.2,0.5-0.5,1.1-0.7,1.6
					c-1.3,2.9,3,5.5,4.3,2.5c0.2-0.5,0.5-1.1,0.7-1.6c1.3-2.9-2.9-5.5-4.3-2.5c-2.3,4.9-3.9,9.9-4.6,15.2c-0.4,3.1,4.1,4.5,4.8,1.3
					c1-4.4,1.9-8.9,2.6-13.4c0.5-3.2-3.6-4.3-4.8-1.3c-2.5,6.1-4,12.4-4.6,19c1.7,0,3.3,0,5,0c0.4-4.6,0.7-9.2,1.1-13.8
					c0.2-2.8-4.3-3.4-4.9-0.7c-1,4.2-1.4,8.3-1.1,12.6c0.2,3.3,4.6,3.2,5,0c0.5-3.9,0.9-7.8,1.4-11.6C51.1,39.7,46.1,39.7,45.7,42.9
					L45.7,42.9z"/>
			</g>
		</g>
		<g>
			<g>
				<path style="fill:#603913;" d="M44.6,46.5c-0.3,3-0.7,5.9-1,8.9c1.7,0,3.3,0,5,0c0.2-3,0.3-6.1,0.5-9.1c0.2-3.3-4.7-3.1-5,0
					c-0.6,5.6-0.9,11.3-0.7,17c0.1,3.2,4.9,3.2,5,0c0.2-5.7,0.4-11.3,0.6-17c0.1-2.8-4.4-3.5-4.9-0.7c-0.9,4.8-1.6,9.7-1.9,14.6
					c1.7,0,3.3,0,5,0c0.2-3.8,0.7-7.6,1.5-11.4c-1.6-0.2-3.3-0.4-4.9-0.7c0,4.7-0.1,9.4-0.1,14.1c0,3.3,4.7,3.1,5,0
					c0.6-5.8,1.5-11.5,3.6-17c-1.6-0.4-3.2-0.9-4.8-1.3c-0.6,4.4-1.3,8.8-1.9,13.2c1.6,0.2,3.3,0.4,4.9,0.7
					c0.4-4.9,1.7-9.3,3.9-13.7c-1.5-0.6-3-1.3-4.6-1.9c-0.8,3.7-1.6,7.4-2.4,11.2c-0.7,3.1,4.1,4.5,4.8,1.3c0.8-3.5,1.9-6.7,3.6-9.9
					c-1.5-0.6-3-1.3-4.6-1.9c-0.8,3.2-1.5,6.3-2.3,9.5c-0.7,3.1,4,4.5,4.8,1.3c0.7-2.7,1.4-5.4,2-8.1c0.8-3.1-3.8-4.3-4.8-1.3
					c-2,5.8-3.5,11.7-4.5,17.8c1.6,0.2,3.3,0.4,4.9,0.7c-0.3-4.8-0.7-9.6-1-14.3c-0.2-3.3-4.6-3.1-5,0c-0.7,5.6-1.2,11.2-1.4,16.8
					c1.6-0.2,3.3-0.4,4.9-0.7c-0.9-5.1-1.3-10.2-1.3-15.4c0-3.2-4.8-3.2-5,0c-0.2,2.8-0.4,5.6-0.6,8.4c1.7,0,3.3,0,5,0
					c0-7.5,1.6-14.4,5-21.1c-1.4-0.8-2.9-1.7-4.3-2.5c-6.2,12.8-5,26.8-0.2,39.9c1.1,3,5.9,1.7,4.8-1.3c-4.2-11.7-5.9-24.4-0.3-36
					c1.4-2.9-2.8-5.4-4.3-2.5C43.9,41.3,42,49.1,42,57.5c0,3.2,4.8,3.2,5,0c0.2-2.8,0.4-5.6,0.6-8.4c-1.7,0-3.3,0-5,0
					C42.5,54.8,43,60.3,44,65.9c0.5,2.9,4.8,2,4.9-0.7c0.2-5.6,0.7-11.2,1.4-16.8c-1.7,0-3.3,0-5,0c0.3,4.8,0.7,9.6,1,14.3
					c0.2,2.6,4.4,3.6,4.9,0.7c1-6.1,2.5-12,4.5-17.8c-1.6-0.4-3.2-0.9-4.8-1.3c-0.7,2.7-1.4,5.4-2,8.1c1.6,0.4,3.2,0.9,4.8,1.3
					c0.8-3.2,1.5-6.3,2.3-9.5c0.6-2.7-3.2-4.5-4.6-1.9c-1.9,3.6-3.2,7.2-4.1,11.1c1.6,0.4,3.2,0.9,4.8,1.3c0.8-3.7,1.6-7.4,2.4-11.2
					c0.6-2.6-3.2-4.6-4.6-1.9c-2.6,5.1-4.1,10.4-4.6,16.2c-0.2,2.8,4.5,3.5,4.9,0.7c0.6-4.4,1.3-8.8,1.9-13.2
					c0.5-3.2-3.7-4.4-4.8-1.3c-2.3,5.9-3,12.1-3.7,18.3c1.7,0,3.3,0,5,0c0-4.7,0.1-9.4,0.1-14.1c0-2.8-4.3-3.5-4.9-0.7
					c-0.9,4.2-1.4,8.4-1.7,12.7c-0.2,3.2,4.8,3.2,5,0c0.3-4.5,0.9-8.9,1.8-13.3c-1.6-0.2-3.3-0.4-4.9-0.7c-0.2,5.7-0.4,11.3-0.6,17
					c1.7,0,3.3,0,5,0c-0.1-5.7,0.1-11.3,0.7-17c-1.7,0-3.3,0-5,0c-0.2,3-0.3,6.1-0.5,9.1c-0.2,3.3,4.6,3.1,5,0c0.3-3,0.7-5.9,1-8.9
					C50,43.3,45,43.3,44.6,46.5L44.6,46.5z"/>
			</g>
		</g>
		<g>
			<g>
				<path style="fill:#603913;" d="M53.6,67.1c-0.1,0.1-0.3,0.3-0.4,0.4c-1.3-0.7-2.5-1.4-3.8-2.2c0.8,0.5,1.7,1.1,2.5,1.6
					c-0.8,0.2-1.6,0.4-2.4,0.6c0.3-0.3,0.5-0.5,0.8-0.8c-0.8-0.8-1.7-1.7-2.5-2.5c1.1-0.4,2.3-0.8,3.4-1.1c-1.4-0.8-2.8-1.6-4.2-2.4
					c-0.3,1.1-0.3,1.3,0.2,0.5c0.7,0.4,1.4,0.8,2.2,1.2c0-1.3,0.5-2.3,1.7-3c-1.4-0.8-2.8-1.6-4.2-2.4c-0.4,0.7-0.9,1.5-1.3,2.2
					c1.4,0.4,2.8,0.7,4.2,1.1c0.3-0.7,0.6-1.4,0.8-2c-1.3-1-2.6-2-3.9-3c-0.5,0.5-1,1.1-1.5,1.6c1.3,0.7,2.5,1.4,3.8,2.2
					c0.4-1.1,0.8-2.1,1.2-3.2c-1.4-0.8-2.9-1.7-4.3-2.5c-0.5,0.9-1,1.9-1.4,2.8c1.6,0.4,3.1,0.8,4.7,1.3c0.8-0.9,1.5-1.9,2.3-2.8
					c1.3-0.6,1.4-2.3,0.9-3.4c0,0.2,0,0.4,0,0.6c2.8-0.5,2.1-5-0.7-4.9c0.1,0.2,0.1,0.3,0.2,0.5c-0.4,0.7-0.8,1.4-1.2,2.2
					c0.3-0.1,0.6-0.2,0.8-0.4c-0.8,0-1.7,0-2.5,0c0.2,0.2,0.5,0.3,0.7,0.5c-0.4-0.9-0.8-1.9-1.1-2.8c-0.5,0.3-1.1,0.7-1.6,1
					c1.1,0.8,2.1,1.6,3.2,2.4c0.1-0.1,0.2-0.2,0.3-0.3c-1.2-0.9-2.4-1.9-3.7-2.8c-0.4,0.7-0.7,1.4-1.1,2.1c1.4,0.6,2.8,1.2,4.3,1.8
					c0.1-0.7,0.2-1.5,0.3-2.2c-1.6-0.4-3.2-0.9-4.8-1.3c-0.4,0.7-0.9,1.3-1.3,2c1.3,1,2.6,2,3.9,3c0.1-0.3,0.3-0.5,0.4-0.8
					c-1.5-0.6-3-1.3-4.6-1.9c-3,9.2,2.7,17.1,3.6,26c1.6-0.4,3.1-0.8,4.7-1.3c-4.5-10.6-3.2-22.5,3-32.1c-1.4-0.8-2.9-1.7-4.3-2.5
					c-0.6,1.1-2.5,6.6-0.6,3.6c1.5-2.3,2.3-5.4,3.3-8c-1.6-0.4-3.2-0.9-4.8-1.3c-3.7,12.3-3.6,25.1,0.1,37.3
					c0.9,3.1,5.8,1.8,4.8-1.3c-3.5-11.5-3.5-23.2-0.1-34.7c0.9-3.2-3.6-4.2-4.8-1.3c-1.6,3.9-7.2,12.5-2,15.9c1.6,1.1,3.5,0.9,5-0.2
					c2.7-1.8,2-5,3.3-7.5c1.5-2.9-2.6-5.2-4.3-2.5c-7.3,11.2-8.2,24.9-3,37.2c1,2.3,4.9,1.1,4.7-1.3c-0.8-8.2-6.4-16.5-3.8-24.7
					c0.9-2.7-3.2-4.4-4.6-1.9c-0.1,0.3-0.3,0.5-0.4,0.8c-1.4,2.4,2,5.2,3.9,3c1.2-1.3,1.9-2.6,2.6-4.2c1.1-3-3.7-4.3-4.8-1.3
					c-0.7,1.7-0.7,1.7-0.4,3.6c0.3,2,2.6,3.5,4.3,1.8c1.3-1.3,2-2.5,2.4-4.3c0.5-2-1.8-4-3.7-2.8c-1.9,1.2-2.5,2.4-2.8,4.6
					c-0.2,1.5,1.8,3,3.2,2.4c2.2-0.9,4.7-1.9,5.1-4.5c0.2-1.2-0.2-2.1-1.1-2.8c-5-3.7-8.2,6.8-0.5,6.5c-0.2-1.6-0.4-3.3-0.7-4.9
					c-3.5,0.7-4.5,3.7-3,6.7c0.3-1.1,0.6-2.3,0.9-3.4c-3,1.4-4.4,3.8-4.8,7.1c-0.3,2.5,3.6,3.4,4.7,1.3c0.5-0.9,1-1.9,1.4-2.8
					c1.5-2.9-2.5-5.2-4.3-2.5c-1.3,1.9-1.7,3.5-1.9,5.7c-0.1,2,2.2,3,3.8,2.2c1.6-0.8,2.6-1.8,3.3-3.4c1.1-2.5-1.7-5-3.9-3
					c-2.2,1.9-2.7,4.1-2.1,6.9c0.4,1.9,2.9,2.3,4.2,1.1c1.4-1.3,2.1-2.6,2.6-4.4c0.6-2.5-2.3-4.1-4.2-2.4c-2.2,2-5.1,6.9-2,9.6
					c2.9,2.5,6-0.5,6.4-3.5c0.3-2.2-2.4-4.6-4.2-2.4c-2,2.3-3.6,6.1-0.3,8.1c2.6,1.6,5.7-0.4,5.4-3.4c-0.1-1.2-1.1-2.7-2.5-2.5
					c-4.2,0.6-7.2,5.7-2.6,8.4c3.8,2.2,9-2.4,5.8-6.1c-2.7-3.1-7.9-0.3-6.1,3.6c1.8,3.9,7.5,1.6,7.1-2.4c-0.2-1.8-2-3.3-3.8-2.2
					c-1.1,0.7-1.6,1.3-1.9,2.6C48.1,68.9,52.9,70.2,53.6,67.1L53.6,67.1z"/>
			</g>
		</g>
	</g>
	<g id="Head">
		<circle style="fill:#F1DBCB;stroke:#F1DBCB;stroke-miterlimit:10;" cx="103.9" cy="58.6" r="48.2"/>
	</g>
	<g id="Facial_expressions">
		<g id="eyebrows_1_">
			<g>
				<path style="fill:#3C2415;" d="M112.7,39.7c0,0,0-0.1,0-0.3c0-0.1,0-0.2,0-0.3c0-0.1,0.1-0.3,0.2-0.5c0.2-0.4,0.4-0.7,0.8-1.1
					c0.4-0.3,0.8-0.6,1.3-0.9c2-1.2,5-1.9,7.9-1.9c2.9,0,5.8,0.5,7.7,1.6c0.5,0.3,0.9,0.6,1.2,0.9c0.3,0.3,0.6,0.6,0.8,0.9
					c0.2,0.3,0.3,0.5,0.3,0.7c0,0.2,0.1,0.2,0.1,0.2l-0.2,0.1c0,0,0-0.1-0.1-0.2c-0.1-0.1-0.2-0.3-0.4-0.5c-0.2-0.2-0.5-0.4-0.8-0.6
					c-0.4-0.2-0.8-0.4-1.2-0.6c-1.9-0.7-4.6-0.8-7.3-0.4c-2.6,0.4-5.2,1.2-6.7,2.2c-0.4,0.2-0.7,0.5-1,0.7c-0.1,0.1-0.3,0.2-0.4,0.3
					c-0.1,0.1-0.3,0.1-0.4,0.2c-0.2,0.1-0.5,0.2-0.7,0.3c-0.2,0.1-0.3,0.1-0.3,0.1L112.7,39.7z"/>
			</g>
			<g>
				<path style="fill:#3C2415;" d="M94.6,40.1c0,0-0.1,0-0.3-0.1c-0.2-0.1-0.4-0.2-0.7-0.3c-0.1,0-0.2-0.1-0.4-0.2
					c-0.1-0.1-0.3-0.2-0.4-0.3c-0.3-0.2-0.6-0.5-1-0.7c-1.6-1-4.1-1.8-6.7-2.2c-2.6-0.4-5.4-0.2-7.3,0.4c-0.5,0.2-0.9,0.4-1.2,0.6
					c-0.3,0.2-0.6,0.4-0.8,0.6c-0.2,0.2-0.3,0.4-0.4,0.5c-0.1,0.1-0.1,0.2-0.1,0.2L75,38.7c0,0,0.1-0.1,0.1-0.2
					c0.1-0.2,0.2-0.4,0.3-0.7c0.2-0.3,0.4-0.6,0.8-0.9c0.3-0.3,0.7-0.6,1.2-0.9c1.9-1.1,4.8-1.6,7.7-1.6c2.9,0,5.8,0.7,7.9,1.9
					c0.5,0.3,1,0.6,1.3,0.9c0.4,0.3,0.6,0.7,0.8,1.1c0.1,0.2,0.1,0.4,0.2,0.5c0,0.1,0,0.2,0,0.3c0,0.2,0,0.3,0,0.3L94.6,40.1z"/>
			</g>
		</g>
		<g id="cheeks">
			<ellipse style="fill:#F26C7F;" cx="78.4" cy="63.9" rx="8.3" ry="5.2"/>
			<ellipse style="fill:#F26C7F;" cx="130.1" cy="62.9" rx="8.3" ry="5.2"/>
		</g>
		<g id="mouth_1_">
			<g>
				<path d="M91.5,79.4c0,0,0.1,0.1,0.2,0.4c0.1,0.2,0.2,0.6,0.5,1c0.2,0.4,0.5,1,0.8,1.5c0.2,0.3,0.4,0.6,0.6,0.9
					c0.2,0.3,0.5,0.6,0.7,0.9c0.5,0.6,1.2,1.3,1.9,1.8c0.7,0.6,1.5,1.1,2.4,1.6c0.9,0.5,1.8,0.9,2.8,1.2c1,0.3,2.1,0.4,3.1,0.5
					c0.3,0,0.6,0,0.8,0l0.7-0.1c0.5-0.1,1-0.1,1.5-0.3c1-0.2,2-0.7,2.8-1.1c0.9-0.5,1.7-1,2.4-1.6c0.4-0.3,0.7-0.6,1.1-0.9
					c0.3-0.3,0.6-0.6,0.9-0.9c0.6-0.6,1.1-1.2,1.5-1.7c0.4-0.5,0.8-1,1-1.4c0.3-0.4,0.5-0.8,0.6-1c0.1-0.2,0.2-0.4,0.2-0.4l0.1,0
					c0,0-0.1,0.1-0.2,0.4c-0.1,0.2-0.2,0.6-0.5,1c-0.2,0.4-0.5,1-0.9,1.6c-0.4,0.6-0.8,1.2-1.4,1.9c-0.3,0.3-0.6,0.6-0.9,1
					c-0.3,0.3-0.7,0.7-1,1c-0.7,0.6-1.6,1.2-2.5,1.8c-0.9,0.5-1.9,1-3,1.3c-1.1,0.3-2.2,0.5-3.4,0.4c-1.1-0.1-2.3-0.2-3.3-0.6
					c-1.1-0.3-2.1-0.8-3-1.3c-0.9-0.5-1.8-1.1-2.5-1.8c-0.7-0.6-1.3-1.3-1.9-2c-0.3-0.3-0.5-0.7-0.7-1c-0.2-0.3-0.4-0.7-0.6-1
					c-0.3-0.6-0.6-1.2-0.7-1.6c-0.2-0.5-0.3-0.8-0.4-1.1C91.4,79.5,91.4,79.4,91.5,79.4L91.5,79.4z"/>
			</g>
		</g>
		<g id="eyelashes_1_">
			<g>
				<path style="fill:none;stroke:#000000;stroke-width:0.5;stroke-miterlimit:10;" d="M85,43.9c-1.1,0.2-2.2-0.8-2.2-1.9"/>
				<path style="fill:none;stroke:#000000;stroke-width:0.5;stroke-miterlimit:10;" d="M87.8,43.6c-1.2-0.1-2.2-1.1-2.5-2.2"/>
				<path style="fill:none;stroke:#000000;stroke-width:0.5;stroke-miterlimit:10;" d="M88.8,44c-0.9-0.5-1.3-1.7-0.8-2.7"/>
				<path style="fill:none;stroke:#000000;stroke-width:0.5;stroke-miterlimit:10;" d="M124.3,44.8c1.1,0.2,2.2-0.8,2.2-1.9"/>
				<path style="fill:none;stroke:#000000;stroke-width:0.5;stroke-miterlimit:10;" d="M121.8,44.1c1.2-0.1,2.2-1.1,2.5-2.2"/>
				<path style="fill:none;stroke:#000000;stroke-width:0.5;stroke-miterlimit:10;" d="M120.8,44.3c0.9-0.5,1.3-1.7,0.8-2.7"/>
			</g>
		</g>
		<g id="eyes">
			<g>
				<g>
					<path style="fill:#654E21;" d="M86.8,52.7c6.4,0,6.4-10,0-10C80.3,42.7,80.3,52.7,86.8,52.7L86.8,52.7z"/>
				</g>
			</g>
			<g>
				<g>
					<path style="fill:#654E21;" d="M121.9,53c6.4,0,6.4-10,0-10C115.5,43,115.5,53,121.9,53L121.9,53z"/>
				</g>
			</g>
		</g>
	</g>
	<g id="Bangs">
		<path style="fill:#603913;" d="M50.6,73.5"/>
		<path style="fill:#603913;" d="M158.4,58c0,0-31.8-24.5-33.5-44.2c0,0-48.7,34.1-71.4,29.5S85,7.8,86.5,7.1s27.8-2.6,29.1-2.3
			s40.7,29.4,40.7,29.4L158.4,58z"/>
	</g>
	<g id="ear">
		<path style="fill:#F1DBCB;stroke:#F1DBCB;stroke-miterlimit:10;" d="M147.6,60.6c6.1,7.2,17.3-1.9,12.3-9.5
			C154.5,43.1,140.8,52.6,147.6,60.6z"/>
	</g>
</g>
<g id="Body">
	<g id="Neck">
		<polygon style="fill:#F1DBCB;" points="98.6,106.9 98.6,112.8 98.6,116.4 108,116.4 108,106.9 		"/>
	</g>
	<g id="Body_1_">
		<path style="fill:#F1DBCB;stroke:#F1DBCB;stroke-width:3;stroke-miterlimit:10;" d="M222.1,43.8c-0.8-4-3.7-7.4-7.4-9
			s-8.1-1.6-11.8-0.2c-2.9,1.1-5.5,3-7,5.7c-1.3,2.3-1.8,6.1-0.8,8.7c0.3,0.7,0.1,1.6-0.4,2.2C179.3,69.9,163,83.4,148,101.1
			c-5.8,6.8-7.7,8.4-19.4,11.4c-7,1.7-13.2,2.9-22.4,2.9c-0.6,0-1.1,0.5-1.8,0.4c-13.1-2.4-28.4-1.4-34.7,1.8
			c-11.6,5.9-49.2,66.3-57.1,98.7c-0.2,0.8-1,1.4-1.8,1.3C3.6,216.6,0.2,224.8,2,232c1.9,7.6,7.1,8.9,14.9,8.3
			c6.3-0.5,10.5-7.1,10.5-9.5c0-2.2-0.7-9.2-5-9.7c-1.5-0.2-0.8-1.5-0.2-2.9c10-21.1,30-42.4,38.7-64.1c2-5,5.6-14.5,5-9.6
			c-1.6,11.8-4.4,50.2-6.5,68.5c-0.6,5.8-0.1,11.5-1.3,17.2c-1.4,6.5-3.4,12.8-6.1,18.8c-4.5,10.1-10.7,19.3-18.4,27.2
			c4,0.1,8.1,0.2,12.1,0.4c5.9,0.4,12,1.7,17.8,2.9c2.5,0.5,3.5,2.3,3.4,4.3c8,0.4,16,0.9,24,1.3c0.5-1.8,1.9-3.2,4.3-3.2
			c2.9,0,5.9,0.1,8.8,0.6c0.8,0.1,1.6,0.3,2.3,0.5c0.2,0.1,0.5,0.1,0.7,0.1c0,0,0,0,0.1,0c0,0,0,0,0.1,0c0,0,0,0,0,0
			c1.9,0,3.8,0.9,4.6,3.1l23.2,1.2c0-0.1,0-0.1,0-0.2c-0.1-0.5-0.3-0.8-1.7-1.5c-2.8-1.5-4.6-1.6-7.8-1.3c-3.5,0.3-6.9-0.6-10.3-1.1
			c-6-0.9-3.4-10,2.5-9.1c6.2,0.9,12.4-0.3,18.2,2.3c0.9,0.4,1.9,0.9,2.9,1.4c1.2-1.2,2.5-2.2,3.9-2.9c3.5-1.9,8.2,1.2,6.9,5.3
			c-0.2,0.5-0.4,1.1-0.5,1.6c-0.2,0.8-0.1,0.9-0.3,0c0.1,0.5,0.1,1,0.1,1.5c5.3-0.2,10.6-1.4,15.6-2.4c4.2-0.9,8.5-1.8,12.5-3.6
			c-0.1-0.1-0.3-0.1-0.4-0.2c-0.4-0.1-0.5-0.5-0.5-0.8c-0.2-0.2-0.5-0.4-0.7-0.6c-4.1-1.9-7.8-6.1-10.9-9.2
			c-0.3-0.2-0.5-0.4-0.8-0.6c-2.6-1.9-5.1-3.8-7.6-5.9c-0.5-0.4-0.2-1,0.2-1.2c-0.1-0.1-0.1-0.2-0.2-0.3c-4-2.8-7.8-5.8-10-10.3
			c-0.4-0.8,0.6-1.6,1.2-1c1.2,1.1,2.3,2.2,3.4,3.4c-8.1-10.5-14.2-22-14.9-33.6c-1.6-27.3,5.1-56.6,7.5-83.8c0-0.4,0.2-0.8,0.4-1.2
			c19.6-26.5,39.8-52,61.4-76.7c3,1.7,9.8,1,12.6-1C221.2,52.2,222.9,47.8,222.1,43.8z"/>
		<path style="fill:#F1DBCB;stroke:#F1DBCB;stroke-width:3;stroke-miterlimit:10;" d="M58.5,371.3c-3.1-3.7-8.6-5.2-13.1-3.5
			c-4.5,1.7-7.7,6.3-7.7,11.2c0.1,8.1,8.6,13.9,16.7,14s15.2-2.2,22.3-6.1c4.7-39.1,9.4-78.1,14-117.2c-6.6-0.7-13.2-1.3-19.7-2
			c-2.9,34.3-7.4,67.6-10.3,101.9C60.5,368.8,59.1,372.1,58.5,371.3z"/>
		<path style="fill:#F1DBCB;stroke:#F1DBCB;stroke-width:3;stroke-miterlimit:10;" d="M117.7,274.2c4.9,0.7,9.9,0.1,14.6,1.2
			c-0.2-2.5-0.5-5-0.7-7.6c-6.6,0.7-13.2,1.3-19.7,2l0.8,6.7C113.7,275,115.5,273.9,117.7,274.2z"/>
		<path style="fill:#F1DBCB;stroke:#F1DBCB;stroke-width:3;stroke-miterlimit:10;" d="M157.3,367.8c-4.5-1.7-10-0.2-13.1,3.5
			c-0.6,0.8-2-2.5-2.3-1.6c-2.2-26.2-5.3-51.8-8-77.7c-0.1,0.1-0.2,0.2-0.4,0.3c-0.5,0.1-0.9,0.2-1.4,0.4c-0.9,0.4-1.7-0.9-0.8-1.4
			c0.6-0.3,1.1-0.4,1.8-0.6c0.1,0,0.3,0,0.4,0c0,0,0,0,0-0.1c0.1-0.1,0.2-0.1,0.3-0.2c0-0.4-0.1-0.8-0.1-1.2c0,0-0.1,0-0.1-0.1
			c-0.4-0.3-0.5-1,0-1.3c-0.1-0.7-0.2-1.5-0.2-2.2c-2.8-1.5-4.6-1.6-7.8-1.3c-3.5,0.3-6.9-0.6-10.3-1.1c-0.7-0.1-1.3-0.3-1.8-0.6
			c4.2,34.7,8.3,69.5,12.5,104.2c7.1,3.8,14.3,6.2,22.3,6.1c8-0.1,16.6-6,16.7-14C165,374.1,161.8,369.5,157.3,367.8z"/>
	</g>
	<g id="Skirt">
		<path style="fill:#F26C7F;" d="M104.1,208.6l-45.5-1.1c0,0-5,47.2-43.3,70.4c-23.6,14.2,89.9,13.3,89.9,13.3L104.1,208.6z"/>
		<path style="fill:#F26C7F;" d="M91.9,208.6l45.5-1.1c0,0,5,47.2,43.3,70.4c23.6,14.2-89.9,13.3-89.9,13.3L91.9,208.6z"/>
	</g>
	<g id="Shirt_1_">
		<path style="fill:#99CC99;" d="M146.4,100.1c-5.5,0.2-22.4,11.8-22.4,11.8s8.5,19.8-18.4,19.9c-26.9,0.1-19.6-19-19.6-19l-7.4-2.9
			c-23-4.6-29.1,21.9-29.1,21.9c-4,11.8,10.9,22.7,12.5,22.6c1.5-0.1,1.8-5.8,1.8-5.8c-0.2-0.4-5.7,62.3-5.7,62.3l79.7-0.8
			c-0.4-0.1-0.6,0.1-0.4,0.1c0-0.1,0.3-3.1,0.1-7.8c-0.2-3.7,0.5-9,1-14.3c2.2-23.5,9.1-57.1,9.1-57.1c14.9-1.9,17.6-24.5,17.6-24.5
			C160.8,108,146.4,100.1,146.4,100.1z"/>
	</g>
	<g id="Shoes">
		<path style="fill:#333333;" d="M78.2,387.6c0,0-19.1,13.5-35.6,2.5c0,0-7.2-5-6.3-12.8h12.3h30.8L78.2,387.6z"/>
		<path style="fill:#333333;" d="M46.3,366.3l2.3,11.7h5.8l-3.3-12.4C51.1,365.7,46,364.9,46.3,366.3z"/>
		<path style="fill:#333333;" d="M124.6,387.9c0,0,19,13.5,35.6,2.5c0,0,7.2-5,6.4-12.8h-12.4h-30.7L124.6,387.9z"/>
		<path style="fill:#333333;" d="M157.7,366.7l-2.3,11.1h-5.8l3.3-12.2C152.9,365.7,158,365.3,157.7,366.7z"/>
	</g>
</g>
</svg>
