<?xml version="1.0" encoding="utf-8"?>
<!-- Generator: Adobe Illustrator 20.0.0, SVG Export Plug-In . SVG Version: 6.00 Build 0)  -->
<svg version="1.1" id="Layer_1" xmlns="https://www.w3.org/2000/svg" xmlns:xlink="https://www.w3.org/1999/xlink" x="0px" y="0px"
	 viewBox="0 0 63.1 348.4" enable-background="new 0 0 63.1 348.4" xml:space="preserve">
<linearGradient id="SVGID_1_" gradientUnits="userSpaceOnUse" x1="9.997558e-02" y1="27.0937" x2="63.0483" y2="27.0937">
	<stop  offset="0" style="stop-color:#F69FAB"/>
	<stop  offset="0.5485" style="stop-color:#F6A0AC"/>
	<stop  offset="0.9997" style="stop-color:#FBD5DB"/>
</linearGradient>
<path fill="url(#SVGID_1_)" d="M63,54.2H0.1V8c0-4.4,3.6-8,8-8H55c4.4,0,8,3.6,8,8V54.2z"/>
<linearGradient id="SVGID_2_" gradientUnits="userSpaceOnUse" x1="9.997558e-02" y1="66.5005" x2="63.0483" y2="66.5005">
	<stop  offset="0" style="stop-color:#58595B"/>
	<stop  offset="1" style="stop-color:#A7A9AC"/>
</linearGradient>
<rect x="0.1" y="54.2" fill="url(#SVGID_2_)" width="62.9" height="24.7"/>
<linearGradient id="SVGID_3_" gradientUnits="userSpaceOnUse" x1="-0.5667" y1="186.3812" x2="62.3816" y2="186.3812">
	<stop  offset="0" style="stop-color:#FEE848"/>
	<stop  offset="0.9955" style="stop-color:#FFF09A"/>
</linearGradient>
<rect x="0.1" y="78.8" fill="url(#SVGID_3_)" width="62.9" height="215.1"/>
<polygon fill="#FFE6B9" points="14.3,293.9 13.6,293.9 13.9,293.3 "/>
<linearGradient id="SVGID_4_" gradientUnits="userSpaceOnUse" x1="31.53" y1="274.3283" x2="31.53" y2="337.3883">
	<stop  offset="0" style="stop-color:#FFD797"/>
	<stop  offset="0.6854" style="stop-color:#FFE6B9"/>
</linearGradient>
<polygon fill="url(#SVGID_4_)" points="63,293.9 63.1,293.9 47.3,321.2 31.6,348.4 15.8,321.2 0.1,293.9 0,293.9 3.6,287.7 
	7.1,281.5 10.7,287.7 13.9,293.3 13.6,293.9 14.3,293.9 13.9,293.3 17,288.1 20.5,281.9 24.1,288.1 27.5,293.9 29.2,293.9 
	32.6,288.1 36.2,281.9 39.8,288.1 43.1,293.9 43.8,293.9 47.1,288.1 50.7,281.9 54.3,288.1 57.6,293.9 57.8,293.9 63.1,284.9 "/>
<polygon fill="#FFE6B9" points="14.3,293.9 13.6,293.9 13.9,293.3 "/>
<linearGradient id="SVGID_5_" gradientUnits="userSpaceOnUse" x1="31.6001" y1="343.1042" x2="31.5563" y2="323.5314">
	<stop  offset="0" style="stop-color:#5D5E60"/>
	<stop  offset="0.9189" style="stop-color:#A7A9AC"/>
</linearGradient>
<polygon fill="url(#SVGID_5_)" points="31.6,348.4 26.7,340 21.8,331.5 31.6,331.5 41.4,331.5 36.5,340 "/>
</svg>
