<?xml version="1.0" encoding="utf-8"?>
<!-- Generator: Adobe Illustrator 20.1.0, SVG Export Plug-In . SVG Version: 6.00 Build 0)  -->
<svg version="1.1" xmlns="https://www.w3.org/2000/svg" xmlns:xlink="https://www.w3.org/1999/xlink" x="0px" y="0px"
	 viewBox="0 0 170.2 198.3" style="enable-background:new 0 0 170.2 198.3;" xml:space="preserve">
<style type="text/css">
	.st0{fill:#FFF4BB;}
	.st1{fill:#B08F4A;}
	.st2{fill:#715A33;}
	.st3{display:none;}
	.st4{display:inline;}
	.st5{fill:none;stroke:#42111C;}
	.st6{font-family:'GillSans-Light';}
	.st7{font-size:12px;}
	.st8{fill:#3A3A3A;stroke:#3A3A3A;stroke-width:0.25;stroke-miterlimit:10;}
</style>
<g id="Layer_5">
	<g>
		<g>
			<path class="st0" d="M147.6,7.3c0-0.8,0.1-1.6,0.1-2.4c0.1-1.2-0.8-2.3-1.8-2.7c-1.1-0.5-2.4-0.2-3.3,0.6
				c-0.2,0.2-0.4,0.4-0.6,0.6c-1.1,1.1-1.2,3.2,0,4.2c1.2,1.1,3,1.2,4.2,0c0.2-0.2,0.4-0.4,0.6-0.6c-1.7-0.7-3.4-1.4-5.1-2.1
				c0,0.8-0.1,1.6-0.1,2.4c-0.1,1.6,1.4,3.1,3,3C146.3,10.2,147.6,8.9,147.6,7.3L147.6,7.3z"/>
		</g>
	</g>
	<g>
		<g>
			<path class="st0" d="M28.1,22.8c0.4,0,0.7,0.1,1,0.3c0,0.1,0.1,0.1,0.1,0.2c0,0-0.4-0.8-0.2-0.4c-0.4-0.9-0.7-1.7-1.4-2.5
				c-1.1-1.3-3-1.9-4.7-1.4c-1.4,0.5-2,1.5-2.2,2.9c0,0.3-0.1,0.5-0.1,0.8c-0.2,1.6,1.5,3.1,3,3c1.8-0.1,2.8-1.3,3-3
				c0-0.3,0.1-0.5,0.1-0.8c-0.7,1-1.5,1.9-2.2,2.9c-0.5,0.2-1-0.2-1.4-0.4c0.2,0.2,0.2,0.2,0.1,0.1c-0.1-0.2-0.1-0.1,0.1,0.2
				c0.2,0.6-0.1-0.3,0.2,0.5c0.1,0.3,0.3,0.7,0.5,1c0.9,1.6,2.4,2.4,4.2,2.6c1.6,0.1,3.1-1.5,3-3C31,24.1,29.8,22.9,28.1,22.8
				L28.1,22.8z"/>
		</g>
	</g>
	<g>
		<g>
			<path class="st0" d="M43.6,60.8c-0.8-3.1-1.6-6.2-2.4-9.3c-1.8,0.8-3.7,1.5-5.5,2.3c3.2,7.2,5.6,14.7,7.2,22.3
				c1.8-0.8,3.7-1.5,5.5-2.3c-3.7-5.2-6.2-11-7.4-17.2c-1.9,0.5-3.9,1.1-5.8,1.6c0.7,3.2,1.4,6.4,2.1,9.6c1.9-0.5,3.9-1.1,5.8-1.6
				c-0.9-3.1-1.9-6.2-2.8-9.4c-1.1-3.7-6.7-2.2-5.8,1.6c0.1,0.3,0.1,0.6,0.2,0.8c1,3.7,6.7,2.2,5.8-1.6c-0.1-0.3-0.1-0.6-0.2-0.8
				c-1.9,0.5-3.9,1.1-5.8,1.6c0.9,3.1,1.9,6.2,2.8,9.4c1.1,3.7,6.6,2.2,5.8-1.6c-0.7-3.2-1.4-6.4-2.1-9.6c-0.8-3.8-6.5-2.2-5.8,1.6
				c1.3,6.7,4,13.1,8,18.7c2,2.7,6.2,1.1,5.5-2.3c-1.7-8.2-4.3-16.1-7.8-23.8c-1.4-3.2-6.3-0.9-5.5,2.3c0.8,3.1,1.6,6.2,2.4,9.3
				C38.8,66.1,44.6,64.6,43.6,60.8L43.6,60.8z"/>
		</g>
	</g>
	<g>
		<g>
			<path class="st0" d="M44.8,68.2c-0.4-2.2-0.8-4.5-1.2-6.7c-1.9,0.5-3.9,1.1-5.8,1.6c0.3,0.9,0.3,1-0.2,1.8
				c1.8,0.2,3.7,0.5,5.5,0.7c-0.4-1-0.8-2-1.1-3c-1.4-3.5-6.7-2.2-5.8,1.6c0.3,1.3-0.1,2.2-0.8,3.2c1.7,0,3.5,0,5.2,0
				c-0.3-0.3-0.3-0.5,0-0.8c-2-0.3-3.9-0.5-5.9-0.8c0,1.1,0,2.1,0,3.2c2,0,4,0,6,0c-0.8-10-2.5-19.8-5.4-29.4
				c-1.1-3.7-6.9-2.1-5.8,1.6c2.7,9.1,4.4,18.3,5.2,27.8c0.3,3.8,6,3.9,6,0c0-1.1,0-2.1,0-3.2c0-3.5-4.8-3.9-5.9-0.8
				c-0.7,1.9-0.4,3.8,0.6,5.5c1.2,2.1,3.9,1.8,5.2,0c1.7-2.3,2.1-5.1,1.4-7.8c-1.9,0.5-3.9,1.1-5.8,1.6c0.4,1,0.8,2,1.1,3
				c0.9,2.4,4,3,5.5,0.7c1.3-1.9,1.6-4.3,0.8-6.5c-1.3-3.6-6.5-2.2-5.8,1.6c0.4,2.2,0.8,4.5,1.2,6.7C39.7,73.6,45.5,72,44.8,68.2
				L44.8,68.2z"/>
		</g>
	</g>
	<g>
		<g>
			<path class="st0" d="M67.2,52.9c-0.8-1.5-0.5-1.5,1,0c1.4,0.4,1.8,1,1,1.9c-0.5,1.7-2.6,1.9-3.9,0.9c-2.3-1.9,0.1-5.4,2.7-4.4
				c3,1.1,1.5,5.3,0.2,7c-1.5,1.9-3.9,3.8-6.4,3.6c-3.4-0.1-5-4.3-1.3-5.6c2.5-0.9,5.5,0.9,7.2,2.6c1.1,1.1,2.1,2.4,1.5,4
				c0.2,1.2-0.2,1.6-1,0.9c-1.6-0.7-1.2-0.2,1.3,1.3c-0.4,1.3-2.8,0.8-3.1-0.2c-0.2-1.5,0.2-2.2,1.3-2c1.6-0.4,2,0.7,1.3,3.2
				c2.3,2.3,5.8-1.2,3.5-3.5c-2.4-2.4-7-0.6-6.5,3c0.6,3.9,5.8,4.2,7.7,1.3c5.2-7.8-11.2-13.8-12.4-3.5c-1.3,10.5,15.4,9.1,13.2-0.4
				c-0.9-3.9-5.6-6.5-9.2-4.5c-3.1,1.7-3.9,6.2-1.8,9c2.6,3.5,7.6,2.2,9.8-1c2.8-4.1,0.4-9.1-3-12c-3.7-3.2-9.3-4.8-13.6-1.9
				c-3.6,2.4-4.7,7.3-2,10.9c6.7,8.8,20.8-0.7,20-10c-0.8-9.8-16-9.4-15.5,0.4c0.3,4.8,5.2,8.6,9.9,7.1c4.6-1.5,7-7.4,4.2-11.5
				c-2.6-3.9-8.7-4.4-11.2-0.1c-2.7,4.6,1.6,9,6.3,8.2C71.7,57.2,70.4,52.3,67.2,52.9L67.2,52.9z"/>
		</g>
	</g>
	<g>
		<g>
			<path class="st0" d="M72.7,42.5c-2.6-2.4-5.2-4.8-7.8-7.2c-7.1,7.1-14.1,14.1-21.2,21.2c0.2,0.2,0.5,0.4,0.7,0.6
				c-1.3-2.2-2.6-4.4-3.9-6.6c0.1,0.3,0.1,0.6,0.2,0.9c0.5-3.9,1-7.7,1.5-11.6c-0.1,0.3-0.2,0.6-0.4,0.9c1.8-1.8,3.6-3.6,5.4-5.4
				c-0.3,0.1-0.6,0.3-0.9,0.4c3.9-0.5,7.7-1,11.6-1.5c-0.3-0.1-0.6-0.1-0.9-0.2c2.2,1.3,4.4,2.6,6.6,3.9c-0.2-0.2-0.4-0.5-0.6-0.7
				c-10.1-11.5-28.9,0.7-25.1,14.6c7.4,26.4,15.4,52.8,22,79.4c0.6,2.3,1.4,5.9,1.5,7.2c0.2,1.4,0.4,5.5,0,8c0.3-2-0.4,1-0.6,1.6
				c-0.4,1.3,0.4-0.3-0.6,1.5c-0.2,0.4-2.7,3.5-0.8,1.4c-0.7,0.8-1.6,1.6-2.3,2.4c-1.1,1.1,1.6-0.9-0.7,0.6
				c-1.2,0.7-2.3,1.5-3.5,2.1c-0.8,0.4-1.7,0.8-2.5,1.3c-3.8,1.9,2.4-0.7-1.6,0.7c-5,1.6-10,3.1-15.1,4.3
				c-7.3,1.7-11.7,9.4-10.7,16.5c0.9,6.6,7.3,14,14.7,13c32.3-4.1,64.6-8.3,96.8-12.4c-1.3-9.8-2.7-19.6-4-29.5
				C95,161.2,59.4,166.7,22,166.5c2.5,9.3,5,18.6,7.6,28c11.8-8.8,22-19.4,29-32.5c3.7-6.9,6.5-14.3,8.7-21.7c1-3.3,1.9-6.6,2.9-9.8
				c1.3-4,1.5-4.8,3.3-8.2c0.3-0.6,2.2-3.6,1.7-2.9c-0.4,0.5,2.3-2.4,2.8-3c1.9-1.9-0.8,0,1.7-1.2c0.5-0.3,4.2-2.1,1.7-0.9
				c3.1-1.4-1.7-0.2,1.6-0.4c1.8,0.1,1.9,0.1,0.3-0.1c0.4,0.1,0.9,0.3,1.3,0.4c-1.4-0.6-1.4-0.5,0.2,0.3c-0.3-0.2-0.6-0.4-0.9-0.6
				c-0.8-1.3-0.8-1.2,0.1,0.2c-0.4-0.5-0.7-1.1-0.8-1.8c-0.4-4.9,4.8-8.9,9.8-5.7c2.4,1.5,3.9,5.9,1.4,8c-1.9,1.5-2.1-0.3-0.4,0.3
				c0,0-2.4-0.3-2.7-0.3c-1-1-0.9-0.9,0.3,0.3c-0.3-0.3-0.5-0.5-0.8-0.8c-0.5-1.5-0.6-1.4-0.1,0.3c-0.3-1.7-0.4-1.7-0.4,0.1
				c6.3-4.8,12.7-9.6,19-14.5c2.5,0.9-1.2-0.6-1.7-0.9c-1.3-0.9-1.6-1.1-0.8-0.6c0.8,0.5,0.6,0.3-0.7-0.8c-2.3-3.4,0.4,2.2-1.1-1.7
				c-1.4-3.4-0.2,1.9-0.7-1.8c-0.4-3.1-0.6,1.6-0.1-1.8c0.4-3.3-0.5,1.8,0.3-1.8c0.5-2.4-0.3,0.1,0.3-1.2c0.3-0.7,0.7-1.3,1.1-1.9
				c-0.9,1-0.8,0.9,0.4-0.4c-3.5,1.5-7.1,2.9-10.6,4.4c-5.3-0.7-9.6-3.4-8.8-9c0.5-3.2,3.1-6.4,6.5-6.7c3.7-0.3,5.2,2.1,5.8,5.1
				c0-1.6,0-1.8-0.1-0.7c-0.2,1.1-0.1,0.9,0.3-0.7c-0.8,1.5-0.6,1.4-1.9,2.5c2.9-2.4-2,0.6-4,0.1c-1.9-0.5-3.3-1.5-4.3-3
				c-1.9-3-1.5-5.7,1.1-8.2c0.7-3.6,2.8-5.3,6.4-5.1c0.8,0,1.5,0.2,2.2,0.6c1.4,0.5,2.5,1.4,3.3,2.9c-0.9-1.5-0.9-1.5-0.1-0.1
				c0,0.4,0.1,0.9,0.1,1.3c0.1-1.8,0-1.8-0.2,0c0.1-0.4,0.2-0.9,0.4-1.3c-0.7,1.5-0.6,1.5,0.3,0c-0.9,1.1-1.3,1.8-2.8,2.2
				c-1.5,0.4-4.1-1-1.9,0.1c-7.3-3.8-6.3-13.5,2.9-14.3c5,5,10,10,15,15c-0.1,3.7-3.3,8.9-7.6,8.8c-1.4-0.3-2.8-0.7-4.2-1
				c-1.2-1.1-1.2-1.1,0,0.2c-0.9-1.1-1-1.2-0.4-0.3c0.4,0.6,0.7,1.2,0.9,1.8c-1.4-2.9,0.6,2.3,0.8,3c1.6,5.8,1.6,12.5,0.1,18.5
				c4.8-3.7,9.6-7.3,14.5-11c3.3,4.1,6.5,8.2,9.8,12.4c-9.1,1.2-18.3,2.4-27.4,3.6c-0.8-1.8,0.2,1,0.3,1.6c0.6,2.5,0-3,0.1,1.5
				c0,0.7-0.1,2.4,0.1,0.7c0,0-1.2,4.4-0.4,2.4c5.6-2.3,11.3-4.6,16.9-6.9c7,2.5,8.4,9.2,3.7,14.9c-7.9-1-15.7-2-23.6-3
				c0.1,0.1,2.6,3.9,1.1,1.4c0.3,1.6,0.5,1.8,0.3,0.8c-0.1-1.1-0.1-0.8,0,0.8c0,0.5,0,0.9-0.1,1.4c0.2-1.6,0.1-1.6-0.3,0.2
				c0.1-0.3,0.3-0.7,0.4-1c-0.4,0.8-1,1.6-1.6,2.4c5.6-2.3,11.3-4.6,16.9-6.9c-2.5-0.7-1.7-0.1,2.4,1.8c-1.2-1.2-1.1-1.1,0.1,0.2
				c0.7,2.2,1.2,3.7,0,6c-8.6,0-17.3,0-25.9,0c2.9,3.8,3.3,4.4,4.1,8.3c0.2,1.1,0.2,1,0-0.1c0.1,1,0.1,2.1,0.1,3.1
				c-0.1,1.9-0.1,2.1,0,0.6c-0.2,1-0.5,2-0.8,3c6.2-3.5,12.3-7,18.5-10.5c2.1,0.5,4.2,3.4,4.6,5.2c0.2,1-0.8,5,0.3,2.2
				c-8.4,2.2-16.7,4.4-25.1,6.6c1.2,1.2,1.2,1.1,0.1-0.2c-0.6-1.7-0.6-1.7-0.1-0.1c-0.4-1-0.3-2,0-3c-0.5,1.6-0.4,1.6,0.1-0.1
				c5.6-2.3,11.3-4.6,16.9-6.9c-1.8-0.3-0.7-0.2,0.2,0.5c2.1,1.6,0-0.6,0.8,0.7c0.6,1,0.7,1.8,1.1,2.7c0.1,1,0.1,1.1,0.1,0.2
				c0.1-2-0.3-0.8-1.1,3.6c-6.8,1.8-13.7,3.6-20.5,5.4c4.7,3.4,9.3,6.7,14,10.1c1.2-9.1,2.4-18.3,3.6-27.4c-2.3,0.4-4.7,0.7-7,1.1
				c-8,1.3-12.4,11.3-10.5,18.5c2.3,8.5,10.4,11.7,18.5,10.5c2.3-0.4,4.7-0.7,7-1.1c5.7-0.9,10-7.2,10.7-12.5
				c0.8-6.3-2.1-11.3-7.2-14.9c-4.7-3.4-9.3-6.7-14-10.1c-6.1-4.4-17.5-1.6-20.5,5.4c-3.5,7.9-4.2,16,0.1,23.7
				c3.4,6.1,9.6,11.6,16.8,12.6c6.6,1,13.4-0.6,16.9-6.9c6-10.7,4.5-24.6-4.8-33c-9.1-8.2-20.7-3.8-25.1,6.6
				c-5,12.1,3.9,26.5,16,29.5c7.9,2,16.2-2.5,18.5-10.5c3.7-12.7,1.6-27.4-6.5-38c-3.3-4.3-7.1-7.4-13-7.4c-5.1,0-10.5,2.8-13,7.4
				c-7.3,13.8-0.6,32.4,15.4,36c7.1,1.6,12.8-1.2,16.9-6.9c7.5-10.3,7.5-25.9,0.1-36.3c-5-7.1-17-11.2-23.6-3
				c-4.8,5.9-7.2,12.8-5.1,20.4c2.1,7.4,7.6,12.3,14.6,14.8c5.6,2,14.5-1.2,16.9-6.9c5.3-12.4,5.4-24.1-0.2-36.4
				c-5.3-11.8-24.7-8.3-27.4,3.6c-1.4,6.4-0.5,12.3,3.4,17.5c4,5.4,9.3,7.3,15.7,8.1c6.3,0.8,13-5.2,14.5-11
				c3.9-16,3.1-36.1-7.2-49.7c-5.8-7.7-15-12.1-24.7-9.8c-9.8,2.4-16.5,10.4-16.8,20.5c-0.2,7.6,7,15.6,15,15
				c7.9-0.6,14.6-3.9,18.8-11c4.2-7.1,4.2-16.1,0-23.2c-8-13.7-28.1-14.8-38.9-4.1C70.5,59.2,69,77.8,79.5,88.6
				c11,11.4,34.1,9,38-8.3c3.8-16.6-11.9-31.4-28.4-26.9c-14.6,4-22.5,20.1-18.8,34.3c4,15.2,22.6,23.1,36.1,14.7
				c13.9-8.7,13.5-30.2-1-38.2C86.4,53.7,73.8,78,74.4,94c0.6,16.6,11.8,29.7,27.1,35.1c9.9,3.4,18.3-5.4,19-14.5
				c1.9-25.4-31.5-39.4-48.1-20.1c-8.4,9.7-8.9,24.5,0.4,34c9.1,9.2,24.4,9.7,33.4,0.1c7.9-8.5,9.2-21.6,2.7-31.3
				c-6.1-9.1-17-14.3-27.9-13.3c-22.3,2.1-34.4,21.2-40.5,40.9c-1.5,4.9-2.8,9.9-4.6,14.7c-0.1,0.2-1.3,3.3-0.7,1.9
				c0.5-1.1-1,2.2-1.2,2.5c-1,2.1-2.2,4.2-3.4,6.2c-1.2,2-2.5,4-3.9,5.9c0.4-0.5,1.4-1.7-0.5,0.7c-0.8,1-1.7,2-2.6,3
				c-1.6,1.8-3.2,3.4-5,5c-0.8,0.7-1.6,1.4-2.4,2.1c-0.3,0.3-3.6,2.8-1.9,1.6c-5.4,4-8.8,10-6.9,16.9c1.8,6.4,7.9,11,14.5,11
				c39.5,0.3,79.1-5.8,116.7-17.9c7.2-2.3,11.8-8.9,10.7-16.5c-0.9-6.6-7.3-14-14.7-13c-32.3,4.1-64.6,8.3-96.8,12.4
				c1.3,9.8,2.7,19.6,4,29.5c12.6-2.9,25-7,35.1-15.3c12.3-10.2,16.1-26,14-41.3c-2-15-7.2-29.7-11.2-44.3
				c-4.3-15.4-8.6-30.9-12.9-46.3c-8.4,4.9-16.7,9.7-25.1,14.6c6,6.8,17.3,6.9,23.7,0.5c6.3-6.3,6.3-17.8-0.6-23.7
				c-6.1-5.3-15.2-6-21.2,0c-5.6,5.6-6,15.7,0,21.2c2.6,2.4,5.2,4.8,7.8,7.2c6,5.5,15.3,5.9,21.2,0C78.3,58.1,78.7,48,72.7,42.5
				L72.7,42.5z"/>
		</g>
	</g>
	<g>
		<g>
			<path class="st0" d="M96.5,90.6c4.7,13.5,9.5,27,14.2,40.5c2.3,6.6,4.6,13.2,6.9,19.8c0.9,2.5,1.7,4.9,2.4,7.5
				c0.9,3.2,0.4-2,0,1.1c0.2-1.8,4.2-6.9,1.4-4.5c-7.8,6.6-4.4,18.6,3,23.6c0.7,0.4,1.3,0.9,2,1.3c1.2-9.1,2.4-18.3,3.6-27.4
				c-1.5,0.3-1.6,0.3-0.4,0.2c-1,0.1-1.9,0.2-2.9,0.2c-2.2,0.2-4.5,0.4-6.7,0.6c-7.8,0.7-15.4,6.4-15,15c0.3,7.6,6.6,15.7,15,15
				c6-0.5,12.1-0.8,18-2c5.8-1.3,10-6.9,10.7-12.5c0.8-6.1-2.1-11.6-7.2-14.9c-0.7-0.4-1.3-0.9-2-1.3c1,7.9,2,15.7,3,23.6
				c14-11.9,4.4-31.7-0.5-45.5c-5.6-16-11.2-32-16.9-48c-2.7-7.6-10.3-12.7-18.5-10.5C99.5,74.2,93.8,83,96.5,90.6L96.5,90.6z"/>
		</g>
	</g>
	<g>
		<g>
			<path class="st0" d="M22.5,157.1c0,0.7,0,1.3,0,2c7.5-4.3,15-8.6,22.6-13c-1.3-0.9-3.1-1.5-4.6-2c-1.6-0.5-3.4-0.7-5.1-0.6
				c-5.4,0.3-10.1,2.5-13.4,6.8c-0.4,0.5-1.1,1.2-1.4,1.9c-0.6,1-1.4,2.9-1.7,4c-0.4,1.6-0.7,3.5-0.7,5.1c0.1,4.7,2,9,5.2,12.5
				c2.6,2.8,6.9,4.4,10.6,4.4c3.7,0,8.1-1.6,10.6-4.4c2.6-2.9,4.6-6.6,4.4-10.6c-0.2-4.1-1.6-7.6-4.4-10.6c-0.1-0.1-0.1-0.2-0.2-0.2
				c0.8,1,1.6,2,2.3,3c-0.1-0.2-0.2-0.3-0.3-0.5c0.5,1.2,1,2.4,1.5,3.6c-0.1-0.3-0.2-0.6-0.3-0.9c0.2,1.3,0.4,2.7,0.5,4
				c0-0.2,0-0.4,0-0.6c-0.2,1.3-0.4,2.7-0.5,4c0.1-0.3,0.1-0.6,0.3-0.9c-0.5,1.2-1,2.4-1.5,3.6c0.1-0.2,0.2-0.4,0.3-0.5
				c-0.8,1-1.6,2-2.3,3c0.1-0.2,0.3-0.3,0.5-0.4c-1,0.8-2,1.6-3,2.3c0.2-0.1,0.4-0.2,0.6-0.3c-1.2,0.5-2.4,1-3.6,1.5
				c0.2-0.1,0.4-0.1,0.6-0.2c-1.3,0.2-2.7,0.4-4,0.5c0.3,0,0.6,0,1,0c-1.3-0.2-2.7-0.4-4-0.5c0.2,0,0.4,0.1,0.6,0.2
				c-1.2-0.5-2.4-1-3.6-1.5c0.2,0.1,0.4,0.2,0.6,0.3c4.4,2.9,10.7,2.6,15.1,0c4.6-2.7,7.3-7.6,7.4-13c0-0.7,0-1.3,0-2
				c0.1-3.8-1.7-7.9-4.4-10.6c-2.6-2.6-6.9-4.6-10.6-4.4c-3.9,0.2-7.9,1.4-10.6,4.4C24.1,149.5,22.5,153,22.5,157.1L22.5,157.1z"/>
		</g>
	</g>
	<g>
		<g>
			<path class="st0" d="M32.8,180.8c7.8,0,15.4-6.9,15-15c-0.4-8.1-6.6-15-15-15c-7.8,0-15.4,6.9-15,15
				C18.1,173.9,24.4,180.8,32.8,180.8L32.8,180.8z"/>
		</g>
	</g>
	<g>
		<g>
			<path class="st0" d="M16,167c0.3-1.6,0.3-1.9,0.1-0.8c-1.6,6.2,4.1,5.3,17.3-2.9c1.3,2.2,2.6,4.4,3.9,6.6
				c1.9,4.6-2.2,9.5,0.7,4.6c0.8-1.3,1.5-2.6,2.2-3.9c1.5-2.6,2.9-5.2,4.2-7.9c3-5.9,5.7-12,8.2-18.1c4.6-11,8.2-22.3,10.9-33.9
				c-9.8-1.3-19.6-2.7-29.5-4c-1.3,11.6-2.6,23.3-4,34.9c-0.9,7.8,7.5,15.3,15,15c8.9-0.4,14.1-6.6,15-15c1.3-11.6,2.6-23.3,4-34.9
				c0.8-7.4-6.4-13.8-13-14.7c-7.1-1-14.7,3.4-16.5,10.7c-4.6,19.4-11,36.3-20.8,53.5c-2.9,5.1-6.3,9.9-6.4,16
				c-0.1,7.8,5.4,15.2,13,17.2c6.6,1.7,13.9-0.1,18.7-4.8c5-4.8,6.2-11.2,6.8-17.7c0.8-7.8-7.5-15.3-15-15
				C22.1,152.4,16.8,158.6,16,167L16,167z"/>
		</g>
	</g>
	<g>
		<g>
			<path class="st0" d="M69.2,104.7c-0.8-1.6-0.9-1.7-0.3-0.4c-0.3-0.9-0.6-1.8-0.9-2.7c-0.2-0.8-0.6-4.3-0.4-1.6
				c-0.1-1.9-0.1-3.8,0-5.8c-0.2,3,0.2-1.1,0.4-1.7c1.4-5.9,3.3-8.5,8-13.4c1.4-1.1,1.6-1.3,0.5-0.6c0.8-0.6,1.7-1.2,2.5-1.8
				c1.3-0.8,2.6-1.6,4-2.3c2.8-1.5,3.8-1.9,8-3c2-0.6,4.1-1,6.1-1.4c3.3-0.6-0.8-0.1,2.2-0.3c3.8-0.2,7.5-0.3,11.4,0
				c1.1,0.1,1,0.1-0.3,0c1,0.2,1.9,0.4,2.9,0.6c1,0.2,1.9,0.5,2.8,0.8c1.5,0.6,1.8,0.7,0.9,0.3c1.5,0.7,3.6,2,4.4,3
				c1.6,2,2.2,3.9,3,7.2c0.1,0.6,0.9,5.3,0.7,3.3c0.2,2,0.4,4,0.5,6c1,17.7-0.7,33.3-5.4,50.1c-2.1,7.6,2.6,16.7,10.5,18.5
				c8,1.8,16.2-2.4,18.5-10.5c4.8-17.3,7.3-35.5,6.7-53.5c-0.6-18.3-3.8-36.5-19.7-47.8c-13.6-9.5-32.1-9.6-47.8-6.7
				C72,44.2,56.7,53.3,47,67c-10.9,15.4-12.4,36.1-3.8,52.8c3.7,7.2,13.8,9.3,20.5,5.4C71.1,120.9,72.9,111.9,69.2,104.7L69.2,104.7
				z"/>
		</g>
	</g>
	<g>
		<g>
			<path class="st0" d="M135.6,85.7c4.6-17,9.2-34.1,13.7-51.1c1.7-6.4-1.1-13.6-6.9-16.9c-6.1-3.6-13-1.9-18.2,2.3
				c1.5-1.3-1.9,1.1-2.2,1.3c-2.6,1.7,0.7,0.2-2.3,1c-3.7,1-4.9,1.1-8.3,1.3c-7.2,0.3-14.5,0.3-21.7,0.4
				c-14.9,0.2-29.8,0.5-44.6,0.7c-7.8,0.1-15.4,6.8-15,15c0.4,8,6.6,15.1,15,15c16.8-0.3,33.6-0.5,50.4-0.8c8.7-0.1,17.5,0,26.1-1.4
				c9.1-1.4,16.8-5.6,23.8-11.4c-8.4-4.9-16.7-9.7-25.1-14.6c-4.6,17-9.2,34.1-13.7,51.1c-2,7.6,2.5,16.6,10.5,18.5
				C125,97.9,133.4,93.8,135.6,85.7L135.6,85.7z"/>
		</g>
	</g>
	<g>
		<g>
			<path class="st0" d="M39.9,75.9c-1.5,4.5-2.9,8.9-4.4,13.4c9.8,1.3,19.6,2.7,29.5,4C64.5,88.1,64.1,83,63.6,78
				c-9.8,1.3-19.6,2.7-29.5,4c0.5,2,0.6,5.4,0.2,7.5c-0.7,4-1.6,7.9-2.5,11.8c-1.9,8.3-4.1,16.6-6.5,24.8
				c-2.2,7.5,2.7,16.7,10.5,18.5c8,1.8,16.1-2.4,18.5-10.5c2.8-9.4,5.2-18.9,7.3-28.5C63.9,95,66,84.5,63.1,74
				c-2-7.2-9.2-11.7-16.5-10.7c-6.8,0.9-13.6,7.3-13,14.7c0.4,5.1,0.9,10.2,1.3,15.2c0.6,7.5,5.2,13.7,13,14.7
				c7.6,1,14.1-3.6,16.5-10.7c1.5-4.5,2.9-8.9,4.4-13.4c2.5-7.5-2.9-16.7-10.5-18.5C50.1,63.5,42.5,67.9,39.9,75.9L39.9,75.9z"/>
		</g>
	</g>
	<g>
		<g>
			<path class="st0" d="M31.6,30.5c0,0,0.1,0.2,0.1,0.3c0,0.2-0.2,0.3-0.3,0.4c-0.3,0.2-0.8,0.3-1.2,0.2c-0.4-0.1-0.8-0.4-0.7-0.8
				c0.1-0.3,0.5-0.4,0.8-0.3c0.7,0.4,0.2,1.5-0.5,1.5c-0.3,0-0.8-0.3-0.6-0.6c0.1-0.2,0.4-0.2,0.5,0c0.1-0.3,0.3-0.5,0.4-0.8
				c-0.2,0-0.4,0.1-0.6,0.1c-0.8,0.2-0.5,1.4,0.3,1.2c0.2,0,0.4-0.1,0.6-0.1c0.3-0.1,0.5-0.5,0.4-0.8c-0.3-0.9-1.2-1.3-2.1-0.9
				c-0.9,0.4-1.1,1.6-0.5,2.4c0.6,0.9,1.9,0.9,2.7,0.3c0.8-0.6,1.1-1.8,0.6-2.8c-0.5-0.9-1.7-1.2-2.5-0.7c-0.9,0.6-1,1.9-0.3,2.7
				c0.8,0.9,2.2,0.9,3.2,0.4c0.9-0.5,1.4-1.6,0.7-2.5c-0.7-0.9-2.2-0.7-2.3,0.5c-0.2,1.3,1.3,1.7,2.2,1C33.1,30.8,32.2,30,31.6,30.5
				L31.6,30.5z"/>
		</g>
	</g>
	<g>
		<g>
			<path class="st0" d="M18.5,32.4c-0.2-0.4-0.1-0.6,0.2-0.6c0.1-0.1,0.3-0.1,0.4,0c0.3,0.1,0.6,0.3,0.8,0.5
				c0.4,0.5,0.7,1.2,0.7,1.8c-0.1,1.1-1.9,2.1-2.3,0.7c-0.2-0.6,0.3-1.1,0.9-0.9c0.7,0.2,0.7,1,0.2,1.4c-0.5,0.4-1.3,0-1.3-0.6
				c0-0.4,0.5-0.9,1-0.6c0.7,0.4-0.3,1.6-0.6,0.6c-0.2-0.8-1.4-0.4-1.2,0.3c0.4,1.3,2.1,1.8,3,0.6c0.9-1.3-0.2-3-1.7-2.9
				c-1.4,0.1-2.3,1.9-1.5,3.1c0.8,1.1,2.5,1.2,3.4,0.2c0.9-1.1,0.5-2.9-1-3.3c-1.4-0.4-2.7,0.7-2.5,2.1c0.2,1.4,1.5,2.3,2.8,1.9
				c1.6-0.4,2.3-2.1,1.9-3.7c-0.4-1.5-2.2-3.3-3.8-2.3c-1.5,0.9-0.8,3.2,1,2.8C19.6,33.5,19.2,32.2,18.5,32.4L18.5,32.4z"/>
		</g>
	</g>
	<g>
		<g>
			<path class="st0" d="M7,26.9c0,0.3,0,0.6,0,0.9c1-2.4,2-4.7,2.9-7.1c-0.2,0.2-0.4,0.5-0.5,0.7c4.7,0,9.4,0,14.1,0
				c-0.3-0.3-0.7-0.5-1-0.8c0.9,1.5,1.7,2.9,2.6,4.4c-0.1-0.4-0.1-0.8-0.2-1.2c-5.6,3.2-11.1,6.5-16.7,9.7c0.2,0.2,0.5,0.4,0.7,0.6
				c0.7-5.2,1.3-10.5,2-15.7c-1,0.5-2,1.1-3,1.6c4.6,1.2,9.1,2.4,13.7,3.6c-0.4-0.8-0.9-1.6-1.3-2.3C15.7,13.1,5.1,16.3,2,23.8
				c-4.1,10.1,6.4,18.1,15.5,17.5c9.3-0.7,17.5-1,26.6,1.5c12.4,3.4,17.7-15.8,5.3-19.3c-6-1.7-12.2-2.7-18.4-3
				c-2.8-0.1-5.6-0.1-8.4,0.2c-1.2,0.1-2.5,0.3-3.7,0.4c-6.2,0.8-0.2-0.6,1.1,2.3c0.5,1.7,0.9,3.4,1.4,5c0,0.2,0,0.4,0,0.7
				C15.2,29.9,9.1,30.7,3,31.5c0.4,0.8,0.9,1.6,1.3,2.3c2.7,4.8,9,6.1,13.7,3.6c1-0.5,2-1.1,3-1.6c5.5-3,6.7-11.4,2-15.7
				c-0.2-0.2-0.5-0.4-0.7-0.6C14.5,12.4,4,19.5,5.6,29.2c0.4,2.7,1.6,4.8,3.8,6.4c3.8,3,10.5,4.7,14.1,0c2.1-2.8,3.6-5.1,3.4-8.7
				C26.5,14.1,6.5,14,7,26.9L7,26.9z"/>
		</g>
	</g>
	<g>
		<g>
			<path class="st0" d="M86.7,36.8c0.5,0.3,0.9,0.6,1.4,0.9c1.7-6.2,3.4-12.4,5-18.6c-14.6,0.9-29.3,1.7-43.9,2.6
				c-12.8,0.7-12.9,20.8,0,20c14.6-0.9,29.3-1.7,43.9-2.6c9.8-0.6,13.7-13.2,5-18.6c-0.5-0.3-0.9-0.6-1.4-0.9
				C85.9,12.7,75.8,30,86.7,36.8L86.7,36.8z"/>
		</g>
	</g>
	<g>
		<g>
			<path class="st0" d="M112.2,22.7c-1-1-1.9-2-2.9-3c-1.5,5.6-2.9,11.1-4.4,16.7c5.7-1.5,11.4-2.9,17.2-4.2
				c3.2-0.7,6.4-1.5,9.6-2.2c0.4-0.1,3.7-0.5,3.8-0.8c-1.2-0.5-2.4-1-3.6-1.5c-0.8-1.4-1-1.6-0.6-0.6c-0.3,1.8,1.4,5.7,1.8,7.5
				c0.6,2.8,1.3,5.6,1.9,8.4c1.3,5.7,2.7,11.2,2.6,17c-0.2,12.9,19.8,12.9,20,0c0.1-8.6-2.1-16.9-4-25.2c-1.6-6.9-2.3-15.5-7.3-20.9
				c-6.1-6.6-14.2-4.6-21.9-2.9c-8.3,1.9-16.6,3.9-24.8,6c-7.5,1.9-9.5,11.4-4.4,16.7c1,1,1.9,2,2.9,3C106.9,46.2,121,32,112.2,22.7
				L112.2,22.7z"/>
		</g>
	</g>
	<g>
		<g>
			<path class="st0" d="M135.2,63.3c0.6,3.1,1.9,6.1,3.8,8.6c4.4,5.7,13.2,7.2,17.3,0c0.3-0.5,0.5-0.9,0.8-1.4
				c-6.1-0.8-12.2-1.6-18.3-2.4c1.1,8.1,0.1,16.3-2,24.1c-3.5,12.4,15.8,17.7,19.3,5.3c3.2-11.5,3.6-23,2-34.8
				c-1.2-8.8-14.4-9.2-18.3-2.4c-0.3,0.5-0.5,0.9-0.8,1.4c5.8,0,11.5,0,17.3,0c-1.1-1.4-1.5-2.2-1.8-3.8c-1.1-5.3-7.4-8.3-12.3-7
				C136.6,52.5,134.1,58,135.2,63.3L135.2,63.3z"/>
		</g>
	</g>
	<g>
		<g>
			<path class="st0" d="M157,156c4,1,3.4,6.5,1.5,9.3c-2.1,3.1-6.2,4.2-9.6,4.9c-1.1,0.2-2.7,0.1-3.6,0.5c-0.2,0-0.5,0-0.7,0
				c1.8,0.3,2.5,1.9,2.1,4.8c0.4-0.2,0.7-0.9,1-1.2c1.3-1.1,2.3-2.6,3.6-3.8c0.5-0.5,1.8-1.3,2.3-1.8c1-1.2,1.9,0.3,0.2-1
				c2.6,2.1,7.6,1.9,8.4-2.2c0.5-2.7,1-5.5,1.5-8.2c0.9-5-4.5-8.2-8.4-4.9c-3.5,3-5.8,6.9-6.9,11.4c-1.6,6.2,8.1,8.9,9.6,2.7
				c0.7-2.9,2.1-5,4.4-6.9c-2.8-1.6-5.6-3.2-8.4-4.9c-0.5,2.7-1,5.5-1.5,8.2c2.8-0.7,5.6-1.5,8.4-2.2c-7.6-6.1-15.4,1-20.5,6.9
				c-2.4,2.8-4.7,6.2-2.5,9.9c1.8,3.1,5.7,3.5,8.9,3.2c8-0.7,16.9-3.8,21-11.3c4.6-8.4,1.9-20.3-8.1-22.9
				C153.5,144.7,150.8,154.3,157,156L157,156z"/>
		</g>
	</g>
	<g>
		<g>
			<path class="st0" d="M153.8,156.2c-0.6-0.6,0.5,0.8,0.3,0.4c-0.4-0.7,0.2,0.6,0.2,0.7c-0.1-0.3-0.1-0.2,0,0.4
				c0.1,0.4,0.1,0.7,0,1.1c-0.1,0.9-0.5,1.7-1.2,2.4c0.4-0.4-1.2,0.8-0.6,0.5c0.5-0.3-0.9,0.4-0.8,0.3c0.1,0,0.3-0.1,0.4-0.1
				c0,0-1.4,0-0.9,0.1c0.1,0,0.4,0,0.5,0c0.6-0.1-0.9-0.1-0.9-0.1c0.1,0,0.3,0.1,0.4,0.1c0.1,0-1.3-0.6-0.8-0.3
				c0.6,0.3-1-0.9-0.6-0.5c0.1,0.1-0.9-1.2-0.6-0.7c-0.8-1.4-0.5-3-0.1-3.8c-0.3,0.6-0.1-0.2,0.4-0.4c-0.1,0-0.4,0.4-0.4,0.5
				c0.3-0.5,1.6-0.9,2.1-0.8c0.7,0,1.3,0.2,1.8,0.6c0.7,0.6,0.2,0.2,0.1,0c0.1,0.1,0.8,1.1,0.4,0.5c-0.2-0.4-0.3-0.9,0.2,0.6
				c-0.1-0.2-0.1-0.8,0,0.1c0.1,1,0,0.3,0,0.1c0-0.8-0.2,1.2-0.1,0.7c-0.2,0.6-0.5,1-1,1.4c-0.7,0.5-0.1,0.1,0.1,0
				c-0.5,0.3-1,0.3-0.1,0.2c-0.9-3.2-1.8-6.4-2.7-9.6c0.8-0.2,1.4,0,2.1,0.4c0.6,0.2,0.9,0.5,1.1,1.1c0.4,0.8,0.5,0.9,0.3,0.4
				c-0.6-2.6-3.7-4.3-6.2-3.5c-2.7,0.9-4.1,3.4-3.5,6.2c0.9,4,5,6,8.8,5.1c2.5-0.6,4.3-3.6,3.5-6.2c-0.9-2.7-3.4-4.1-6.2-3.5
				c-4.4,0.9-7.1,5.2-6,9.5c1,4,5,6.9,9.1,5.8c4.1-1.2,7.1-6.3,4.8-10.2c-1.7-2.9-5.5-3.9-8.7-3.1c-2.1,0.6-3.9,2.2-4.6,4.3
				c-0.7,2.5,0.4,4.9,2.1,6.7c1.8,1.9,5.3,1.9,7.1,0C155.7,161.2,155.7,158.2,153.8,156.2L153.8,156.2z"/>
		</g>
	</g>
	<g>
		<g>
			<path class="st0" d="M121.7,184.4c4.4-1.9,9.1-2.6,13.9-2.5c-0.4-3.3-0.9-6.5-1.3-9.8c-3.4,1-6.8,2-10.2,2.9
				c0.9,3.2,1.8,6.4,2.7,9.6c7.9-2.9,15.6-4.1,24-4.8c6.4-0.5,12.3-2.3,15.6-8.2c0.9-1.5,0.9-3.5,0-5c-0.1-0.1-0.1-0.2-0.2-0.3
				c-1.4-2.4-4.4-3.1-6.8-1.8c-0.1,0-0.2,0.1-0.3,0.1c-5.7,3.1-0.6,11.7,5,8.6c0.1,0,0.2-0.1,0.3-0.1c-2.3-0.6-4.6-1.2-6.8-1.8
				c0.1,0.1,0.1,0.2,0.2,0.3c0-1.7,0-3.4,0-5c-2.7,4.7-11.3,3.4-16,4c-6.1,0.8-11.9,2.3-17.7,4.4c-5.9,2.2-3.6,11.5,2.7,9.6
				c3.4-1,6.8-2,10.2-2.9c5.4-1.6,4.3-9.7-1.3-9.8c-6.7-0.1-12.8,1.2-18.9,3.8C110.7,178.2,115.8,186.8,121.7,184.4L121.7,184.4z"/>
		</g>
	</g>
	<g>
		<g>
			<path class="st0" d="M80.1,191.6c6.8-1.3,13.6-2.6,20.4-3.9c5.9-1.1,13.9-4.2,19.9-2.5c0-3.2,0-6.4,0-9.6
				c-3.6,0.9-7,1.4-10.7,1.4c0,3.3,0,6.7,0,10c9.6-0.6,19-2.1,28.3-4.5c4.9-1.2,4.7-8.3,0-9.6c-0.3-0.1-0.5-0.1-0.8-0.2
				c-6.2-1.8-8.8,7.9-2.7,9.6c0.3,0.1,0.5,0.1,0.8,0.2c0-3.2,0-6.4,0-9.6c-8.4,2.2-16.9,3.6-25.6,4.1c-6.4,0.4-6.5,10,0,10
				c4.5,0,9-0.6,13.4-1.7c4.8-1.3,4.7-8.3,0-9.6c-7-2-14.4,0.4-21.3,1.7c-8.1,1.6-16.2,3.1-24.3,4.7
				C71.1,183.2,73.8,192.8,80.1,191.6L80.1,191.6z"/>
		</g>
	</g>
	<g>
		<g>
			<path class="st0" d="M25,140.2c-0.2,2.6,1.5,2.9,4.9,1c0.3-1,0.6-1.9,1-2.8c0.6-1.5,1.2-2.9,2-4.3c1.6-2.9,3.5-5.5,6-7.7
				c4.9-4.2-2.2-11.2-7.1-7.1c-3.5,3-6.2,7-8.3,11.1c-2,3.9-4.8,9.2-3.3,13.6c3.5,9.8,15.9,6.1,14.7-3.8
				C34.3,133.9,24.2,133.8,25,140.2L25,140.2z"/>
		</g>
	</g>
	<g>
		<g>
			<path class="st0" d="M17.7,39.6c0.5,0,0.3-0.1-0.6-0.1c0.5,0.1,0.3,0.1-0.5-0.3c0.4,0.3,0.3,0.1-0.4-0.4c0.3,0.4,0.2,0.2-0.3-0.4
				c0.6-2.3,1.2-4.6,1.8-6.8c-0.2,0.2-0.5,0.3-0.7,0.4c0.7-0.3,0.9-0.4,0.6-0.3c-0.1,0-0.3,0.1-0.4,0.1c0.3,0,0.5-0.1,0.8-0.1
				c-0.2,0-0.4,0-0.6,0c0.3,0,0.5,0.1,0.8,0.1c-0.2,0-0.4-0.1-0.5-0.2c-0.4,3.3-0.9,6.5-1.3,9.8c2.5-0.2,4.8-0.8,7.1-1.9
				c2.4-1.1,3.2-4.7,1.8-6.8c-1.6-2.4-4.3-3-6.8-1.8c-0.9,0.5,1-0.3,0,0c-0.4,0.1-0.7,0.2-1.1,0.3c-0.3,0.1-0.6,0.1-0.9,0.2
				c-0.4,0.1-0.2,0,0.6-0.1c-0.2,0-0.4,0-0.6,0.1c-2.5,0.2-4.6,1.8-4.9,4.3c-0.3,2.5,1.2,4.7,3.6,5.5c2.5,0.8,5.6,0.4,7.8-1.1
				c1-0.7,2-1.7,2.3-3c0.3-1.3,0.2-2.7-0.5-3.9c-1.5-2.3-4-3.9-6.8-3.8c-2.6,0.1-5.1,2.2-5,5C12.9,37.2,14.9,39.8,17.7,39.6
				L17.7,39.6z"/>
		</g>
	</g>
	<g>
		<g>
			<path class="st0" d="M127,20.9c4.6,0.2,8.5-1.6,12.6-3.5c4-1.8,8.1-3.3,9.3-7.9c-3.2-0.9-6.4-1.8-9.6-2.7
				c-1.3,6.2-0.5,12.2,2.7,17.7c3,5.2,10,1.5,9.1-3.9c-0.4-2.4-0.8-4.9-1.2-7.3c-1-6.3-10.7-3.6-9.6,2.7c0.4,2.4,0.8,4.9,1.2,7.3
				c3-1.3,6.1-2.6,9.1-3.9c-1.8-3.1-2.4-6.4-1.7-10c1.3-6.3-8-8.9-9.6-2.7c0.7-0.6,0.7-0.8,0-0.3c-0.6,0.3-1.1,0.6-1.7,0.8
				c-1.2,0.6-2.4,1.1-3.6,1.7c-2.4,1.1-4.4,2-7,1.9C120.6,10.6,120.6,20.6,127,20.9L127,20.9z"/>
		</g>
	</g>
	<g>
		<g>
			<path class="st0" d="M6.5,33.6c-0.1,0.2-0.2,0.3-0.3,0.5c0.5-0.4,1-0.8,1.5-1.1c0.1,0,0.2,0,0.3,0c0.5,0.4,1,0.8,1.5,1.1
				c-0.1-0.2-0.2-0.3-0.3-0.5c-0.9,1.2-1.9,2.4-2.8,3.7c0.1,0.1,0.3,0.1,0.4,0.2c-0.5-0.4-1-0.8-1.5-1.1c0.1,0.1,0.1,0.3,0.2,0.4
				c-0.1-0.6-0.2-1.3-0.3-1.9c-0.1,0.1-0.1,0.3-0.2,0.4c0.6-0.6,1.2-1.2,1.7-1.7C6.8,33.6,6.6,33.6,6.5,33.6
				c0.6,0.1,1.2,0.2,1.9,0.2c-0.1-0.1-0.3-0.2-0.4-0.2c0.4,0.5,0.8,1,1.1,1.5c0-0.1-0.1-0.3-0.1-0.4c-0.5-1.9-3.7-2.6-4.6-0.6
				C4.6,34,4.8,33.9,5,33.8c-1.9-0.2-3.1,2.3-2.2,3.8C3,37.8,3.1,38,3.3,38.3c0.9,1.4,3.5,1.9,4.3,0c0.1-0.2,0.2-0.5,0.3-0.7
				c-1.3,0.2-2.6,0.3-3.9,0.5c1.7,1.4,3.4,1.8,5.6,2.1c2.9,0.4,5.8,0.8,8.8,1.1c3.2,0.4,3.2-4.6,0-5c-1.9-0.3-3.9-0.5-5.8-0.8
				c-1.4-0.2-3.8-0.1-5-1.1c-1.1-0.9-3.2-1.1-3.9,0.5c-0.1,0.2-0.2,0.5-0.3,0.7c1.4,0,2.9,0,4.3,0c-0.2-0.2-0.3-0.5-0.5-0.7
				c-0.7,1.3-1.4,2.5-2.2,3.8c1.6,0.2,3.2-0.7,3.8-2.2c-1.5-0.2-3-0.4-4.6-0.6c0.6,2.2,3.4,3.5,5.1,1.7c1.9-1.9,0.5-4.4-1.6-5.2
				c-2.1-0.9-3.9,2-2.8,3.7c1.5,2.4,4.4,2.4,5.9,0C12.5,33.4,8.2,30.9,6.5,33.6L6.5,33.6z"/>
		</g>
	</g>
	<g>
		<g>
			<path class="st0" d="M5.6,31.8c0.6,2.8,2,5.2,4.1,7c0.6-1.4,1.2-2.8,1.8-4.3c-1.1,0-2.2,0.1-3.4,0.1c-2.9,0.1-3.3,4-0.7,4.9
				c4.1,1.4,8.4,2,12.8,1.9c3.2-0.1,3.2-5.1,0-5c-3.9,0.1-7.7-0.5-11.4-1.7c-0.2,1.6-0.4,3.3-0.7,4.9c1.1,0,2.2-0.1,3.4-0.1
				c2-0.1,3.5-2.8,1.8-4.3c-1.6-1.3-2.4-2.8-2.8-4.8C9.8,27.3,5,28.7,5.6,31.8L5.6,31.8z"/>
		</g>
	</g>
</g>
<g id="Layer_7">
</g>
<g id="Layer_2">
	<g>
		<g>
			<g>
				<path class="st1" d="M17.2,198.2c29.7,0.5,59.9-4.5,89.1-8.9c14.2-2.2,28.5-4.5,42.6-7.5c4.2-0.9,8.5-1.8,12.7-3.2
					c3.8-1.3,5.6-3.2,6.8-7.3c2.1-6.8,3.8-20-3-25.1c-2.5-1.9-5.1-1.1-7.9-0.5c-4.6,0.9-9.3,1.8-13.9,2.7
					c-22.5,4.2-44.8,9-67.5,12.4c-6.3,0.9-12.6,1.9-18.9,2.9c-3.1,0.5-6.3,1.1-9.4,1.7c-3.2,0.6-7.7,0.8-10.6,2.3
					c-2.6,1.4-3.5,3.6-3.3,6.4c0.4,5.4,0.2,9.8-2.9,14.5c-2.6,3.9-7.1,7.5-12.1,7.2c-5.9-0.4-10.3-5.8-11.3-11.3
					c-1.6-9.3,3.2-19,6.7-27.3c18.2-43.5,36.4-100.5,1-140.8c-1.1-1.2-2.8,0.6-1.8,1.8c32,36.5,18.5,88.8,2.2,128.9
					c-5,12.3-17.7,33.2-7,45.8c11,12.9,27.4-0.4,28.1-14c0.2-3.2-1.5-6.8,2.2-9.3c2.1-1.4,6.9-1.4,9.4-1.9
					c6.3-1.2,12.6-2.2,18.9-3.2c12.9-2,25.9-3.8,38.8-6.2c9.6-1.8,19.1-4.1,28.6-5.9c4.5-0.9,9.1-1.7,13.6-2.6
					c3.7-0.7,8-2.2,11.8-2.3c9.1-0.2,7.6,13.3,6.7,18.8c-0.5,3.2-1.1,7.2-4.1,9c-2.7,1.6-6.8,2.1-9.8,2.8c-12.4,2.9-25,5-37.5,7
					c-18.1,2.9-36.3,5.4-54.5,7.4c-14.4,1.6-29.1,3.2-43.6,2.9C15.6,195.7,15.6,198.2,17.2,198.2L17.2,198.2z"/>
			</g>
		</g>
		<g>
			<g>
				<path class="st1" d="M151.3,148.1c4.2-24.7,8.5-49.6,8.8-74.8c0.3-24.9-3.8-49.3-13-72.4c-0.3-0.7-1.1-1.2-1.8-0.7
					c-18.5,12.1-42.1,16.1-63.8,18.1c-22.1,2-44.9,1.8-66.8-2.1c-1.6-0.3-2.2,2.1-0.7,2.4c22.6,4,46.1,4.2,69,2
					c21.7-2.1,45.1-6.2,63.6-18.3c-0.6-0.2-1.2-0.5-1.8-0.7c9.1,22.9,13.3,47.1,12.9,71.7c-0.3,24.9-4.5,49.6-8.7,74.1
					C148.7,149,151.1,149.7,151.3,148.1L151.3,148.1z"/>
			</g>
		</g>
		<g>
			<g>
				<path class="st1" d="M14.9,16.3c-5.3-2.8-11.1-1.4-13.6,4.6C-0.8,26-1.1,38.5,5.3,41.2c4.7,2,9.8-2,8.9-7
					c-0.1-0.7-0.7-2.9-1.5-3.1c0,0-1.5,0.8-0.5,1c0.3,0.1,1.1-0.5,1.5-0.6c2.3-0.9,4.6-1.8,6.9-2.7c1.5-0.6,0.8-3-0.7-2.4
					c-3,1.2-6,2.4-9,3.6c-0.6,0.2-0.8,0.6-0.9,1.2c-0.2,1.7,2.1,2.5,1.8,4.6c-0.4,3-4.3,4.5-6.8,2.2c-1.5-1.4-1.9-4.2-2.1-6.2
					c-0.4-3.4-0.6-8,1.3-11c2.3-3.8,5.9-4.1,9.5-2.3C15.1,19.2,16.4,17.1,14.9,16.3L14.9,16.3z"/>
			</g>
		</g>
		<g>
			<g>
				<path class="st1" d="M7,41.7c6.7,1.9,14.3,2.8,21,0.4c1.5-0.6,0.8-3-0.7-2.4C21,42,13.9,41.1,7.6,39.3C6.1,38.8,5.4,41.2,7,41.7
					L7,41.7z"/>
			</g>
		</g>
	</g>
</g>
<g id="Layer_4">
	<g>
		<g>
			<path class="st2" d="M111,124.6c0,0.2,0.1,0.4,0.1,0.6c0.1,0.2,0.3,0.5,0.6,0.5c1.7-0.2,2.3-1.2,4.1-0.5c1.3,0.5,1.1,1.1,2.7,1.1
				c0.7,0,0.9-1.1,1.5-1.2c1-0.1,1.9,1.1,2.8,1.3c1.6,0.3,1.2-0.5,2.7-0.7c2.5-0.2,0.9,0.7,2.8,1c1.5,0.3,1.7-1.2,2.7-1.8
				c1.3-0.8,2.7-0.2,4.1-0.1c1,0,3-0.1,3.8-0.2c0.4-0.1,0.9,0,1.4-0.1c0.4-0.1,0.5-0.6,0.4-0.9c-0.1-0.2-0.2-0.3-0.2-0.5
				c-0.4-0.7-1.4-0.1-1.1,0.6c-0.7-1.3-1.9-1-3.1-0.9c-1,0-2.4,0.1-3.4,0.1c-0.5,0-0.3-0.4-1.2-0.2c-1.3,0.2-1.4,1.6-2.8,1.7
				c-0.9,0.1-1.7-0.5-2.8-0.8c-0.3-0.1-0.8,0.5-0.9,0.5c-1,0.1-2.5,0.1-3.5-0.1c-0.9-0.1-1.3-0.2-2.1-0.3c-0.7-0.1-2.1,0.2-3.3,0
				c-0.3-0.1-0.5-0.5-0.8-0.5c-0.5,0-3.4,0.4-3.2,1.2C112,123.5,110.8,123.8,111,124.6L111,124.6z"/>
		</g>
	</g>
	<g>
		<g>
			<path class="st2" d="M76.7,131.9c0-1.6,0.9-3.9,2.5-3.5c0.4,0.1,0.8,0.9,1.2,1.1c0.8,0.5,1.4,0.6,2.4,0.4
				c0.5-0.1,0.5-0.9,0.8-1.1c1.4-0.4,1.9,0.1,3.2,0.9c0.2,0.1,0.6,0.1,0.8-0.1c0.7-0.8,0.9-1.4,1.6-1.5c1.2,0,2.1,1.8,3.6,1.6
				c2.1-0.4,1.5-3.3,4.1-1.7c0.3,0.2,0.7,0,0.9-0.2c1.1-0.9,1.8-0.8,2,0.2c0.2,0.3,0.6,0.4,0.9,0.2c1.4-0.8,2.2-0.2,3.4-0.4
				c1.8-0.3,1-0.2,2.9-1.1c0.7-0.3,0.1-1.4-0.6-1.1c-1.2,0.5-3.8,0.7-5.1,0.5c-0.2,0.2-0.5,0.3-0.7,0.5c-0.2-0.2-0.4-0.5-0.5-0.7
				c-0.1,0-0.4-0.4-0.5-0.4c-0.4-0.1-0.5-0.2-0.9-0.2c-0.4,0-1.4,0.8-1.9,0.9c-1.7,0.2-0.5-0.9-2-0.4c-0.6,0.2-0.6,0.4-1,0.6
				c-0.1,0.3-0.2,0.7-0.4,1c-0.9,0.7-1.7,0.7-2.4,0.1c-0.7-0.2-1.6-1-2.2-1.3c-0.3-0.1-0.7-0.1-0.9,0.2c-1.1,2.3-2.2-0.4-3.9-0.1
				c-1.7,0.3-0.9,2.2-3.4,1.3c-1.2-0.5-1.3-2-2.9-1.5c-1.8,0.6-2,4.1-2,5.5C75.5,132.7,76.7,132.7,76.7,131.9L76.7,131.9z"/>
		</g>
	</g>
	<g>
		<g>
			<path class="st2" d="M46.7,131.9c1.7-4.1,2.6,1.1,5.1,0.7c2.2-0.4,0.5-2,3.8-1.5c1.7,0.3,1.4,0.5,3-0.4c0.9-0.6-0.3-1.3,1.4-1
				c-0.9-0.1,2,1.9,1.5,1.5c0.2,0.1,0.6,0.1,0.8-0.1c0.9-1.1,1.9-1.2,3.2-0.5c0.3,0.2,0.7,0.1,0.9-0.2c1.4-2.1,2.7-1.4,4.7-0.7
				c0.3,0.1,0.7-0.1,0.8-0.4c0-0.1,0-0.2,0.1-0.3c0.2-0.8-1-1.1-1.2-0.3c0.4-1.8-3.3-1.1-4-0.9c-0.5,0.1-0.4,1.1-0.8,1.1
				c-0.8,0.1-1.2-0.8-1.8-0.9c-0.6,0-1.2,0.3-1.7,0.3c-0.2,0-0.5,1-0.6,1c-0.9,0-1.4-1.2-2.1-1.7c-0.3-0.3-0.7-0.2-1,0.1
				c-1.1,1.5-1,1.9-3.2,1.8c-0.7,0-1.1-0.4-1.8-0.4c-0.8,0.1-0.6,0.9-1.2,1.1c-2.3,1-2.9-1.1-4.8-2c-0.4-0.2-0.8,0-0.9,0.4
				c-0.4,1-0.8,2-1.2,3C45.2,132.3,46.4,132.6,46.7,131.9L46.7,131.9z"/>
		</g>
	</g>
	<g>
		<g>
			<path class="st2" d="M40.2,133.1c0.8-0.9,1.2-4.1,2.8-3.2c1.2,0.7,1.5,2.4,3.1,2.3c0.8,0,0.8-1.3,0-1.2c-0.8,0-1.4-1.2-1.9-1.7
				c-0.6-0.6-1.3-0.9-2.1-0.8c-2,0.3-1.8,2.5-2.8,3.7C38.8,132.9,39.6,133.7,40.2,133.1L40.2,133.1z"/>
		</g>
	</g>
	<g>
		<g>
			<path class="st2" d="M115.3,114.5c3.3-4.5,2.7,2.4,6,1.2c0.8-0.3,0.9-1.1,1.4-1.7c0.8-1-0.1-2.1,0.9-0.7c0.5,0.7,0.6,1.9,1.2,2.7
				c0.2,0.2,0.4,0.4,0.7,0.3c2.4-0.8,0.8-4.4,3.4-3.3c0.3,0.1,0.7,0.1,0.9-0.2c0.3-0.5,0.5-0.9,0.8-1.4c0.2-0.7,0.4-1.3,0.7-2
				c0.1-0.8,0.3-0.8,0.5-0.1c0.8,0.4,1.2,2.1,2.2,2.6c2,1.1,3.4,0.1,4.8-1.4c0.5-0.6-0.3-1.5-0.9-0.9c-3.4,3.6-5.1-1-5.9-2.7
				c-0.2-0.4-0.9-0.4-1.1,0c-0.3,0.6-1.9,4.9-2.9,3.9c-0.3-0.2-0.6-0.2-0.9,0c-0.6,0.5-0.9,3-1.1,3c-1.1,0.4-1.8-2.1-2.6-2.8
				c-0.4-0.3-0.9-0.2-1,0.3c-0.6,1.6-1.4,2.2-3.2,1.2c-0.4-0.3-0.9-1.4-1.4-1.8c-0.3-0.2-0.6-0.2-0.9,0c-1.1,0.9-1.7,1.8-2.6,3
				C113.7,114.5,114.8,115.1,115.3,114.5L115.3,114.5z"/>
		</g>
	</g>
	<g>
		<g>
			<path class="st2" d="M36.1,122.7c0,0.1,0,0.2,0,0.4c0,0.7,1.1,0.8,1.2,0.2c1.8-7.5,1.5,1.4,5.1,0.5c2-0.5,2-5.6,1.9-7
				c-0.4,0.1-0.8,0.2-1.2,0.3c1.1,2.4,2.5,4.4,4.1,6.4c0.2,0.2,0.4,0.4,0.7,0.3c1.6-0.7,1.1-2.4,1.6-3.9c0.7-2.3,0.1-1.2,1.5-0.1
				c0.6,0.5,0.7,1.1,1.5,1.5c0.7,0.4,1.2,0.5,1.9,0.3c0.9-0.2,1.1-0.6,1.6-1.4c0.2-0.4,0.2-1.2,0.5-1.5c1.1-0.9,0-0.1,1.2,0.5
				c1.6,0.8,1.8,1.8,3.5,0.4c1.4-1.1-0.2-3.2,2.4-1c0.7,0.6,1,1.6,1.9,2c1.2,0.5,2.3,0.1,3-1c0.6-1-0.2-3.1,1.2-3.2
				c0.2,0,1.3,1.8,1.9,1.8c1.9,0,1.8-2,2.3-3.3c-0.4,0-0.8,0.1-1.1,0.1c1.4,1.8,3.4,7.1,6.2,4.2c0.4-0.4,0.7-1.3,0.9-1.9
				c0.9-2.3,0-2.4,1.3-0.4c0.8,1.3,1,2.4,2.5,3c0.3,0.1,0.6-0.1,0.7-0.3c0.9-1.5,1.2-3.6,2.3-5c-0.4,0-0.8-0.1-1.1-0.1
				c0.5,1.5,1.4,5.2,3.6,5.2c1,0,1.2-0.8,1.8-1.3c0.4-0.3,0.3-1,0.7-1.3c1.8-1.4,2.9,0.4,4.2,1.4c0.2,0.2,0.5,0.3,0.8,0.1
				c1.1-0.8,1.6-3.3,2.6-3.7c2.1-1,2.6,1.7,4.5,1.2c1.6-0.5,1-2.2,2.5-1.8c1.1,0.3,1.2,1.9,2.8,2.1c0.5,0,0.7-0.6,0.5-0.9
				c-0.1-0.2-0.1-0.3-0.2-0.5c-0.3-0.7-1.4-0.1-1.1,0.6c-0.7-1.5-1.4-2.8-2.7-3.8c-0.3-0.2-0.7,0-0.9,0.2c-0.9,1.5-0.9,2.2-2.9,1.8
				c-0.5-0.1-0.8-0.8-1.4-0.9c-1.8-0.2-2,1.4-2.9,2.6c-2.5,3.2-2.4-1.6-5.1-1.3c-0.4,0-0.6,0.5-1,0.6c-0.3,0.1-0.3,0.9-0.5,1
				c-1.6,0.9-3.6-0.1-4.1-1.6c-0.2-0.5-0.8-0.6-1.1-0.1c-0.6,0.7-0.7,2.7-1.3,3.1c-1.9,1.7-2.4-1.8-2.9-3c-0.2-0.5-0.7-0.6-1-0.3
				c-0.9,0.8-0.9,1.8-1.6,2.7c-2.5,3.3-3.4-0.1-5-2.2c-0.3-0.4-1-0.4-1.1,0.1c-0.9,2.6-2.1,0.8-3.4-0.7c-0.3-0.3-0.8-0.2-1,0.1
				c-1.2,1.8,0.4,5.6-3.6,4c-1-0.4-1.5-1.9-2.8-2.4c-0.2-0.1-0.5,0-0.6,0.2c0.3-0.4-1.4,2.1-0.8,1.7c-1.9,1.4-2.3,0.1-3.4-1
				c-0.3-0.3-0.8-0.2-1,0.1c-0.2,0.3-0.5,1-0.7,1.2c-0.1,0.7-0.6,1.1-1.5,1.1c-0.9,1-1.6,1-2-0.1c-1-0.6-1.2-1.4-2.4-1.8
				c-0.3-0.1-0.7,0.1-0.8,0.4c-0.2,0.6-0.5,4-0.7,4c-1.3,0.7-3.4-4.2-3.8-5.1c-0.3-0.6-1.2-0.3-1.2,0.3c0.1,1.6,0.2,4.6-1.4,4.6
				c-1.4,0.1-2-2.6-3.1-3.6c-0.3-0.3-0.7-0.2-1,0.1c-1,1.5-1.1,3.2-1.6,4.9c0.4,0.1,0.8,0.1,1.2,0.2c0-0.1,0-0.2,0-0.4
				C37.4,121.9,36.1,121.9,36.1,122.7L36.1,122.7z"/>
		</g>
	</g>
	<g>
		<g>
			<path class="st2" d="M42,87.2c-0.6,0.3,2.2-1.1,1.4-1c1.2-0.1,1,0.8,1.8,1.2c0.5,0.3,0.6,0.9,1.3,0.8c1.7-0.3,1.4-3.5,2.6-2.9
				c1.1,0.5,1.2,2.9,3.1,1.5c0.8-0.6,0.6-1.6,1-2.4c0.4-1-0.6-1.4,0.4,0.1c0.4,0.6,0.7,1.3,1,2c0.1,0.2,0.5,0.4,0.7,0.3
				c1.6-0.6,0.9-1.8,1.9-2.9c0.5-0.5-0.6-0.3,0.4,0.3c0.3,0.2,0.4,0.6,0.6,0.8c0.4,0.2,0.6,0.5,1,0.5c1.5,0.1,2-1.7,2.7-2.7
				c1.1-1.7,0.1-0.4,0.3,0.9c0.2,1,0.6,1.5,1.3,2.2c0.3-0.3,0.6-0.6,0.9-0.9c-0.1-0.1-0.2-0.2-0.3-0.3c-0.6-0.6-1.4,0.3-0.9,0.9
				c0.1,0.1,0.2,0.2,0.3,0.3c0.6,0.6,1.4-0.3,0.9-0.9c-1.3-1.5-0.6-3.2-1.8-4.7c-0.3-0.3-0.8-0.2-1,0.1c-0.9,1.5-1.8,4.9-3.9,1.6
				c-0.2-0.3-0.7-0.5-1-0.1c-0.5,0.7-0.5,0.7-0.8,1.5c-0.5,1.1,0.2,1.9-0.9,1.1c-1-0.8-0.8-2-2.2-2.4c-0.4-0.1-0.8,0.2-0.8,0.6
				c-0.3,2.8-1.4,2.9-2.5,0.6c-0.1-0.3-0.6-0.4-0.9-0.2c-0.7,0.4-0.9,0.9-1.3,1.6c-0.2,0.4-0.6,1.9-0.8,1.9
				c-0.4,0.1-1.6-1.9-1.6-1.9c-1.8-1.1-1.9,0.5-3.6,1.4C40.7,86.5,41.3,87.6,42,87.2L42,87.2z"/>
		</g>
	</g>
	<g>
		<g>
			<path class="st2" d="M42.3,61.3c0,0.1,0,0.2,0,0.3c0,0.8,1.2,0.8,1.2,0c0.5-5.8,4.2,0.4,5,1c0.3,0.2,0.6,0.3,0.9,0
				c0.1-0.1,0.6-0.7,0.8-1c0.2-0.6,0.5-1.2,0.9-1.7c0.4-1,0.6-1,0.7,0c0.4,0.2,0.4,1.2,1.1,1.4c0.5,0.1,1,0,1.4-0.2
				c1.8-0.9,0.5-2.3,2.8-1.2c1.2,0.6,1.6,1.5,3,0.3c1.4-1.2,0.1-3.6,2.2-1.1c0.7,0.8,1,1.8,1.9,2.4c0.3,0.2,0.8,0,0.9-0.4
				c0.3-1.5,0-3.9,1.2-2.3c0.5,0.7,0.7,1.9,1.1,2.7c0.2,0.4,0.7,0.4,1,0.1c1.6-1.7,0.3-0.6,1.7-2.6c0.7-1,0.1-1.3,1-1.3
				c0.6,0,1,1.7,2.2,1.6c1.1-0.1,1.1-0.9,1.6-1.5c0.2-0.2,0.2-1.9,0.4-2c0.4-0.2,3.9,1.6,4.8,1.9c0.3,0.1,0.7-0.1,0.8-0.4
				c0-0.1,0-0.2,0-0.3c0.1-0.8-1.1-1.1-1.2-0.3c0.1-0.6-3.9-2-4.6-2.3c-0.3-0.1-0.7,0.1-0.8,0.4c-0.5,1.5-1.5,3.3-3,1.2
				c-0.2-0.3-0.5-0.4-0.9-0.2c-0.9,0.4-2.2,3.8-2.6,3.7c-0.4-0.1-1.2-2.8-2.1-3.3c-0.3-0.2-0.8,0-0.9,0.4c0-0.1-0.8,3.3-0.7,3.3
				c-0.3,0-0.8-1.4-1-1.6c-0.7-1-0.9-1.9-2.1-2.4c-0.3-0.2-0.6-0.1-0.9,0.2c-0.3,0.4-0.4,1.1-0.6,1.4c0.2,0.8-0.2,1.2-1,1.1
				c-0.7,0.4-1.1,0.3-1.2-0.5c-0.6-0.2-0.7-1.1-1.6-0.9c-0.6,0.1-0.7,0.8-1.1,0.9c-0.9,0.4-0.4,1.3-2.1,0.5c0.1,0.1-0.9-1.3-0.7-1.1
				c-0.2-0.2-0.7-0.2-0.9,0c-1.1,1.1-1.4,3.5-2.8,2.9c-0.9-0.4-1-2.4-2.2-2.9c-2.4-0.9-3.5,2.4-3.7,4.2c0.4,0,0.8,0,1.2,0
				c0-0.1,0-0.2,0-0.3C43.6,60.5,42.3,60.5,42.3,61.3L42.3,61.3z"/>
		</g>
	</g>
	<g>
		<g>
			<path class="st2" d="M91.6,105.7c0,0.1,0,0.2,0,0.3c0.4,0,0.8,0,1.2,0c0-1.8,4.2,0.6,5.1,0.8c0.3,0.1,0.7-0.1,0.8-0.4
				c0.1-0.3,0.1-1,0.3-1.2c1.1-1.5,1.1-1.1,2.4-0.9c0.7,0.1,1.3,0.7,2,0.6c1.8-0.2,1.4-1.5,2.8-2.2c1.1-0.6,2,0.1,3.2-0.4
				c0.4-0.2,0.1-1.1,0.4-1.2c1-0.5,2.5,0.8,3.6,1.1c0.3,0.1,0.6-0.1,0.7-0.3c0.5-0.7,0.5-2.8,0.9-3.1c1.1-0.9,4.9,1.9,5.9,2.3
				c0.5,0.2,1.1-0.2,0.9-0.7c-1-3.2,1.5,0.6,2.9,1.3c0.6,0.3,1.7,0.8,2.4,0.5c0.9-0.4,0.6-0.6,1.1-1.2c0.3-0.3-0.2-1.3,0-1.4
				c0.6-0.4,2.4,1.1,2.6,1.3c0.2,0.2,0.6,0.1,0.8-0.1c0.6-0.6,0.6-1.5,1.1-1.9c1.7-1.5-0.6-0.2,1.1-0.5c0.3,0,0.6,0.4,1,0.4
				c0.4,0,0.8-0.3,1.2-0.3c0.3-0.1,0.4-1,0.7-1.1c0.8-0.1,1.9,0.7,2.6,1.2c0.3,0.3,0.7,0.2,1-0.1c-0.3,0.5,1.2-2.4,0.6-1.8
				c1.9-1.7,3.6,0.6,5,1.5c0.2,0.1,0.5,0.1,0.6,0c0.2-0.1,0.3-0.2,0.5-0.3c0.7-0.5,0-1.5-0.6-1.1c-1.3,0.9-4.2-4.2-6.5-2
				c-0.5,0.5,0,2.1-0.5,2.3c0.1,0-2.1-1.6-2.8-1.6c-0.2,0-0.4,0.1-0.5,0.3c-1,1.9-1.7,1.3-3.3,0.6c-0.3-0.2-0.8-0.1-0.9,0.4
				c-0.4,2-2.2,1.4-3.6,0.6c-0.4-0.2-0.8,0-0.9,0.4c-0.5,1.6-0.3,3.2-2.6,2.2c-1.3-0.5-2.1-1.9-3.5-2.5c-0.4-0.2-1,0-0.9,0.5
				c0,1.7,0,1.1,0.5,2.7c0.3-0.2,0.6-0.5,0.9-0.7c-1.5-0.7-5.2-4.5-7.1-2.9c-1.5,1.2,0.3,3.1-2.3,3c-1.6,0-1.4-1.2-3.2-0.3
				c-0.2,0.1-0.3,0.3-0.3,0.5c0,0.5-3.1,0.2-3.9,0.6c-0.3,0.2-0.2,1-0.4,1.2c-1.4,1.2-2,0.6-3.2,0.5c-1.4-0.1-0.9-0.8-2.1-0.2
				c-1.1,0.5-0.2,0.9-1.1,1.5c-2,1.4-1.9-0.4-3.9-0.5c-2-0.2-2.4,0.8-2.4,2.7c0,0.8,1.2,0.8,1.2,0c0-0.1,0-0.2,0-0.3
				C92.8,104.9,91.6,104.9,91.6,105.7L91.6,105.7z"/>
		</g>
	</g>
	<g>
		<g>
			<path class="st2" d="M72.4,106.6c0.6-0.8,1.1-1,1.7-0.5c0.5,0.3,0.8,0.7,1.1,1.2c0.2,0.5,1.1,0.6,1.2,0c0.2-0.9,0.4-1.8,0.5-2.7
				c-0.3,0.1-0.6,0.2-0.9,0.4c1,0.5,1.5,1.5,2.4,2.1c0.2,0.2,0.5,0.3,0.8,0.1c1-0.7,0.6-1.3,0.7-2.3c0.1-0.5-0.6-1,0.6-0.5
				c0.2,0.1,0.5,0.5,0.7,0.7c0.7,0.4,1.4,0.4,2.1,0.4c0.8,0,0.8-1.3,0-1.2c-1.5,0-1.6-0.9-2.7-1.3c-0.4-0.2-1-0.2-1.4,0.1
				c-1.2,0.7,0.2,2.7-0.7,3.2c0.3,0,0.5,0.1,0.8,0.1c-0.9-0.8-1.5-1.8-2.6-2.3c-0.3-0.2-0.9,0-0.9,0.4c-0.1,0.9-0.3,1.8-0.5,2.7
				c0.4,0,0.8,0,1.2,0c-0.5-1.4-2.6-3.2-4.2-2.5c-1.4,0.6-1.6,2.8-0.1,3.4C72.8,108.1,73.1,106.8,72.4,106.6L72.4,106.6z"/>
		</g>
	</g>
	<g>
		<g>
			<path class="st2" d="M39.6,108.3c0,0.2,0.1,0.3,0.1,0.5c0.1,0.3,0.5,0.6,0.8,0.4c1.6-0.6,1.9,0.5,3.4,0.4
				c0.9-0.1,0.6-0.2,1.4-0.7c1.8-1.1,1.1-1.9,3.4-0.7c0.3,0.1,0.7,0.1,0.9-0.2c1.1-2.5,2.3,1.5,4.3,0.9c1.4-0.4,0.9-2,2.1-2.1
				c1-0.1,1.4,1.9,3,1.3c0.4-0.2,0.7-1,1-1.1c0.1-1.1,0.8-1.3,2-0.5c0.4,0.5,0.8,1,1.3,1.5c0.2,0.2,0.5,0.2,0.8,0.1
				c0.3-0.1,2.3-1.4,2.2-1.4c0.8-0.1,0.8-1.3,0-1.2c-0.1,0-2.1,0.9-2,0.9c-1.3-0.1-1.8-1.8-3.3-1.9c-0.6,0-1.1,0.4-1.5,0.5
				c-0.8,0.2,0.3,0.7-1.5,0.8c-1.3,0.1-1.7-0.6-2.8-1.2c-0.3-0.2-0.8,0-0.9,0.4c-0.6,2.6-2.3,1.1-3.8,0.2c-0.3-0.2-0.7,0-0.9,0.2
				c-1.1,1.5-2.1,0.3-3.7,0.4c-0.4,0-1.3,1.4-1.1,1.4c-1.7,0.8-2.1,0.3-3.3-0.1c-0.3-0.1-0.6,0.1-0.7,0.3c0,0.2,0,0.4,0,0.6
				C40.6,107.2,39.4,107.5,39.6,108.3L39.6,108.3z"/>
		</g>
	</g>
	<g>
		<g>
			<path class="st2" d="M121.7,88.5c0.2,0.3,0.4,0.6,0.6,1c0.2,0.3,0.7,0.5,1,0.1c0.8-1,0.6-2,0.6-3.3c-0.3,0.2-0.6,0.4-0.9,0.5
				c0.6,0.4,2.2,2.7,3.3,2.7c0.4,0,0.9-0.4,1.2-0.4c0.3,0,0.1-1,0.5-1c0.8,0,2.9,2.4,3.7,3c0.4,0.3,0.8,0,0.9-0.4
				c0.5-1.3,0.1-3.1,1.6-2.6c0.4,0.1,0.8,1.1,1.3,1.3c0.8,0.4,1.3,0.4,2-0.1c1.5-1.2-0.3-3.3,2.6-3.7c0.5-0.1,1.7,0.6,2.3,0.6
				c1.1,0.1,1.8-0.3,2.8-0.4c0.8-0.1,0.5-1.3-0.3-1.2c-2.4,0.4-5.9-1.7-7.4,0.8c-0.2,0.4-0.1,1-0.4,1.4c-1,1.4-1,1-2.1,0.5
				c-1.1-0.6-1-1.4-2.4-1.3c-0.4,0-0.6,0.3-0.6,0.6c-0.1,1.2-0.1,2.4-1.2,2.3c-0.3,0-1-0.9-1.3-1.1c-0.8-0.6-1.4-1-2.4-1.1
				c-0.3,0-0.6,0.3-0.6,0.6c-0.1,1.2-2.8-1.2-3.1-1.5c-0.4-0.3-0.9,0.1-0.9,0.5c0,0.5-0.1,1.3,0.1,1.6
				C122.3,87.2,121.2,87.8,121.7,88.5L121.7,88.5z"/>
		</g>
	</g>
	<g>
		<g>
			<path class="st2" d="M81.8,95.2c-0.1-3.2,1.5,0.2,3.2-0.4c0.4-0.1,0.5-0.5,0.8-0.7c0.7-0.6-0.2-1.3,0.7-1.3
				c0.3,0,1.4,1.5,1.6,1.7c0.4,0.3,0.9,0.2,1-0.3c0.7-2,1.5-2.1,3.2-1.1c0.2,0.1,0.6,0.1,0.8-0.1c-0.4,0.5,0.8-1,0.9-1.1
				c1.5-1.1-0.8-1.4,1.1-0.5c1.5,0.7,1.3,1.7,3.1,1.9c0.3,0,0.5-0.2,0.6-0.5c-0.1,0.3,0.6-3,0.1-2.4c1.5-1.7,2.6,0.6,3.7,1.1
				c0.7,0.3,1.2,0.8,1.9,0.4c0.6-0.3,0.3-1,0.7-1.5c0-0.4,0-0.8,0-1.2c0.7-1.1,1.4-1.1,2-0.3c0.6,0.1,0.8,0.8,1.6,0.7
				c0.5-0.1,1.1-0.2,1.4-0.6c0.9-1.3-1-1.7,0.7-1.4c1.3,0.2,2,1.6,3.6,1.5c1.1,0,1.1-2.3,2.3-1.1c0.6,0.6,1.4-0.3,0.9-0.9
				c-1-1-0.9-0.9-2.2-1c-0.3,0-0.5,0.2-0.6,0.5c-0.9,2.5-3.8-0.5-5.2-1.4c-0.4-0.2-1,0.1-0.9,0.5c0.4,4.3-2.3-0.6-4.3,1.6
				c-0.5,0.6,0,2.5-0.3,2.7c-0.7,0.5-4.4-2.4-5.6-2.6c-0.4-0.1-0.8,0.2-0.8,0.6c-0.1,0.4-0.1,0.8,0,1.3c-0.6,1.7-1.3,2-1.9,0.7
				c0.2,0.1-1.8-1.1-1.8-1.1c-0.4-0.2-0.8,0.2-0.8,0.6c-0.2,2.7-3,0.4-3.5,0.1c-0.3-0.2-0.8,0-0.9,0.4c-0.1,0.5-0.2,0.9-0.3,1.4
				c0.3,1.7,0.1,2-0.7,0.7c0.1,0-1.6-1.1-1.8-1.1c-0.3-0.1-0.7,0.1-0.8,0.4c-0.5,3.1-1.9,0.3-3.8,0.1c-0.4-0.1-0.8,0.2-0.8,0.6
				c-0.1,1-0.1,2,0,3C80.6,96,81.9,96,81.8,95.2L81.8,95.2z"/>
		</g>
	</g>
	<g>
		<g>
			<path class="st2" d="M40.7,96.3c-0.1,0.2-0.2,0.4-0.3,0.6c-0.1,0.2-0.1,0.5,0,0.6c1,1.3,2,2.7,3.6,3.2c0.4,0.1,0.6-0.1,0.8-0.4
				c0.2-0.5,0.3-1.4,0.6-1.8c1.3-1.6,2.2-0.5,3.5-0.5c0.6,0,0.8,0.5,1.5,0.2c0.5-0.2,0.5-0.7,0.9-1c0.2-0.1,0.1-1.1,0.3-1.1
				c0.2-0.1,0.5,0.6,0.7,0.5c0.7-0.1,0.8,0.7,1.6,0.4c0.4-0.1,0.8-0.7,1-0.8c0,0,0.3-0.7,0.3-0.7c0.9-0.1,1.9,1.5,2.8,1.7
				c0.4,0.1,1,0.5,1.5,0.4c2.2-0.5,0.3-2.4,3.5-1.5c1.2,0.3,1.8,1.1,2.9,0c0.4-0.4,0.1-1.3,0.4-1.6c0-0.5,0-1,0-1.5
				c0.8,0.6,1.6,1.1,2.5,1.7c0.1,0,0.2,0.1,0.3,0.2c1.7,0.7,3.7,1.7,5.5,0.9c0.7-0.3,0.1-1.4-0.6-1.1c-1.6,0.7-6.2-2.8-7.9-3
				c-0.4-0.1-0.7,0.2-0.8,0.6c-0.4,3.6-1.6,2.5-4.2,1.9c-0.3-0.1-0.7,0.1-0.8,0.4c-0.9,2.7-3.7-0.2-5.2-0.4
				c-0.4-0.1-0.7,0.2-0.8,0.6c-0.1,1.1-2.2,0.1-2.7-0.1c-0.3-0.1-0.7,0.1-0.8,0.4c-1.2,3.1-2.7,0.1-4.8,0.8c-0.7,0.2-1,0.7-1.4,1.3
				c-0.2,0.3-0.3,1.3-0.6,1.5c0,0.7-0.3,0.7-0.9,0c-0.7-0.3-1.2-0.9-1.4-1.7C42.1,96.3,41.1,95.6,40.7,96.3L40.7,96.3z"/>
		</g>
	</g>
	<g>
		<g>
			<path class="st2" d="M119.9,75.6c3.1,0.6,2.8,2.3,5.4,0.8c1.2-0.7-1.3-1.2,1.4-0.9c-0.7-0.1,2.2,1.3,1.8,1.2
				c0.6,0.1,1.1,0.2,1.6-0.1c0.9-0.6,0.7-2.9,1.1-3.1c0.2-0.1,2.3,1.9,3.1,1.8c1.4-0.1,0.8-0.4,1.6-1c1.3-0.8-0.6-1.2,1.5-1.3
				c0.3,0,1.9,0.7,2.2,0.8c0.4,0.1,0.8-0.2,0.8-0.6c0.1-2.3,2.2-2.3,4.2-1.9c0.4,0.1,0.8-0.2,0.8-0.6c0.1-1.1,2.4-0.1,3.6-0.8
				c1.9-1.1,2.2-6.1,4.7-1.8c0.4,0.7,1.5,0.1,1.1-0.6c-4.1-7.1-5,2.8-9.8,0.9c-0.4-0.2-0.8,0.2-0.8,0.6c-0.1,1.3-3.7,0.2-4.9,1.2
				c-0.5,0.4,0,1.3-0.6,1.5c0.1-0.1-2.5-0.3-2.8-0.3c-0.2,0-0.2,0.3-0.4,0.3c-0.1,0.3-0.2,0.6-0.3,0.8c-1.6,0.9-2.9,0.7-3.8-0.4
				c-0.4-0.3-0.9-0.2-1,0.3c-0.5,1.1-0.7,2.7-2.7,2.3c-0.2,0-1.4-1.2-1.6-1.3c-0.2-0.2-0.6-0.1-0.8,0.1c-1,1.2-0.9,2.1-2.8,1.8
				c-1.2-0.2-1.7-1.5-3.1-1.4c-0.2,0-0.4,0.1-0.5,0.3c-0.4,1-0.3,1-0.1,2.2c0,0.2,0.2,0.4,0.4,0.4c0.1,0,0.3,0.1,0.4,0.1
				C120.3,76.9,120.7,75.7,119.9,75.6L119.9,75.6z"/>
		</g>
	</g>
	<g>
		<g>
			<path class="st2" d="M75.6,82c-0.3,0.6-0.6,1.1-0.9,1.7c-0.4,0.6,0.5,1.3,1,0.8c0.8-0.9,1.2-1.9,1.9-2.9c1.4-2,0.7-0.7,2.7-0.8
				c1.3-0.1,1.3-0.6,2.2-0.9c1.4-0.6-1.3-2.4,2.5-0.9c0.5,0.2,1.3,1.4,1.7,1.7c1.3,0.9,3,1.7,4.2,0.4c0.9-1-0.2-2.1,1-2.2
				c1.1-0.1,2.4,1.5,3.8,1.5c0.2,0,0.4-0.1,0.5-0.3c1.1-2.2,3.2-0.1,5.1-0.4c0.3,0,0.4-0.3,0.5-0.6c0.2-2.6,3.2-1.7,4.8-1
				c0.3,0.1,0.7-0.2,0.8-0.4c1.1-2.8,4.6-0.4,6.8-0.3c0.8,0,0.8-1.2,0-1.2c-2.8-0.1-4.6-2.1-7.2-0.9c-0.9,0.4,0.3,1-1.2,0.9
				c-1.2-0.1-1.7-1.5-3-1.5c-1.1,0.1-1.6,0.5-2.1,1.5c-0.8,1.7,0.4,2.2-2.1,1.6c-0.9-0.3-1.3-0.6-2.4-0.5c-0.2,0-0.6,0.2-0.6,0.5
				c-0.3,2.3-3.5-0.2-4.7-0.5c-0.4-0.1-0.7,0.2-0.8,0.6c-0.4,4.3-4.9-1.1-6.5-1c-2.2,0.1-2.1,3.7-5.2,1.6c-0.3-0.2-0.7,0-0.9,0.2
				c-1.1,1.7-1.4,3.6-2.8,5.1c0.3,0.3,0.7,0.5,1,0.8c0.6-1,0.6-0.9,1-2C77.1,81.6,75.9,81.3,75.6,82L75.6,82z"/>
		</g>
	</g>
	<g>
		<g>
			<path class="st2" d="M134.2,59.3c-0.4,0.2,1.5-0.8,1.1-0.7c0.8-0.2,1.5,0.5,2.1,0.8c0.5,0.2,0.8,0.6,1.4,0.5
				c0.5,0,0.7-0.6,1.2-0.6c0.8,0.1,1.3,1.6,2.1,1.9c0.3,0.1,0.5,0.1,0.8-0.1c1.4-1.3-0.1-2.5,3.3-2.6c1.1,0,2.1,0.4,3.2,0.2
				c0.5-0.1,0.5-0.7,0.3-1c-0.1-0.1-0.2-0.3-0.3-0.4c-0.5-0.6-1.4,0.3-0.9,0.9c0.1,0.1,0.2,0.3,0.3,0.4c0.1-0.3,0.2-0.7,0.3-1
				c-2.2,0.4-4.5-1.4-6.1,0.8c-0.4,0.6-0.4,1.3-0.9,1.2c-0.7-0.1-1.3-1.7-2.4-1.9c-0.3-0.1-0.6,0-0.7,0.3c-0.4,0.8-2.5-1-3.2-0.9
				c-1,0-1.4,0.8-2.2,1.2C132.9,58.5,133.5,59.6,134.2,59.3L134.2,59.3z"/>
		</g>
	</g>
	<g>
		<g>
			<path class="st2" d="M89.5,68.1c1.4-2.5,2,0.3,3.4-0.6c-0.3,0.2,1.8-1.6,1.3-1.4c0.9-0.3,1.5,0.6,2.4,0.6
				c1.9-0.1,0.7-0.2,1.9-0.6c0.9-0.3,1.1-0.8,2.5-0.6c0.6,0.1,0.5,1.1,1.4,0.8c0.4-0.1,0.8-0.6,1.2-0.7c0.3-0.1,0.2-1.2,0.4-1.2
				c1.1-0.2,1.6,0.6,2.1,1.2c0.2,0.3,0.7,0.2,0.9,0c1.5-1.6,3.3,0.7,5.4-0.7c0.9-0.6,1.5-1.4,2.7-1.6c1.5-0.3-0.4-1.1,1.6,0.2
				c0.3,0.2,0.7,0,0.9-0.2c0.4-0.7,3-0.1,4.3-0.6c1.3-0.6,1.5-1.1,3.2-1.1c1.3,0,2.2,0.2,3.7-0.2c0.8-0.2,0.4-1.4-0.3-1.2
				c-2,0.5-4.1-0.3-6.1,0c-1.3,0.2-1.9,2-4,0.8c-0.3-0.2-0.7-0.1-0.9,0.2c-0.4,0-0.8,0-1.3,0c-0.3-0.4-0.8-0.4-1.1,0
				c-0.7,1-2.1,1.2-3.2,1.7c-1,0.5,3,1.1-1.7,1.1c-0.4,0-0.6-1-1.1-1c0.2,0-2.4,0.2-2,0.3c-2.6-0.2,0.4-0.1-1.7-0.6
				c-0.3-0.1-0.6-0.4-0.9-0.5c-0.6-0.1-1,0.4-1.4,0.6c-1.6,0.6,1.2,1.4-1.6,1.1c-0.5,0-0.5-1.1-1.2-1.1c-0.5,0-1.1,0.1-1.6,0.3
				c-0.3,0.1-0.3,0.8-0.6,1c-2.2,1.3-2.1,0.4-3.9-0.1c-0.4-0.1-0.6,0.1-0.8,0.4c-0.7,1.8-2.7,0.5-3.7,1.1c-0.6,0.4-1,1.1-1.3,1.7
				C88,68.2,89.1,68.8,89.5,68.1L89.5,68.1z"/>
		</g>
	</g>
	<g>
		<g>
			<path class="st2" d="M43.3,68.1c-1.3,6.1,3,1.1,6.3,3.6c0.2,0.2,0.6,0.1,0.8-0.1c2.3-1.9,3.7,1.1,5.6,0.9c0.4,0,0.9-0.5,1.2-0.5
				c0.7-0.6,1.3-0.4,1.6,0.6c0,0,0.1,0.1,0.1,0.1c1.9,0.6,0.4,0.6,2.3,0.2c0.2-0.3,0.4-0.6,0.6-0.9c0.4-1.4,1.5-2,3.2-1.8
				c0.3-0.1,0.9,0.4,1.3,0.3c0.2,0,0.4-0.3,0.5-0.3c0.2-0.3,0.4-0.5,0.5-0.9c0.6,0,1.1,0.2,1.5,0.5c0.4,0,0.9,0.6,1.4,0.5
				c0,0,1.8-0.7,2-0.7c0,0,2.2-0.4,2.2-0.4c0.1,0,0.2-0.1,0.3-0.2c0.9-0.9,1.6-0.8,2,0.3c1.9,0.2,2,0.5,4.2-0.5
				c0.7-0.3,0.1-1.4-0.6-1.1c-1.8,0.7-3.2,0.4-4.2-0.8c-0.2-0.2-0.5-0.3-0.8-0.1c-1.1,0.8-1.8,1.5-3.4,1c-0.2-0.1-0.5,0-0.6,0.2
				c-1.1,1.3-2.4,0-3.2-0.5c-0.2-0.1-0.4-0.1-0.6,0c-0.1,0.1-0.9,0.7-1,0.7c-0.4,0.3-0.7,0.6-1.1,0.8c-0.4-0.1-0.7-0.2-1.1-0.3
				c-0.3,0.1-0.5,0-0.8,0.1c-2.1,0.7-2.9,3.9-4.7,1.4c-0.2-0.3-0.5-0.4-0.9-0.2c-2.2,1.2-2.3-0.7-3.9-1c-3-0.6-0.3-0.1-2.8,0.3
				c-1.8,0.2-2.2-0.3-3.8-0.6c-0.7-0.1-3,1.9-2.5-0.2C44.7,67.6,43.5,67.3,43.3,68.1L43.3,68.1z"/>
		</g>
	</g>
	<g>
		<g>
			<path class="st2" d="M86.1,55.8c0.2-3.9,2.8-1.7,4-1.1c0.3,0.2,0.7,0.1,0.9-0.2c1.5-2.5,3.3-1.9,5.1-0.4c0.4,0.3,0.9,0.2,1-0.3
				c0.6-1.8,0.3-1,0-3.3c-0.4,0.1-0.8,0.2-1.2,0.3c0.9,1.6,2.5,4,4.5,2.7c0.6-0.4,0.3-0.9,0.7-1.2c1.2-1.2-0.4-1.3,1.2-0.5
				c1.1,0.6,0.7,1.3,2.2,1.4c0.3,0,0.5-0.2,0.6-0.5c1.3-3.3,4.6-1.1,6.4-2.7c0.3-0.3,0.3-0.9,0.5-1.1c1.1-0.8-1.5-0.8,1.1-0.7
				c1.4,0.1,0.8,0.7,1.8,1.1c1.1,0.4,1.4,0.9,2.5,0.2c0.5-0.3,0.9-1.5,0.5-1.4c0.4-0.1,1.4,1.4,2.2,1.2c0.8-0.1,1.2-1.4,1.5-1.5
				c1-0.2,1.8,1.4,3.6,0.7c0.5-0.2,0.5-1.1,0.9-1.4c1.5-1.2,2.8-1.2,4.1-1.8c2.2-1,4.1-1.7,6.4-2.3c0.8-0.2,0.4-1.4-0.3-1.2
				c-0.8,0.2-3.5-0.3-4.6,0c-1.1,0.4-2.3,1.5-3.6,1.9c-0.9,0.3-1.2,0.2-2,0.6c-1.5,0.7-1.3,4.3-4.3,1.7c-0.3-0.3-0.8-0.2-1,0.1
				c-0.8,1.2-1.5,1.7-2.9,0.4c-0.3-0.3-1-0.2-1,0.3c-0.4,2.8-3.4-1.4-4.9-1c-1.5,0.4-0.5,1.6-1.2,2.3c-1.4,1.4-3.4-0.4-5,0.5
				c-0.9,0.5-0.9,2.1-1.5,2.6c-0.8,0.6-1.6-1.2-2.4-2.2c-0.3-0.3-0.8-0.2-1,0.1c-1.1,1.7-1.8,4.8-3.9,1.1c-0.3-0.5-1.3-0.3-1.2,0.3
				c0.3,2.3,0.7,1.8-1,0.6c-0.4-0.3-0.9-0.8-1.4-0.9c-1.9-0.2-1.6,1.2-2.7,2.1c-1.6,1.2-0.8,0.2-2.7-0.1c-0.4-0.1-0.8-0.3-1.3-0.2
				c-1.5,0.5-1.8,2.6-1.9,3.9C84.8,56.6,86,56.6,86.1,55.8L86.1,55.8z"/>
		</g>
	</g>
	<g>
		<g>
			<path class="st2" d="M116.4,37.6c0.1,0.2,0.2,0.3,0.3,0.5c0.1,0.2,0.5,0.4,0.7,0.3c0.8-0.3,0.7-0.6,1.4-1
				c1.7-0.8,1.2-0.5,2.8-0.3c1.4,0.1,1.2,0.2,2.5-0.1c2.2-0.5-1.2-1.5,3-1.2c0.4,0,0.8,0.4,1.2,0.3c1.3-0.3,1.7-1.7,2.6-2
				c1.1-0.3,1.5,1,2.6,0.9c1.5-0.1,1.3-1.6,2.1-2.4c1.1-1.1,2.6-0.9,3.9-1.2c0.9-0.2,2.9-0.9,3.7-1.2c0.4-0.2,0.9-0.2,1.3-0.4
				c0.4-0.2,0.4-0.7,0.1-1c-0.1-0.1-0.2-0.3-0.4-0.4c-0.5-0.6-1.4,0.3-0.9,0.9c-1-1.1-2.1-0.5-3.1-0.2c-1,0.3-2.3,0.8-3.3,1.1
				c-0.4,0.1-0.6-0.2-1.2,0.1c-1,0.5-0.6,1.4-1.3,2c-1.2,1.1-2.4,0.4-3.8,0.4c-0.2,0-0.3,0.2-0.4,0.2c-0.2,0.2-0.3,0.4-0.5,0.6
				c-1.2,1-2.3,1.2-3.3,0.7c-0.8,0.1-1.2,0-2.1,0.1c-1.8,0.3,2.5,0.9-3,1.2c-0.1,0-0.8-0.6-1.1-0.5c-0.4,0.1-3.5,1.1-3,2
				C117.1,36.2,116,36.9,116.4,37.6L116.4,37.6z"/>
		</g>
	</g>
	<g>
		<g>
			<path class="st2" d="M78.1,44.3c0-1.6,0.9-3.9,2.5-3.5c0.4,0.1,0.8,0.9,1.2,1.1c0.8,0.5,1.4,0.6,2.4,0.4c0.5-0.1,0.5-0.9,0.8-1.1
				c1.4-0.4,1.9,0.1,3.2,0.9c0.2,0.1,0.6,0.1,0.8-0.1c0.7-0.8,0.9-1.4,1.6-1.5c1.2,0,2.1,1.8,3.6,1.6c2.1-0.4,1.5-3.3,4.1-1.7
				c0.3,0.2,0.7,0,0.9-0.2c1.1-0.9,1.8-0.8,2,0.2c0.2,0.3,0.6,0.4,0.9,0.2c1.4-0.8,2.2-0.2,3.4-0.4c1.8-0.3,1-0.2,2.9-1.1
				c0.7-0.3,0.1-1.4-0.6-1.1c-1.2,0.5-3.8,0.7-5.1,0.5c-0.2,0.2-0.5,0.3-0.7,0.5c-0.2-0.2-0.4-0.5-0.5-0.7c-0.1,0-0.4-0.4-0.5-0.4
				c-0.4-0.1-0.5-0.2-0.9-0.2c-0.4,0-1.4,0.8-1.9,0.9c-1.7,0.2-0.5-0.9-2-0.4c-0.6,0.2-0.6,0.4-1,0.6c-0.1,0.3-0.2,0.7-0.4,1
				c-0.9,0.7-1.7,0.7-2.4,0.1c-0.7-0.2-1.6-1-2.2-1.3c-0.3-0.1-0.7-0.1-0.9,0.2c-1.1,2.3-2.2-0.4-3.9-0.1c-1.7,0.3-0.9,2.2-3.4,1.3
				c-1.2-0.5-1.3-2-2.9-1.5c-1.8,0.6-2,4.1-2,5.5C76.8,45.1,78,45.1,78.1,44.3L78.1,44.3z"/>
		</g>
	</g>
	<g>
		<g>
			<path class="st2" d="M38,46.6c1-1.6,1.2-2.8,3.7-2.1c0.7,0.2,1.1,1.1,2,1.4c0.4,0.1,0.6-0.1,0.8-0.4c1.7-4.1,2.6,1.1,5.1,0.7
				c2.2-0.4,0.5-2,3.8-1.5c1.7,0.3,1.4,0.5,3-0.4c0.9-0.6-0.3-1.3,1.4-1c-0.9-0.1,2,1.9,1.5,1.5c0.2,0.1,0.6,0.1,0.8-0.1
				c0.9-1.1,1.9-1.2,3.2-0.5c0.3,0.2,0.7,0.1,0.9-0.2c1.4-2.1,2.7-1.4,4.7-0.7c0.3,0.1,0.7-0.1,0.8-0.4c0-0.1,0-0.2,0.1-0.3
				c0.2-0.8-1-1.1-1.2-0.3c0.4-1.8-3.3-1.1-4-0.9c-0.5,0.1-0.4,1.1-0.8,1.1c-0.8,0.1-1.2-0.8-1.8-0.9c-0.6,0-1.2,0.3-1.7,0.3
				c-0.2,0-0.5,1-0.6,1c-0.9,0-1.4-1.2-2.1-1.7c-0.3-0.3-0.7-0.2-1,0.1c-1.1,1.5-1,1.9-3.2,1.8c-0.7,0-1.1-0.4-1.8-0.4
				c-0.8,0.1-0.6,0.9-1.2,1.1c-2.3,1-2.9-1.1-4.8-2c-0.4-0.2-0.8,0-0.9,0.4c-1.5,3.7-2-0.1-4.3,0c-2.1,0.1-2.3,2.5-3.2,3.8
				C36.4,46.6,37.5,47.3,38,46.6L38,46.6z"/>
		</g>
	</g>
</g>
<g id="Layer_6" class="st3">
	<text transform="matrix(1 0 0 1 45.1761 39.5165)" class="st4"><tspan x="0" y="0" class="st5 st6 st7">Dear Diary,</tspan><tspan x="0" y="32" class="st5 st6 st7">Today was a very</tspan><tspan x="0" y="48" class="st5 st6 st7">productive day! I</tspan><tspan x="0" y="64" class="st5 st6 st7">I worked on some</tspan><tspan x="0" y="80" class="st5 st6 st7">JS animations and...</tspan></text>
</g>
<g id="Layer_3" class="st3">
	<g class="st4">
		<path class="st8" d="M49.8,40c-0.1,1-0.2,1.7-0.2,2.1L49.5,44l3.6-0.3l0-0.2c0.1-2.6,0.4-4.4,1.1-5.4c0.8-1.2,1.7-1.9,2.8-1.9
			c0.4,0,0.8,0,1.1,0.1l-0.9,1c-0.4-0.2-0.8-0.3-1.1-0.3c-0.7,0.1-1.2,0.5-1.4,1.2s-0.4,2.5-0.4,5.1l0,0.9c0,1.2,0,2.1,0,2.7
			c0,0.4,0.2,0.6,0.5,0.5c0.2,0,0.5-0.1,0.8-0.4c0,0.1,0,0.1,0,0.2c0,0.1-0.1,0.3-0.3,0.4L55,47.9l-1.8,1c-0.1-0.8-0.1-2.2,0-4.2
			l0-0.2l-3.6,0.3l0,0.6l0,0.7c0,0.6-0.1,1.1-0.3,1.4s-0.5,0.6-1,0.9l1.5,0L49,49.2l-2.8,0.1l0.8-0.9l0.7,0c0.3-0.3,0.5-0.6,0.6-0.9
			c0.1-0.3,0.2-1,0.2-1.9l0.1-4.7l-0.2,0c-1.8,0.1-2.7,0.8-2.6,2c0,0.4,0.2,0.8,0.4,1.1l-1,1.1c-0.1-0.3-0.2-0.7-0.2-1
			c-0.1-1.1,0.2-2.1,1-2.9s1.8-1.2,3.2-1.3L49.8,40z"/>
		<path class="st8" d="M60.4,46c0.1,0.1,0.2,0.2,0.2,0.3c0,0.1-0.1,0.4-0.4,0.7c-0.7,0.9-1.4,1.4-2.1,1.5c-0.4,0-0.8-0.1-1.1-0.5
			c-0.3-0.3-0.5-0.8-0.5-1.3c-0.1-1,0.2-2.1,0.9-3.2c0.7-1.1,1.4-1.7,2.1-1.7c0.5,0,0.8,0.2,0.9,0.8c0.1,0.7-0.2,1.3-0.8,2
			c-0.6,0.7-1.3,1.2-2.1,1.5c0.2,1.1,0.6,1.6,1.4,1.5C59.5,47.6,60,47,60.4,46z M57.3,45.3c0.1,0,0.2,0,0.3,0c0.5,0,1-0.2,1.4-0.6
			c0.4-0.4,0.5-0.8,0.5-1.2c0-0.5-0.3-0.8-0.8-0.7c-0.4,0-0.7,0.3-1,0.8C57.5,44,57.4,44.6,57.3,45.3z"/>
		<path class="st8" d="M66.1,45c-0.4,0.9-0.8,1.6-1.2,2.1s-0.8,0.9-1.1,0.9c-0.4,0-0.7-0.4-0.8-1.3l-0.1-0.9L62.6,44l-0.1-0.5
			c-0.1-0.7-0.3-1.1-0.5-1c-0.3,0-0.6,0.4-0.9,1.1c-0.1-0.1-0.2-0.2-0.2-0.2c0-0.2,0.2-0.6,0.6-1c0.4-0.4,0.7-0.6,1-0.7
			c0.3,0,0.5,0.1,0.6,0.3c0.1,0.2,0.2,0.7,0.3,1.4l0.3,2.3c0.1,0.9,0.3,1.3,0.5,1.3c0.3,0,0.8-0.5,1.2-1.3c0.5-0.9,0.7-1.7,0.8-2.5
			l0.1-1.4l1.1-0.5c-0.1,0.4-0.2,1-0.3,1.8l-0.5,4.5c-0.2,1.8-0.6,3.1-1.3,4c-1,1.3-2.2,2-3.6,2.2c-0.3,0-0.6,0-1-0.1l0.7-1
			c0.4,0.2,0.9,0.2,1.3,0.2c0.9-0.1,1.6-0.4,2-1.1c0.4-0.6,0.7-1.8,0.9-3.4L66.1,45z"/>
		<path class="st8" d="M68.8,49.9l-0.2-0.2c0.6-0.5,0.9-1.1,0.9-1.7c0-0.5-0.3-0.9-0.9-1.2l0.8-1c0.6,0.4,0.9,0.8,0.9,1.4
			C70.4,48,69.9,48.9,68.8,49.9z"/>
		<path class="st8" d="M76.6,43.2c0.4-0.8,0.9-1.5,1.5-2.1c0.6-0.6,1.1-0.9,1.5-0.9c0.4,0,0.7,0.2,0.7,0.8c0,0.2,0,0.5,0,0.8
			l-0.1,2.5c0,0.5,0,0.9,0,1.2c0,0.2,0.1,0.3,0.2,0.3c0.3,0,0.6-0.5,1-1.3c0.1,0.1,0.2,0.1,0.2,0.2c0,0.3-0.2,0.7-0.6,1.2
			c-0.4,0.5-0.8,0.8-1.1,0.8c-0.3,0-0.5-0.2-0.6-0.7c0-0.4,0-0.9,0-1.5l0.1-1.6c0-0.5,0-1,0-1.3c0-0.3-0.2-0.5-0.4-0.5
			c-0.6,0-1.1,0.5-1.6,1.3c-0.5,0.8-0.8,1.7-0.8,2.6l0,1.6l-0.9,0.5l0-0.2l0-0.5l0-0.5l0.2-5.9c0-1.4,0.4-2.6,1.2-3.6
			c0.8-1,1.7-1.6,2.7-1.7c0.2,0,0.4,0,0.6,0l-0.9,1c-0.3-0.1-0.5-0.1-0.7-0.1c-1.3,0.1-2,1.2-2,3.3L76.6,43.2z"/>
		<path class="st8" d="M86,44c0.1,0.1,0.2,0.2,0.2,0.3c0,0.1-0.1,0.4-0.4,0.7c-0.7,0.9-1.4,1.4-2.1,1.5c-0.4,0-0.8-0.1-1.1-0.5
			c-0.3-0.3-0.5-0.8-0.5-1.3c-0.1-1,0.2-2.1,0.9-3.2c0.7-1.1,1.4-1.7,2.1-1.7c0.5,0,0.8,0.2,0.9,0.8c0.1,0.7-0.2,1.3-0.8,2
			c-0.6,0.7-1.3,1.2-2.1,1.5c0.2,1.1,0.6,1.6,1.4,1.5C85.1,45.5,85.6,45,86,44z M83,43.2c0.1,0,0.2,0,0.3,0c0.5,0,1-0.2,1.4-0.6
			c0.4-0.4,0.5-0.8,0.5-1.2c0-0.5-0.3-0.8-0.8-0.7c-0.4,0-0.7,0.3-1,0.8C83.1,42,83,42.5,83,43.2z"/>
		<path class="st8" d="M89,42.3c0.8-1.9,1.7-3,2.6-3c0.2,0,0.5,0,0.7,0.1l-0.8,1.1c-0.1-0.1-0.3-0.1-0.5-0.1c-0.4,0-0.9,0.4-1.3,1.2
			C89.2,42.4,89,43.2,89,44l0,1.6L88,46.1l0-0.2l0-0.4l0-0.4l0.1-3.2l0-0.3c0-0.3,0-0.5,0-0.6c0-0.3-0.1-0.4-0.3-0.4
			c-0.3,0-0.7,0.4-0.9,1.2c-0.1-0.1-0.2-0.2-0.2-0.2c0-0.3,0.2-0.6,0.6-1.1c0.4-0.5,0.8-0.7,1.1-0.8c0.4,0,0.6,0.2,0.6,0.7
			c0,0.1,0,0.3,0,0.5l0,0.5l0,0.6L89,42.3z"/>
		<path class="st8" d="M96.3,43.2c0.1,0.1,0.2,0.2,0.2,0.3c0,0.1-0.1,0.4-0.4,0.7c-0.7,0.9-1.4,1.4-2.1,1.5c-0.4,0-0.8-0.1-1.1-0.5
			c-0.3-0.3-0.5-0.8-0.5-1.3c-0.1-1,0.2-2.1,0.9-3.2c0.7-1.1,1.4-1.7,2.1-1.7c0.5,0,0.8,0.2,0.9,0.8c0.1,0.7-0.2,1.3-0.8,2
			c-0.6,0.7-1.3,1.2-2.1,1.5c0.2,1.1,0.6,1.6,1.4,1.5C95.4,44.7,95.9,44.2,96.3,43.2z M93.2,42.4c0.1,0,0.2,0,0.3,0
			c0.5,0,1-0.2,1.4-0.6c0.4-0.4,0.5-0.8,0.5-1.2c0-0.5-0.3-0.8-0.8-0.7c-0.4,0-0.7,0.3-1,0.8C93.4,41.1,93.3,41.7,93.2,42.4z"/>
		<path class="st8" d="M105,41.9c-0.4,0.9-0.9,1.6-1.4,2.2c-0.5,0.6-1,0.9-1.5,0.9c-0.6,0-0.9-0.4-1-1.4c-0.1-1.3,0.2-2.6,1-3.6
			s1.8-1.6,2.9-1.7c0.5,0,0.8,0,1.2,0.1c0,0.1,0,0.1,0,0.1l0,0.4c0,0.2,0,0.4,0,0.4l-0.2,3l0,0.4c0,0.4,0,0.7,0,0.9
			c0,0.2,0.1,0.3,0.2,0.3c0.4,0,0.7-0.5,1-1.3c0.1,0.1,0.2,0.1,0.2,0.2c0,0.2-0.1,0.5-0.5,1c-0.5,0.7-0.9,1-1.3,1.1
			c-0.3,0-0.5-0.2-0.5-0.6c0-0.1,0-0.3,0-0.6l0-0.5l0-0.6L105,41.9z M105.1,39.3c-0.4-0.2-0.8-0.3-1.2-0.2c-0.6,0-1.1,0.5-1.4,1.3
			c-0.3,0.8-0.5,1.7-0.4,2.9c0,0.6,0.2,0.9,0.6,0.8c0.4,0,0.8-0.4,1.3-1c0.7-0.9,1-1.9,1.1-3L105.1,39.3z"/>
		<path class="st8" d="M109.8,40.6c0.8-1.9,1.7-3,2.6-3c0.2,0,0.5,0,0.7,0.1l-0.8,1.1c-0.1-0.1-0.3-0.1-0.5-0.1
			c-0.4,0-0.9,0.4-1.3,1.2s-0.7,1.6-0.7,2.4l0,1.6l-0.9,0.4l0-0.2l0-0.4l0-0.4l0.1-3.2l0-0.3c0-0.3,0-0.5,0-0.6
			c0-0.3-0.1-0.4-0.3-0.4c-0.3,0-0.7,0.4-0.9,1.2c-0.1-0.1-0.2-0.2-0.2-0.2c0-0.3,0.2-0.6,0.6-1.1c0.4-0.5,0.8-0.7,1.1-0.8
			c0.4,0,0.6,0.2,0.6,0.7c0,0.1,0,0.3,0,0.5l0,0.5l0,0.6L109.8,40.6z"/>
		<path class="st8" d="M117.1,41.5c0.1,0.1,0.2,0.2,0.2,0.3c0,0.1-0.1,0.4-0.4,0.7c-0.7,0.9-1.4,1.4-2.1,1.5c-0.4,0-0.8-0.1-1.1-0.5
			c-0.3-0.3-0.5-0.8-0.5-1.3c-0.1-1,0.2-2.1,0.9-3.2c0.7-1.1,1.4-1.7,2.1-1.7c0.5,0,0.8,0.2,0.9,0.8c0.1,0.7-0.2,1.3-0.8,2
			c-0.6,0.7-1.3,1.2-2.1,1.5c0.2,1.1,0.6,1.6,1.4,1.5C116.1,43,116.7,42.5,117.1,41.5z M114,40.8c0.1,0,0.2,0,0.3,0
			c0.5,0,1-0.2,1.4-0.6c0.4-0.4,0.5-0.8,0.5-1.2c0-0.5-0.3-0.8-0.8-0.7c-0.4,0-0.7,0.3-1,0.8C114.2,39.5,114,40.1,114,40.8z"/>
		<path class="st8" d="M127,42.6l-0.9,0.5l0-0.2l0-0.5l0-0.5l0.1-3l0-0.3c0-0.2,0-0.4,0-0.5c0-0.4-0.2-0.6-0.4-0.6
			c-0.4,0-0.8,0.5-1.3,1.4c-0.5,0.9-0.7,1.7-0.7,2.5l0,1.6l-0.9,0.5l0-0.2l0-0.5l0-0.5l0.1-3.1l0-0.4c0-0.3,0-0.5,0-0.7
			c0-0.3-0.1-0.4-0.2-0.4c-0.3,0-0.6,0.4-1,1.2c-0.1-0.1-0.2-0.1-0.2-0.2c0-0.3,0.2-0.6,0.6-1.1c0.4-0.5,0.8-0.8,1.1-0.8
			c0.4,0,0.6,0.2,0.6,0.7c0,0.1,0,0.3,0,0.5l0,0.5l0,0.5l0,0.5l0.2-0.3c0.8-1.7,1.7-2.6,2.5-2.6c0.4,0,0.6,0.2,0.7,0.8
			c0,0.1,0,0.3,0,0.6l0,0.6l0,0.8c0.3-0.9,0.8-1.6,1.3-2.2c0.5-0.6,1-0.9,1.4-1c0.4,0,0.7,0.2,0.7,0.8c0,0.2,0,0.5,0,0.9l-0.1,2.5
			c0,0.5,0,0.9,0,1.2c0,0.2,0.1,0.3,0.2,0.3c0.1,0,0.3-0.2,0.5-0.4c0.2-0.3,0.4-0.6,0.5-0.9c0.1,0.1,0.2,0.1,0.2,0.2
			c0,0.3-0.2,0.7-0.6,1.2s-0.8,0.8-1.1,0.8c-0.4,0-0.6-0.2-0.6-0.7c0-0.3,0-0.8,0-1.5l0.1-1.6c0-0.1,0-0.2,0-0.4c0-0.1,0-0.2,0-0.4
			c0-0.2,0-0.3,0-0.4c0-0.4-0.2-0.6-0.4-0.5c-0.4,0-0.8,0.5-1.3,1.4c-0.5,0.9-0.7,1.7-0.7,2.5L127,42.6z"/>
		<path class="st8" d="M136.9,39.4c-0.4,0.9-0.8,1.6-1.2,2.1s-0.8,0.9-1.1,0.9c-0.4,0-0.7-0.4-0.8-1.3l-0.1-0.9l-0.2-1.9l-0.1-0.5
			c-0.1-0.7-0.3-1.1-0.5-1c-0.3,0-0.6,0.4-0.9,1.1c-0.1-0.1-0.2-0.2-0.2-0.2c0-0.2,0.2-0.6,0.6-1c0.4-0.4,0.7-0.6,1-0.7
			c0.3,0,0.5,0.1,0.6,0.3c0.1,0.2,0.2,0.7,0.3,1.4l0.3,2.3c0.1,0.9,0.3,1.3,0.5,1.3c0.3,0,0.8-0.5,1.2-1.3c0.5-0.9,0.7-1.7,0.8-2.5
			l0.1-1.4l1.1-0.5c-0.1,0.4-0.2,1-0.3,1.8l-0.5,4.5c-0.2,1.8-0.6,3.1-1.3,4c-1,1.3-2.2,2-3.6,2.2c-0.3,0-0.6,0-1-0.1l0.7-1
			c0.4,0.2,0.9,0.2,1.3,0.2c0.9-0.1,1.5-0.4,2-1.1c0.4-0.6,0.7-1.8,0.9-3.4L136.9,39.4z"/>
		<path class="st8" d="M40.1,60.4l-0.1,3c0,0.5,0,0.9,0,1.2c0,0.5,0.2,0.7,0.6,0.7c0.4,0,0.7-0.4,1-1c0.1,0.1,0.1,0.2,0.1,0.2
			c0,0.2-0.2,0.6-0.6,0.9c-0.4,0.4-0.8,0.6-1.1,0.6c-0.6,0-1-0.3-1-1.1c0-0.3,0-0.8,0-1.5l0.1-3l-1.4,0.1l0.7-0.8l0.7-0.1l0-1.2
			l0.9-0.4l0,1.5l2.7-0.2l-0.7,0.8L40.1,60.4z"/>
		<path class="st8" d="M44.6,61.8c0.4-0.8,0.9-1.5,1.5-2.1c0.6-0.6,1.1-0.9,1.5-0.9c0.4,0,0.7,0.2,0.7,0.8c0,0.2,0,0.5,0,0.8
			L48.2,63c0,0.5,0,0.9,0,1.2c0,0.2,0.1,0.3,0.2,0.3c0.3,0,0.6-0.5,1-1.3c0.1,0.1,0.2,0.1,0.2,0.2c0,0.3-0.2,0.7-0.6,1.2
			c-0.4,0.5-0.8,0.8-1.1,0.8c-0.3,0-0.5-0.2-0.6-0.7c0-0.4,0-0.9,0-1.5l0.1-1.6c0-0.5,0-1,0-1.3c0-0.3-0.2-0.5-0.4-0.5
			c-0.6,0-1.1,0.5-1.6,1.3s-0.8,1.7-0.8,2.6l0,1.6l-0.9,0.5l0-0.2l0-0.5l0-0.5l0.2-5.9c0-1.4,0.4-2.6,1.2-3.6s1.7-1.6,2.7-1.7
			c0.2,0,0.4,0,0.6,0l-0.9,1c-0.3-0.1-0.5-0.1-0.7-0.1c-1.3,0.1-2,1.2-2,3.3L44.6,61.8z"/>
		<path class="st8" d="M51.7,65.1c-1,0.1-1.5-0.5-1.6-1.9c-0.1-1.1,0.2-2.1,0.9-3.2s1.4-1.6,2.2-1.7c1-0.1,1.5,0.5,1.6,1.9
			c0.1,1.1-0.2,2.1-0.9,3.2C53.3,64.5,52.6,65,51.7,65.1z M52.5,64.3c0.5,0,0.9-0.4,1.2-1c0.3-0.6,0.4-1.3,0.3-2.2
			c-0.1-1.4-0.6-2-1.4-2c-0.5,0-0.9,0.4-1.2,1c-0.3,0.6-0.4,1.3-0.3,2.2C51.1,63.7,51.6,64.4,52.5,64.3z"/>
		<path class="st8" d="M60.5,61.6c-0.4,0.8-0.9,1.5-1.5,2.1c-0.6,0.6-1.1,0.9-1.4,0.9c-0.4,0-0.7-0.2-0.7-0.8c0-0.2,0-0.6,0-1.1
			l0.1-2.2c0,0,0-0.2,0-0.4l0-0.4c0-0.1,0-0.2,0-0.3c0-0.3-0.1-0.4-0.2-0.4c-0.3,0-0.7,0.4-1,1.2c-0.1-0.1-0.1-0.1-0.1-0.2
			c0-0.3,0.2-0.7,0.6-1.2c0.4-0.5,0.8-0.8,1.1-0.8c0.4,0,0.6,0.2,0.6,0.7c0,0.1,0,0.3,0,0.4l0,0.5l0,0.6l0,1.9c0,0.3,0,0.7,0,1
			c0,0.3,0.1,0.5,0.4,0.4c0.5,0,1-0.5,1.6-1.4c0.5-0.9,0.8-1.7,0.9-2.5l0.1-1.6l1-0.5c-0.1,0.5-0.1,1-0.2,1.4l-0.2,2.8
			c0,0.2,0,0.3,0,0.4l0,0.4c0,0.2,0,0.4,0,0.5c0,0.2,0.1,0.3,0.2,0.3c0.4,0,0.7-0.5,1-1.3c0.1,0.1,0.2,0.1,0.2,0.2
			c0,0.2-0.2,0.5-0.5,1c-0.5,0.7-0.9,1-1.3,1.1c-0.3,0-0.5-0.2-0.5-0.6c0-0.1,0-0.3,0-0.6l0-0.5c0-0.3,0-0.5,0-0.6L60.5,61.6z"/>
		<path class="st8" d="M68.3,57.4c0,0.1,0,0.1,0,0.1l0,0.4c0,0.3-0.1,0.4-0.1,0.4l-0.1,2.5c0,0.4,0,1.1,0,2.2c0,1.3,0,2.2-0.1,2.9
			c-0.1,0.6-0.4,1.2-0.8,1.7c-0.9,1.2-2,1.8-3.2,1.9c-0.6,0-1-0.1-1.4-0.5c-0.4-0.4-0.6-0.8-0.7-1.4c-0.1-1.2,0.5-2.4,1.9-3.7
			c-0.3-0.2-0.5-0.6-0.6-1.3c-0.1-1.3,0.2-2.5,1-3.6c0.8-1.1,1.8-1.6,2.9-1.7C67.7,57.3,68.1,57.3,68.3,57.4z M67.2,61.1
			c-1,1.9-2,2.9-2.9,3c0,0-0.1,0-0.2,0c-0.9,1.1-1.4,2.1-1.3,2.9c0,0.6,0.3,1,0.7,1.3c0.4,0.3,0.9,0.5,1.5,0.4
			c0.9-0.1,1.5-0.5,1.9-1.3c0.3-0.6,0.4-2.1,0.4-4.4C67.2,62.1,67.2,61.5,67.2,61.1z M67.3,58.4c-0.3-0.2-0.7-0.3-1.2-0.2
			c-0.6,0-1.1,0.5-1.4,1.3c-0.3,0.8-0.5,1.8-0.4,2.9c0,0.6,0.2,0.9,0.6,0.8c0.4,0,0.8-0.4,1.3-1c0.7-0.9,1.1-1.9,1.1-3L67.3,58.4z"
			/>
		<path class="st8" d="M71,59.7c0.4-0.8,0.9-1.5,1.5-2.1s1.1-0.9,1.5-0.9c0.4,0,0.7,0.2,0.7,0.8c0,0.2,0,0.5,0,0.8l-0.1,2.5
			c0,0.5,0,0.9,0,1.2c0,0.2,0.1,0.3,0.2,0.3c0.3,0,0.6-0.5,1-1.3c0.1,0.1,0.2,0.1,0.2,0.2c0,0.3-0.2,0.7-0.6,1.2
			c-0.4,0.5-0.8,0.8-1.1,0.8c-0.3,0-0.5-0.2-0.6-0.7c0-0.4,0-0.9,0-1.5l0.1-1.6c0-0.5,0-1,0-1.3c0-0.3-0.2-0.5-0.4-0.5
			c-0.6,0-1.1,0.5-1.6,1.3c-0.5,0.8-0.8,1.7-0.8,2.6l0,1.6L70,63.6l0-0.2l0-0.5l0-0.5l0.2-5.9c0-1.4,0.4-2.6,1.2-3.6
			c0.8-1,1.7-1.6,2.7-1.7c0.2,0,0.4,0,0.6,0l-0.9,1c-0.3-0.1-0.5-0.1-0.7-0.1c-1.3,0.1-2,1.2-2,3.3L71,59.7z"/>
		<path class="st8" d="M78.3,57.3l-0.1,3c0,0.5,0,0.9,0,1.2c0,0.5,0.2,0.7,0.6,0.7c0.4,0,0.7-0.4,1-1c0.1,0.1,0.1,0.2,0.1,0.2
			c0,0.2-0.2,0.6-0.6,0.9c-0.4,0.4-0.8,0.6-1.1,0.6c-0.6,0-1-0.3-1-1.1c0-0.3,0-0.8,0-1.5l0.1-3L76,57.5l0.7-0.8l0.7-0.1l0-1.2
			l0.9-0.4l0,1.6l2.7-0.2l-0.7,0.8L78.3,57.3z"/>
		<path class="st8" d="M80.9,62.4l0.8-0.8c0.4,0.3,0.8,0.5,1.3,0.5c0.6,0,0.9-0.4,0.9-1c0-0.3-0.4-0.8-1-1.4l-0.4-0.4
			c-0.6-0.5-0.9-1-0.9-1.3c0-0.5,0.1-1,0.5-1.3s0.9-0.6,1.6-0.7c0.3,0,0.7,0,1.2,0.1l-0.7,0.8c-0.3-0.2-0.7-0.3-1.1-0.3
			c-0.5,0-0.7,0.3-0.7,0.7c0,0.3,0.3,0.7,0.9,1.2l0.4,0.4c0.6,0.6,1,1.1,1,1.5c0,0.6-0.2,1.1-0.7,1.5c-0.5,0.5-1.1,0.7-1.8,0.8
			C81.9,62.7,81.4,62.6,80.9,62.4z"/>
		<path class="st8" d="M86.1,64.6L86,64.4c0.6-0.5,0.9-1.1,0.9-1.7c0-0.5-0.3-0.9-0.9-1.2l0.8-1c0.6,0.4,0.9,0.8,0.9,1.4
			C87.7,62.7,87.2,63.6,86.1,64.6z"/>
		<path class="st8" d="M94.1,56.1L94,59c0,0.5,0,0.9,0,1.2c0,0.5,0.2,0.7,0.6,0.7c0.4,0,0.7-0.4,1-1c0.1,0.1,0.1,0.2,0.1,0.2
			c0,0.2-0.2,0.6-0.6,0.9c-0.4,0.4-0.8,0.6-1.1,0.6c-0.6,0-1-0.3-1-1.1c0-0.3,0-0.8,0-1.5l0.1-3l-1.4,0.1l0.7-0.8l0.7-0.1l0-1.2
			l0.9-0.4l0,1.6l2.7-0.2l-0.7,0.8L94.1,56.1z"/>
		<path class="st8" d="M100.9,58.3c-0.4,0.9-0.9,1.6-1.4,2.2c-0.5,0.6-1,0.9-1.5,0.9c-0.6,0-0.9-0.4-1-1.4c-0.1-1.3,0.2-2.6,1-3.6
			s1.8-1.6,2.9-1.7c0.5,0,0.8,0,1.2,0.1c0,0.1,0,0.1,0,0.1l0,0.4c0,0.2,0,0.4-0.1,0.4l-0.2,3l0,0.4c0,0.4,0,0.7,0,0.9
			c0,0.2,0.1,0.3,0.2,0.3c0.4,0,0.7-0.5,1-1.3c0.1,0.1,0.2,0.1,0.2,0.2c0,0.2-0.1,0.5-0.5,1c-0.5,0.7-0.9,1-1.3,1.1
			c-0.3,0-0.5-0.2-0.5-0.6c0-0.1,0-0.3,0-0.6l0-0.5l0-0.6L100.9,58.3z M101.1,55.7c-0.4-0.2-0.8-0.3-1.2-0.2c-0.6,0-1.1,0.5-1.4,1.3
			c-0.4,0.8-0.5,1.7-0.4,2.9c0,0.6,0.2,0.9,0.6,0.8c0.4,0,0.8-0.4,1.3-1c0.7-0.9,1-1.9,1.1-3L101.1,55.7z"/>
		<path class="st8" d="M105.7,60.4l-0.9,0.5l0-0.2l0-0.5l0-0.5l0.1-3.1l0-0.4c0-0.3,0-0.5,0-0.7c0-0.3-0.1-0.4-0.2-0.4
			c-0.3,0-0.6,0.4-1,1.2c-0.1-0.1-0.2-0.1-0.2-0.2c0-0.3,0.2-0.6,0.6-1.1c0.4-0.5,0.8-0.8,1.1-0.8c0.4,0,0.6,0.2,0.6,0.7
			c0,0.1,0,0.3,0,0.5l0,0.5l0,0.5l0,0.5c0.4-0.8,1-1.5,1.5-2.1c0.6-0.6,1.1-0.9,1.5-0.9c0.4,0,0.7,0.2,0.7,0.8c0,0.2,0,0.5,0,0.8
			l-0.2,2.5c0,0.5,0,0.9,0,1.2c0,0.2,0.1,0.3,0.2,0.3c0.3,0,0.6-0.5,1-1.3c0.1,0.1,0.2,0.1,0.2,0.2c0,0.3-0.2,0.7-0.6,1.2
			c-0.4,0.5-0.8,0.8-1.1,0.8c-0.3,0-0.5-0.2-0.6-0.7c0-0.4,0-0.9,0-1.5l0.1-1.6c0-0.5,0-0.9,0-1.3c0-0.4-0.2-0.5-0.4-0.5
			c-0.6,0-1.1,0.5-1.6,1.3c-0.5,0.8-0.8,1.7-0.8,2.6L105.7,60.4z"/>
		<path class="st8" d="M116.3,53.6c0,0.1,0,0.1,0,0.1l0,0.4c0,0.3-0.1,0.4-0.1,0.4l-0.1,2.5c0,0.4,0,1.1,0,2.2c0,1.3,0,2.2-0.1,2.9
			c-0.1,0.6-0.4,1.2-0.8,1.7c-0.9,1.2-2,1.8-3.2,1.9c-0.6,0-1-0.1-1.4-0.5c-0.4-0.4-0.6-0.8-0.7-1.4c-0.1-1.2,0.5-2.4,1.9-3.7
			c-0.3-0.2-0.5-0.6-0.6-1.3c-0.1-1.3,0.2-2.5,1-3.6c0.8-1.1,1.8-1.6,2.9-1.7C115.7,53.5,116.1,53.5,116.3,53.6z M115.2,57.2
			c-1,1.9-2,2.9-2.9,3c0,0-0.1,0-0.2,0c-0.9,1.1-1.4,2.1-1.3,2.9c0,0.6,0.3,1,0.7,1.3c0.4,0.3,0.9,0.5,1.5,0.4
			c0.9-0.1,1.5-0.5,1.9-1.3c0.3-0.6,0.4-2.1,0.4-4.4C115.2,58.3,115.2,57.6,115.2,57.2z M115.3,54.5c-0.3-0.2-0.7-0.3-1.2-0.2
			c-0.6,0-1.1,0.5-1.4,1.3c-0.3,0.8-0.5,1.8-0.4,2.9c0,0.6,0.2,0.9,0.6,0.8c0.4,0,0.8-0.4,1.3-1c0.7-0.9,1.1-1.9,1.1-3L115.3,54.5z"
			/>
		<path class="st8" d="M121.4,57.2c0.1,0.1,0.2,0.2,0.2,0.3c0,0.1-0.1,0.4-0.4,0.7c-0.7,0.9-1.4,1.4-2.1,1.5c-0.4,0-0.8-0.1-1.1-0.5
			c-0.3-0.3-0.5-0.8-0.5-1.3c-0.1-1,0.2-2.1,0.9-3.2c0.7-1.1,1.4-1.7,2.1-1.7c0.5,0,0.8,0.2,0.9,0.8c0.1,0.7-0.2,1.3-0.8,2
			c-0.6,0.7-1.3,1.2-2.1,1.5c0.2,1.1,0.6,1.6,1.4,1.5C120.5,58.7,121,58.2,121.4,57.2z M118.3,56.5c0.1,0,0.2,0,0.3,0
			c0.5,0,1-0.2,1.4-0.6c0.4-0.4,0.5-0.8,0.5-1.2c0-0.5-0.3-0.8-0.8-0.7c-0.4,0-0.7,0.3-1,0.8C118.5,55.2,118.4,55.8,118.3,56.5z"/>
		<path class="st8" d="M124.3,58.9l-0.9,0.5l0-0.2l0-0.5l0-0.5l0.1-3.1l0-0.4c0-0.3,0-0.5,0-0.7c0-0.3-0.1-0.4-0.2-0.4
			c-0.3,0-0.6,0.4-1,1.2c-0.1-0.1-0.2-0.1-0.2-0.2c0-0.3,0.2-0.6,0.6-1.1c0.4-0.5,0.8-0.8,1.1-0.8c0.4,0,0.6,0.2,0.6,0.7
			c0,0.1,0,0.3,0,0.5l0,0.5l0,0.5l0,0.5c0.4-0.8,1-1.5,1.5-2.1c0.6-0.6,1.1-0.9,1.5-0.9c0.4,0,0.7,0.2,0.7,0.8c0,0.2,0,0.5,0,0.8
			l-0.2,2.5c0,0.5,0,0.9,0,1.2c0,0.2,0.1,0.3,0.2,0.3c0.3,0,0.6-0.5,1-1.3c0.1,0.1,0.2,0.1,0.2,0.2c0,0.3-0.2,0.7-0.6,1.2
			c-0.4,0.5-0.8,0.8-1.1,0.8c-0.3,0-0.5-0.2-0.6-0.7c0-0.4,0-0.9,0-1.5l0.1-1.6c0-0.5,0-0.9,0-1.3c0-0.4-0.2-0.5-0.4-0.5
			c-0.6,0-1.1,0.5-1.6,1.3c-0.5,0.8-0.8,1.7-0.8,2.6L124.3,58.9z"/>
		<path class="st8" d="M131.7,53.1l-0.1,3c0,0.5,0,0.9,0,1.2c0,0.5,0.2,0.7,0.6,0.7c0.4,0,0.7-0.4,1-1c0.1,0.1,0.1,0.2,0.1,0.2
			c0,0.2-0.2,0.6-0.6,0.9c-0.4,0.4-0.8,0.6-1.1,0.6c-0.6,0-1-0.3-1-1.1c0-0.3,0-0.8,0-1.5l0.1-3l-1.4,0.1l0.7-0.8l0.7-0.1l0-1.2
			l0.9-0.4l0,1.6l2.7-0.2l-0.7,0.8L131.7,53.1z"/>
		<path class="st8" d="M137.7,56.1c0.1,0.1,0.2,0.1,0.2,0.2c0,0.2-0.2,0.5-0.5,1c-0.5,0.7-0.9,1-1.3,1.1c-0.3,0-0.5-0.2-0.5-0.6
			c0-0.2,0-0.7,0.1-1.7l0.1-1.8l0-0.5l0-0.4c0-0.2,0-0.3,0-0.4c0-0.2-0.1-0.3-0.2-0.3c-0.3,0-0.7,0.4-1,1.2
			c-0.1-0.1-0.1-0.1-0.1-0.2c0-0.3,0.2-0.7,0.6-1.2c0.4-0.5,0.8-0.8,1.1-0.8c0.3,0,0.5,0.2,0.5,0.7c0,0.1,0,0.3,0,0.5l0,0.5
			c0,0,0,0.2,0,0.5l-0.1,1.9l0,0.4c0,0.4,0,0.7,0,0.9c0,0.2,0.1,0.3,0.2,0.3C137.1,57.4,137.4,56.9,137.7,56.1z M136,50.9l0.4-1.4
			c0.5-0.2,0.8-0.6,1.1-0.9c0,0.1,0.1,0.1,0.1,0.2C137.7,49.3,137.2,50,136,50.9z"/>
		<path class="st8" d="M142.5,55c-0.4,0.9-0.9,1.6-1.4,2.2c-0.5,0.6-1,0.9-1.5,0.9c-0.6,0-0.9-0.4-1-1.4c-0.1-1.3,0.2-2.6,1-3.6
			c0.8-1.1,1.8-1.6,2.9-1.7c0.5,0,0.8,0,1.2,0.1c0,0.1,0,0.1,0,0.1l0,0.4c0,0.2,0,0.4,0,0.4l-0.2,3l0,0.4c0,0.4,0,0.7,0,0.9
			c0,0.2,0.1,0.3,0.2,0.3c0.4,0,0.7-0.5,1-1.3c0.1,0.1,0.2,0.1,0.2,0.2c0,0.2-0.1,0.5-0.5,1c-0.5,0.7-0.9,1-1.3,1.1
			c-0.3,0-0.5-0.2-0.5-0.6c0-0.1,0-0.3,0-0.6l0-0.5l0-0.6L142.5,55z M142.7,52.3c-0.4-0.2-0.8-0.3-1.2-0.2c-0.6,0-1.1,0.5-1.4,1.3
			c-0.4,0.8-0.5,1.7-0.4,2.9c0,0.6,0.2,0.9,0.6,0.8c0.4,0,0.8-0.4,1.3-1c0.7-0.9,1-1.9,1.1-3L142.7,52.3z"/>
		<path class="st8" d="M148,55.2c0.1,0.1,0.2,0.1,0.2,0.2c0,0.3-0.2,0.7-0.6,1.2c-0.4,0.5-0.8,0.8-1.1,0.8c-0.4,0-0.6-0.2-0.6-0.8
			c0-0.3,0-0.7,0-1l0-0.6l0.1-4.7c0-1.4,0.4-2.6,1.1-3.6c0.7-1,1.6-1.6,2.6-1.6c0.2,0,0.5,0,0.6,0l-0.8,1c-0.2-0.1-0.4-0.1-0.7,0
			c-0.6,0.1-1.1,0.3-1.4,0.8c-0.3,0.5-0.4,1.3-0.5,2.4l-0.2,5.6c0,0.4,0,0.7,0,0.9c0,0.4,0.1,0.6,0.2,0.6c0.2,0,0.3-0.2,0.5-0.4
			C147.8,55.9,147.9,55.6,148,55.2z"/>
		<path class="st8" d="M46.7,78.7c-0.4,0.9-0.9,1.6-1.4,2.2c-0.5,0.6-1,0.9-1.5,0.9c-0.6,0-0.9-0.4-1-1.4c-0.1-1.3,0.2-2.6,1-3.6
			s1.8-1.6,2.9-1.7c0.4,0,0.8,0,1.2,0.1c0,0.1,0,0.1,0,0.1l0,0.4c0,0.2,0,0.4-0.1,0.4l-0.2,3l0,0.4c0,0.4,0,0.7,0,0.9
			c0,0.2,0.1,0.3,0.2,0.3c0.4,0,0.7-0.5,1-1.3c0.1,0.1,0.2,0.1,0.2,0.2c0,0.2-0.1,0.5-0.5,1c-0.5,0.7-0.9,1-1.3,1.1
			c-0.3,0-0.5-0.2-0.5-0.6c0-0.1,0-0.3,0-0.6l0-0.5l0-0.6L46.7,78.7z M46.9,76c-0.4-0.2-0.8-0.3-1.2-0.2c-0.6,0-1.1,0.5-1.4,1.3
			c-0.3,0.8-0.5,1.7-0.4,2.9c0,0.6,0.2,0.9,0.6,0.8c0.4,0,0.8-0.4,1.3-1c0.7-0.9,1-1.9,1.1-3L46.9,76z"/>
		<path class="st8" d="M49.3,81l0.8-0.8c0.4,0.3,0.8,0.5,1.3,0.4c0.6,0,0.9-0.4,0.9-1c0-0.3-0.4-0.8-1-1.4l-0.4-0.4
			c-0.6-0.5-0.9-1-0.9-1.3c0-0.5,0.1-1,0.5-1.4c0.4-0.4,0.9-0.6,1.6-0.7c0.3,0,0.7,0,1.2,0.1l-0.7,0.8c-0.3-0.2-0.7-0.3-1.1-0.3
			c-0.5,0-0.7,0.3-0.7,0.7c0,0.3,0.3,0.7,0.9,1.2l0.4,0.4c0.6,0.6,1,1.1,1,1.5c0,0.6-0.2,1.1-0.7,1.5c-0.5,0.5-1.1,0.7-1.8,0.8
			C50.2,81.3,49.7,81.2,49.3,81z"/>
		<path class="st8" d="M57.4,78.6c0.1,0.1,0.2,0.1,0.2,0.2c0,0.2-0.2,0.5-0.5,1c-0.5,0.7-0.9,1-1.3,1.1c-0.3,0-0.5-0.2-0.5-0.6
			c0-0.2,0-0.7,0.1-1.7l0.1-1.8l0-0.5l0-0.4c0-0.2,0-0.3,0-0.4c0-0.2-0.1-0.3-0.2-0.3c-0.3,0-0.7,0.4-1,1.2
			c-0.1-0.1-0.1-0.1-0.1-0.2c0-0.3,0.2-0.7,0.6-1.1c0.5-0.5,0.8-0.8,1.1-0.8c0.3,0,0.5,0.2,0.5,0.7c0,0.1,0,0.3,0,0.5l0,0.5
			c0,0,0,0.2,0,0.5l-0.1,1.9l0,0.4c0,0.4,0,0.7,0,0.9c0,0.2,0.1,0.3,0.2,0.3C56.8,79.9,57.1,79.4,57.4,78.6z M55.7,73.4l0.4-1.4
			c0.5-0.2,0.8-0.6,1.1-0.9c0,0.1,0.1,0.1,0.1,0.2C57.4,71.8,56.8,72.5,55.7,73.4z"/>
		<path class="st8" d="M62.2,73.8l0-0.6c0-1.4,0.4-2.7,1.1-3.7c0.7-1,1.6-1.5,2.6-1.6c0.2,0,0.5,0,0.6,0l-0.8,1
			c-0.2-0.1-0.5-0.1-0.7,0c-0.6,0.1-1.1,0.3-1.4,0.8c-0.3,0.5-0.4,1.3-0.5,2.4L63,77.8l0,0.4c0,0.4,0,0.6,0,0.8
			c0,0.2,0.1,0.3,0.2,0.3c0.4,0,0.7-0.5,1-1.3c0.1,0.1,0.2,0.1,0.2,0.2c0,0.2-0.1,0.5-0.5,1c-0.4,0.7-0.9,1-1.3,1.1
			c-0.3,0-0.5-0.2-0.6-0.7c0-0.2,0-0.5,0-1l0-0.6l0-0.5c-0.2,0.7-0.7,1.4-1.3,2c-0.6,0.7-1.1,1-1.6,1c-0.6,0-1-0.4-1-1.4
			c-0.1-1.3,0.2-2.5,1-3.6c0.8-1.1,1.7-1.7,2.7-1.8C62,73.8,62.1,73.8,62.2,73.8z M62.2,74.8c-0.4-0.2-0.7-0.2-1-0.2
			c-0.6,0.1-1.1,0.5-1.5,1.2c-0.4,0.8-0.5,1.7-0.4,2.9c0,0.6,0.2,0.9,0.6,0.8c0.4,0,0.8-0.4,1.3-1c0.6-0.8,1-1.8,1-3L62.2,74.8z"/>
		<path class="st8" d="M68.9,77.5c0.1,0.1,0.2,0.2,0.2,0.3c0,0.1-0.1,0.4-0.4,0.7c-0.7,0.9-1.4,1.4-2.1,1.5c-0.4,0-0.8-0.1-1.1-0.5
			c-0.3-0.3-0.5-0.8-0.5-1.3c-0.1-1,0.2-2.1,0.9-3.2c0.7-1.1,1.4-1.7,2.1-1.7c0.5,0,0.8,0.2,0.9,0.8c0.1,0.7-0.2,1.3-0.8,2
			c-0.6,0.7-1.3,1.2-2.1,1.5c0.2,1.1,0.6,1.6,1.4,1.5C68,79,68.6,78.4,68.9,77.5z M65.9,76.7c0.1,0,0.2,0,0.3,0c0.5,0,1-0.2,1.4-0.6
			c0.4-0.4,0.5-0.8,0.5-1.2c0-0.5-0.3-0.8-0.8-0.7c-0.4,0-0.7,0.3-1,0.8S65.9,76,65.9,76.7z"/>
		<path class="st8" d="M69.7,79.3l0.8-0.8c0.4,0.3,0.8,0.5,1.3,0.5c0.6,0,0.9-0.4,0.9-1c0-0.3-0.4-0.8-1-1.4l-0.4-0.4
			c-0.6-0.5-0.9-1-0.9-1.3c0-0.5,0.1-1,0.5-1.4c0.4-0.4,0.9-0.6,1.6-0.7c0.3,0,0.7,0,1.2,0.1l-0.7,0.8c-0.3-0.2-0.7-0.3-1.1-0.3
			c-0.5,0-0.7,0.3-0.7,0.7c0,0.3,0.3,0.7,0.9,1.2l0.4,0.4c0.6,0.6,1,1.1,1,1.5c0,0.6-0.2,1.1-0.7,1.5c-0.5,0.5-1.1,0.7-1.8,0.8
			C70.6,79.6,70.1,79.6,69.7,79.3z"/>
		<path class="st8" d="M74.9,81.5l-0.2-0.2c0.6-0.5,0.9-1.1,0.9-1.7c0-0.5-0.3-0.9-0.9-1.2l0.8-1c0.6,0.4,0.9,0.8,0.9,1.4
			C76.5,79.6,76,80.5,74.9,81.5z"/>
		<path class="st8" d="M85.1,75.6c-0.4,0.9-0.9,1.6-1.4,2.2c-0.5,0.6-1,0.9-1.5,0.9c-0.6,0-0.9-0.4-1-1.4c-0.1-1.3,0.2-2.6,1-3.6
			c0.8-1.1,1.8-1.6,2.9-1.7c0.4,0,0.8,0,1.2,0.1c0,0.1,0,0.1,0,0.2l0,0.4c0,0.2,0,0.4,0,0.4L86,76l0,0.4c0,0.4,0,0.7,0,0.9
			c0,0.2,0.1,0.3,0.2,0.3c0.4,0,0.7-0.5,1-1.3c0.1,0.1,0.2,0.1,0.2,0.2c0,0.2-0.1,0.5-0.5,1c-0.5,0.7-0.9,1-1.3,1.1
			c-0.3,0-0.5-0.2-0.5-0.6c0-0.1,0-0.3,0-0.6l0-0.5l0-0.6L85.1,75.6z M85.2,73c-0.4-0.2-0.8-0.3-1.2-0.2c-0.6,0-1.1,0.5-1.4,1.3
			s-0.5,1.7-0.4,2.9c0,0.6,0.2,0.9,0.6,0.8c0.4,0,0.8-0.4,1.3-1c0.7-0.9,1-1.9,1.1-3L85.2,73z"/>
		<path class="st8" d="M89.8,77.7l-0.9,0.5l0-0.2l0-0.5l0-0.5l0.1-3.1l0-0.4c0-0.3,0-0.5,0-0.7c0-0.3-0.1-0.4-0.2-0.4
			c-0.3,0-0.6,0.4-1,1.2c-0.1-0.1-0.2-0.1-0.2-0.2c0-0.3,0.2-0.6,0.6-1.1c0.4-0.5,0.8-0.8,1.1-0.8c0.4,0,0.6,0.2,0.6,0.7
			c0,0.1,0,0.3,0,0.5l0,0.5l0,0.5l0,0.5c0.4-0.8,1-1.5,1.5-2.1c0.6-0.6,1.1-0.9,1.5-0.9c0.4,0,0.7,0.2,0.7,0.8c0,0.2,0,0.5,0,0.8
			l-0.2,2.5c0,0.5,0,0.9,0,1.2c0,0.2,0.1,0.3,0.2,0.3c0.3,0,0.6-0.5,1-1.3c0.1,0.1,0.2,0.1,0.2,0.2c0,0.3-0.2,0.7-0.6,1.2
			c-0.4,0.5-0.8,0.8-1.1,0.8c-0.3,0-0.5-0.2-0.6-0.7c0-0.4,0-0.9,0-1.5l0.1-1.6c0-0.5,0-0.9,0-1.3c0-0.3-0.2-0.5-0.4-0.5
			c-0.6,0-1.1,0.5-1.6,1.3c-0.5,0.8-0.8,1.7-0.8,2.6L89.8,77.7z"/>
		<path class="st8" d="M99.4,70.8l0-0.6c0-1.4,0.4-2.7,1.1-3.7c0.7-1,1.6-1.5,2.6-1.6c0.2,0,0.5,0,0.6,0l-0.8,1
			c-0.2-0.1-0.5-0.1-0.7,0c-0.6,0.1-1.1,0.3-1.4,0.8c-0.3,0.5-0.4,1.3-0.5,2.4l-0.2,5.6l0,0.4c0,0.4,0,0.7,0,0.8
			c0,0.2,0.1,0.3,0.2,0.3c0.4,0,0.7-0.5,1-1.3c0.1,0.1,0.2,0.1,0.2,0.2c0,0.2-0.1,0.5-0.5,1c-0.4,0.7-0.9,1-1.3,1.1
			c-0.3,0-0.5-0.2-0.6-0.7c0-0.2,0-0.5,0-1l0-0.6l0-0.5c-0.2,0.7-0.7,1.4-1.3,2c-0.6,0.7-1.1,1-1.6,1c-0.6,0-1-0.4-1-1.4
			c-0.1-1.3,0.2-2.5,1-3.6c0.8-1.1,1.7-1.7,2.7-1.8C99.2,70.8,99.3,70.8,99.4,70.8z M99.4,71.8c-0.4-0.2-0.7-0.2-1-0.2
			c-0.6,0.1-1.1,0.5-1.5,1.2c-0.4,0.8-0.5,1.7-0.4,2.9c0,0.6,0.2,0.9,0.6,0.8c0.4,0,0.8-0.4,1.3-1c0.6-0.8,1-1.8,1-3L99.4,71.8z"/>
		<path class="st8" d="M107.5,76.7c-0.1-1-0.2-2-0.4-2.9l-0.3-1.4c-0.2-0.8-0.4-1.2-0.7-1.2c-0.3,0-0.5,0.4-0.6,1.1
			c-0.1,0-0.2-0.1-0.2-0.2c0-0.3,0.1-0.7,0.4-1.1c0.3-0.4,0.5-0.6,0.8-0.7c0.4,0,0.7,0.3,1,0.9s0.5,1.7,0.8,3.3l0.1,0.4
			c0.6-1.5,1.1-2.8,1.4-4.1l0.7-0.8c0.1,0.6,0.2,1.1,0.3,1.4l0.2,1.1L111,73l0.4,1.7l0.1-0.3c0.9-1.8,1.3-2.9,1.2-3.3
			c0-0.3-0.2-0.5-0.4-0.6l0.7-0.8c0.3,0.2,0.5,0.4,0.5,0.7c0,0.4-0.2,1-0.6,1.9l-0.3,0.7l-0.4,0.9c-0.3,0.7-0.5,1.2-0.6,1.7
			l-0.7,0.9c-0.1-0.8-0.3-1.6-0.5-2.5l-0.2-0.6l-0.4-1.5l-0.3,0.6c-0.5,1.1-0.8,2.2-1.1,3.3L107.5,76.7z"/>
		<path class="st8" d="M116.2,72.2c0.8-1.9,1.7-3,2.6-3c0.2,0,0.5,0,0.7,0.1l-0.8,1.1c-0.1-0.1-0.3-0.1-0.5-0.1
			c-0.4,0-0.9,0.4-1.3,1.2c-0.4,0.8-0.7,1.6-0.7,2.4l0,1.6l-0.9,0.4l0-0.2l0-0.4l0-0.4l0.1-3.2l0-0.3c0-0.3,0-0.5,0-0.6
			c0-0.3-0.1-0.4-0.3-0.4c-0.3,0-0.7,0.4-0.9,1.2c-0.1-0.1-0.2-0.2-0.2-0.2c0-0.3,0.2-0.6,0.6-1.1c0.4-0.5,0.8-0.7,1.1-0.8
			c0.4,0,0.6,0.2,0.6,0.7c0,0.1,0,0.3,0,0.5l0,0.5l0,0.6L116.2,72.2z"/>
		<path class="st8" d="M122.9,73.3c0.1,0.1,0.2,0.1,0.2,0.2c0,0.2-0.1,0.5-0.5,1c-0.5,0.7-0.9,1-1.3,1.1c-0.3,0-0.5-0.2-0.5-0.6
			c0-0.2,0-0.7,0.1-1.7l0.1-1.8l0-0.5l0-0.4c0-0.2,0-0.3,0-0.4c0-0.2-0.1-0.3-0.2-0.3c-0.3,0-0.7,0.4-1,1.2
			c-0.1-0.1-0.1-0.1-0.1-0.2c0-0.3,0.2-0.7,0.6-1.1c0.4-0.5,0.8-0.8,1.1-0.8c0.3,0,0.5,0.2,0.5,0.7c0,0.1,0,0.3,0,0.5l0,0.5
			c0,0,0,0.2,0,0.5l-0.1,1.9l0,0.4c0,0.4,0,0.7,0,0.9c0,0.2,0.1,0.3,0.2,0.3C122.3,74.6,122.6,74.2,122.9,73.3z M121.2,68.1l0.4-1.4
			c0.5-0.2,0.8-0.6,1.1-0.9c0,0.1,0.1,0.1,0.1,0.2C122.9,66.6,122.3,67.3,121.2,68.1z"/>
		<path class="st8" d="M125.5,69.6l-0.1,3c0,0.5,0,0.9,0,1.2c0,0.5,0.2,0.7,0.6,0.7c0.4,0,0.7-0.4,1-1c0.1,0.1,0.1,0.2,0.1,0.2
			c0,0.2-0.2,0.6-0.6,0.9c-0.4,0.4-0.8,0.6-1.1,0.6c-0.6,0-1-0.3-1-1.1c0-0.3,0-0.8,0-1.5l0.1-3l-1.4,0.1l0.7-0.8l0.7-0.1l0-1.2
			l0.9-0.4l0,1.5l2.7-0.2l-0.7,0.8L125.5,69.6z"/>
		<path class="st8" d="M131.5,72.6c0.1,0.1,0.2,0.1,0.2,0.2c0,0.2-0.2,0.5-0.5,1c-0.5,0.7-0.9,1-1.3,1.1c-0.3,0-0.5-0.2-0.5-0.6
			c0-0.2,0-0.7,0.1-1.7l0.1-1.8l0-0.5l0-0.4c0-0.2,0-0.3,0-0.4c0-0.2-0.1-0.3-0.2-0.3c-0.3,0-0.7,0.4-1,1.2
			c-0.1-0.1-0.1-0.1-0.1-0.2c0-0.3,0.2-0.7,0.6-1.1c0.4-0.5,0.8-0.8,1.1-0.8c0.3,0,0.5,0.2,0.5,0.7c0,0.1,0,0.3,0,0.5l0,0.5
			c0,0,0,0.2,0,0.5l-0.1,1.9l0,0.4c0,0.4,0,0.7,0,0.9c0,0.2,0.1,0.3,0.2,0.3C130.9,73.9,131.2,73.5,131.5,72.6z M129.8,67.4l0.4-1.4
			c0.5-0.2,0.8-0.6,1.1-0.9c0,0.1,0.1,0.1,0.1,0.2C131.5,65.9,131,66.6,129.8,67.4z"/>
		<path class="st8" d="M134.2,74.1l-0.9,0.5l0-0.2l0-0.5l0-0.5l0.1-3.1l0-0.4c0-0.3,0-0.5,0-0.7c0-0.3-0.1-0.4-0.2-0.4
			c-0.3,0-0.6,0.4-1,1.2c-0.1-0.1-0.2-0.1-0.2-0.2c0-0.3,0.2-0.6,0.6-1.1c0.4-0.5,0.8-0.8,1.1-0.8c0.4,0,0.6,0.2,0.6,0.7
			c0,0.1,0,0.3,0,0.5l0,0.5l0,0.5l0,0.5c0.4-0.8,1-1.5,1.5-2.1s1.1-0.9,1.5-0.9c0.4,0,0.7,0.2,0.7,0.8c0,0.2,0,0.5,0,0.8l-0.2,2.5
			c0,0.5,0,0.9,0,1.2c0,0.2,0.1,0.3,0.2,0.3c0.3,0,0.6-0.5,1-1.3c0.1,0.1,0.2,0.1,0.2,0.2c0,0.3-0.2,0.7-0.6,1.2
			c-0.4,0.5-0.8,0.8-1.1,0.8c-0.3,0-0.5-0.2-0.6-0.7c0-0.4,0-0.9,0-1.5l0.1-1.6c0-0.5,0-0.9,0-1.3c0-0.3-0.2-0.5-0.4-0.5
			c-0.6,0-1.1,0.5-1.6,1.3c-0.5,0.8-0.8,1.7-0.8,2.6L134.2,74.1z"/>
		<path class="st8" d="M144.9,67.4c0,0.1,0,0.1,0,0.2l0,0.4c0,0.3-0.1,0.4-0.1,0.4l-0.1,2.5c0,0.4,0,1.1,0,2.2c0,1.3,0,2.2-0.1,2.9
			c-0.1,0.6-0.4,1.2-0.8,1.7c-0.9,1.2-2,1.8-3.2,1.9c-0.6,0-1-0.1-1.4-0.5c-0.4-0.4-0.6-0.8-0.7-1.4c-0.1-1.2,0.5-2.4,1.8-3.7
			c-0.3-0.2-0.5-0.6-0.6-1.3c-0.1-1.3,0.2-2.5,1-3.6c0.8-1.1,1.8-1.6,2.9-1.7C144.2,67.2,144.6,67.3,144.9,67.4z M143.8,71
			c-1,1.9-2,2.9-2.9,3c0,0-0.1,0-0.2,0c-0.9,1.1-1.4,2.1-1.3,2.9c0,0.6,0.3,1,0.7,1.3c0.4,0.3,0.9,0.5,1.5,0.4
			c0.9-0.1,1.5-0.5,1.9-1.3c0.3-0.6,0.4-2.1,0.4-4.4C143.8,72,143.8,71.4,143.8,71z M143.8,68.3c-0.3-0.2-0.7-0.3-1.2-0.2
			c-0.6,0-1.1,0.5-1.4,1.3c-0.3,0.8-0.5,1.8-0.4,2.9c0,0.6,0.2,0.9,0.6,0.8c0.4,0,0.8-0.4,1.3-1c0.7-0.9,1.1-1.9,1.1-3L143.8,68.3z"
			/>
		<path class="st8" d="M145.8,73.3l0.8-0.8c0.4,0.3,0.8,0.5,1.3,0.4c0.6,0,0.9-0.4,0.9-1c0-0.3-0.4-0.8-1-1.4l-0.4-0.4
			c-0.6-0.5-0.9-1-0.9-1.3c0-0.5,0.1-1,0.5-1.4c0.4-0.4,0.9-0.6,1.6-0.7c0.3,0,0.7,0,1.2,0.1l-0.7,0.8c-0.3-0.2-0.7-0.3-1.1-0.3
			c-0.5,0-0.7,0.3-0.7,0.7c0,0.3,0.3,0.7,0.9,1.2l0.4,0.4c0.6,0.6,1,1.1,1,1.5c0,0.6-0.2,1.1-0.7,1.5c-0.5,0.5-1.1,0.7-1.8,0.8
			C146.7,73.5,146.2,73.5,145.8,73.3z"/>
		<path class="st8" d="M47.5,94.7c-0.4,0.9-0.9,1.6-1.4,2.2c-0.5,0.6-1,0.9-1.5,0.9c-0.6,0-0.9-0.4-1-1.4c-0.1-1.3,0.2-2.6,1-3.6
			c0.8-1.1,1.8-1.6,2.9-1.7c0.4,0,0.8,0,1.2,0.1c0,0.1,0,0.1,0,0.1l0,0.4c0,0.2,0,0.4,0,0.4l-0.2,3l0,0.4c0,0.4,0,0.7,0,0.9
			c0,0.2,0.1,0.3,0.2,0.3c0.4,0,0.7-0.5,1-1.3c0.1,0.1,0.2,0.1,0.2,0.2c0,0.2-0.1,0.5-0.5,1c-0.5,0.7-0.9,1-1.3,1.1
			c-0.3,0-0.5-0.2-0.5-0.6c0-0.1,0-0.3,0-0.6l0-0.5l0-0.6L47.5,94.7z M47.7,92c-0.4-0.2-0.8-0.3-1.2-0.2c-0.6,0-1.1,0.5-1.4,1.3
			c-0.3,0.8-0.5,1.7-0.4,2.9c0,0.6,0.2,0.9,0.6,0.8c0.4,0,0.8-0.4,1.3-1c0.7-0.9,1-1.9,1.1-3L47.7,92z"/>
		<path class="st8" d="M51.9,93.4c0.4-0.9,0.9-1.6,1.4-2.2s1-0.9,1.4-0.9c0.6,0,1,0.5,1.1,1.6c0.1,1.3-0.2,2.5-1,3.5
			c-0.7,1-1.7,1.6-2.9,1.7c-0.1,0-0.3,0-0.4,0l-0.5,0c0,0-0.1,0-0.2,0c0.1-0.3,0.1-0.7,0.1-1.1l0.2-5.8c0-1.4,0.4-2.6,1.2-3.7
			s1.7-1.6,2.7-1.7c0.2,0,0.4,0,0.6,0l-0.9,1c-0.3-0.1-0.5-0.1-0.7-0.1c-1.3,0.1-2,1.2-2,3.3L51.9,93.4z M51.8,96.1
			c0.4,0.2,0.8,0.3,1.2,0.2c0.6,0,1-0.4,1.4-1.2c0.3-0.7,0.4-1.7,0.3-2.8c-0.1-0.7-0.3-1-0.6-0.9c-0.4,0-0.8,0.4-1.3,1
			c-0.6,0.9-1,1.9-1,3L51.8,96.1z"/>
		<path class="st8" d="M58.4,96.7c-1,0.1-1.5-0.5-1.6-1.9c-0.1-1.1,0.2-2.1,0.9-3.2c0.7-1,1.4-1.6,2.2-1.7c1-0.1,1.5,0.5,1.6,1.9
			c0.1,1.1-0.2,2.1-0.9,3.2C60,96,59.2,96.6,58.4,96.7z M59.1,95.9c0.5,0,0.9-0.4,1.2-1c0.3-0.6,0.4-1.3,0.3-2.2
			c-0.1-1.4-0.6-2-1.4-2c-0.5,0-0.9,0.4-1.2,1s-0.4,1.3-0.3,2.2C57.8,95.3,58.3,95.9,59.1,95.9z"/>
		<path class="st8" d="M67.1,93.2c-0.4,0.8-0.9,1.5-1.5,2.1c-0.6,0.6-1.1,0.9-1.4,0.9c-0.4,0-0.7-0.2-0.7-0.8c0-0.2,0-0.6,0-1.1
			l0.1-2.2c0,0,0-0.2,0-0.4l0-0.4c0-0.1,0-0.2,0-0.3c0-0.3-0.1-0.4-0.2-0.4c-0.3,0-0.7,0.4-1,1.2c-0.1-0.1-0.1-0.1-0.1-0.2
			c0-0.3,0.2-0.7,0.6-1.2c0.4-0.5,0.8-0.8,1.1-0.8c0.4,0,0.6,0.2,0.6,0.7c0,0.1,0,0.3,0,0.4l0,0.5l0,0.6l-0.1,1.9c0,0.3,0,0.7,0,1
			c0,0.3,0.1,0.5,0.4,0.4c0.5,0,1-0.5,1.6-1.4c0.5-0.9,0.8-1.7,0.9-2.5l0.1-1.6l1-0.5c-0.1,0.5-0.1,1-0.2,1.4L68,93.5
			c0,0.2,0,0.3,0,0.4l0,0.4c0,0.2,0,0.4,0,0.5c0,0.2,0.1,0.3,0.2,0.3c0.4,0,0.7-0.5,1-1.3c0.1,0.1,0.2,0.1,0.2,0.2
			c0,0.2-0.2,0.5-0.5,1c-0.5,0.7-0.9,1-1.3,1.1c-0.3,0-0.5-0.2-0.5-0.6c0-0.1,0-0.3,0-0.6l0-0.5c0-0.3,0-0.5,0-0.6L67.1,93.2z"/>
		<path class="st8" d="M71.7,90l-0.1,3c0,0.5,0,0.9,0,1.2c0,0.5,0.2,0.7,0.6,0.7c0.4,0,0.7-0.4,1-1c0.1,0.1,0.1,0.2,0.1,0.2
			c0,0.2-0.2,0.6-0.6,0.9c-0.4,0.4-0.8,0.6-1.1,0.6c-0.6,0-1-0.3-1-1.1c0-0.3,0-0.8,0-1.5l0.1-3l-1.4,0.1l0.7-0.8l0.7-0.1l0-1.2
			l0.9-0.4l0,1.6l2.7-0.2l-0.7,0.8L71.7,90z"/>
		<path class="st8" d="M80.1,89.3l-0.1,3c0,0.5,0,0.9,0,1.2c0,0.5,0.2,0.7,0.6,0.7c0.4,0,0.7-0.4,1-1c0.1,0.1,0.1,0.2,0.1,0.2
			c0,0.2-0.2,0.6-0.6,0.9c-0.4,0.4-0.8,0.6-1.1,0.6c-0.6,0-1-0.3-1-1.1c0-0.3,0-0.8,0-1.5l0.1-3l-1.4,0.1l0.7-0.8l0.7-0.1l0-1.2
			l0.9-0.4l0,1.6l2.7-0.2l-0.7,0.8L80.1,89.3z"/>
		<path class="st8" d="M86.8,92.1c0.1,0.1,0.2,0.2,0.2,0.3c0,0.1-0.1,0.4-0.4,0.7c-0.7,0.9-1.4,1.4-2.1,1.5c-0.4,0-0.8-0.1-1.1-0.5
			c-0.3-0.3-0.5-0.8-0.5-1.3c-0.1-1,0.2-2.1,0.9-3.2c0.7-1.1,1.4-1.7,2.1-1.7c0.5,0,0.8,0.2,0.9,0.8c0.1,0.7-0.2,1.3-0.8,2
			c-0.6,0.7-1.3,1.2-2.1,1.5c0.2,1.1,0.6,1.6,1.4,1.5C85.9,93.6,86.4,93.1,86.8,92.1z M83.8,91.3c0.1,0,0.2,0,0.3,0
			c0.5,0,1-0.2,1.4-0.6S86,90,86,89.5c0-0.5-0.3-0.8-0.8-0.7c-0.4,0-0.7,0.3-1,0.8C83.9,90,83.8,90.6,83.8,91.3z"/>
		<path class="st8" d="M92,87.6l-0.7,1c-0.4-0.1-0.7-0.2-1-0.1c-0.6,0-1,0.3-1.3,0.8c-0.3,0.5-0.4,1.2-0.3,2.1
			c0,0.6,0.2,1.1,0.5,1.4c0.3,0.3,0.6,0.5,1,0.5c0.6-0.1,1.1-0.5,1.4-1.4c0.1,0.1,0.2,0.2,0.2,0.3c0,0.4-0.2,0.8-0.7,1.3
			c-0.5,0.5-1,0.8-1.5,0.8c-0.5,0-0.8-0.1-1.2-0.5c-0.3-0.3-0.5-0.8-0.5-1.4c-0.1-1.1,0.2-2.2,0.9-3.2s1.5-1.5,2.4-1.6
			C91.5,87.4,91.8,87.5,92,87.6z"/>
		<path class="st8" d="M94.5,89.9c0.4-0.8,0.9-1.5,1.5-2.1c0.6-0.6,1.1-0.9,1.5-0.9c0.4,0,0.7,0.2,0.7,0.8c0,0.2,0,0.5,0,0.8
			L98,91.1c0,0.5,0,0.9,0,1.2c0,0.2,0.1,0.3,0.2,0.3c0.3,0,0.6-0.5,1-1.3c0.1,0.1,0.2,0.1,0.2,0.2c0,0.3-0.2,0.7-0.6,1.2
			s-0.8,0.8-1.1,0.8c-0.3,0-0.5-0.2-0.6-0.7c0-0.4,0-0.9,0-1.5l0.1-1.6c0-0.5,0-1,0-1.3c0-0.3-0.2-0.5-0.4-0.5
			c-0.6,0-1.1,0.5-1.6,1.3c-0.5,0.8-0.8,1.7-0.8,2.6l0,1.6l-0.9,0.5l0-0.2l0-0.5l0-0.5l0.2-5.9c0-1.4,0.4-2.6,1.2-3.6
			c0.8-1,1.7-1.6,2.7-1.7c0.2,0,0.4,0,0.6,0l-0.9,1c-0.3-0.1-0.5-0.1-0.7-0.1c-1.3,0.1-2,1.2-2,3.3L94.5,89.9z"/>
		<path class="st8" d="M107.6,89.9c-0.4,0.9-0.9,1.6-1.4,2.2c-0.5,0.6-1,0.9-1.5,0.9c-0.6,0-0.9-0.4-1-1.4c-0.1-1.3,0.2-2.6,1-3.6
			s1.8-1.6,2.9-1.7c0.4,0,0.8,0,1.2,0.1c0,0.1,0,0.1,0,0.1l0,0.4c0,0.2,0,0.4-0.1,0.4l-0.2,3l0,0.4c0,0.4,0,0.7,0,0.9
			c0,0.2,0.1,0.3,0.2,0.3c0.4,0,0.7-0.5,1-1.3c0.1,0.1,0.2,0.1,0.2,0.2c0,0.2-0.1,0.5-0.5,1c-0.5,0.7-0.9,1-1.3,1.1
			c-0.3,0-0.5-0.2-0.5-0.6c0-0.1,0-0.3,0-0.6l0-0.5l0-0.6L107.6,89.9z M107.8,87.2c-0.4-0.2-0.8-0.3-1.2-0.2c-0.6,0-1.1,0.5-1.4,1.3
			c-0.4,0.8-0.5,1.7-0.4,2.9c0,0.6,0.2,0.9,0.6,0.8c0.4,0,0.8-0.4,1.3-1c0.7-0.9,1-1.9,1.1-3L107.8,87.2z"/>
		<path class="st8" d="M112.4,91.9l-0.9,0.5l0-0.2l0-0.5l0-0.5l0.1-3.1l0-0.4c0-0.3,0-0.5,0-0.7c0-0.3-0.1-0.4-0.2-0.4
			c-0.3,0-0.6,0.4-1,1.2c-0.1-0.1-0.2-0.1-0.2-0.2c0-0.3,0.2-0.6,0.6-1.1c0.4-0.5,0.8-0.8,1.1-0.8c0.4,0,0.6,0.2,0.6,0.7
			c0,0.1,0,0.3,0,0.5l0,0.5l0,0.5l0,0.5c0.4-0.8,1-1.5,1.5-2.1c0.6-0.6,1.1-0.9,1.5-0.9c0.4,0,0.7,0.2,0.7,0.8c0,0.2,0,0.5,0,0.8
			l-0.2,2.5c0,0.5,0,0.9,0,1.2c0,0.2,0.1,0.3,0.2,0.3c0.3,0,0.6-0.5,1-1.3c0.1,0.1,0.2,0.1,0.2,0.2c0,0.3-0.2,0.7-0.6,1.2
			c-0.4,0.5-0.8,0.8-1.1,0.8c-0.3,0-0.5-0.2-0.6-0.7c0-0.4,0-0.9,0-1.5l0.1-1.6c0-0.5,0-0.9,0-1.3c0-0.4-0.2-0.5-0.4-0.5
			c-0.6,0-1.1,0.5-1.6,1.3s-0.8,1.7-0.8,2.6L112.4,91.9z"/>
		<path class="st8" d="M122,85.1l0-0.6c0-1.4,0.4-2.7,1.1-3.7c0.7-1,1.6-1.5,2.6-1.6c0.2,0,0.5,0,0.6,0l-0.8,1
			c-0.2-0.1-0.5-0.1-0.7,0c-0.6,0.1-1.1,0.3-1.4,0.8c-0.3,0.5-0.4,1.3-0.5,2.4l-0.2,5.6l0,0.4c0,0.4,0,0.7,0,0.8
			c0,0.2,0.1,0.3,0.2,0.3c0.4,0,0.7-0.5,1-1.3c0.1,0.1,0.2,0.1,0.2,0.2c0,0.2-0.1,0.5-0.5,1c-0.4,0.7-0.9,1-1.3,1.1
			c-0.3,0-0.5-0.2-0.6-0.7c0-0.2,0-0.5,0-1l0-0.6l0-0.5c-0.2,0.7-0.7,1.4-1.3,2c-0.6,0.7-1.1,1-1.6,1c-0.6,0-1-0.4-1-1.4
			c-0.1-1.3,0.2-2.5,1-3.6c0.8-1.1,1.7-1.7,2.7-1.8C121.8,85.1,121.9,85.1,122,85.1z M121.9,86.1c-0.4-0.2-0.7-0.2-1-0.2
			c-0.6,0.1-1.1,0.5-1.5,1.2c-0.4,0.8-0.5,1.7-0.4,2.9c0,0.6,0.2,0.9,0.6,0.8c0.4,0,0.8-0.4,1.3-1c0.6-0.8,1-1.8,1-3L121.9,86.1z"/>
		<path class="st8" d="M133.2,87.8c-0.4,0.9-0.8,1.6-1.2,2.1c-0.4,0.6-0.8,0.9-1.1,0.9c-0.4,0-0.7-0.4-0.8-1.3l-0.1-0.9l-0.2-1.9
			l-0.1-0.5c-0.1-0.7-0.3-1.1-0.5-1c-0.3,0-0.6,0.4-0.9,1.1c-0.1-0.1-0.2-0.2-0.2-0.2c0-0.2,0.2-0.6,0.6-1c0.4-0.4,0.7-0.6,1-0.7
			c0.3,0,0.5,0.1,0.6,0.3c0.1,0.2,0.2,0.7,0.3,1.4l0.3,2.3c0.1,0.9,0.3,1.3,0.5,1.3c0.3,0,0.7-0.5,1.2-1.3c0.5-0.9,0.7-1.7,0.8-2.5
			l0.1-1.4l1.1-0.5c-0.1,0.4-0.2,1-0.3,1.8l-0.5,4.5c-0.2,1.8-0.6,3.1-1.3,4c-1,1.3-2.2,2-3.6,2.2c-0.3,0-0.6,0-1-0.1l0.7-1
			c0.4,0.2,0.9,0.2,1.3,0.2c0.9-0.1,1.5-0.4,2-1.1c0.4-0.6,0.7-1.8,0.9-3.4L133.2,87.8z"/>
		<path class="st8" d="M137.3,90.3c-1,0.1-1.5-0.5-1.6-1.9c-0.1-1.1,0.2-2.1,0.9-3.2c0.7-1,1.4-1.6,2.2-1.7c1-0.1,1.5,0.5,1.6,1.9
			c0.1,1.1-0.2,2.1-0.9,3.2C138.9,89.7,138.1,90.3,137.3,90.3z M138,89.5c0.5,0,0.9-0.4,1.2-1c0.3-0.6,0.4-1.3,0.3-2.2
			c-0.1-1.4-0.6-2-1.4-2c-0.5,0-0.9,0.4-1.2,1c-0.3,0.6-0.4,1.3-0.3,2.2C136.7,88.9,137.2,89.6,138,89.5z"/>
		<path class="st8" d="M146,86.8c-0.4,0.8-0.9,1.5-1.5,2.1c-0.6,0.6-1.1,0.9-1.4,0.9c-0.4,0-0.7-0.2-0.7-0.8c0-0.2,0-0.6,0-1.1
			l0.1-2.2c0,0,0-0.2,0-0.4l0-0.4c0-0.1,0-0.2,0-0.3c0-0.3-0.1-0.4-0.2-0.4c-0.3,0-0.7,0.4-1,1.2c-0.1-0.1-0.1-0.1-0.1-0.2
			c0-0.3,0.2-0.7,0.6-1.2c0.4-0.5,0.8-0.8,1.1-0.8c0.4,0,0.6,0.2,0.6,0.7c0,0.1,0,0.3,0,0.4l0,0.5l0,0.6l0,1.9c0,0.3,0,0.7,0,1
			c0,0.3,0.1,0.5,0.4,0.4c0.5,0,1-0.5,1.6-1.4s0.8-1.7,0.9-2.5l0.1-1.6l1-0.5c-0.1,0.5-0.1,1-0.2,1.4l-0.2,2.8c0,0.2,0,0.3,0,0.4
			l0,0.4c0,0.2,0,0.4,0,0.5c0,0.2,0.1,0.3,0.2,0.3c0.4,0,0.7-0.5,1-1.3c0.1,0.1,0.2,0.1,0.2,0.2c0,0.2-0.2,0.5-0.5,1
			c-0.5,0.7-0.9,1-1.3,1.1c-0.3,0-0.5-0.2-0.5-0.6c0-0.1,0-0.3,0-0.6l0-0.5c0-0.3,0-0.5,0-0.6L146,86.8z"/>
		<path class="st8" d="M50.3,113l0.8-0.8c0.4,0.3,0.8,0.5,1.3,0.4c0.6,0,0.9-0.4,0.9-1c0-0.3-0.4-0.8-1-1.4l-0.4-0.4
			c-0.6-0.5-0.9-1-0.9-1.3c0-0.5,0.1-1,0.5-1.4s0.9-0.6,1.6-0.7c0.3,0,0.7,0,1.2,0.1l-0.7,0.8c-0.3-0.2-0.7-0.3-1.1-0.3
			c-0.5,0-0.7,0.3-0.7,0.7c0,0.3,0.3,0.7,0.9,1.2l0.4,0.4c0.6,0.6,1,1.1,1,1.5c0,0.6-0.2,1.1-0.7,1.5c-0.5,0.5-1.1,0.7-1.8,0.8
			C51.2,113.3,50.8,113.2,50.3,113z"/>
		<path class="st8" d="M56.9,109c0.4-0.8,0.9-1.5,1.5-2.1c0.6-0.6,1.1-0.9,1.5-0.9c0.4,0,0.7,0.2,0.7,0.8c0,0.2,0,0.5,0,0.8
			l-0.1,2.5c0,0.5,0,0.9,0,1.2c0,0.2,0.1,0.3,0.2,0.3c0.3,0,0.6-0.5,1-1.3c0.1,0.1,0.2,0.1,0.2,0.2c0,0.3-0.2,0.7-0.6,1.2
			c-0.4,0.5-0.8,0.8-1.1,0.8c-0.3,0-0.5-0.2-0.6-0.7c0-0.4,0-0.9,0-1.5l0.1-1.6c0-0.5,0-1,0-1.3c0-0.3-0.2-0.5-0.4-0.5
			c-0.6,0-1.1,0.5-1.6,1.3c-0.5,0.8-0.8,1.7-0.8,2.6l0,1.6l-0.9,0.5l0-0.2l0-0.5l0-0.5l0.2-5.9c0-1.4,0.4-2.6,1.2-3.6
			c0.8-1,1.7-1.6,2.7-1.7c0.2,0,0.4,0,0.6,0l-0.9,1c-0.3-0.1-0.5-0.1-0.7-0.1c-1.3,0.1-2,1.2-2,3.3L56.9,109z"/>
		<path class="st8" d="M64,112.3c-1,0.1-1.5-0.5-1.6-1.9c-0.1-1.1,0.2-2.1,0.9-3.2s1.4-1.6,2.2-1.7c1-0.1,1.5,0.5,1.6,1.9
			c0.1,1.1-0.2,2.1-0.9,3.2S64.8,112.2,64,112.3z M64.7,111.5c0.5,0,0.9-0.4,1.2-1s0.4-1.3,0.3-2.2c-0.1-1.4-0.6-2-1.4-2
			c-0.5,0-0.9,0.4-1.2,1c-0.3,0.6-0.4,1.3-0.3,2.2C63.4,110.9,63.9,111.5,64.7,111.5z"/>
		<path class="st8" d="M72.7,108.8c-0.4,0.8-0.9,1.5-1.5,2.1c-0.6,0.6-1.1,0.9-1.4,0.9c-0.4,0-0.7-0.2-0.7-0.8c0-0.2,0-0.6,0-1.1
			l0.1-2.2c0,0,0-0.2,0-0.4l0-0.4c0-0.1,0-0.2,0-0.3c0-0.3-0.1-0.4-0.2-0.4c-0.3,0-0.7,0.4-1,1.2c-0.1-0.1-0.1-0.1-0.1-0.2
			c0-0.3,0.2-0.7,0.6-1.2c0.4-0.5,0.8-0.8,1.1-0.8c0.4,0,0.6,0.2,0.6,0.7c0,0.1,0,0.3,0,0.4l0,0.5l0,0.6l-0.1,1.9c0,0.3,0,0.7,0,1
			c0,0.3,0.1,0.5,0.4,0.4c0.5,0,1-0.5,1.6-1.4c0.5-0.9,0.8-1.7,0.9-2.5l0.1-1.6l1-0.4c-0.1,0.5-0.1,1-0.2,1.4l-0.2,2.8
			c0,0.2,0,0.3,0,0.4l0,0.4c0,0.2,0,0.4,0,0.5c0,0.2,0.1,0.3,0.2,0.3c0.4,0,0.7-0.5,1-1.3c0.1,0.1,0.2,0.1,0.2,0.2
			c0,0.2-0.2,0.5-0.5,1c-0.5,0.7-0.9,1-1.3,1.1c-0.3,0-0.5-0.2-0.5-0.6c0-0.1,0-0.3,0-0.6l0-0.5c0-0.3,0-0.5,0-0.6L72.7,108.8z"/>
		<path class="st8" d="M78.1,109c0.1,0.1,0.2,0.1,0.2,0.2c0,0.3-0.2,0.7-0.6,1.2c-0.4,0.5-0.8,0.8-1.1,0.8c-0.4,0-0.6-0.2-0.6-0.8
			c0-0.3,0-0.7,0-1l0-0.6l0.1-4.7c0-1.4,0.4-2.6,1.1-3.6c0.7-1,1.6-1.6,2.6-1.6c0.3,0,0.5,0,0.6,0l-0.8,1c-0.2-0.1-0.4-0.1-0.7,0
			c-0.6,0.1-1.1,0.3-1.4,0.8c-0.3,0.5-0.4,1.3-0.5,2.4l-0.2,5.6c0,0.4,0,0.7,0,0.9c0,0.4,0.1,0.6,0.2,0.6c0.2,0,0.3-0.2,0.5-0.4
			C77.9,109.6,78.1,109.3,78.1,109z"/>
		<path class="st8" d="M83,104.3l0-0.6c0-1.4,0.4-2.7,1.1-3.7c0.7-1,1.6-1.5,2.6-1.6c0.2,0,0.5,0,0.6,0l-0.8,1
			c-0.2-0.1-0.5-0.1-0.7,0c-0.6,0.1-1.1,0.3-1.4,0.8c-0.3,0.5-0.4,1.3-0.5,2.4l-0.2,5.6l0,0.4c0,0.4,0,0.7,0,0.8
			c0,0.2,0.1,0.3,0.2,0.3c0.4,0,0.7-0.5,1-1.3c0.1,0.1,0.2,0.1,0.2,0.2c0,0.2-0.1,0.5-0.4,1c-0.4,0.7-0.9,1-1.3,1.1
			c-0.3,0-0.5-0.2-0.6-0.7c0-0.2,0-0.5,0-1l0-0.6l0-0.5c-0.2,0.7-0.7,1.4-1.3,2c-0.6,0.7-1.1,1-1.6,1c-0.6,0-1-0.4-1-1.4
			c-0.1-1.3,0.2-2.5,1-3.6c0.8-1.1,1.7-1.7,2.7-1.8C82.8,104.3,82.9,104.3,83,104.3z M83,105.2c-0.4-0.2-0.7-0.2-1-0.2
			c-0.6,0.1-1.1,0.5-1.5,1.2c-0.4,0.8-0.5,1.7-0.4,2.9c0,0.6,0.2,0.9,0.6,0.8c0.4,0,0.8-0.4,1.3-1c0.6-0.8,1-1.8,1-3L83,105.2z"/>
		<path class="st8" d="M91.5,106.3c0.8-1.9,1.7-3,2.6-3c0.2,0,0.5,0,0.7,0.1l-0.8,1.1c-0.1-0.1-0.3-0.1-0.5-0.1
			c-0.4,0-0.9,0.4-1.3,1.2s-0.7,1.6-0.7,2.4l0,1.6l-0.9,0.4l0-0.2l0-0.4l0-0.4l0.1-3.2l0-0.3c0-0.3,0-0.5,0-0.6
			c0-0.3-0.1-0.4-0.3-0.4c-0.3,0-0.7,0.4-0.9,1.2c-0.1-0.1-0.2-0.2-0.2-0.2c0-0.3,0.2-0.6,0.6-1.1c0.4-0.5,0.8-0.7,1.1-0.8
			c0.4,0,0.6,0.2,0.6,0.7c0,0.1,0,0.3,0,0.5l0,0.5l0,0.6L91.5,106.3z"/>
		<path class="st8" d="M98.8,107.2c0.1,0.1,0.2,0.2,0.2,0.3c0,0.1-0.1,0.4-0.4,0.7c-0.7,0.9-1.4,1.4-2.1,1.5c-0.4,0-0.8-0.1-1.1-0.5
			c-0.3-0.3-0.5-0.8-0.5-1.3c-0.1-1,0.2-2.1,0.9-3.2c0.7-1.1,1.4-1.7,2.1-1.7c0.5,0,0.8,0.2,0.9,0.8c0.1,0.7-0.2,1.3-0.8,2
			c-0.6,0.7-1.3,1.2-2.1,1.5c0.2,1.1,0.6,1.6,1.4,1.5C97.9,108.7,98.4,108.2,98.8,107.2z M95.7,106.4c0.1,0,0.2,0,0.3,0
			c0.5,0,1-0.2,1.4-0.6c0.4-0.4,0.5-0.8,0.5-1.2c0-0.5-0.3-0.8-0.8-0.7c-0.4,0-0.7,0.3-1,0.8C95.9,105.1,95.8,105.7,95.7,106.4z"/>
		<path class="st8" d="M103.8,106.2c-0.4,0.9-0.9,1.6-1.4,2.2s-1,0.9-1.5,0.9c-0.6,0-0.9-0.4-1-1.4c-0.1-1.3,0.2-2.6,1-3.6
			c0.8-1.1,1.8-1.6,2.9-1.7c0.5,0,0.8,0,1.2,0.1c0,0.1,0,0.1,0,0.1l0,0.4c0,0.2,0,0.4,0,0.4l-0.2,3l0,0.4c0,0.4,0,0.7,0,0.9
			c0,0.2,0.1,0.3,0.2,0.3c0.4,0,0.7-0.5,1-1.3c0.1,0.1,0.2,0.1,0.2,0.2c0,0.2-0.1,0.5-0.5,1c-0.5,0.7-0.9,1-1.3,1.1
			c-0.3,0-0.5-0.2-0.5-0.6c0-0.1,0-0.3,0-0.6l0-0.5l0-0.6L103.8,106.2z M103.9,103.6c-0.4-0.2-0.8-0.3-1.2-0.2
			c-0.6,0-1.1,0.5-1.4,1.3c-0.4,0.8-0.5,1.7-0.4,2.9c0,0.6,0.2,0.9,0.6,0.8c0.4,0,0.8-0.4,1.3-1c0.7-0.9,1-1.9,1.1-3L103.9,103.6z"
			/>
		<path class="st8" d="M110.6,102l0-0.6c0-1.4,0.4-2.7,1.1-3.7c0.7-1,1.6-1.5,2.6-1.6c0.2,0,0.5,0,0.6,0l-0.8,1
			c-0.2-0.1-0.5-0.1-0.7,0c-0.6,0.1-1.1,0.3-1.4,0.8c-0.3,0.5-0.4,1.3-0.5,2.4l-0.2,5.6l0,0.4c0,0.4,0,0.7,0,0.8
			c0,0.2,0.1,0.3,0.2,0.3c0.4,0,0.7-0.5,1-1.3c0.1,0.1,0.2,0.1,0.2,0.2c0,0.2-0.1,0.5-0.5,1c-0.4,0.7-0.9,1-1.3,1.1
			c-0.3,0-0.5-0.2-0.6-0.7c0-0.2,0-0.5,0-1l0-0.6l0-0.5c-0.2,0.7-0.7,1.4-1.3,2c-0.6,0.7-1.1,1-1.6,1c-0.6,0-1-0.4-1-1.4
			c-0.1-1.3,0.2-2.5,1-3.6c0.8-1.1,1.7-1.7,2.7-1.8C110.4,102,110.5,102,110.6,102z M110.6,103c-0.4-0.2-0.7-0.2-1-0.2
			c-0.6,0.1-1.1,0.5-1.5,1.2c-0.4,0.8-0.5,1.7-0.4,2.9c0,0.6,0.2,0.9,0.6,0.8c0.4,0,0.8-0.4,1.3-1c0.6-0.8,1-1.8,1-3L110.6,103z"/>
		<path class="st8" d="M118.9,102.2l-0.1,3c0,0.5,0,0.9,0,1.2c0,0.5,0.2,0.7,0.6,0.7c0.4,0,0.7-0.4,1-1c0.1,0.1,0.1,0.2,0.1,0.2
			c0,0.2-0.2,0.6-0.6,0.9c-0.4,0.4-0.8,0.6-1.1,0.6c-0.6,0-1-0.3-1-1.1c0-0.3,0-0.8,0-1.5l0.1-3l-1.4,0.1l0.7-0.8l0.7-0.1l0-1.2
			l0.9-0.4l0,1.6l2.7-0.2l-0.7,0.8L118.9,102.2z"/>
		<path class="st8" d="M123.4,103.6c0.4-0.8,0.9-1.5,1.5-2.1c0.6-0.6,1.1-0.9,1.5-0.9c0.4,0,0.7,0.2,0.7,0.8c0,0.2,0,0.5,0,0.8
			l-0.1,2.5c0,0.5,0,0.9,0,1.2c0,0.2,0.1,0.3,0.2,0.3c0.3,0,0.6-0.5,1-1.3c0.1,0.1,0.2,0.1,0.2,0.2c0,0.3-0.2,0.7-0.6,1.2
			c-0.4,0.5-0.8,0.8-1.1,0.8c-0.3,0-0.5-0.2-0.6-0.7c0-0.4,0-0.9,0-1.5l0.1-1.6c0-0.5,0-1,0-1.3c0-0.3-0.2-0.5-0.4-0.5
			c-0.6,0-1.1,0.5-1.6,1.3c-0.5,0.8-0.8,1.7-0.8,2.6l0,1.6l-0.9,0.5l0-0.2l0-0.5l0-0.5l0.2-5.9c0-1.4,0.4-2.6,1.2-3.6
			c0.8-1,1.7-1.6,2.7-1.7c0.2,0,0.4,0,0.6,0l-0.9,1c-0.3-0.1-0.5-0.1-0.7-0.1c-1.3,0.1-2,1.2-2,3.3L123.4,103.6z"/>
		<path class="st8" d="M132.8,104.4c0.1,0.1,0.2,0.2,0.2,0.3c0,0.1-0.1,0.4-0.4,0.7c-0.7,0.9-1.4,1.4-2.1,1.5
			c-0.4,0-0.8-0.1-1.1-0.5c-0.3-0.3-0.5-0.8-0.5-1.3c-0.1-1,0.2-2.1,0.9-3.2c0.7-1.1,1.4-1.7,2.1-1.7c0.5,0,0.8,0.2,0.9,0.8
			c0.1,0.7-0.2,1.3-0.8,2s-1.3,1.2-2.1,1.5c0.2,1.1,0.6,1.6,1.4,1.5C131.9,106,132.4,105.4,132.8,104.4z M129.8,103.7
			c0.1,0,0.2,0,0.3,0c0.5,0,1-0.2,1.4-0.6c0.4-0.4,0.5-0.8,0.5-1.2c0-0.5-0.3-0.8-0.8-0.7c-0.4,0-0.7,0.3-1,0.8
			C129.9,102.4,129.8,103,129.8,103.7z"/>
		<path class="st8" d="M139,105.8l-0.9,0.5l0-0.2l0-0.5l0-0.5l0.1-3l0-0.3c0-0.2,0-0.4,0-0.5c0-0.4-0.2-0.6-0.4-0.6
			c-0.4,0-0.8,0.5-1.3,1.4c-0.5,0.9-0.7,1.7-0.7,2.5l0,1.6l-0.9,0.5l0-0.2l0-0.5l0-0.5l0.1-3.1l0-0.4c0-0.3,0-0.5,0-0.7
			c0-0.3-0.1-0.4-0.2-0.4c-0.3,0-0.6,0.4-1,1.2c-0.1-0.1-0.2-0.1-0.2-0.2c0-0.3,0.2-0.6,0.6-1.1c0.4-0.5,0.8-0.8,1.1-0.8
			c0.4,0,0.6,0.2,0.6,0.7c0,0.1,0,0.3,0,0.5l0,0.5l0,0.5l0,0.5l0.2-0.3c0.8-1.7,1.7-2.6,2.5-2.6c0.4,0,0.6,0.2,0.7,0.8
			c0,0.1,0,0.3,0,0.6l0,0.6l0,0.8c0.3-0.9,0.8-1.6,1.3-2.2c0.5-0.6,1-0.9,1.4-1c0.4,0,0.7,0.2,0.7,0.8c0,0.2,0,0.5,0,0.9l-0.1,2.5
			c0,0.5,0,0.9,0,1.2c0,0.2,0.1,0.3,0.2,0.3c0.1,0,0.3-0.2,0.5-0.4c0.2-0.3,0.4-0.6,0.5-0.9c0.1,0.1,0.2,0.1,0.2,0.2
			c0,0.3-0.2,0.7-0.6,1.2c-0.4,0.5-0.8,0.8-1.1,0.8c-0.4,0-0.6-0.2-0.6-0.7c0-0.3,0-0.8,0-1.5l0.1-1.6c0-0.1,0-0.2,0-0.4
			c0-0.1,0-0.2,0-0.4c0-0.2,0-0.3,0-0.4c0-0.4-0.2-0.6-0.4-0.5c-0.4,0-0.8,0.5-1.3,1.4c-0.5,0.9-0.7,1.7-0.7,2.5L139,105.8z"/>
		<path class="st8" d="M52.2,125.5c0.4-0.9,0.9-1.6,1.4-2.2c0.5-0.6,1-0.9,1.4-0.9c0.6,0,1,0.5,1.1,1.6c0.1,1.3-0.2,2.5-1,3.5
			c-0.7,1-1.7,1.6-2.9,1.7c-0.1,0-0.3,0-0.4,0l-0.5,0c0,0-0.1,0-0.2,0c0.1-0.3,0.1-0.7,0.1-1.1l0.2-5.8c0-1.4,0.4-2.6,1.2-3.7
			s1.7-1.6,2.7-1.7c0.2,0,0.4,0,0.6,0l-0.9,1c-0.3-0.1-0.5-0.1-0.7-0.1c-1.3,0.1-2,1.2-2,3.3L52.2,125.5z M52.2,128.2
			c0.4,0.2,0.8,0.3,1.2,0.2c0.6,0,1-0.4,1.4-1.2s0.4-1.7,0.3-2.8c-0.1-0.7-0.3-1-0.6-0.9c-0.4,0-0.8,0.4-1.3,1c-0.6,0.9-1,1.9-1,3
			L52.2,128.2z"/>
		<path class="st8" d="M61.1,126.2c0.1,0.1,0.2,0.2,0.2,0.3c0,0.1-0.1,0.4-0.4,0.7c-0.7,0.9-1.4,1.4-2.1,1.5c-0.4,0-0.8-0.1-1.1-0.5
			c-0.3-0.3-0.5-0.8-0.5-1.3c-0.1-1,0.2-2.1,0.9-3.2c0.7-1.1,1.4-1.7,2.1-1.7c0.5,0,0.8,0.2,0.9,0.8c0.1,0.7-0.2,1.3-0.8,2
			c-0.6,0.7-1.3,1.2-2.1,1.5c0.2,1.1,0.6,1.6,1.4,1.5C60.1,127.8,60.7,127.2,61.1,126.2z M58,125.5c0.1,0,0.2,0,0.3,0
			c0.5,0,1-0.2,1.4-0.6c0.4-0.4,0.5-0.8,0.5-1.2c0-0.5-0.3-0.8-0.8-0.7c-0.4,0-0.7,0.3-1,0.8C58.2,124.2,58,124.8,58,125.5z"/>
		<path class="st8" d="M66.2,121.7l-0.7,1c-0.4-0.1-0.7-0.2-1-0.1c-0.6,0-1,0.3-1.3,0.8c-0.3,0.5-0.4,1.2-0.3,2.1
			c0,0.6,0.2,1.1,0.5,1.4c0.3,0.3,0.6,0.5,1,0.5c0.6-0.1,1.1-0.5,1.4-1.4c0.1,0.1,0.2,0.2,0.2,0.3c0,0.4-0.2,0.8-0.7,1.3
			c-0.5,0.5-1,0.8-1.5,0.8c-0.5,0-0.8-0.1-1.2-0.5c-0.3-0.3-0.5-0.8-0.5-1.4c-0.1-1.1,0.2-2.2,0.9-3.2c0.7-1,1.5-1.5,2.4-1.6
			C65.7,121.6,66,121.6,66.2,121.7z"/>
		<path class="st8" d="M71.1,124.9c-0.4,0.9-0.9,1.6-1.4,2.2c-0.5,0.6-1,0.9-1.5,0.9c-0.6,0-0.9-0.4-1-1.4c-0.1-1.3,0.2-2.6,1-3.6
			s1.8-1.6,2.9-1.7c0.5,0,0.8,0,1.2,0.1c0,0.1,0,0.1,0,0.1l0,0.4c0,0.2,0,0.4-0.1,0.4l-0.2,3l0,0.4c0,0.4,0,0.7,0,0.9
			c0,0.2,0.1,0.3,0.2,0.3c0.4,0,0.7-0.5,1-1.3c0.1,0.1,0.2,0.1,0.2,0.2c0,0.2-0.1,0.5-0.5,1c-0.5,0.7-0.9,1-1.3,1.1
			c-0.3,0-0.5-0.2-0.5-0.6c0-0.1,0-0.3,0-0.6l0-0.5l0-0.6L71.1,124.9z M71.3,122.2c-0.4-0.2-0.8-0.3-1.2-0.2c-0.6,0-1.1,0.5-1.4,1.3
			c-0.3,0.8-0.5,1.7-0.4,2.9c0,0.6,0.2,0.9,0.6,0.8c0.4,0,0.8-0.4,1.3-1c0.7-0.9,1-1.9,1.1-3L71.3,122.2z"/>
		<path class="st8" d="M78.6,124.3c-0.4,0.8-0.9,1.5-1.5,2.1c-0.6,0.6-1.1,0.9-1.4,0.9c-0.4,0-0.7-0.2-0.7-0.8c0-0.2,0-0.6,0-1.1
			l0.1-2.2c0,0,0-0.2,0-0.4l0-0.4c0-0.1,0-0.2,0-0.3c0-0.3-0.1-0.4-0.2-0.4c-0.3,0-0.7,0.4-1,1.2c-0.1-0.1-0.1-0.1-0.1-0.2
			c0-0.3,0.2-0.7,0.6-1.2c0.4-0.5,0.8-0.8,1.1-0.8c0.4,0,0.6,0.2,0.6,0.7c0,0.1,0,0.3,0,0.4l0,0.5l0,0.6l0,1.9c0,0.3,0,0.7,0,1
			c0,0.3,0.1,0.5,0.4,0.4c0.5,0,1-0.5,1.6-1.4c0.5-0.9,0.8-1.7,0.9-2.5l0.1-1.6l1-0.5c-0.1,0.5-0.1,1-0.2,1.4l-0.2,2.8
			c0,0.2,0,0.3,0,0.4l0,0.4c0,0.2,0,0.4,0,0.5c0,0.2,0.1,0.3,0.2,0.3c0.4,0,0.7-0.5,1-1.3c0.1,0.1,0.2,0.1,0.2,0.2
			c0,0.2-0.2,0.5-0.5,1c-0.5,0.7-0.9,1-1.3,1.1c-0.3,0-0.5-0.2-0.5-0.6c0-0.1,0-0.3,0-0.6l0-0.5c0-0.3,0-0.5,0-0.6L78.6,124.3z"/>
		<path class="st8" d="M81.1,126.6l0.8-0.8c0.4,0.3,0.8,0.5,1.3,0.5c0.6,0,0.9-0.4,0.9-1c0-0.3-0.4-0.8-1-1.4l-0.4-0.4
			c-0.6-0.5-0.9-1-0.9-1.3c0-0.5,0.1-1,0.5-1.4c0.4-0.4,0.9-0.6,1.6-0.7c0.3,0,0.7,0,1.2,0.1l-0.7,0.8c-0.3-0.2-0.7-0.3-1.1-0.3
			c-0.5,0-0.7,0.3-0.7,0.7c0,0.3,0.3,0.7,0.9,1.2l0.4,0.4c0.6,0.6,1,1.1,1,1.5c0,0.6-0.2,1.1-0.7,1.5s-1.1,0.7-1.8,0.8
			C82,126.9,81.6,126.8,81.1,126.6z"/>
		<path class="st8" d="M90.1,123.9c0.1,0.1,0.2,0.2,0.2,0.3c0,0.1-0.1,0.4-0.4,0.7c-0.7,0.9-1.4,1.4-2.1,1.5c-0.4,0-0.8-0.1-1.1-0.5
			c-0.3-0.3-0.5-0.8-0.5-1.3c-0.1-1,0.2-2.1,0.9-3.2c0.7-1.1,1.4-1.7,2.1-1.7c0.5,0,0.8,0.2,0.9,0.8c0.1,0.7-0.2,1.3-0.8,2
			c-0.6,0.7-1.3,1.2-2.1,1.5c0.2,1.1,0.6,1.6,1.4,1.5C89.1,125.4,89.7,124.9,90.1,123.9z M87,123.2c0.1,0,0.2,0,0.3,0
			c0.5,0,1-0.2,1.4-0.6c0.4-0.4,0.5-0.8,0.5-1.2c0-0.5-0.3-0.8-0.8-0.7c-0.4,0-0.7,0.3-1,0.8C87.2,121.9,87,122.5,87,123.2z"/>
		<path class="st8" d="M96.4,125.7c-1,0.1-1.5-0.5-1.6-1.9c-0.1-1.1,0.2-2.1,0.9-3.2s1.4-1.6,2.2-1.7c1-0.1,1.5,0.5,1.6,1.9
			c0.1,1.1-0.2,2.1-0.9,3.2C97.9,125.1,97.2,125.7,96.4,125.7z M97.1,124.9c0.5,0,0.9-0.4,1.2-1c0.3-0.6,0.4-1.3,0.3-2.2
			c-0.1-1.4-0.6-2-1.4-2c-0.5,0-0.9,0.4-1.2,1c-0.3,0.6-0.4,1.3-0.3,2.2C95.8,124.3,96.2,125,97.1,124.9z"/>
		<path class="st8" d="M102.2,119.6l-0.1,5.4c0,1.2-0.1,2.2-0.3,2.8c-0.2,0.7-0.5,1.3-1,1.8c-0.7,0.8-1.6,1.3-2.6,1.3
			c-0.2,0-0.5,0-0.8-0.1l0.8-0.9c0.4,0.1,0.7,0.1,1,0.1c1.3-0.1,1.9-1.2,2-3.2l0-1.7l0.1-5.7l-1.2,0.1l0.7-0.8l0.5,0l0-0.4
			c0-1.7,0.4-3,1.1-3.9c0.7-1,1.6-1.5,2.9-1.6c0.2,0,0.5,0,0.8,0l-0.8,1c-0.3-0.1-0.7-0.1-1-0.1c-0.7,0.1-1.3,0.4-1.5,0.9
			c-0.3,0.6-0.4,1.6-0.4,3.1l0,1l2.6-0.2l-0.7,0.8L102.2,119.6z"/>
		<path class="st8" d="M110.3,120.8c0.8-1.9,1.7-3,2.6-3c0.2,0,0.5,0,0.7,0.1l-0.8,1.1c-0.1-0.1-0.3-0.1-0.5-0.1
			c-0.4,0-0.9,0.4-1.3,1.2c-0.4,0.8-0.7,1.6-0.7,2.4l0,1.6l-0.9,0.4l0-0.2l0-0.4l0-0.4l0.1-3.2l0-0.3c0-0.3,0-0.5,0-0.6
			c0-0.3-0.1-0.4-0.3-0.4c-0.3,0-0.7,0.4-0.9,1.2c-0.1-0.1-0.2-0.2-0.2-0.2c0-0.3,0.2-0.6,0.6-1.1c0.4-0.5,0.8-0.7,1.1-0.8
			c0.4,0,0.6,0.2,0.6,0.7c0,0.1,0,0.3,0,0.5l0,0.5l0,0.6L110.3,120.8z"/>
		<path class="st8" d="M117.5,121.7c0.1,0.1,0.2,0.2,0.2,0.3c0,0.1-0.1,0.4-0.4,0.7c-0.7,0.9-1.4,1.4-2.1,1.5
			c-0.4,0-0.8-0.1-1.1-0.5c-0.3-0.3-0.5-0.8-0.5-1.3c-0.1-1,0.2-2.1,0.9-3.2c0.7-1.1,1.4-1.7,2.1-1.7c0.5,0,0.8,0.2,0.9,0.8
			c0.1,0.7-0.2,1.3-0.8,2s-1.3,1.2-2.1,1.5c0.2,1.1,0.6,1.6,1.4,1.5C116.6,123.2,117.1,122.7,117.5,121.7z M114.5,121
			c0.1,0,0.2,0,0.3,0c0.5,0,1-0.2,1.4-0.6c0.4-0.4,0.5-0.8,0.5-1.2c0-0.5-0.3-0.8-0.8-0.7c-0.4,0-0.7,0.3-1,0.8
			C114.6,119.7,114.5,120.3,114.5,121z"/>
		<path class="st8" d="M122.5,120.8c-0.4,0.9-0.9,1.6-1.4,2.2c-0.5,0.6-1,0.9-1.5,0.9c-0.6,0-0.9-0.4-1-1.4c-0.1-1.3,0.2-2.6,1-3.6
			c0.8-1.1,1.8-1.6,2.9-1.7c0.4,0,0.8,0,1.2,0.1c0,0.1,0,0.1,0,0.1l0,0.4c0,0.2,0,0.4,0,0.4l-0.2,3l0,0.4c0,0.4,0,0.7,0,0.9
			c0,0.2,0.1,0.3,0.2,0.3c0.4,0,0.7-0.5,1-1.3c0.1,0.1,0.2,0.1,0.2,0.2c0,0.2-0.1,0.5-0.5,1c-0.5,0.7-0.9,1-1.3,1.1
			c-0.3,0-0.5-0.2-0.5-0.6c0-0.1,0-0.3,0-0.6l0-0.5l0-0.6L122.5,120.8z M122.7,118.1c-0.4-0.2-0.8-0.3-1.2-0.2
			c-0.6,0-1.1,0.5-1.4,1.3c-0.3,0.8-0.5,1.7-0.4,2.9c0,0.6,0.2,0.9,0.6,0.8c0.4,0,0.8-0.4,1.3-1c0.7-0.9,1-1.9,1.1-3L122.7,118.1z"
			/>
		<path class="st8" d="M125.1,123.1l0.8-0.8c0.4,0.3,0.8,0.5,1.3,0.5c0.6,0,0.9-0.4,0.9-1c0-0.3-0.4-0.8-1-1.4l-0.4-0.4
			c-0.6-0.5-0.9-1-0.9-1.3c0-0.5,0.1-1,0.5-1.3c0.4-0.4,0.9-0.6,1.6-0.7c0.3,0,0.7,0,1.2,0.1l-0.7,0.8c-0.3-0.2-0.7-0.3-1.1-0.3
			c-0.5,0-0.7,0.3-0.7,0.7c0,0.3,0.3,0.7,0.9,1.2l0.4,0.4c0.6,0.6,1,1.1,1,1.5c0,0.6-0.2,1.1-0.7,1.5c-0.5,0.5-1.1,0.7-1.8,0.8
			C126,123.4,125.5,123.3,125.1,123.1z"/>
		<path class="st8" d="M131.7,122.9c-1,0.1-1.5-0.5-1.6-1.9c-0.1-1.1,0.2-2.1,0.9-3.2c0.7-1,1.4-1.6,2.2-1.7c1-0.1,1.5,0.5,1.6,1.9
			c0.1,1.1-0.2,2.1-0.9,3.2C133.3,122.3,132.5,122.8,131.7,122.9z M132.4,122.1c0.5,0,0.9-0.4,1.2-1c0.3-0.6,0.4-1.3,0.3-2.2
			c-0.1-1.4-0.6-2-1.4-2c-0.5,0-0.9,0.4-1.2,1c-0.3,0.6-0.4,1.3-0.3,2.2C131.1,121.5,131.6,122.2,132.4,122.1z"/>
		<path class="st8" d="M137.7,122l-0.9,0.5l0-0.2l0-0.5l0-0.5l0.1-3.1l0-0.4c0-0.3,0-0.5,0-0.7c0-0.3-0.1-0.4-0.2-0.4
			c-0.3,0-0.6,0.4-1,1.2c-0.1-0.1-0.2-0.1-0.2-0.2c0-0.3,0.2-0.6,0.6-1.1c0.4-0.5,0.8-0.8,1.1-0.8c0.4,0,0.6,0.2,0.6,0.7
			c0,0.1,0,0.3,0,0.5l0,0.5l0,0.5l0,0.5c0.4-0.8,1-1.5,1.5-2.1c0.6-0.6,1.1-0.9,1.5-0.9c0.4,0,0.7,0.2,0.7,0.8c0,0.2,0,0.5,0,0.8
			l-0.2,2.5c0,0.5,0,0.9,0,1.2c0,0.2,0.1,0.3,0.2,0.3c0.3,0,0.6-0.5,1-1.3c0.1,0.1,0.2,0.1,0.2,0.2c0,0.3-0.2,0.7-0.6,1.2
			c-0.4,0.5-0.8,0.8-1.1,0.8c-0.3,0-0.5-0.2-0.6-0.7c0-0.4,0-0.9,0-1.5l0.1-1.6c0-0.5,0-0.9,0-1.3c0-0.4-0.2-0.5-0.4-0.5
			c-0.6,0-1.1,0.5-1.6,1.3c-0.5,0.8-0.8,1.7-0.8,2.6L137.7,122z"/>
		<path class="st8" d="M143,121.6l0.8-0.8c0.4,0.3,0.8,0.5,1.3,0.5c0.6,0,0.9-0.4,0.9-1c0-0.3-0.4-0.8-1-1.4l-0.4-0.4
			c-0.6-0.5-0.9-1-0.9-1.3c0-0.5,0.1-1,0.5-1.3c0.4-0.4,0.9-0.6,1.6-0.7c0.3,0,0.7,0,1.2,0.1l-0.7,0.8c-0.3-0.2-0.7-0.3-1.1-0.3
			c-0.5,0-0.7,0.3-0.7,0.7c0,0.3,0.3,0.7,0.9,1.2l0.4,0.4c0.6,0.6,1,1.1,1,1.5c0,0.6-0.2,1.1-0.7,1.5c-0.5,0.5-1.1,0.7-1.8,0.8
			C143.9,121.9,143.4,121.8,143,121.6z"/>
	</g>
</g>
</svg>
