<?xml version="1.0" encoding="utf-8"?>
<!-- Generator: Adobe Illustrator 20.0.0, SVG Export Plug-In . SVG Version: 6.00 Build 0)  -->
<svg version="1.1" id="Layer_1" xmlns="http://www.w3.org/2000/svg" xmlns:xlink="http://www.w3.org/1999/xlink" x="0px" y="0px"
	 viewBox="0 0 258.5 116.2" enable-background="new 0 0 258.5 116.2" xml:space="preserve">
<g>
	<g>
		<path fill="#C24671" d="M4.6,44.7C28.9,61.6,62,62.8,88.1,49.5c6.6-3.4,12.6-7.8,17.9-12.9c5.7-5.5,11.1-12.4,18.5-15.7
			c4.8-2.1,12.8-2.5,16.3,2.2c4,5.4-0.5,13.7-2.2,19.2c-1.8,5.9-3,12.4-0.2,18.2c2.9,6,9,9.3,15.4,9.6c16.8,1,25-14.7,31.9-27.4
			c7.7-14.2,19.5-31.9,38-30.5c19.5,1.4,23.7,24.5,22,40c-1.1,10.1-4,20.2-8.4,29.4c-3.7,7.7-9.1,19.2-18.1,21.7
			c-11.2,3.1-12.2-12.6-11-19.6c0.8-4.5,1.4-9.9,3.7-13.9c0.8-1.4,1.9-2.8,3.6-2.9c1.2-0.1,2.5,0.3,2.4,1.5c-0.4,6.4,9.6,6.4,10,0
			c0.5-7.6-7.3-12.3-14.2-11.3c-8.8,1.2-12.3,10.4-14,18c-2.1,9.5-3.9,19.9,1.2,28.8c4.2,7.4,12.5,11.5,20.9,9.1
			c8.9-2.5,15.2-10.5,19.7-18c5.2-8.6,9.1-18.1,11.6-27.9c4.7-18.8,5.5-42.6-10.2-56.7C228-2.8,207,1.8,193.5,14.5
			c-7.2,6.8-12.4,15.4-17,24c-4.1,7.6-8.3,18.2-17.2,21.1c-3.2,1-7.6,1.1-10.4-1.2c-3.1-2.6-2.6-6.8-1.7-10.3
			c1.9-7.7,5.9-15,4.6-23.2c-2.8-17.4-24.5-18.4-36.5-10.3c-8.7,5.8-14.8,14.6-23.3,20.7c-7.9,5.7-17,9.6-26.6,11.7
			c-19.2,4.2-39.7,0.4-55.9-10.9C4.4,32.4-0.7,41.1,4.6,44.7L4.6,44.7z"/>
	</g>
</g>
</svg>
